M48
; DRILL file {KiCad (5.1.4)-1} date 9/15/2019 10:00:32 PM
; FORMAT={-:-/ absolute / metric / decimal}
; #@! TF.CreationDate,2019-09-15T22:00:32-07:00
; #@! TF.GenerationSoftware,Kicad,Pcbnew,(5.1.4)-1
; #@! TF.FileFunction,Plated,1,2,PTH
FMAT,2
METRIC
T1C0.400
T2C0.750
T3C0.762
T4C0.800
%
G90
G05
T1
X17.78Y-25.4
X17.78Y-30.48
X17.78Y-33.02
X26.67Y-24.13
X26.67Y-27.305
X26.67Y-29.845
X27.305Y-26.035
X27.305Y-28.575
X28.575Y-26.035
X28.575Y-28.575
X37.465Y-52.07
X38.1Y-33.02
X38.1Y-38.1
X39.37Y-33.02
X39.37Y-38.1
X39.37Y-43.18
X39.37Y-48.26
X41.91Y-27.94
X42.545Y-38.1
X42.545Y-52.07
X44.435Y-34.305
X44.45Y-33.02
X45.085Y-50.8
X51.435Y-29.21
X52.705Y-29.21
T2
X29.464Y-39.37
X31.464Y-39.37
X30.226Y-46.895
X30.226Y-48.895
X29.464Y-33.782
X31.464Y-33.782
T3
X31.36Y-8.636
X31.369Y-6.096
X31.369Y-16.764
X31.369Y-19.304
X49.902Y-8.636
X49.911Y-6.096
X49.911Y-16.764
X49.911Y-19.304
T4
X5.715Y-13.97
X5.715Y-16.51
X5.715Y-19.05
X5.715Y-21.59
X5.715Y-24.13
X5.715Y-26.67
X5.715Y-29.21
X5.715Y-31.75
X5.715Y-34.29
X5.715Y-36.83
X5.715Y-39.37
X5.715Y-41.91
X5.715Y-44.45
X5.715Y-46.99
X5.715Y-49.53
X20.955Y-13.97
X20.955Y-16.51
X20.955Y-19.05
X20.955Y-21.59
X20.955Y-24.13
X20.955Y-26.67
X20.955Y-29.21
X20.955Y-31.75
X20.955Y-34.29
X20.955Y-36.83
X20.955Y-39.37
X20.955Y-41.91
X20.955Y-44.45
X20.955Y-46.99
X20.955Y-49.53
T4
G00X43.65Y-30.56
M15
G01X43.65Y-27.86
M16
G05
G00X47.25Y-24.41
M15
G01X45.05Y-24.41
M16
G05
G00X49.65Y-30.31
M15
G01X49.65Y-28.11
M16
G05
T0
M30
