G04 #@! TF.GenerationSoftware,KiCad,Pcbnew,(5.1.4)-1*
G04 #@! TF.CreationDate,2019-09-15T22:00:30-07:00*
G04 #@! TF.ProjectId,vacuum_pickup_tool,76616375-756d-45f7-9069-636b75705f74,rev?*
G04 #@! TF.SameCoordinates,Original*
G04 #@! TF.FileFunction,Soldermask,Bot*
G04 #@! TF.FilePolarity,Negative*
%FSLAX46Y46*%
G04 Gerber Fmt 4.6, Leading zero omitted, Abs format (unit mm)*
G04 Created by KiCad (PCBNEW (5.1.4)-1) date 2019-09-15 22:00:30*
%MOMM*%
%LPD*%
G04 APERTURE LIST*
%ADD10C,0.100000*%
G04 APERTURE END LIST*
D10*
G36*
X51175256Y-49191298D02*
G01*
X51281579Y-49212447D01*
X51582042Y-49336903D01*
X51852451Y-49517585D01*
X52082415Y-49747549D01*
X52263097Y-50017958D01*
X52387553Y-50318421D01*
X52451000Y-50637391D01*
X52451000Y-50962609D01*
X52387553Y-51281579D01*
X52263097Y-51582042D01*
X52082415Y-51852451D01*
X51852451Y-52082415D01*
X51582042Y-52263097D01*
X51281579Y-52387553D01*
X51175256Y-52408702D01*
X50962611Y-52451000D01*
X50637389Y-52451000D01*
X50424744Y-52408702D01*
X50318421Y-52387553D01*
X50017958Y-52263097D01*
X49747549Y-52082415D01*
X49517585Y-51852451D01*
X49336903Y-51582042D01*
X49212447Y-51281579D01*
X49149000Y-50962609D01*
X49149000Y-50637391D01*
X49212447Y-50318421D01*
X49336903Y-50017958D01*
X49517585Y-49747549D01*
X49747549Y-49517585D01*
X50017958Y-49336903D01*
X50318421Y-49212447D01*
X50424744Y-49191298D01*
X50637389Y-49149000D01*
X50962611Y-49149000D01*
X51175256Y-49191298D01*
X51175256Y-49191298D01*
G37*
G36*
X375256Y-49191298D02*
G01*
X481579Y-49212447D01*
X782042Y-49336903D01*
X1052451Y-49517585D01*
X1282415Y-49747549D01*
X1463097Y-50017958D01*
X1587553Y-50318421D01*
X1651000Y-50637391D01*
X1651000Y-50962609D01*
X1587553Y-51281579D01*
X1463097Y-51582042D01*
X1282415Y-51852451D01*
X1052451Y-52082415D01*
X782042Y-52263097D01*
X481579Y-52387553D01*
X375256Y-52408702D01*
X162611Y-52451000D01*
X-162611Y-52451000D01*
X-375256Y-52408702D01*
X-481579Y-52387553D01*
X-782042Y-52263097D01*
X-1052451Y-52082415D01*
X-1282415Y-51852451D01*
X-1463097Y-51582042D01*
X-1587553Y-51281579D01*
X-1651000Y-50962609D01*
X-1651000Y-50637391D01*
X-1587553Y-50318421D01*
X-1463097Y-50017958D01*
X-1282415Y-49747549D01*
X-1052451Y-49517585D01*
X-782042Y-49336903D01*
X-481579Y-49212447D01*
X-375256Y-49191298D01*
X-162611Y-49149000D01*
X162611Y-49149000D01*
X375256Y-49191298D01*
X375256Y-49191298D01*
G37*
G36*
X5881823Y-48691313D02*
G01*
X6042242Y-48739976D01*
X6174906Y-48810886D01*
X6190078Y-48818996D01*
X6319659Y-48925341D01*
X6426004Y-49054922D01*
X6426005Y-49054924D01*
X6505024Y-49202758D01*
X6553687Y-49363177D01*
X6570117Y-49530000D01*
X6553687Y-49696823D01*
X6505024Y-49857242D01*
X6434114Y-49989906D01*
X6426004Y-50005078D01*
X6319659Y-50134659D01*
X6190078Y-50241004D01*
X6190076Y-50241005D01*
X6042242Y-50320024D01*
X5881823Y-50368687D01*
X5756804Y-50381000D01*
X5673196Y-50381000D01*
X5548177Y-50368687D01*
X5387758Y-50320024D01*
X5239924Y-50241005D01*
X5239922Y-50241004D01*
X5110341Y-50134659D01*
X5003996Y-50005078D01*
X4995886Y-49989906D01*
X4924976Y-49857242D01*
X4876313Y-49696823D01*
X4859883Y-49530000D01*
X4876313Y-49363177D01*
X4924976Y-49202758D01*
X5003995Y-49054924D01*
X5003996Y-49054922D01*
X5110341Y-48925341D01*
X5239922Y-48818996D01*
X5255094Y-48810886D01*
X5387758Y-48739976D01*
X5548177Y-48691313D01*
X5673196Y-48679000D01*
X5756804Y-48679000D01*
X5881823Y-48691313D01*
X5881823Y-48691313D01*
G37*
G36*
X21121823Y-48691313D02*
G01*
X21282242Y-48739976D01*
X21414906Y-48810886D01*
X21430078Y-48818996D01*
X21559659Y-48925341D01*
X21666004Y-49054922D01*
X21666005Y-49054924D01*
X21745024Y-49202758D01*
X21793687Y-49363177D01*
X21810117Y-49530000D01*
X21793687Y-49696823D01*
X21745024Y-49857242D01*
X21674114Y-49989906D01*
X21666004Y-50005078D01*
X21559659Y-50134659D01*
X21430078Y-50241004D01*
X21430076Y-50241005D01*
X21282242Y-50320024D01*
X21121823Y-50368687D01*
X20996804Y-50381000D01*
X20913196Y-50381000D01*
X20788177Y-50368687D01*
X20627758Y-50320024D01*
X20479924Y-50241005D01*
X20479922Y-50241004D01*
X20350341Y-50134659D01*
X20243996Y-50005078D01*
X20235886Y-49989906D01*
X20164976Y-49857242D01*
X20116313Y-49696823D01*
X20099883Y-49530000D01*
X20116313Y-49363177D01*
X20164976Y-49202758D01*
X20243995Y-49054924D01*
X20243996Y-49054922D01*
X20350341Y-48925341D01*
X20479922Y-48818996D01*
X20495094Y-48810886D01*
X20627758Y-48739976D01*
X20788177Y-48691313D01*
X20913196Y-48679000D01*
X20996804Y-48679000D01*
X21121823Y-48691313D01*
X21121823Y-48691313D01*
G37*
G36*
X30564855Y-48247140D02*
G01*
X30628618Y-48253420D01*
X30719404Y-48280960D01*
X30751336Y-48290646D01*
X30864425Y-48351094D01*
X30963554Y-48432446D01*
X31044906Y-48531575D01*
X31105354Y-48644664D01*
X31105355Y-48644668D01*
X31142580Y-48767382D01*
X31155149Y-48895000D01*
X31142580Y-49022618D01*
X31132780Y-49054924D01*
X31105354Y-49145336D01*
X31044906Y-49258425D01*
X30963554Y-49357554D01*
X30864425Y-49438906D01*
X30751336Y-49499354D01*
X30719404Y-49509040D01*
X30628618Y-49536580D01*
X30564855Y-49542860D01*
X30532974Y-49546000D01*
X29919026Y-49546000D01*
X29887145Y-49542860D01*
X29823382Y-49536580D01*
X29732596Y-49509040D01*
X29700664Y-49499354D01*
X29587575Y-49438906D01*
X29488446Y-49357554D01*
X29407094Y-49258425D01*
X29346646Y-49145336D01*
X29319220Y-49054924D01*
X29309420Y-49022618D01*
X29296851Y-48895000D01*
X29309420Y-48767382D01*
X29346645Y-48644668D01*
X29346646Y-48644664D01*
X29407094Y-48531575D01*
X29488446Y-48432446D01*
X29587575Y-48351094D01*
X29700664Y-48290646D01*
X29732596Y-48280960D01*
X29823382Y-48253420D01*
X29887145Y-48247140D01*
X29919026Y-48244000D01*
X30532974Y-48244000D01*
X30564855Y-48247140D01*
X30564855Y-48247140D01*
G37*
G36*
X21121823Y-46151313D02*
G01*
X21282242Y-46199976D01*
X21364605Y-46244000D01*
X21430078Y-46278996D01*
X21559659Y-46385341D01*
X21666004Y-46514922D01*
X21666005Y-46514924D01*
X21745024Y-46662758D01*
X21793687Y-46823177D01*
X21810117Y-46990000D01*
X21793687Y-47156823D01*
X21745024Y-47317242D01*
X21688315Y-47423337D01*
X21666004Y-47465078D01*
X21559659Y-47594659D01*
X21430078Y-47701004D01*
X21430076Y-47701005D01*
X21282242Y-47780024D01*
X21121823Y-47828687D01*
X20996804Y-47841000D01*
X20913196Y-47841000D01*
X20788177Y-47828687D01*
X20627758Y-47780024D01*
X20479924Y-47701005D01*
X20479922Y-47701004D01*
X20350341Y-47594659D01*
X20243996Y-47465078D01*
X20221685Y-47423337D01*
X20164976Y-47317242D01*
X20116313Y-47156823D01*
X20099883Y-46990000D01*
X20116313Y-46823177D01*
X20164976Y-46662758D01*
X20243995Y-46514924D01*
X20243996Y-46514922D01*
X20350341Y-46385341D01*
X20479922Y-46278996D01*
X20545395Y-46244000D01*
X20627758Y-46199976D01*
X20788177Y-46151313D01*
X20913196Y-46139000D01*
X20996804Y-46139000D01*
X21121823Y-46151313D01*
X21121823Y-46151313D01*
G37*
G36*
X5881823Y-46151313D02*
G01*
X6042242Y-46199976D01*
X6124605Y-46244000D01*
X6190078Y-46278996D01*
X6319659Y-46385341D01*
X6426004Y-46514922D01*
X6426005Y-46514924D01*
X6505024Y-46662758D01*
X6553687Y-46823177D01*
X6570117Y-46990000D01*
X6553687Y-47156823D01*
X6505024Y-47317242D01*
X6448315Y-47423337D01*
X6426004Y-47465078D01*
X6319659Y-47594659D01*
X6190078Y-47701004D01*
X6190076Y-47701005D01*
X6042242Y-47780024D01*
X5881823Y-47828687D01*
X5756804Y-47841000D01*
X5673196Y-47841000D01*
X5548177Y-47828687D01*
X5387758Y-47780024D01*
X5239924Y-47701005D01*
X5239922Y-47701004D01*
X5110341Y-47594659D01*
X5003996Y-47465078D01*
X4981685Y-47423337D01*
X4924976Y-47317242D01*
X4876313Y-47156823D01*
X4859883Y-46990000D01*
X4876313Y-46823177D01*
X4924976Y-46662758D01*
X5003995Y-46514924D01*
X5003996Y-46514922D01*
X5110341Y-46385341D01*
X5239922Y-46278996D01*
X5305395Y-46244000D01*
X5387758Y-46199976D01*
X5548177Y-46151313D01*
X5673196Y-46139000D01*
X5756804Y-46139000D01*
X5881823Y-46151313D01*
X5881823Y-46151313D01*
G37*
G36*
X30992242Y-46248404D02*
G01*
X31029337Y-46259657D01*
X31063515Y-46277925D01*
X31093481Y-46302519D01*
X31118075Y-46332485D01*
X31136343Y-46366663D01*
X31147596Y-46403758D01*
X31152000Y-46448474D01*
X31152000Y-47341526D01*
X31147596Y-47386242D01*
X31136343Y-47423337D01*
X31118075Y-47457515D01*
X31093481Y-47487481D01*
X31063515Y-47512075D01*
X31029337Y-47530343D01*
X30992242Y-47541596D01*
X30947526Y-47546000D01*
X29504474Y-47546000D01*
X29459758Y-47541596D01*
X29422663Y-47530343D01*
X29388485Y-47512075D01*
X29358519Y-47487481D01*
X29333925Y-47457515D01*
X29315657Y-47423337D01*
X29304404Y-47386242D01*
X29300000Y-47341526D01*
X29300000Y-46448474D01*
X29304404Y-46403758D01*
X29315657Y-46366663D01*
X29333925Y-46332485D01*
X29358519Y-46302519D01*
X29388485Y-46277925D01*
X29422663Y-46259657D01*
X29459758Y-46248404D01*
X29504474Y-46244000D01*
X30947526Y-46244000D01*
X30992242Y-46248404D01*
X30992242Y-46248404D01*
G37*
G36*
X5881823Y-43611313D02*
G01*
X6042242Y-43659976D01*
X6174906Y-43730886D01*
X6190078Y-43738996D01*
X6319659Y-43845341D01*
X6426004Y-43974922D01*
X6426005Y-43974924D01*
X6505024Y-44122758D01*
X6553687Y-44283177D01*
X6570117Y-44450000D01*
X6553687Y-44616823D01*
X6505024Y-44777242D01*
X6434114Y-44909906D01*
X6426004Y-44925078D01*
X6319659Y-45054659D01*
X6190078Y-45161004D01*
X6190076Y-45161005D01*
X6042242Y-45240024D01*
X5881823Y-45288687D01*
X5756804Y-45301000D01*
X5673196Y-45301000D01*
X5548177Y-45288687D01*
X5387758Y-45240024D01*
X5239924Y-45161005D01*
X5239922Y-45161004D01*
X5110341Y-45054659D01*
X5003996Y-44925078D01*
X4995886Y-44909906D01*
X4924976Y-44777242D01*
X4876313Y-44616823D01*
X4859883Y-44450000D01*
X4876313Y-44283177D01*
X4924976Y-44122758D01*
X5003995Y-43974924D01*
X5003996Y-43974922D01*
X5110341Y-43845341D01*
X5239922Y-43738996D01*
X5255094Y-43730886D01*
X5387758Y-43659976D01*
X5548177Y-43611313D01*
X5673196Y-43599000D01*
X5756804Y-43599000D01*
X5881823Y-43611313D01*
X5881823Y-43611313D01*
G37*
G36*
X21121823Y-43611313D02*
G01*
X21282242Y-43659976D01*
X21414906Y-43730886D01*
X21430078Y-43738996D01*
X21559659Y-43845341D01*
X21666004Y-43974922D01*
X21666005Y-43974924D01*
X21745024Y-44122758D01*
X21793687Y-44283177D01*
X21810117Y-44450000D01*
X21793687Y-44616823D01*
X21745024Y-44777242D01*
X21674114Y-44909906D01*
X21666004Y-44925078D01*
X21559659Y-45054659D01*
X21430078Y-45161004D01*
X21430076Y-45161005D01*
X21282242Y-45240024D01*
X21121823Y-45288687D01*
X20996804Y-45301000D01*
X20913196Y-45301000D01*
X20788177Y-45288687D01*
X20627758Y-45240024D01*
X20479924Y-45161005D01*
X20479922Y-45161004D01*
X20350341Y-45054659D01*
X20243996Y-44925078D01*
X20235886Y-44909906D01*
X20164976Y-44777242D01*
X20116313Y-44616823D01*
X20099883Y-44450000D01*
X20116313Y-44283177D01*
X20164976Y-44122758D01*
X20243995Y-43974924D01*
X20243996Y-43974922D01*
X20350341Y-43845341D01*
X20479922Y-43738996D01*
X20495094Y-43730886D01*
X20627758Y-43659976D01*
X20788177Y-43611313D01*
X20913196Y-43599000D01*
X20996804Y-43599000D01*
X21121823Y-43611313D01*
X21121823Y-43611313D01*
G37*
G36*
X5881823Y-41071313D02*
G01*
X6042242Y-41119976D01*
X6174906Y-41190886D01*
X6190078Y-41198996D01*
X6319659Y-41305341D01*
X6426004Y-41434922D01*
X6426005Y-41434924D01*
X6505024Y-41582758D01*
X6553687Y-41743177D01*
X6570117Y-41910000D01*
X6553687Y-42076823D01*
X6505024Y-42237242D01*
X6434114Y-42369906D01*
X6426004Y-42385078D01*
X6319659Y-42514659D01*
X6190078Y-42621004D01*
X6190076Y-42621005D01*
X6042242Y-42700024D01*
X5881823Y-42748687D01*
X5756804Y-42761000D01*
X5673196Y-42761000D01*
X5548177Y-42748687D01*
X5387758Y-42700024D01*
X5239924Y-42621005D01*
X5239922Y-42621004D01*
X5110341Y-42514659D01*
X5003996Y-42385078D01*
X4995886Y-42369906D01*
X4924976Y-42237242D01*
X4876313Y-42076823D01*
X4859883Y-41910000D01*
X4876313Y-41743177D01*
X4924976Y-41582758D01*
X5003995Y-41434924D01*
X5003996Y-41434922D01*
X5110341Y-41305341D01*
X5239922Y-41198996D01*
X5255094Y-41190886D01*
X5387758Y-41119976D01*
X5548177Y-41071313D01*
X5673196Y-41059000D01*
X5756804Y-41059000D01*
X5881823Y-41071313D01*
X5881823Y-41071313D01*
G37*
G36*
X21121823Y-41071313D02*
G01*
X21282242Y-41119976D01*
X21414906Y-41190886D01*
X21430078Y-41198996D01*
X21559659Y-41305341D01*
X21666004Y-41434922D01*
X21666005Y-41434924D01*
X21745024Y-41582758D01*
X21793687Y-41743177D01*
X21810117Y-41910000D01*
X21793687Y-42076823D01*
X21745024Y-42237242D01*
X21674114Y-42369906D01*
X21666004Y-42385078D01*
X21559659Y-42514659D01*
X21430078Y-42621004D01*
X21430076Y-42621005D01*
X21282242Y-42700024D01*
X21121823Y-42748687D01*
X20996804Y-42761000D01*
X20913196Y-42761000D01*
X20788177Y-42748687D01*
X20627758Y-42700024D01*
X20479924Y-42621005D01*
X20479922Y-42621004D01*
X20350341Y-42514659D01*
X20243996Y-42385078D01*
X20235886Y-42369906D01*
X20164976Y-42237242D01*
X20116313Y-42076823D01*
X20099883Y-41910000D01*
X20116313Y-41743177D01*
X20164976Y-41582758D01*
X20243995Y-41434924D01*
X20243996Y-41434922D01*
X20350341Y-41305341D01*
X20479922Y-41198996D01*
X20495094Y-41190886D01*
X20627758Y-41119976D01*
X20788177Y-41071313D01*
X20913196Y-41059000D01*
X20996804Y-41059000D01*
X21121823Y-41071313D01*
X21121823Y-41071313D01*
G37*
G36*
X45624890Y-40014017D02*
G01*
X45743364Y-40063091D01*
X45849988Y-40134335D01*
X45940665Y-40225012D01*
X46011909Y-40331636D01*
X46060983Y-40450110D01*
X46086000Y-40575882D01*
X46086000Y-40704118D01*
X46060983Y-40829890D01*
X46011909Y-40948364D01*
X45940665Y-41054988D01*
X45849988Y-41145665D01*
X45743364Y-41216909D01*
X45743363Y-41216910D01*
X45743362Y-41216910D01*
X45624890Y-41265983D01*
X45499119Y-41291000D01*
X45370881Y-41291000D01*
X45245110Y-41265983D01*
X45126638Y-41216910D01*
X45126637Y-41216910D01*
X45126636Y-41216909D01*
X45020012Y-41145665D01*
X44929335Y-41054988D01*
X44858091Y-40948364D01*
X44809017Y-40829890D01*
X44784000Y-40704118D01*
X44784000Y-40575882D01*
X44809017Y-40450110D01*
X44858091Y-40331636D01*
X44929335Y-40225012D01*
X45020012Y-40134335D01*
X45126636Y-40063091D01*
X45245110Y-40014017D01*
X45370881Y-39989000D01*
X45499119Y-39989000D01*
X45624890Y-40014017D01*
X45624890Y-40014017D01*
G37*
G36*
X51624890Y-40014017D02*
G01*
X51743364Y-40063091D01*
X51849988Y-40134335D01*
X51940665Y-40225012D01*
X52011909Y-40331636D01*
X52060983Y-40450110D01*
X52086000Y-40575882D01*
X52086000Y-40704118D01*
X52060983Y-40829890D01*
X52011909Y-40948364D01*
X51940665Y-41054988D01*
X51849988Y-41145665D01*
X51743364Y-41216909D01*
X51743363Y-41216910D01*
X51743362Y-41216910D01*
X51624890Y-41265983D01*
X51499119Y-41291000D01*
X51370881Y-41291000D01*
X51245110Y-41265983D01*
X51126638Y-41216910D01*
X51126637Y-41216910D01*
X51126636Y-41216909D01*
X51020012Y-41145665D01*
X50929335Y-41054988D01*
X50858091Y-40948364D01*
X50809017Y-40829890D01*
X50784000Y-40704118D01*
X50784000Y-40575882D01*
X50809017Y-40450110D01*
X50858091Y-40331636D01*
X50929335Y-40225012D01*
X51020012Y-40134335D01*
X51126636Y-40063091D01*
X51245110Y-40014017D01*
X51370881Y-39989000D01*
X51499119Y-39989000D01*
X51624890Y-40014017D01*
X51624890Y-40014017D01*
G37*
G36*
X31591617Y-38453420D02*
G01*
X31672399Y-38477925D01*
X31714335Y-38490646D01*
X31827424Y-38551094D01*
X31926554Y-38632447D01*
X32007906Y-38731575D01*
X32068354Y-38844664D01*
X32078040Y-38876596D01*
X32105580Y-38967382D01*
X32115000Y-39063027D01*
X32115000Y-39676973D01*
X32105580Y-39772618D01*
X32083600Y-39845076D01*
X32068354Y-39895336D01*
X32007906Y-40008425D01*
X31926554Y-40107554D01*
X31827425Y-40188906D01*
X31714336Y-40249354D01*
X31682404Y-40259040D01*
X31591618Y-40286580D01*
X31464000Y-40299149D01*
X31336383Y-40286580D01*
X31245597Y-40259040D01*
X31213665Y-40249354D01*
X31100576Y-40188906D01*
X31001447Y-40107554D01*
X30920096Y-40008427D01*
X30920095Y-40008425D01*
X30859647Y-39895336D01*
X30859645Y-39895333D01*
X30844400Y-39845076D01*
X30822420Y-39772618D01*
X30813000Y-39676973D01*
X30813000Y-39063028D01*
X30822420Y-38967383D01*
X30859645Y-38844669D01*
X30859646Y-38844665D01*
X30920094Y-38731576D01*
X31001447Y-38632446D01*
X31100575Y-38551094D01*
X31213664Y-38490646D01*
X31255600Y-38477925D01*
X31336382Y-38453420D01*
X31464000Y-38440851D01*
X31591617Y-38453420D01*
X31591617Y-38453420D01*
G37*
G36*
X29955242Y-38448404D02*
G01*
X29992337Y-38459657D01*
X30026515Y-38477925D01*
X30056481Y-38502519D01*
X30081075Y-38532485D01*
X30099343Y-38566663D01*
X30110596Y-38603758D01*
X30115000Y-38648474D01*
X30115000Y-40091526D01*
X30110596Y-40136242D01*
X30099343Y-40173337D01*
X30081075Y-40207515D01*
X30056481Y-40237481D01*
X30026515Y-40262075D01*
X29992337Y-40280343D01*
X29955242Y-40291596D01*
X29910526Y-40296000D01*
X29017474Y-40296000D01*
X28972758Y-40291596D01*
X28935663Y-40280343D01*
X28901485Y-40262075D01*
X28871519Y-40237481D01*
X28846925Y-40207515D01*
X28828657Y-40173337D01*
X28817404Y-40136242D01*
X28813000Y-40091526D01*
X28813000Y-38648474D01*
X28817404Y-38603758D01*
X28828657Y-38566663D01*
X28846925Y-38532485D01*
X28871519Y-38502519D01*
X28901485Y-38477925D01*
X28935663Y-38459657D01*
X28972758Y-38448404D01*
X29017474Y-38444000D01*
X29910526Y-38444000D01*
X29955242Y-38448404D01*
X29955242Y-38448404D01*
G37*
G36*
X21121823Y-38531313D02*
G01*
X21282242Y-38579976D01*
X21380406Y-38632446D01*
X21430078Y-38658996D01*
X21559659Y-38765341D01*
X21666004Y-38894922D01*
X21666005Y-38894924D01*
X21745024Y-39042758D01*
X21793687Y-39203177D01*
X21810117Y-39370000D01*
X21793687Y-39536823D01*
X21745024Y-39697242D01*
X21674114Y-39829906D01*
X21666004Y-39845078D01*
X21559659Y-39974659D01*
X21430078Y-40081004D01*
X21430076Y-40081005D01*
X21282242Y-40160024D01*
X21121823Y-40208687D01*
X20996804Y-40221000D01*
X20913196Y-40221000D01*
X20788177Y-40208687D01*
X20627758Y-40160024D01*
X20479924Y-40081005D01*
X20479922Y-40081004D01*
X20350341Y-39974659D01*
X20243996Y-39845078D01*
X20235886Y-39829906D01*
X20164976Y-39697242D01*
X20116313Y-39536823D01*
X20099883Y-39370000D01*
X20116313Y-39203177D01*
X20164976Y-39042758D01*
X20243995Y-38894924D01*
X20243996Y-38894922D01*
X20350341Y-38765341D01*
X20479922Y-38658996D01*
X20529594Y-38632446D01*
X20627758Y-38579976D01*
X20788177Y-38531313D01*
X20913196Y-38519000D01*
X20996804Y-38519000D01*
X21121823Y-38531313D01*
X21121823Y-38531313D01*
G37*
G36*
X5881823Y-38531313D02*
G01*
X6042242Y-38579976D01*
X6140406Y-38632446D01*
X6190078Y-38658996D01*
X6319659Y-38765341D01*
X6426004Y-38894922D01*
X6426005Y-38894924D01*
X6505024Y-39042758D01*
X6553687Y-39203177D01*
X6570117Y-39370000D01*
X6553687Y-39536823D01*
X6505024Y-39697242D01*
X6434114Y-39829906D01*
X6426004Y-39845078D01*
X6319659Y-39974659D01*
X6190078Y-40081004D01*
X6190076Y-40081005D01*
X6042242Y-40160024D01*
X5881823Y-40208687D01*
X5756804Y-40221000D01*
X5673196Y-40221000D01*
X5548177Y-40208687D01*
X5387758Y-40160024D01*
X5239924Y-40081005D01*
X5239922Y-40081004D01*
X5110341Y-39974659D01*
X5003996Y-39845078D01*
X4995886Y-39829906D01*
X4924976Y-39697242D01*
X4876313Y-39536823D01*
X4859883Y-39370000D01*
X4876313Y-39203177D01*
X4924976Y-39042758D01*
X5003995Y-38894924D01*
X5003996Y-38894922D01*
X5110341Y-38765341D01*
X5239922Y-38658996D01*
X5289594Y-38632446D01*
X5387758Y-38579976D01*
X5548177Y-38531313D01*
X5673196Y-38519000D01*
X5756804Y-38519000D01*
X5881823Y-38531313D01*
X5881823Y-38531313D01*
G37*
G36*
X5881823Y-35991313D02*
G01*
X6042242Y-36039976D01*
X6174906Y-36110886D01*
X6190078Y-36118996D01*
X6319659Y-36225341D01*
X6426004Y-36354922D01*
X6426005Y-36354924D01*
X6505024Y-36502758D01*
X6553687Y-36663177D01*
X6570117Y-36830000D01*
X6553687Y-36996823D01*
X6505024Y-37157242D01*
X6434114Y-37289906D01*
X6426004Y-37305078D01*
X6319659Y-37434659D01*
X6190078Y-37541004D01*
X6190076Y-37541005D01*
X6042242Y-37620024D01*
X5881823Y-37668687D01*
X5756804Y-37681000D01*
X5673196Y-37681000D01*
X5548177Y-37668687D01*
X5387758Y-37620024D01*
X5239924Y-37541005D01*
X5239922Y-37541004D01*
X5110341Y-37434659D01*
X5003996Y-37305078D01*
X4995886Y-37289906D01*
X4924976Y-37157242D01*
X4876313Y-36996823D01*
X4859883Y-36830000D01*
X4876313Y-36663177D01*
X4924976Y-36502758D01*
X5003995Y-36354924D01*
X5003996Y-36354922D01*
X5110341Y-36225341D01*
X5239922Y-36118996D01*
X5255094Y-36110886D01*
X5387758Y-36039976D01*
X5548177Y-35991313D01*
X5673196Y-35979000D01*
X5756804Y-35979000D01*
X5881823Y-35991313D01*
X5881823Y-35991313D01*
G37*
G36*
X21121823Y-35991313D02*
G01*
X21282242Y-36039976D01*
X21414906Y-36110886D01*
X21430078Y-36118996D01*
X21559659Y-36225341D01*
X21666004Y-36354922D01*
X21666005Y-36354924D01*
X21745024Y-36502758D01*
X21793687Y-36663177D01*
X21810117Y-36830000D01*
X21793687Y-36996823D01*
X21745024Y-37157242D01*
X21674114Y-37289906D01*
X21666004Y-37305078D01*
X21559659Y-37434659D01*
X21430078Y-37541004D01*
X21430076Y-37541005D01*
X21282242Y-37620024D01*
X21121823Y-37668687D01*
X20996804Y-37681000D01*
X20913196Y-37681000D01*
X20788177Y-37668687D01*
X20627758Y-37620024D01*
X20479924Y-37541005D01*
X20479922Y-37541004D01*
X20350341Y-37434659D01*
X20243996Y-37305078D01*
X20235886Y-37289906D01*
X20164976Y-37157242D01*
X20116313Y-36996823D01*
X20099883Y-36830000D01*
X20116313Y-36663177D01*
X20164976Y-36502758D01*
X20243995Y-36354924D01*
X20243996Y-36354922D01*
X20350341Y-36225341D01*
X20479922Y-36118996D01*
X20495094Y-36110886D01*
X20627758Y-36039976D01*
X20788177Y-35991313D01*
X20913196Y-35979000D01*
X20996804Y-35979000D01*
X21121823Y-35991313D01*
X21121823Y-35991313D01*
G37*
G36*
X21121823Y-33451313D02*
G01*
X21282242Y-33499976D01*
X21414906Y-33570886D01*
X21430078Y-33578996D01*
X21559659Y-33685341D01*
X21666004Y-33814922D01*
X21666005Y-33814924D01*
X21745024Y-33962758D01*
X21793687Y-34123177D01*
X21810117Y-34290000D01*
X21793687Y-34456823D01*
X21745024Y-34617242D01*
X21674114Y-34749906D01*
X21666004Y-34765078D01*
X21559659Y-34894659D01*
X21430078Y-35001004D01*
X21430076Y-35001005D01*
X21282242Y-35080024D01*
X21121823Y-35128687D01*
X20996804Y-35141000D01*
X20913196Y-35141000D01*
X20788177Y-35128687D01*
X20627758Y-35080024D01*
X20479924Y-35001005D01*
X20479922Y-35001004D01*
X20350341Y-34894659D01*
X20243996Y-34765078D01*
X20235886Y-34749906D01*
X20164976Y-34617242D01*
X20116313Y-34456823D01*
X20099883Y-34290000D01*
X20116313Y-34123177D01*
X20164976Y-33962758D01*
X20243995Y-33814924D01*
X20243996Y-33814922D01*
X20350341Y-33685341D01*
X20479922Y-33578996D01*
X20495094Y-33570886D01*
X20627758Y-33499976D01*
X20788177Y-33451313D01*
X20913196Y-33439000D01*
X20996804Y-33439000D01*
X21121823Y-33451313D01*
X21121823Y-33451313D01*
G37*
G36*
X5881823Y-33451313D02*
G01*
X6042242Y-33499976D01*
X6174906Y-33570886D01*
X6190078Y-33578996D01*
X6319659Y-33685341D01*
X6426004Y-33814922D01*
X6426005Y-33814924D01*
X6505024Y-33962758D01*
X6553687Y-34123177D01*
X6570117Y-34290000D01*
X6553687Y-34456823D01*
X6505024Y-34617242D01*
X6434114Y-34749906D01*
X6426004Y-34765078D01*
X6319659Y-34894659D01*
X6190078Y-35001004D01*
X6190076Y-35001005D01*
X6042242Y-35080024D01*
X5881823Y-35128687D01*
X5756804Y-35141000D01*
X5673196Y-35141000D01*
X5548177Y-35128687D01*
X5387758Y-35080024D01*
X5239924Y-35001005D01*
X5239922Y-35001004D01*
X5110341Y-34894659D01*
X5003996Y-34765078D01*
X4995886Y-34749906D01*
X4924976Y-34617242D01*
X4876313Y-34456823D01*
X4859883Y-34290000D01*
X4876313Y-34123177D01*
X4924976Y-33962758D01*
X5003995Y-33814924D01*
X5003996Y-33814922D01*
X5110341Y-33685341D01*
X5239922Y-33578996D01*
X5255094Y-33570886D01*
X5387758Y-33499976D01*
X5548177Y-33451313D01*
X5673196Y-33439000D01*
X5756804Y-33439000D01*
X5881823Y-33451313D01*
X5881823Y-33451313D01*
G37*
G36*
X31591617Y-32865420D02*
G01*
X31672399Y-32889925D01*
X31714335Y-32902646D01*
X31827424Y-32963094D01*
X31926554Y-33044447D01*
X32007906Y-33143575D01*
X32068354Y-33256664D01*
X32078040Y-33288596D01*
X32105580Y-33379382D01*
X32115000Y-33475027D01*
X32115000Y-34088973D01*
X32105580Y-34184618D01*
X32078040Y-34275404D01*
X32068354Y-34307336D01*
X32007906Y-34420425D01*
X31926554Y-34519554D01*
X31827425Y-34600906D01*
X31714336Y-34661354D01*
X31682404Y-34671040D01*
X31591618Y-34698580D01*
X31464000Y-34711149D01*
X31336383Y-34698580D01*
X31245597Y-34671040D01*
X31213665Y-34661354D01*
X31100576Y-34600906D01*
X31001447Y-34519554D01*
X30920096Y-34420427D01*
X30920095Y-34420425D01*
X30859647Y-34307336D01*
X30859645Y-34307333D01*
X30847237Y-34266427D01*
X30822420Y-34184618D01*
X30813000Y-34088973D01*
X30813000Y-33475028D01*
X30822420Y-33379383D01*
X30859645Y-33256669D01*
X30859646Y-33256665D01*
X30920094Y-33143576D01*
X31001447Y-33044446D01*
X31100575Y-32963094D01*
X31213664Y-32902646D01*
X31255600Y-32889925D01*
X31336382Y-32865420D01*
X31464000Y-32852851D01*
X31591617Y-32865420D01*
X31591617Y-32865420D01*
G37*
G36*
X29955242Y-32860404D02*
G01*
X29992337Y-32871657D01*
X30026515Y-32889925D01*
X30056481Y-32914519D01*
X30081075Y-32944485D01*
X30099343Y-32978663D01*
X30110596Y-33015758D01*
X30115000Y-33060474D01*
X30115000Y-34503526D01*
X30110596Y-34548242D01*
X30099343Y-34585337D01*
X30081075Y-34619515D01*
X30056481Y-34649481D01*
X30026515Y-34674075D01*
X29992337Y-34692343D01*
X29955242Y-34703596D01*
X29910526Y-34708000D01*
X29017474Y-34708000D01*
X28972758Y-34703596D01*
X28935663Y-34692343D01*
X28901485Y-34674075D01*
X28871519Y-34649481D01*
X28846925Y-34619515D01*
X28828657Y-34585337D01*
X28817404Y-34548242D01*
X28813000Y-34503526D01*
X28813000Y-33060474D01*
X28817404Y-33015758D01*
X28828657Y-32978663D01*
X28846925Y-32944485D01*
X28871519Y-32914519D01*
X28901485Y-32889925D01*
X28935663Y-32871657D01*
X28972758Y-32860404D01*
X29017474Y-32856000D01*
X29910526Y-32856000D01*
X29955242Y-32860404D01*
X29955242Y-32860404D01*
G37*
G36*
X21121823Y-30911313D02*
G01*
X21282242Y-30959976D01*
X21414906Y-31030886D01*
X21430078Y-31038996D01*
X21559659Y-31145341D01*
X21666004Y-31274922D01*
X21666005Y-31274924D01*
X21745024Y-31422758D01*
X21793687Y-31583177D01*
X21810117Y-31750000D01*
X21793687Y-31916823D01*
X21745024Y-32077242D01*
X21674114Y-32209906D01*
X21666004Y-32225078D01*
X21559659Y-32354659D01*
X21430078Y-32461004D01*
X21430076Y-32461005D01*
X21282242Y-32540024D01*
X21121823Y-32588687D01*
X20996804Y-32601000D01*
X20913196Y-32601000D01*
X20788177Y-32588687D01*
X20627758Y-32540024D01*
X20479924Y-32461005D01*
X20479922Y-32461004D01*
X20350341Y-32354659D01*
X20243996Y-32225078D01*
X20235886Y-32209906D01*
X20164976Y-32077242D01*
X20116313Y-31916823D01*
X20099883Y-31750000D01*
X20116313Y-31583177D01*
X20164976Y-31422758D01*
X20243995Y-31274924D01*
X20243996Y-31274922D01*
X20350341Y-31145341D01*
X20479922Y-31038996D01*
X20495094Y-31030886D01*
X20627758Y-30959976D01*
X20788177Y-30911313D01*
X20913196Y-30899000D01*
X20996804Y-30899000D01*
X21121823Y-30911313D01*
X21121823Y-30911313D01*
G37*
G36*
X5881823Y-30911313D02*
G01*
X6042242Y-30959976D01*
X6174906Y-31030886D01*
X6190078Y-31038996D01*
X6319659Y-31145341D01*
X6426004Y-31274922D01*
X6426005Y-31274924D01*
X6505024Y-31422758D01*
X6553687Y-31583177D01*
X6570117Y-31750000D01*
X6553687Y-31916823D01*
X6505024Y-32077242D01*
X6434114Y-32209906D01*
X6426004Y-32225078D01*
X6319659Y-32354659D01*
X6190078Y-32461004D01*
X6190076Y-32461005D01*
X6042242Y-32540024D01*
X5881823Y-32588687D01*
X5756804Y-32601000D01*
X5673196Y-32601000D01*
X5548177Y-32588687D01*
X5387758Y-32540024D01*
X5239924Y-32461005D01*
X5239922Y-32461004D01*
X5110341Y-32354659D01*
X5003996Y-32225078D01*
X4995886Y-32209906D01*
X4924976Y-32077242D01*
X4876313Y-31916823D01*
X4859883Y-31750000D01*
X4876313Y-31583177D01*
X4924976Y-31422758D01*
X5003995Y-31274924D01*
X5003996Y-31274922D01*
X5110341Y-31145341D01*
X5239922Y-31038996D01*
X5255094Y-31030886D01*
X5387758Y-30959976D01*
X5548177Y-30911313D01*
X5673196Y-30899000D01*
X5756804Y-30899000D01*
X5881823Y-30911313D01*
X5881823Y-30911313D01*
G37*
G36*
X50701000Y-31261000D02*
G01*
X48599000Y-31261000D01*
X48599000Y-27159000D01*
X50701000Y-27159000D01*
X50701000Y-31261000D01*
X50701000Y-31261000D01*
G37*
G36*
X44701000Y-31261000D02*
G01*
X42599000Y-31261000D01*
X42599000Y-27159000D01*
X44701000Y-27159000D01*
X44701000Y-31261000D01*
X44701000Y-31261000D01*
G37*
G36*
X5881823Y-28371313D02*
G01*
X6042242Y-28419976D01*
X6174906Y-28490886D01*
X6190078Y-28498996D01*
X6319659Y-28605341D01*
X6426004Y-28734922D01*
X6426005Y-28734924D01*
X6505024Y-28882758D01*
X6553687Y-29043177D01*
X6570117Y-29210000D01*
X6553687Y-29376823D01*
X6505024Y-29537242D01*
X6434114Y-29669906D01*
X6426004Y-29685078D01*
X6319659Y-29814659D01*
X6190078Y-29921004D01*
X6190076Y-29921005D01*
X6042242Y-30000024D01*
X5881823Y-30048687D01*
X5756804Y-30061000D01*
X5673196Y-30061000D01*
X5548177Y-30048687D01*
X5387758Y-30000024D01*
X5239924Y-29921005D01*
X5239922Y-29921004D01*
X5110341Y-29814659D01*
X5003996Y-29685078D01*
X4995886Y-29669906D01*
X4924976Y-29537242D01*
X4876313Y-29376823D01*
X4859883Y-29210000D01*
X4876313Y-29043177D01*
X4924976Y-28882758D01*
X5003995Y-28734924D01*
X5003996Y-28734922D01*
X5110341Y-28605341D01*
X5239922Y-28498996D01*
X5255094Y-28490886D01*
X5387758Y-28419976D01*
X5548177Y-28371313D01*
X5673196Y-28359000D01*
X5756804Y-28359000D01*
X5881823Y-28371313D01*
X5881823Y-28371313D01*
G37*
G36*
X21121823Y-28371313D02*
G01*
X21282242Y-28419976D01*
X21414906Y-28490886D01*
X21430078Y-28498996D01*
X21559659Y-28605341D01*
X21666004Y-28734922D01*
X21666005Y-28734924D01*
X21745024Y-28882758D01*
X21793687Y-29043177D01*
X21810117Y-29210000D01*
X21793687Y-29376823D01*
X21745024Y-29537242D01*
X21674114Y-29669906D01*
X21666004Y-29685078D01*
X21559659Y-29814659D01*
X21430078Y-29921004D01*
X21430076Y-29921005D01*
X21282242Y-30000024D01*
X21121823Y-30048687D01*
X20996804Y-30061000D01*
X20913196Y-30061000D01*
X20788177Y-30048687D01*
X20627758Y-30000024D01*
X20479924Y-29921005D01*
X20479922Y-29921004D01*
X20350341Y-29814659D01*
X20243996Y-29685078D01*
X20235886Y-29669906D01*
X20164976Y-29537242D01*
X20116313Y-29376823D01*
X20099883Y-29210000D01*
X20116313Y-29043177D01*
X20164976Y-28882758D01*
X20243995Y-28734924D01*
X20243996Y-28734922D01*
X20350341Y-28605341D01*
X20479922Y-28498996D01*
X20495094Y-28490886D01*
X20627758Y-28419976D01*
X20788177Y-28371313D01*
X20913196Y-28359000D01*
X20996804Y-28359000D01*
X21121823Y-28371313D01*
X21121823Y-28371313D01*
G37*
G36*
X5881823Y-25831313D02*
G01*
X6042242Y-25879976D01*
X6174906Y-25950886D01*
X6190078Y-25958996D01*
X6319659Y-26065341D01*
X6426004Y-26194922D01*
X6426005Y-26194924D01*
X6505024Y-26342758D01*
X6553687Y-26503177D01*
X6570117Y-26670000D01*
X6553687Y-26836823D01*
X6505024Y-26997242D01*
X6434114Y-27129906D01*
X6426004Y-27145078D01*
X6319659Y-27274659D01*
X6190078Y-27381004D01*
X6190076Y-27381005D01*
X6042242Y-27460024D01*
X5881823Y-27508687D01*
X5756804Y-27521000D01*
X5673196Y-27521000D01*
X5548177Y-27508687D01*
X5387758Y-27460024D01*
X5239924Y-27381005D01*
X5239922Y-27381004D01*
X5110341Y-27274659D01*
X5003996Y-27145078D01*
X4995886Y-27129906D01*
X4924976Y-26997242D01*
X4876313Y-26836823D01*
X4859883Y-26670000D01*
X4876313Y-26503177D01*
X4924976Y-26342758D01*
X5003995Y-26194924D01*
X5003996Y-26194922D01*
X5110341Y-26065341D01*
X5239922Y-25958996D01*
X5255094Y-25950886D01*
X5387758Y-25879976D01*
X5548177Y-25831313D01*
X5673196Y-25819000D01*
X5756804Y-25819000D01*
X5881823Y-25831313D01*
X5881823Y-25831313D01*
G37*
G36*
X21121823Y-25831313D02*
G01*
X21282242Y-25879976D01*
X21414906Y-25950886D01*
X21430078Y-25958996D01*
X21559659Y-26065341D01*
X21666004Y-26194922D01*
X21666005Y-26194924D01*
X21745024Y-26342758D01*
X21793687Y-26503177D01*
X21810117Y-26670000D01*
X21793687Y-26836823D01*
X21745024Y-26997242D01*
X21674114Y-27129906D01*
X21666004Y-27145078D01*
X21559659Y-27274659D01*
X21430078Y-27381004D01*
X21430076Y-27381005D01*
X21282242Y-27460024D01*
X21121823Y-27508687D01*
X20996804Y-27521000D01*
X20913196Y-27521000D01*
X20788177Y-27508687D01*
X20627758Y-27460024D01*
X20479924Y-27381005D01*
X20479922Y-27381004D01*
X20350341Y-27274659D01*
X20243996Y-27145078D01*
X20235886Y-27129906D01*
X20164976Y-26997242D01*
X20116313Y-26836823D01*
X20099883Y-26670000D01*
X20116313Y-26503177D01*
X20164976Y-26342758D01*
X20243995Y-26194924D01*
X20243996Y-26194922D01*
X20350341Y-26065341D01*
X20479922Y-25958996D01*
X20495094Y-25950886D01*
X20627758Y-25879976D01*
X20788177Y-25831313D01*
X20913196Y-25819000D01*
X20996804Y-25819000D01*
X21121823Y-25831313D01*
X21121823Y-25831313D01*
G37*
G36*
X48201000Y-25461000D02*
G01*
X44099000Y-25461000D01*
X44099000Y-23359000D01*
X48201000Y-23359000D01*
X48201000Y-25461000D01*
X48201000Y-25461000D01*
G37*
G36*
X5881823Y-23291313D02*
G01*
X6042242Y-23339976D01*
X6077833Y-23359000D01*
X6190078Y-23418996D01*
X6319659Y-23525341D01*
X6426004Y-23654922D01*
X6426005Y-23654924D01*
X6505024Y-23802758D01*
X6553687Y-23963177D01*
X6570117Y-24130000D01*
X6553687Y-24296823D01*
X6505024Y-24457242D01*
X6434114Y-24589906D01*
X6426004Y-24605078D01*
X6319659Y-24734659D01*
X6190078Y-24841004D01*
X6190076Y-24841005D01*
X6042242Y-24920024D01*
X5881823Y-24968687D01*
X5756804Y-24981000D01*
X5673196Y-24981000D01*
X5548177Y-24968687D01*
X5387758Y-24920024D01*
X5239924Y-24841005D01*
X5239922Y-24841004D01*
X5110341Y-24734659D01*
X5003996Y-24605078D01*
X4995886Y-24589906D01*
X4924976Y-24457242D01*
X4876313Y-24296823D01*
X4859883Y-24130000D01*
X4876313Y-23963177D01*
X4924976Y-23802758D01*
X5003995Y-23654924D01*
X5003996Y-23654922D01*
X5110341Y-23525341D01*
X5239922Y-23418996D01*
X5352167Y-23359000D01*
X5387758Y-23339976D01*
X5548177Y-23291313D01*
X5673196Y-23279000D01*
X5756804Y-23279000D01*
X5881823Y-23291313D01*
X5881823Y-23291313D01*
G37*
G36*
X21121823Y-23291313D02*
G01*
X21282242Y-23339976D01*
X21317833Y-23359000D01*
X21430078Y-23418996D01*
X21559659Y-23525341D01*
X21666004Y-23654922D01*
X21666005Y-23654924D01*
X21745024Y-23802758D01*
X21793687Y-23963177D01*
X21810117Y-24130000D01*
X21793687Y-24296823D01*
X21745024Y-24457242D01*
X21674114Y-24589906D01*
X21666004Y-24605078D01*
X21559659Y-24734659D01*
X21430078Y-24841004D01*
X21430076Y-24841005D01*
X21282242Y-24920024D01*
X21121823Y-24968687D01*
X20996804Y-24981000D01*
X20913196Y-24981000D01*
X20788177Y-24968687D01*
X20627758Y-24920024D01*
X20479924Y-24841005D01*
X20479922Y-24841004D01*
X20350341Y-24734659D01*
X20243996Y-24605078D01*
X20235886Y-24589906D01*
X20164976Y-24457242D01*
X20116313Y-24296823D01*
X20099883Y-24130000D01*
X20116313Y-23963177D01*
X20164976Y-23802758D01*
X20243995Y-23654924D01*
X20243996Y-23654922D01*
X20350341Y-23525341D01*
X20479922Y-23418996D01*
X20592167Y-23359000D01*
X20627758Y-23339976D01*
X20788177Y-23291313D01*
X20913196Y-23279000D01*
X20996804Y-23279000D01*
X21121823Y-23291313D01*
X21121823Y-23291313D01*
G37*
G36*
X21121823Y-20751313D02*
G01*
X21282242Y-20799976D01*
X21414906Y-20870886D01*
X21430078Y-20878996D01*
X21559659Y-20985341D01*
X21666004Y-21114922D01*
X21666005Y-21114924D01*
X21745024Y-21262758D01*
X21793687Y-21423177D01*
X21810117Y-21590000D01*
X21793687Y-21756823D01*
X21745024Y-21917242D01*
X21674114Y-22049906D01*
X21666004Y-22065078D01*
X21559659Y-22194659D01*
X21430078Y-22301004D01*
X21430076Y-22301005D01*
X21282242Y-22380024D01*
X21121823Y-22428687D01*
X20996804Y-22441000D01*
X20913196Y-22441000D01*
X20788177Y-22428687D01*
X20627758Y-22380024D01*
X20479924Y-22301005D01*
X20479922Y-22301004D01*
X20350341Y-22194659D01*
X20243996Y-22065078D01*
X20235886Y-22049906D01*
X20164976Y-21917242D01*
X20116313Y-21756823D01*
X20099883Y-21590000D01*
X20116313Y-21423177D01*
X20164976Y-21262758D01*
X20243995Y-21114924D01*
X20243996Y-21114922D01*
X20350341Y-20985341D01*
X20479922Y-20878996D01*
X20495094Y-20870886D01*
X20627758Y-20799976D01*
X20788177Y-20751313D01*
X20913196Y-20739000D01*
X20996804Y-20739000D01*
X21121823Y-20751313D01*
X21121823Y-20751313D01*
G37*
G36*
X5881823Y-20751313D02*
G01*
X6042242Y-20799976D01*
X6174906Y-20870886D01*
X6190078Y-20878996D01*
X6319659Y-20985341D01*
X6426004Y-21114922D01*
X6426005Y-21114924D01*
X6505024Y-21262758D01*
X6553687Y-21423177D01*
X6570117Y-21590000D01*
X6553687Y-21756823D01*
X6505024Y-21917242D01*
X6434114Y-22049906D01*
X6426004Y-22065078D01*
X6319659Y-22194659D01*
X6190078Y-22301004D01*
X6190076Y-22301005D01*
X6042242Y-22380024D01*
X5881823Y-22428687D01*
X5756804Y-22441000D01*
X5673196Y-22441000D01*
X5548177Y-22428687D01*
X5387758Y-22380024D01*
X5239924Y-22301005D01*
X5239922Y-22301004D01*
X5110341Y-22194659D01*
X5003996Y-22065078D01*
X4995886Y-22049906D01*
X4924976Y-21917242D01*
X4876313Y-21756823D01*
X4859883Y-21590000D01*
X4876313Y-21423177D01*
X4924976Y-21262758D01*
X5003995Y-21114924D01*
X5003996Y-21114922D01*
X5110341Y-20985341D01*
X5239922Y-20878996D01*
X5255094Y-20870886D01*
X5387758Y-20799976D01*
X5548177Y-20751313D01*
X5673196Y-20739000D01*
X5756804Y-20739000D01*
X5881823Y-20751313D01*
X5881823Y-20751313D01*
G37*
G36*
X50148142Y-18522242D02*
G01*
X50296101Y-18583529D01*
X50429255Y-18672499D01*
X50542501Y-18785745D01*
X50631471Y-18918899D01*
X50692758Y-19066858D01*
X50724000Y-19223925D01*
X50724000Y-19384075D01*
X50692758Y-19541142D01*
X50631471Y-19689101D01*
X50542501Y-19822255D01*
X50429255Y-19935501D01*
X50296101Y-20024471D01*
X50148142Y-20085758D01*
X49991075Y-20117000D01*
X49830925Y-20117000D01*
X49673858Y-20085758D01*
X49525899Y-20024471D01*
X49392745Y-19935501D01*
X49279499Y-19822255D01*
X49190529Y-19689101D01*
X49129242Y-19541142D01*
X49098000Y-19384075D01*
X49098000Y-19223925D01*
X49129242Y-19066858D01*
X49190529Y-18918899D01*
X49279499Y-18785745D01*
X49392745Y-18672499D01*
X49525899Y-18583529D01*
X49673858Y-18522242D01*
X49830925Y-18491000D01*
X49991075Y-18491000D01*
X50148142Y-18522242D01*
X50148142Y-18522242D01*
G37*
G36*
X31606142Y-18522242D02*
G01*
X31754101Y-18583529D01*
X31887255Y-18672499D01*
X32000501Y-18785745D01*
X32089471Y-18918899D01*
X32150758Y-19066858D01*
X32182000Y-19223925D01*
X32182000Y-19384075D01*
X32150758Y-19541142D01*
X32089471Y-19689101D01*
X32000501Y-19822255D01*
X31887255Y-19935501D01*
X31754101Y-20024471D01*
X31606142Y-20085758D01*
X31449075Y-20117000D01*
X31288925Y-20117000D01*
X31131858Y-20085758D01*
X30983899Y-20024471D01*
X30850745Y-19935501D01*
X30737499Y-19822255D01*
X30648529Y-19689101D01*
X30587242Y-19541142D01*
X30556000Y-19384075D01*
X30556000Y-19223925D01*
X30587242Y-19066858D01*
X30648529Y-18918899D01*
X30737499Y-18785745D01*
X30850745Y-18672499D01*
X30983899Y-18583529D01*
X31131858Y-18522242D01*
X31288925Y-18491000D01*
X31449075Y-18491000D01*
X31606142Y-18522242D01*
X31606142Y-18522242D01*
G37*
G36*
X21121823Y-18211313D02*
G01*
X21282242Y-18259976D01*
X21414906Y-18330886D01*
X21430078Y-18338996D01*
X21559659Y-18445341D01*
X21666004Y-18574922D01*
X21674114Y-18590094D01*
X21745024Y-18722758D01*
X21793687Y-18883177D01*
X21810117Y-19050000D01*
X21793687Y-19216823D01*
X21745024Y-19377242D01*
X21674114Y-19509906D01*
X21666004Y-19525078D01*
X21559659Y-19654659D01*
X21430078Y-19761004D01*
X21430076Y-19761005D01*
X21282242Y-19840024D01*
X21121823Y-19888687D01*
X20996804Y-19901000D01*
X20913196Y-19901000D01*
X20788177Y-19888687D01*
X20627758Y-19840024D01*
X20479924Y-19761005D01*
X20479922Y-19761004D01*
X20350341Y-19654659D01*
X20243996Y-19525078D01*
X20235886Y-19509906D01*
X20164976Y-19377242D01*
X20116313Y-19216823D01*
X20099883Y-19050000D01*
X20116313Y-18883177D01*
X20164976Y-18722758D01*
X20235886Y-18590094D01*
X20243996Y-18574922D01*
X20350341Y-18445341D01*
X20479922Y-18338996D01*
X20495094Y-18330886D01*
X20627758Y-18259976D01*
X20788177Y-18211313D01*
X20913196Y-18199000D01*
X20996804Y-18199000D01*
X21121823Y-18211313D01*
X21121823Y-18211313D01*
G37*
G36*
X5881823Y-18211313D02*
G01*
X6042242Y-18259976D01*
X6174906Y-18330886D01*
X6190078Y-18338996D01*
X6319659Y-18445341D01*
X6426004Y-18574922D01*
X6434114Y-18590094D01*
X6505024Y-18722758D01*
X6553687Y-18883177D01*
X6570117Y-19050000D01*
X6553687Y-19216823D01*
X6505024Y-19377242D01*
X6434114Y-19509906D01*
X6426004Y-19525078D01*
X6319659Y-19654659D01*
X6190078Y-19761004D01*
X6190076Y-19761005D01*
X6042242Y-19840024D01*
X5881823Y-19888687D01*
X5756804Y-19901000D01*
X5673196Y-19901000D01*
X5548177Y-19888687D01*
X5387758Y-19840024D01*
X5239924Y-19761005D01*
X5239922Y-19761004D01*
X5110341Y-19654659D01*
X5003996Y-19525078D01*
X4995886Y-19509906D01*
X4924976Y-19377242D01*
X4876313Y-19216823D01*
X4859883Y-19050000D01*
X4876313Y-18883177D01*
X4924976Y-18722758D01*
X4995886Y-18590094D01*
X5003996Y-18574922D01*
X5110341Y-18445341D01*
X5239922Y-18338996D01*
X5255094Y-18330886D01*
X5387758Y-18259976D01*
X5548177Y-18211313D01*
X5673196Y-18199000D01*
X5756804Y-18199000D01*
X5881823Y-18211313D01*
X5881823Y-18211313D01*
G37*
G36*
X50148142Y-15982242D02*
G01*
X50296101Y-16043529D01*
X50429255Y-16132499D01*
X50542501Y-16245745D01*
X50631471Y-16378899D01*
X50692758Y-16526858D01*
X50724000Y-16683925D01*
X50724000Y-16844075D01*
X50692758Y-17001142D01*
X50631471Y-17149101D01*
X50542501Y-17282255D01*
X50429255Y-17395501D01*
X50296101Y-17484471D01*
X50148142Y-17545758D01*
X49991075Y-17577000D01*
X49830925Y-17577000D01*
X49673858Y-17545758D01*
X49525899Y-17484471D01*
X49392745Y-17395501D01*
X49279499Y-17282255D01*
X49190529Y-17149101D01*
X49129242Y-17001142D01*
X49098000Y-16844075D01*
X49098000Y-16683925D01*
X49129242Y-16526858D01*
X49190529Y-16378899D01*
X49279499Y-16245745D01*
X49392745Y-16132499D01*
X49525899Y-16043529D01*
X49673858Y-15982242D01*
X49830925Y-15951000D01*
X49991075Y-15951000D01*
X50148142Y-15982242D01*
X50148142Y-15982242D01*
G37*
G36*
X31606142Y-15982242D02*
G01*
X31754101Y-16043529D01*
X31887255Y-16132499D01*
X32000501Y-16245745D01*
X32089471Y-16378899D01*
X32150758Y-16526858D01*
X32182000Y-16683925D01*
X32182000Y-16844075D01*
X32150758Y-17001142D01*
X32089471Y-17149101D01*
X32000501Y-17282255D01*
X31887255Y-17395501D01*
X31754101Y-17484471D01*
X31606142Y-17545758D01*
X31449075Y-17577000D01*
X31288925Y-17577000D01*
X31131858Y-17545758D01*
X30983899Y-17484471D01*
X30850745Y-17395501D01*
X30737499Y-17282255D01*
X30648529Y-17149101D01*
X30587242Y-17001142D01*
X30556000Y-16844075D01*
X30556000Y-16683925D01*
X30587242Y-16526858D01*
X30648529Y-16378899D01*
X30737499Y-16245745D01*
X30850745Y-16132499D01*
X30983899Y-16043529D01*
X31131858Y-15982242D01*
X31288925Y-15951000D01*
X31449075Y-15951000D01*
X31606142Y-15982242D01*
X31606142Y-15982242D01*
G37*
G36*
X21121823Y-15671313D02*
G01*
X21282242Y-15719976D01*
X21414906Y-15790886D01*
X21430078Y-15798996D01*
X21559659Y-15905341D01*
X21666004Y-16034922D01*
X21674114Y-16050094D01*
X21745024Y-16182758D01*
X21793687Y-16343177D01*
X21810117Y-16510000D01*
X21793687Y-16676823D01*
X21745024Y-16837242D01*
X21674114Y-16969906D01*
X21666004Y-16985078D01*
X21559659Y-17114659D01*
X21430078Y-17221004D01*
X21430076Y-17221005D01*
X21282242Y-17300024D01*
X21121823Y-17348687D01*
X20996804Y-17361000D01*
X20913196Y-17361000D01*
X20788177Y-17348687D01*
X20627758Y-17300024D01*
X20479924Y-17221005D01*
X20479922Y-17221004D01*
X20350341Y-17114659D01*
X20243996Y-16985078D01*
X20235886Y-16969906D01*
X20164976Y-16837242D01*
X20116313Y-16676823D01*
X20099883Y-16510000D01*
X20116313Y-16343177D01*
X20164976Y-16182758D01*
X20235886Y-16050094D01*
X20243996Y-16034922D01*
X20350341Y-15905341D01*
X20479922Y-15798996D01*
X20495094Y-15790886D01*
X20627758Y-15719976D01*
X20788177Y-15671313D01*
X20913196Y-15659000D01*
X20996804Y-15659000D01*
X21121823Y-15671313D01*
X21121823Y-15671313D01*
G37*
G36*
X5881823Y-15671313D02*
G01*
X6042242Y-15719976D01*
X6174906Y-15790886D01*
X6190078Y-15798996D01*
X6319659Y-15905341D01*
X6426004Y-16034922D01*
X6434114Y-16050094D01*
X6505024Y-16182758D01*
X6553687Y-16343177D01*
X6570117Y-16510000D01*
X6553687Y-16676823D01*
X6505024Y-16837242D01*
X6434114Y-16969906D01*
X6426004Y-16985078D01*
X6319659Y-17114659D01*
X6190078Y-17221004D01*
X6190076Y-17221005D01*
X6042242Y-17300024D01*
X5881823Y-17348687D01*
X5756804Y-17361000D01*
X5673196Y-17361000D01*
X5548177Y-17348687D01*
X5387758Y-17300024D01*
X5239924Y-17221005D01*
X5239922Y-17221004D01*
X5110341Y-17114659D01*
X5003996Y-16985078D01*
X4995886Y-16969906D01*
X4924976Y-16837242D01*
X4876313Y-16676823D01*
X4859883Y-16510000D01*
X4876313Y-16343177D01*
X4924976Y-16182758D01*
X4995886Y-16050094D01*
X5003996Y-16034922D01*
X5110341Y-15905341D01*
X5239922Y-15798996D01*
X5255094Y-15790886D01*
X5387758Y-15719976D01*
X5548177Y-15671313D01*
X5673196Y-15659000D01*
X5756804Y-15659000D01*
X5881823Y-15671313D01*
X5881823Y-15671313D01*
G37*
G36*
X21121823Y-13131313D02*
G01*
X21282242Y-13179976D01*
X21414906Y-13250886D01*
X21430078Y-13258996D01*
X21559659Y-13365341D01*
X21666004Y-13494922D01*
X21666005Y-13494924D01*
X21745024Y-13642758D01*
X21793687Y-13803177D01*
X21810117Y-13970000D01*
X21793687Y-14136823D01*
X21745024Y-14297242D01*
X21674114Y-14429906D01*
X21666004Y-14445078D01*
X21559659Y-14574659D01*
X21430078Y-14681004D01*
X21430076Y-14681005D01*
X21282242Y-14760024D01*
X21121823Y-14808687D01*
X20996804Y-14821000D01*
X20913196Y-14821000D01*
X20788177Y-14808687D01*
X20627758Y-14760024D01*
X20479924Y-14681005D01*
X20479922Y-14681004D01*
X20350341Y-14574659D01*
X20243996Y-14445078D01*
X20235886Y-14429906D01*
X20164976Y-14297242D01*
X20116313Y-14136823D01*
X20099883Y-13970000D01*
X20116313Y-13803177D01*
X20164976Y-13642758D01*
X20243995Y-13494924D01*
X20243996Y-13494922D01*
X20350341Y-13365341D01*
X20479922Y-13258996D01*
X20495094Y-13250886D01*
X20627758Y-13179976D01*
X20788177Y-13131313D01*
X20913196Y-13119000D01*
X20996804Y-13119000D01*
X21121823Y-13131313D01*
X21121823Y-13131313D01*
G37*
G36*
X6566000Y-14821000D02*
G01*
X4864000Y-14821000D01*
X4864000Y-13119000D01*
X6566000Y-13119000D01*
X6566000Y-14821000D01*
X6566000Y-14821000D01*
G37*
G36*
X31597142Y-7854242D02*
G01*
X31745101Y-7915529D01*
X31878255Y-8004499D01*
X31991501Y-8117745D01*
X32080471Y-8250899D01*
X32141758Y-8398858D01*
X32173000Y-8555925D01*
X32173000Y-8716075D01*
X32141758Y-8873142D01*
X32080471Y-9021101D01*
X31991501Y-9154255D01*
X31878255Y-9267501D01*
X31745101Y-9356471D01*
X31597142Y-9417758D01*
X31440075Y-9449000D01*
X31279925Y-9449000D01*
X31122858Y-9417758D01*
X30974899Y-9356471D01*
X30841745Y-9267501D01*
X30728499Y-9154255D01*
X30639529Y-9021101D01*
X30578242Y-8873142D01*
X30547000Y-8716075D01*
X30547000Y-8555925D01*
X30578242Y-8398858D01*
X30639529Y-8250899D01*
X30728499Y-8117745D01*
X30841745Y-8004499D01*
X30974899Y-7915529D01*
X31122858Y-7854242D01*
X31279925Y-7823000D01*
X31440075Y-7823000D01*
X31597142Y-7854242D01*
X31597142Y-7854242D01*
G37*
G36*
X50139142Y-7854242D02*
G01*
X50287101Y-7915529D01*
X50420255Y-8004499D01*
X50533501Y-8117745D01*
X50622471Y-8250899D01*
X50683758Y-8398858D01*
X50715000Y-8555925D01*
X50715000Y-8716075D01*
X50683758Y-8873142D01*
X50622471Y-9021101D01*
X50533501Y-9154255D01*
X50420255Y-9267501D01*
X50287101Y-9356471D01*
X50139142Y-9417758D01*
X49982075Y-9449000D01*
X49821925Y-9449000D01*
X49664858Y-9417758D01*
X49516899Y-9356471D01*
X49383745Y-9267501D01*
X49270499Y-9154255D01*
X49181529Y-9021101D01*
X49120242Y-8873142D01*
X49089000Y-8716075D01*
X49089000Y-8555925D01*
X49120242Y-8398858D01*
X49181529Y-8250899D01*
X49270499Y-8117745D01*
X49383745Y-8004499D01*
X49516899Y-7915529D01*
X49664858Y-7854242D01*
X49821925Y-7823000D01*
X49982075Y-7823000D01*
X50139142Y-7854242D01*
X50139142Y-7854242D01*
G37*
G36*
X31606142Y-5314242D02*
G01*
X31754101Y-5375529D01*
X31887255Y-5464499D01*
X32000501Y-5577745D01*
X32089471Y-5710899D01*
X32150758Y-5858858D01*
X32182000Y-6015925D01*
X32182000Y-6176075D01*
X32150758Y-6333142D01*
X32089471Y-6481101D01*
X32000501Y-6614255D01*
X31887255Y-6727501D01*
X31754101Y-6816471D01*
X31606142Y-6877758D01*
X31449075Y-6909000D01*
X31288925Y-6909000D01*
X31131858Y-6877758D01*
X30983899Y-6816471D01*
X30850745Y-6727501D01*
X30737499Y-6614255D01*
X30648529Y-6481101D01*
X30587242Y-6333142D01*
X30556000Y-6176075D01*
X30556000Y-6015925D01*
X30587242Y-5858858D01*
X30648529Y-5710899D01*
X30737499Y-5577745D01*
X30850745Y-5464499D01*
X30983899Y-5375529D01*
X31131858Y-5314242D01*
X31288925Y-5283000D01*
X31449075Y-5283000D01*
X31606142Y-5314242D01*
X31606142Y-5314242D01*
G37*
G36*
X50148142Y-5314242D02*
G01*
X50296101Y-5375529D01*
X50429255Y-5464499D01*
X50542501Y-5577745D01*
X50631471Y-5710899D01*
X50692758Y-5858858D01*
X50724000Y-6015925D01*
X50724000Y-6176075D01*
X50692758Y-6333142D01*
X50631471Y-6481101D01*
X50542501Y-6614255D01*
X50429255Y-6727501D01*
X50296101Y-6816471D01*
X50148142Y-6877758D01*
X49991075Y-6909000D01*
X49830925Y-6909000D01*
X49673858Y-6877758D01*
X49525899Y-6816471D01*
X49392745Y-6727501D01*
X49279499Y-6614255D01*
X49190529Y-6481101D01*
X49129242Y-6333142D01*
X49098000Y-6176075D01*
X49098000Y-6015925D01*
X49129242Y-5858858D01*
X49190529Y-5710899D01*
X49279499Y-5577745D01*
X49392745Y-5464499D01*
X49525899Y-5375529D01*
X49673858Y-5314242D01*
X49830925Y-5283000D01*
X49991075Y-5283000D01*
X50148142Y-5314242D01*
X50148142Y-5314242D01*
G37*
G36*
X375256Y1608702D02*
G01*
X481579Y1587553D01*
X782042Y1463097D01*
X1052451Y1282415D01*
X1282415Y1052451D01*
X1463097Y782042D01*
X1587553Y481579D01*
X1651000Y162609D01*
X1651000Y-162609D01*
X1587553Y-481579D01*
X1463097Y-782042D01*
X1282415Y-1052451D01*
X1052451Y-1282415D01*
X782042Y-1463097D01*
X481579Y-1587553D01*
X375256Y-1608702D01*
X162611Y-1651000D01*
X-162611Y-1651000D01*
X-375256Y-1608702D01*
X-481579Y-1587553D01*
X-782042Y-1463097D01*
X-1052451Y-1282415D01*
X-1282415Y-1052451D01*
X-1463097Y-782042D01*
X-1587553Y-481579D01*
X-1651000Y-162609D01*
X-1651000Y162609D01*
X-1587553Y481579D01*
X-1463097Y782042D01*
X-1282415Y1052451D01*
X-1052451Y1282415D01*
X-782042Y1463097D01*
X-481579Y1587553D01*
X-375256Y1608702D01*
X-162611Y1651000D01*
X162611Y1651000D01*
X375256Y1608702D01*
X375256Y1608702D01*
G37*
G36*
X51175256Y1608702D02*
G01*
X51281579Y1587553D01*
X51582042Y1463097D01*
X51852451Y1282415D01*
X52082415Y1052451D01*
X52263097Y782042D01*
X52387553Y481579D01*
X52451000Y162609D01*
X52451000Y-162609D01*
X52387553Y-481579D01*
X52263097Y-782042D01*
X52082415Y-1052451D01*
X51852451Y-1282415D01*
X51582042Y-1463097D01*
X51281579Y-1587553D01*
X51175256Y-1608702D01*
X50962611Y-1651000D01*
X50637389Y-1651000D01*
X50424744Y-1608702D01*
X50318421Y-1587553D01*
X50017958Y-1463097D01*
X49747549Y-1282415D01*
X49517585Y-1052451D01*
X49336903Y-782042D01*
X49212447Y-481579D01*
X49149000Y-162609D01*
X49149000Y162609D01*
X49212447Y481579D01*
X49336903Y782042D01*
X49517585Y1052451D01*
X49747549Y1282415D01*
X50017958Y1463097D01*
X50318421Y1587553D01*
X50424744Y1608702D01*
X50637389Y1651000D01*
X50962611Y1651000D01*
X51175256Y1608702D01*
X51175256Y1608702D01*
G37*
M02*
