G04 #@! TF.GenerationSoftware,KiCad,Pcbnew,(5.1.4)-1*
G04 #@! TF.CreationDate,2019-09-15T22:00:30-07:00*
G04 #@! TF.ProjectId,vacuum_pickup_tool,76616375-756d-45f7-9069-636b75705f74,rev?*
G04 #@! TF.SameCoordinates,Original*
G04 #@! TF.FileFunction,Copper,L2,Bot*
G04 #@! TF.FilePolarity,Positive*
%FSLAX46Y46*%
G04 Gerber Fmt 4.6, Leading zero omitted, Abs format (unit mm)*
G04 Created by KiCad (PCBNEW (5.1.4)-1) date 2019-09-15 22:00:30*
%MOMM*%
%LPD*%
G04 APERTURE LIST*
%ADD10R,2.000000X4.000000*%
%ADD11R,4.000000X2.000000*%
%ADD12O,1.200000X1.750000*%
%ADD13C,0.100000*%
%ADD14C,1.200000*%
%ADD15O,1.750000X1.200000*%
%ADD16C,1.524000*%
%ADD17O,1.600000X1.600000*%
%ADD18R,1.600000X1.600000*%
%ADD19C,0.800000*%
%ADD20C,0.400000*%
%ADD21C,1.000000*%
%ADD22C,0.254000*%
G04 APERTURE END LIST*
D10*
X43650000Y-29210000D03*
X49650000Y-29210000D03*
D11*
X46150000Y-24410000D03*
D12*
X31464000Y-39370000D03*
D13*
G36*
X29838505Y-38496204D02*
G01*
X29862773Y-38499804D01*
X29886572Y-38505765D01*
X29909671Y-38514030D01*
X29931850Y-38524520D01*
X29952893Y-38537132D01*
X29972599Y-38551747D01*
X29990777Y-38568223D01*
X30007253Y-38586401D01*
X30021868Y-38606107D01*
X30034480Y-38627150D01*
X30044970Y-38649329D01*
X30053235Y-38672428D01*
X30059196Y-38696227D01*
X30062796Y-38720495D01*
X30064000Y-38744999D01*
X30064000Y-39995001D01*
X30062796Y-40019505D01*
X30059196Y-40043773D01*
X30053235Y-40067572D01*
X30044970Y-40090671D01*
X30034480Y-40112850D01*
X30021868Y-40133893D01*
X30007253Y-40153599D01*
X29990777Y-40171777D01*
X29972599Y-40188253D01*
X29952893Y-40202868D01*
X29931850Y-40215480D01*
X29909671Y-40225970D01*
X29886572Y-40234235D01*
X29862773Y-40240196D01*
X29838505Y-40243796D01*
X29814001Y-40245000D01*
X29113999Y-40245000D01*
X29089495Y-40243796D01*
X29065227Y-40240196D01*
X29041428Y-40234235D01*
X29018329Y-40225970D01*
X28996150Y-40215480D01*
X28975107Y-40202868D01*
X28955401Y-40188253D01*
X28937223Y-40171777D01*
X28920747Y-40153599D01*
X28906132Y-40133893D01*
X28893520Y-40112850D01*
X28883030Y-40090671D01*
X28874765Y-40067572D01*
X28868804Y-40043773D01*
X28865204Y-40019505D01*
X28864000Y-39995001D01*
X28864000Y-38744999D01*
X28865204Y-38720495D01*
X28868804Y-38696227D01*
X28874765Y-38672428D01*
X28883030Y-38649329D01*
X28893520Y-38627150D01*
X28906132Y-38606107D01*
X28920747Y-38586401D01*
X28937223Y-38568223D01*
X28955401Y-38551747D01*
X28975107Y-38537132D01*
X28996150Y-38524520D01*
X29018329Y-38514030D01*
X29041428Y-38505765D01*
X29065227Y-38499804D01*
X29089495Y-38496204D01*
X29113999Y-38495000D01*
X29814001Y-38495000D01*
X29838505Y-38496204D01*
X29838505Y-38496204D01*
G37*
D14*
X29464000Y-39370000D03*
D15*
X30226000Y-48895000D03*
D13*
G36*
X30875505Y-46296204D02*
G01*
X30899773Y-46299804D01*
X30923572Y-46305765D01*
X30946671Y-46314030D01*
X30968850Y-46324520D01*
X30989893Y-46337132D01*
X31009599Y-46351747D01*
X31027777Y-46368223D01*
X31044253Y-46386401D01*
X31058868Y-46406107D01*
X31071480Y-46427150D01*
X31081970Y-46449329D01*
X31090235Y-46472428D01*
X31096196Y-46496227D01*
X31099796Y-46520495D01*
X31101000Y-46544999D01*
X31101000Y-47245001D01*
X31099796Y-47269505D01*
X31096196Y-47293773D01*
X31090235Y-47317572D01*
X31081970Y-47340671D01*
X31071480Y-47362850D01*
X31058868Y-47383893D01*
X31044253Y-47403599D01*
X31027777Y-47421777D01*
X31009599Y-47438253D01*
X30989893Y-47452868D01*
X30968850Y-47465480D01*
X30946671Y-47475970D01*
X30923572Y-47484235D01*
X30899773Y-47490196D01*
X30875505Y-47493796D01*
X30851001Y-47495000D01*
X29600999Y-47495000D01*
X29576495Y-47493796D01*
X29552227Y-47490196D01*
X29528428Y-47484235D01*
X29505329Y-47475970D01*
X29483150Y-47465480D01*
X29462107Y-47452868D01*
X29442401Y-47438253D01*
X29424223Y-47421777D01*
X29407747Y-47403599D01*
X29393132Y-47383893D01*
X29380520Y-47362850D01*
X29370030Y-47340671D01*
X29361765Y-47317572D01*
X29355804Y-47293773D01*
X29352204Y-47269505D01*
X29351000Y-47245001D01*
X29351000Y-46544999D01*
X29352204Y-46520495D01*
X29355804Y-46496227D01*
X29361765Y-46472428D01*
X29370030Y-46449329D01*
X29380520Y-46427150D01*
X29393132Y-46406107D01*
X29407747Y-46386401D01*
X29424223Y-46368223D01*
X29442401Y-46351747D01*
X29462107Y-46337132D01*
X29483150Y-46324520D01*
X29505329Y-46314030D01*
X29528428Y-46305765D01*
X29552227Y-46299804D01*
X29576495Y-46296204D01*
X29600999Y-46295000D01*
X30851001Y-46295000D01*
X30875505Y-46296204D01*
X30875505Y-46296204D01*
G37*
D14*
X30226000Y-46895000D03*
D16*
X31369000Y-19304000D03*
X31369000Y-16764000D03*
X31369000Y-6096000D03*
X31360000Y-8636000D03*
X49911000Y-6096000D03*
X49902000Y-8636000D03*
X49911000Y-19304000D03*
X49911000Y-16764000D03*
D17*
X20955000Y-49530000D03*
X5715000Y-49530000D03*
X20955000Y-13970000D03*
X5715000Y-46990000D03*
X20955000Y-16510000D03*
X5715000Y-44450000D03*
X20955000Y-19050000D03*
X5715000Y-41910000D03*
X20955000Y-21590000D03*
X5715000Y-39370000D03*
X20955000Y-24130000D03*
X5715000Y-36830000D03*
X20955000Y-26670000D03*
X5715000Y-34290000D03*
X20955000Y-29210000D03*
X5715000Y-31750000D03*
X20955000Y-31750000D03*
X5715000Y-29210000D03*
X20955000Y-34290000D03*
X5715000Y-26670000D03*
X20955000Y-36830000D03*
X5715000Y-24130000D03*
X20955000Y-39370000D03*
X5715000Y-21590000D03*
X20955000Y-41910000D03*
X5715000Y-19050000D03*
X20955000Y-44450000D03*
X5715000Y-16510000D03*
X20955000Y-46990000D03*
D18*
X5715000Y-13970000D03*
D13*
G36*
X29838505Y-32908204D02*
G01*
X29862773Y-32911804D01*
X29886572Y-32917765D01*
X29909671Y-32926030D01*
X29931850Y-32936520D01*
X29952893Y-32949132D01*
X29972599Y-32963747D01*
X29990777Y-32980223D01*
X30007253Y-32998401D01*
X30021868Y-33018107D01*
X30034480Y-33039150D01*
X30044970Y-33061329D01*
X30053235Y-33084428D01*
X30059196Y-33108227D01*
X30062796Y-33132495D01*
X30064000Y-33156999D01*
X30064000Y-34407001D01*
X30062796Y-34431505D01*
X30059196Y-34455773D01*
X30053235Y-34479572D01*
X30044970Y-34502671D01*
X30034480Y-34524850D01*
X30021868Y-34545893D01*
X30007253Y-34565599D01*
X29990777Y-34583777D01*
X29972599Y-34600253D01*
X29952893Y-34614868D01*
X29931850Y-34627480D01*
X29909671Y-34637970D01*
X29886572Y-34646235D01*
X29862773Y-34652196D01*
X29838505Y-34655796D01*
X29814001Y-34657000D01*
X29113999Y-34657000D01*
X29089495Y-34655796D01*
X29065227Y-34652196D01*
X29041428Y-34646235D01*
X29018329Y-34637970D01*
X28996150Y-34627480D01*
X28975107Y-34614868D01*
X28955401Y-34600253D01*
X28937223Y-34583777D01*
X28920747Y-34565599D01*
X28906132Y-34545893D01*
X28893520Y-34524850D01*
X28883030Y-34502671D01*
X28874765Y-34479572D01*
X28868804Y-34455773D01*
X28865204Y-34431505D01*
X28864000Y-34407001D01*
X28864000Y-33156999D01*
X28865204Y-33132495D01*
X28868804Y-33108227D01*
X28874765Y-33084428D01*
X28883030Y-33061329D01*
X28893520Y-33039150D01*
X28906132Y-33018107D01*
X28920747Y-32998401D01*
X28937223Y-32980223D01*
X28955401Y-32963747D01*
X28975107Y-32949132D01*
X28996150Y-32936520D01*
X29018329Y-32926030D01*
X29041428Y-32917765D01*
X29065227Y-32911804D01*
X29089495Y-32908204D01*
X29113999Y-32907000D01*
X29814001Y-32907000D01*
X29838505Y-32908204D01*
X29838505Y-32908204D01*
G37*
D14*
X29464000Y-33782000D03*
D12*
X31464000Y-33782000D03*
D19*
X27305000Y-26035000D03*
X27305000Y-28575000D03*
X28575000Y-26035000D03*
X28575000Y-28575000D03*
X52705000Y-29210000D03*
X51435000Y-29210000D03*
X44450000Y-33020000D03*
X44435000Y-34305000D03*
X45085000Y-50800000D03*
X17780000Y-25400000D03*
X26670000Y-24130000D03*
X41910000Y-27940000D03*
X42545000Y-38100000D03*
X26670000Y-27305000D03*
X17780000Y-30480000D03*
X17780000Y-33020000D03*
X26670000Y-29845000D03*
X38100000Y-38100000D03*
X38100000Y-33020000D03*
X39370000Y-33020000D03*
X39370000Y-38100000D03*
X39370000Y-43180000D03*
X39370000Y-48260000D03*
X42545000Y-52070000D03*
X37465000Y-52070000D03*
D20*
X25400000Y-25400000D02*
X17780000Y-25400000D01*
X26670000Y-24130000D02*
X25400000Y-25400000D01*
X41910000Y-37465000D02*
X41910000Y-27940000D01*
X42545000Y-38100000D02*
X41910000Y-37465000D01*
X26670000Y-27305000D02*
X26035000Y-27305000D01*
X26035000Y-27305000D02*
X22860000Y-30480000D01*
X22860000Y-30480000D02*
X17780000Y-30480000D01*
X17780000Y-33020000D02*
X22860000Y-33020000D01*
X22860000Y-33020000D02*
X26035000Y-29845000D01*
X26035000Y-29845000D02*
X26670000Y-29845000D01*
D21*
X38100000Y-33020000D02*
X38100000Y-38100000D01*
X39370000Y-33020000D02*
X39370000Y-38100000D01*
X39370000Y-43180000D02*
X39370000Y-48260000D01*
D20*
X42545000Y-52070000D02*
X37465000Y-52070000D01*
D22*
G36*
X53950001Y-53950000D02*
G01*
X-3150000Y-53950000D01*
X-3150000Y-50579872D01*
X-2235000Y-50579872D01*
X-2235000Y-51020128D01*
X-2149110Y-51451925D01*
X-1980631Y-51858669D01*
X-1736038Y-52224729D01*
X-1424729Y-52536038D01*
X-1058669Y-52780631D01*
X-651925Y-52949110D01*
X-220128Y-53035000D01*
X220128Y-53035000D01*
X651925Y-52949110D01*
X1058669Y-52780631D01*
X1424729Y-52536038D01*
X1736038Y-52224729D01*
X1907537Y-51968061D01*
X36430000Y-51968061D01*
X36430000Y-52171939D01*
X36469774Y-52371898D01*
X36547795Y-52560256D01*
X36661063Y-52729774D01*
X36805226Y-52873937D01*
X36974744Y-52987205D01*
X37163102Y-53065226D01*
X37363061Y-53105000D01*
X37566939Y-53105000D01*
X37766898Y-53065226D01*
X37955256Y-52987205D01*
X38078285Y-52905000D01*
X41931715Y-52905000D01*
X42054744Y-52987205D01*
X42243102Y-53065226D01*
X42443061Y-53105000D01*
X42646939Y-53105000D01*
X42846898Y-53065226D01*
X43035256Y-52987205D01*
X43204774Y-52873937D01*
X43348937Y-52729774D01*
X43462205Y-52560256D01*
X43540226Y-52371898D01*
X43580000Y-52171939D01*
X43580000Y-51968061D01*
X43540226Y-51768102D01*
X43462205Y-51579744D01*
X43348937Y-51410226D01*
X43204774Y-51266063D01*
X43035256Y-51152795D01*
X42846898Y-51074774D01*
X42646939Y-51035000D01*
X42443061Y-51035000D01*
X42243102Y-51074774D01*
X42054744Y-51152795D01*
X41931715Y-51235000D01*
X38078285Y-51235000D01*
X37955256Y-51152795D01*
X37766898Y-51074774D01*
X37566939Y-51035000D01*
X37363061Y-51035000D01*
X37163102Y-51074774D01*
X36974744Y-51152795D01*
X36805226Y-51266063D01*
X36661063Y-51410226D01*
X36547795Y-51579744D01*
X36469774Y-51768102D01*
X36430000Y-51968061D01*
X1907537Y-51968061D01*
X1980631Y-51858669D01*
X2149110Y-51451925D01*
X2235000Y-51020128D01*
X2235000Y-50579872D01*
X2149110Y-50148075D01*
X1980631Y-49741331D01*
X1736038Y-49375271D01*
X1424729Y-49063962D01*
X1058669Y-48819369D01*
X651925Y-48650890D01*
X220128Y-48565000D01*
X-220128Y-48565000D01*
X-651925Y-48650890D01*
X-1058669Y-48819369D01*
X-1424729Y-49063962D01*
X-1736038Y-49375271D01*
X-1980631Y-49741331D01*
X-2149110Y-50148075D01*
X-2235000Y-50579872D01*
X-3150000Y-50579872D01*
X-3150000Y-24130000D01*
X4273057Y-24130000D01*
X4300764Y-24411309D01*
X4382818Y-24681808D01*
X4516068Y-24931101D01*
X4695392Y-25149608D01*
X4913899Y-25328932D01*
X5046858Y-25400000D01*
X4913899Y-25471068D01*
X4695392Y-25650392D01*
X4516068Y-25868899D01*
X4382818Y-26118192D01*
X4300764Y-26388691D01*
X4273057Y-26670000D01*
X4300764Y-26951309D01*
X4382818Y-27221808D01*
X4516068Y-27471101D01*
X4695392Y-27689608D01*
X4913899Y-27868932D01*
X5046858Y-27940000D01*
X4913899Y-28011068D01*
X4695392Y-28190392D01*
X4516068Y-28408899D01*
X4382818Y-28658192D01*
X4300764Y-28928691D01*
X4273057Y-29210000D01*
X4300764Y-29491309D01*
X4382818Y-29761808D01*
X4516068Y-30011101D01*
X4695392Y-30229608D01*
X4913899Y-30408932D01*
X5046858Y-30480000D01*
X4913899Y-30551068D01*
X4695392Y-30730392D01*
X4516068Y-30948899D01*
X4382818Y-31198192D01*
X4300764Y-31468691D01*
X4273057Y-31750000D01*
X4300764Y-32031309D01*
X4382818Y-32301808D01*
X4516068Y-32551101D01*
X4695392Y-32769608D01*
X4913899Y-32948932D01*
X5046858Y-33020000D01*
X4913899Y-33091068D01*
X4695392Y-33270392D01*
X4516068Y-33488899D01*
X4382818Y-33738192D01*
X4300764Y-34008691D01*
X4273057Y-34290000D01*
X4300764Y-34571309D01*
X4382818Y-34841808D01*
X4516068Y-35091101D01*
X4695392Y-35309608D01*
X4913899Y-35488932D01*
X5046858Y-35560000D01*
X4913899Y-35631068D01*
X4695392Y-35810392D01*
X4516068Y-36028899D01*
X4382818Y-36278192D01*
X4300764Y-36548691D01*
X4273057Y-36830000D01*
X4300764Y-37111309D01*
X4382818Y-37381808D01*
X4516068Y-37631101D01*
X4695392Y-37849608D01*
X4913899Y-38028932D01*
X5046858Y-38100000D01*
X4913899Y-38171068D01*
X4695392Y-38350392D01*
X4516068Y-38568899D01*
X4382818Y-38818192D01*
X4300764Y-39088691D01*
X4273057Y-39370000D01*
X4300764Y-39651309D01*
X4382818Y-39921808D01*
X4516068Y-40171101D01*
X4695392Y-40389608D01*
X4913899Y-40568932D01*
X5046858Y-40640000D01*
X4913899Y-40711068D01*
X4695392Y-40890392D01*
X4516068Y-41108899D01*
X4382818Y-41358192D01*
X4300764Y-41628691D01*
X4273057Y-41910000D01*
X4300764Y-42191309D01*
X4382818Y-42461808D01*
X4516068Y-42711101D01*
X4695392Y-42929608D01*
X4913899Y-43108932D01*
X5046858Y-43180000D01*
X4913899Y-43251068D01*
X4695392Y-43430392D01*
X4516068Y-43648899D01*
X4382818Y-43898192D01*
X4300764Y-44168691D01*
X4273057Y-44450000D01*
X4300764Y-44731309D01*
X4382818Y-45001808D01*
X4516068Y-45251101D01*
X4695392Y-45469608D01*
X4913899Y-45648932D01*
X5046858Y-45720000D01*
X4913899Y-45791068D01*
X4695392Y-45970392D01*
X4516068Y-46188899D01*
X4382818Y-46438192D01*
X4300764Y-46708691D01*
X4273057Y-46990000D01*
X4300764Y-47271309D01*
X4382818Y-47541808D01*
X4516068Y-47791101D01*
X4695392Y-48009608D01*
X4913899Y-48188932D01*
X5046858Y-48260000D01*
X4913899Y-48331068D01*
X4695392Y-48510392D01*
X4516068Y-48728899D01*
X4382818Y-48978192D01*
X4300764Y-49248691D01*
X4273057Y-49530000D01*
X4300764Y-49811309D01*
X4382818Y-50081808D01*
X4516068Y-50331101D01*
X4695392Y-50549608D01*
X4913899Y-50728932D01*
X5163192Y-50862182D01*
X5433691Y-50944236D01*
X5644508Y-50965000D01*
X5785492Y-50965000D01*
X5996309Y-50944236D01*
X6266808Y-50862182D01*
X6516101Y-50728932D01*
X6734608Y-50549608D01*
X6913932Y-50331101D01*
X7047182Y-50081808D01*
X7129236Y-49811309D01*
X7156943Y-49530000D01*
X7129236Y-49248691D01*
X7047182Y-48978192D01*
X6913932Y-48728899D01*
X6734608Y-48510392D01*
X6516101Y-48331068D01*
X6383142Y-48260000D01*
X6516101Y-48188932D01*
X6734608Y-48009608D01*
X6913932Y-47791101D01*
X7047182Y-47541808D01*
X7129236Y-47271309D01*
X7156943Y-46990000D01*
X7129236Y-46708691D01*
X7047182Y-46438192D01*
X6913932Y-46188899D01*
X6734608Y-45970392D01*
X6516101Y-45791068D01*
X6383142Y-45720000D01*
X6516101Y-45648932D01*
X6734608Y-45469608D01*
X6913932Y-45251101D01*
X7047182Y-45001808D01*
X7129236Y-44731309D01*
X7156943Y-44450000D01*
X7129236Y-44168691D01*
X7047182Y-43898192D01*
X6913932Y-43648899D01*
X6734608Y-43430392D01*
X6516101Y-43251068D01*
X6383142Y-43180000D01*
X6516101Y-43108932D01*
X6734608Y-42929608D01*
X6913932Y-42711101D01*
X7047182Y-42461808D01*
X7129236Y-42191309D01*
X7156943Y-41910000D01*
X7129236Y-41628691D01*
X7047182Y-41358192D01*
X6913932Y-41108899D01*
X6734608Y-40890392D01*
X6516101Y-40711068D01*
X6383142Y-40640000D01*
X6516101Y-40568932D01*
X6734608Y-40389608D01*
X6913932Y-40171101D01*
X7047182Y-39921808D01*
X7129236Y-39651309D01*
X7156943Y-39370000D01*
X7129236Y-39088691D01*
X7047182Y-38818192D01*
X6913932Y-38568899D01*
X6734608Y-38350392D01*
X6516101Y-38171068D01*
X6383142Y-38100000D01*
X6516101Y-38028932D01*
X6734608Y-37849608D01*
X6913932Y-37631101D01*
X7047182Y-37381808D01*
X7129236Y-37111309D01*
X7156943Y-36830000D01*
X7129236Y-36548691D01*
X7047182Y-36278192D01*
X6913932Y-36028899D01*
X6734608Y-35810392D01*
X6516101Y-35631068D01*
X6383142Y-35560000D01*
X6516101Y-35488932D01*
X6734608Y-35309608D01*
X6913932Y-35091101D01*
X7047182Y-34841808D01*
X7129236Y-34571309D01*
X7156943Y-34290000D01*
X7129236Y-34008691D01*
X7047182Y-33738192D01*
X6913932Y-33488899D01*
X6734608Y-33270392D01*
X6516101Y-33091068D01*
X6383142Y-33020000D01*
X6516101Y-32948932D01*
X6734608Y-32769608D01*
X6913932Y-32551101D01*
X7047182Y-32301808D01*
X7129236Y-32031309D01*
X7156943Y-31750000D01*
X7129236Y-31468691D01*
X7047182Y-31198192D01*
X6913932Y-30948899D01*
X6734608Y-30730392D01*
X6516101Y-30551068D01*
X6383142Y-30480000D01*
X6516101Y-30408932D01*
X6734608Y-30229608D01*
X6913932Y-30011101D01*
X7047182Y-29761808D01*
X7129236Y-29491309D01*
X7156943Y-29210000D01*
X7129236Y-28928691D01*
X7047182Y-28658192D01*
X6913932Y-28408899D01*
X6734608Y-28190392D01*
X6516101Y-28011068D01*
X6383142Y-27940000D01*
X6516101Y-27868932D01*
X6734608Y-27689608D01*
X6913932Y-27471101D01*
X7047182Y-27221808D01*
X7129236Y-26951309D01*
X7156943Y-26670000D01*
X7129236Y-26388691D01*
X7047182Y-26118192D01*
X6913932Y-25868899D01*
X6734608Y-25650392D01*
X6516101Y-25471068D01*
X6383142Y-25400000D01*
X6516101Y-25328932D01*
X6553717Y-25298061D01*
X16745000Y-25298061D01*
X16745000Y-25501939D01*
X16784774Y-25701898D01*
X16862795Y-25890256D01*
X16976063Y-26059774D01*
X17120226Y-26203937D01*
X17289744Y-26317205D01*
X17478102Y-26395226D01*
X17678061Y-26435000D01*
X17881939Y-26435000D01*
X18081898Y-26395226D01*
X18270256Y-26317205D01*
X18393285Y-26235000D01*
X19587385Y-26235000D01*
X19540764Y-26388691D01*
X19513057Y-26670000D01*
X19540764Y-26951309D01*
X19622818Y-27221808D01*
X19756068Y-27471101D01*
X19935392Y-27689608D01*
X20153899Y-27868932D01*
X20286858Y-27940000D01*
X20153899Y-28011068D01*
X19935392Y-28190392D01*
X19756068Y-28408899D01*
X19622818Y-28658192D01*
X19540764Y-28928691D01*
X19513057Y-29210000D01*
X19540764Y-29491309D01*
X19587385Y-29645000D01*
X18393285Y-29645000D01*
X18270256Y-29562795D01*
X18081898Y-29484774D01*
X17881939Y-29445000D01*
X17678061Y-29445000D01*
X17478102Y-29484774D01*
X17289744Y-29562795D01*
X17120226Y-29676063D01*
X16976063Y-29820226D01*
X16862795Y-29989744D01*
X16784774Y-30178102D01*
X16745000Y-30378061D01*
X16745000Y-30581939D01*
X16784774Y-30781898D01*
X16862795Y-30970256D01*
X16976063Y-31139774D01*
X17120226Y-31283937D01*
X17289744Y-31397205D01*
X17478102Y-31475226D01*
X17678061Y-31515000D01*
X17881939Y-31515000D01*
X18081898Y-31475226D01*
X18270256Y-31397205D01*
X18393285Y-31315000D01*
X19587385Y-31315000D01*
X19540764Y-31468691D01*
X19513057Y-31750000D01*
X19540764Y-32031309D01*
X19587385Y-32185000D01*
X18393285Y-32185000D01*
X18270256Y-32102795D01*
X18081898Y-32024774D01*
X17881939Y-31985000D01*
X17678061Y-31985000D01*
X17478102Y-32024774D01*
X17289744Y-32102795D01*
X17120226Y-32216063D01*
X16976063Y-32360226D01*
X16862795Y-32529744D01*
X16784774Y-32718102D01*
X16745000Y-32918061D01*
X16745000Y-33121939D01*
X16784774Y-33321898D01*
X16862795Y-33510256D01*
X16976063Y-33679774D01*
X17120226Y-33823937D01*
X17289744Y-33937205D01*
X17478102Y-34015226D01*
X17678061Y-34055000D01*
X17881939Y-34055000D01*
X18081898Y-34015226D01*
X18270256Y-33937205D01*
X18393285Y-33855000D01*
X19587385Y-33855000D01*
X19540764Y-34008691D01*
X19513057Y-34290000D01*
X19540764Y-34571309D01*
X19622818Y-34841808D01*
X19756068Y-35091101D01*
X19935392Y-35309608D01*
X20153899Y-35488932D01*
X20286858Y-35560000D01*
X20153899Y-35631068D01*
X19935392Y-35810392D01*
X19756068Y-36028899D01*
X19622818Y-36278192D01*
X19540764Y-36548691D01*
X19513057Y-36830000D01*
X19540764Y-37111309D01*
X19622818Y-37381808D01*
X19756068Y-37631101D01*
X19935392Y-37849608D01*
X20153899Y-38028932D01*
X20286858Y-38100000D01*
X20153899Y-38171068D01*
X19935392Y-38350392D01*
X19756068Y-38568899D01*
X19622818Y-38818192D01*
X19540764Y-39088691D01*
X19513057Y-39370000D01*
X19540764Y-39651309D01*
X19622818Y-39921808D01*
X19756068Y-40171101D01*
X19935392Y-40389608D01*
X20153899Y-40568932D01*
X20286858Y-40640000D01*
X20153899Y-40711068D01*
X19935392Y-40890392D01*
X19756068Y-41108899D01*
X19622818Y-41358192D01*
X19540764Y-41628691D01*
X19513057Y-41910000D01*
X19540764Y-42191309D01*
X19622818Y-42461808D01*
X19756068Y-42711101D01*
X19935392Y-42929608D01*
X20153899Y-43108932D01*
X20286858Y-43180000D01*
X20153899Y-43251068D01*
X19935392Y-43430392D01*
X19756068Y-43648899D01*
X19622818Y-43898192D01*
X19540764Y-44168691D01*
X19513057Y-44450000D01*
X19540764Y-44731309D01*
X19622818Y-45001808D01*
X19756068Y-45251101D01*
X19935392Y-45469608D01*
X20153899Y-45648932D01*
X20286858Y-45720000D01*
X20153899Y-45791068D01*
X19935392Y-45970392D01*
X19756068Y-46188899D01*
X19622818Y-46438192D01*
X19540764Y-46708691D01*
X19513057Y-46990000D01*
X19540764Y-47271309D01*
X19622818Y-47541808D01*
X19756068Y-47791101D01*
X19935392Y-48009608D01*
X20153899Y-48188932D01*
X20286858Y-48260000D01*
X20153899Y-48331068D01*
X19935392Y-48510392D01*
X19756068Y-48728899D01*
X19622818Y-48978192D01*
X19540764Y-49248691D01*
X19513057Y-49530000D01*
X19540764Y-49811309D01*
X19622818Y-50081808D01*
X19756068Y-50331101D01*
X19935392Y-50549608D01*
X20153899Y-50728932D01*
X20403192Y-50862182D01*
X20673691Y-50944236D01*
X20884508Y-50965000D01*
X21025492Y-50965000D01*
X21236309Y-50944236D01*
X21506808Y-50862182D01*
X21756101Y-50728932D01*
X21937731Y-50579872D01*
X48565000Y-50579872D01*
X48565000Y-51020128D01*
X48650890Y-51451925D01*
X48819369Y-51858669D01*
X49063962Y-52224729D01*
X49375271Y-52536038D01*
X49741331Y-52780631D01*
X50148075Y-52949110D01*
X50579872Y-53035000D01*
X51020128Y-53035000D01*
X51451925Y-52949110D01*
X51858669Y-52780631D01*
X52224729Y-52536038D01*
X52536038Y-52224729D01*
X52780631Y-51858669D01*
X52949110Y-51451925D01*
X53035000Y-51020128D01*
X53035000Y-50579872D01*
X52949110Y-50148075D01*
X52780631Y-49741331D01*
X52536038Y-49375271D01*
X52224729Y-49063962D01*
X51858669Y-48819369D01*
X51451925Y-48650890D01*
X51020128Y-48565000D01*
X50579872Y-48565000D01*
X50148075Y-48650890D01*
X49741331Y-48819369D01*
X49375271Y-49063962D01*
X49063962Y-49375271D01*
X48819369Y-49741331D01*
X48650890Y-50148075D01*
X48565000Y-50579872D01*
X21937731Y-50579872D01*
X21974608Y-50549608D01*
X22153932Y-50331101D01*
X22287182Y-50081808D01*
X22369236Y-49811309D01*
X22396943Y-49530000D01*
X22369236Y-49248691D01*
X22287182Y-48978192D01*
X22242715Y-48895000D01*
X28710025Y-48895000D01*
X28733870Y-49137102D01*
X28804489Y-49369901D01*
X28919167Y-49584449D01*
X29073498Y-49772502D01*
X29261551Y-49926833D01*
X29476099Y-50041511D01*
X29708898Y-50112130D01*
X29890335Y-50130000D01*
X30561665Y-50130000D01*
X30743102Y-50112130D01*
X30975901Y-50041511D01*
X31190449Y-49926833D01*
X31378502Y-49772502D01*
X31532833Y-49584449D01*
X31647511Y-49369901D01*
X31718130Y-49137102D01*
X31741975Y-48895000D01*
X31718130Y-48652898D01*
X31647511Y-48420099D01*
X31532833Y-48205551D01*
X31378502Y-48017498D01*
X31339889Y-47985809D01*
X31344387Y-47983405D01*
X31478962Y-47872962D01*
X31589405Y-47738387D01*
X31671472Y-47584851D01*
X31722008Y-47418255D01*
X31739072Y-47245001D01*
X31739072Y-46544999D01*
X31722008Y-46371745D01*
X31671472Y-46205149D01*
X31589405Y-46051613D01*
X31478962Y-45917038D01*
X31344387Y-45806595D01*
X31190851Y-45724528D01*
X31024255Y-45673992D01*
X30851001Y-45656928D01*
X29600999Y-45656928D01*
X29427745Y-45673992D01*
X29261149Y-45724528D01*
X29107613Y-45806595D01*
X28973038Y-45917038D01*
X28862595Y-46051613D01*
X28780528Y-46205149D01*
X28729992Y-46371745D01*
X28712928Y-46544999D01*
X28712928Y-47245001D01*
X28729992Y-47418255D01*
X28780528Y-47584851D01*
X28862595Y-47738387D01*
X28973038Y-47872962D01*
X29107613Y-47983405D01*
X29112111Y-47985809D01*
X29073498Y-48017498D01*
X28919167Y-48205551D01*
X28804489Y-48420099D01*
X28733870Y-48652898D01*
X28710025Y-48895000D01*
X22242715Y-48895000D01*
X22153932Y-48728899D01*
X21974608Y-48510392D01*
X21756101Y-48331068D01*
X21623142Y-48260000D01*
X21756101Y-48188932D01*
X21974608Y-48009608D01*
X22153932Y-47791101D01*
X22287182Y-47541808D01*
X22369236Y-47271309D01*
X22396943Y-46990000D01*
X22369236Y-46708691D01*
X22287182Y-46438192D01*
X22153932Y-46188899D01*
X21974608Y-45970392D01*
X21756101Y-45791068D01*
X21623142Y-45720000D01*
X21756101Y-45648932D01*
X21974608Y-45469608D01*
X22153932Y-45251101D01*
X22287182Y-45001808D01*
X22369236Y-44731309D01*
X22396943Y-44450000D01*
X22369236Y-44168691D01*
X22287182Y-43898192D01*
X22153932Y-43648899D01*
X21974608Y-43430392D01*
X21756101Y-43251068D01*
X21623142Y-43180000D01*
X21727444Y-43124249D01*
X38235000Y-43124249D01*
X38235001Y-48315752D01*
X38251424Y-48482499D01*
X38316325Y-48696447D01*
X38421717Y-48893623D01*
X38563552Y-49066449D01*
X38736378Y-49208284D01*
X38933554Y-49313676D01*
X39147502Y-49378577D01*
X39370000Y-49400491D01*
X39592499Y-49378577D01*
X39806447Y-49313676D01*
X40003623Y-49208284D01*
X40176449Y-49066449D01*
X40318284Y-48893623D01*
X40423676Y-48696447D01*
X40488577Y-48482499D01*
X40505000Y-48315752D01*
X40505000Y-43124248D01*
X40488577Y-42957501D01*
X40423676Y-42743553D01*
X40318284Y-42546377D01*
X40176449Y-42373551D01*
X40003623Y-42231716D01*
X39806446Y-42126324D01*
X39592498Y-42061423D01*
X39370000Y-42039509D01*
X39147501Y-42061423D01*
X38933553Y-42126324D01*
X38736377Y-42231716D01*
X38563551Y-42373551D01*
X38421716Y-42546377D01*
X38316324Y-42743554D01*
X38251423Y-42957502D01*
X38235000Y-43124249D01*
X21727444Y-43124249D01*
X21756101Y-43108932D01*
X21974608Y-42929608D01*
X22153932Y-42711101D01*
X22287182Y-42461808D01*
X22369236Y-42191309D01*
X22396943Y-41910000D01*
X22369236Y-41628691D01*
X22287182Y-41358192D01*
X22153932Y-41108899D01*
X21974608Y-40890392D01*
X21756101Y-40711068D01*
X21623142Y-40640000D01*
X21756101Y-40568932D01*
X21974608Y-40389608D01*
X22153932Y-40171101D01*
X22287182Y-39921808D01*
X22369236Y-39651309D01*
X22396943Y-39370000D01*
X22369236Y-39088691D01*
X22287182Y-38818192D01*
X22248060Y-38744999D01*
X28225928Y-38744999D01*
X28225928Y-39995001D01*
X28242992Y-40168255D01*
X28293528Y-40334851D01*
X28375595Y-40488387D01*
X28486038Y-40622962D01*
X28620613Y-40733405D01*
X28774149Y-40815472D01*
X28940745Y-40866008D01*
X29113999Y-40883072D01*
X29814001Y-40883072D01*
X29987255Y-40866008D01*
X30153851Y-40815472D01*
X30307387Y-40733405D01*
X30441962Y-40622962D01*
X30552405Y-40488387D01*
X30554810Y-40483888D01*
X30586499Y-40522502D01*
X30774552Y-40676833D01*
X30989100Y-40791511D01*
X31221899Y-40862130D01*
X31464000Y-40885975D01*
X31706102Y-40862130D01*
X31938901Y-40791511D01*
X32153449Y-40676833D01*
X32341502Y-40522502D01*
X32344898Y-40518363D01*
X44200000Y-40518363D01*
X44200000Y-40761637D01*
X44247460Y-41000236D01*
X44340557Y-41224992D01*
X44475713Y-41427267D01*
X44647733Y-41599287D01*
X44850008Y-41734443D01*
X45074764Y-41827540D01*
X45313363Y-41875000D01*
X45556637Y-41875000D01*
X45795236Y-41827540D01*
X46019992Y-41734443D01*
X46222267Y-41599287D01*
X46394287Y-41427267D01*
X46529443Y-41224992D01*
X46622540Y-41000236D01*
X46670000Y-40761637D01*
X46670000Y-40518363D01*
X50200000Y-40518363D01*
X50200000Y-40761637D01*
X50247460Y-41000236D01*
X50340557Y-41224992D01*
X50475713Y-41427267D01*
X50647733Y-41599287D01*
X50850008Y-41734443D01*
X51074764Y-41827540D01*
X51313363Y-41875000D01*
X51556637Y-41875000D01*
X51795236Y-41827540D01*
X52019992Y-41734443D01*
X52222267Y-41599287D01*
X52394287Y-41427267D01*
X52529443Y-41224992D01*
X52622540Y-41000236D01*
X52670000Y-40761637D01*
X52670000Y-40518363D01*
X52622540Y-40279764D01*
X52529443Y-40055008D01*
X52394287Y-39852733D01*
X52222267Y-39680713D01*
X52019992Y-39545557D01*
X51795236Y-39452460D01*
X51556637Y-39405000D01*
X51313363Y-39405000D01*
X51074764Y-39452460D01*
X50850008Y-39545557D01*
X50647733Y-39680713D01*
X50475713Y-39852733D01*
X50340557Y-40055008D01*
X50247460Y-40279764D01*
X50200000Y-40518363D01*
X46670000Y-40518363D01*
X46622540Y-40279764D01*
X46529443Y-40055008D01*
X46394287Y-39852733D01*
X46222267Y-39680713D01*
X46019992Y-39545557D01*
X45795236Y-39452460D01*
X45556637Y-39405000D01*
X45313363Y-39405000D01*
X45074764Y-39452460D01*
X44850008Y-39545557D01*
X44647733Y-39680713D01*
X44475713Y-39852733D01*
X44340557Y-40055008D01*
X44247460Y-40279764D01*
X44200000Y-40518363D01*
X32344898Y-40518363D01*
X32495833Y-40334449D01*
X32610511Y-40119900D01*
X32681130Y-39887101D01*
X32699000Y-39705664D01*
X32699000Y-39034335D01*
X32681130Y-38852898D01*
X32610511Y-38620099D01*
X32495833Y-38405551D01*
X32341502Y-38217498D01*
X32153448Y-38063167D01*
X31938900Y-37948489D01*
X31706101Y-37877870D01*
X31464000Y-37854025D01*
X31221898Y-37877870D01*
X30989099Y-37948489D01*
X30774551Y-38063167D01*
X30586498Y-38217498D01*
X30554809Y-38256111D01*
X30552405Y-38251613D01*
X30441962Y-38117038D01*
X30307387Y-38006595D01*
X30153851Y-37924528D01*
X29987255Y-37873992D01*
X29814001Y-37856928D01*
X29113999Y-37856928D01*
X28940745Y-37873992D01*
X28774149Y-37924528D01*
X28620613Y-38006595D01*
X28486038Y-38117038D01*
X28375595Y-38251613D01*
X28293528Y-38405149D01*
X28242992Y-38571745D01*
X28225928Y-38744999D01*
X22248060Y-38744999D01*
X22153932Y-38568899D01*
X21974608Y-38350392D01*
X21756101Y-38171068D01*
X21623142Y-38100000D01*
X21756101Y-38028932D01*
X21974608Y-37849608D01*
X22153932Y-37631101D01*
X22287182Y-37381808D01*
X22369236Y-37111309D01*
X22396943Y-36830000D01*
X22369236Y-36548691D01*
X22287182Y-36278192D01*
X22153932Y-36028899D01*
X21974608Y-35810392D01*
X21756101Y-35631068D01*
X21623142Y-35560000D01*
X21756101Y-35488932D01*
X21974608Y-35309608D01*
X22153932Y-35091101D01*
X22287182Y-34841808D01*
X22369236Y-34571309D01*
X22396943Y-34290000D01*
X22369236Y-34008691D01*
X22322615Y-33855000D01*
X22818982Y-33855000D01*
X22860000Y-33859040D01*
X22901018Y-33855000D01*
X22901019Y-33855000D01*
X23023689Y-33842918D01*
X23181087Y-33795172D01*
X23326146Y-33717636D01*
X23453291Y-33613291D01*
X23479446Y-33581421D01*
X23903868Y-33156999D01*
X28225928Y-33156999D01*
X28225928Y-34407001D01*
X28242992Y-34580255D01*
X28293528Y-34746851D01*
X28375595Y-34900387D01*
X28486038Y-35034962D01*
X28620613Y-35145405D01*
X28774149Y-35227472D01*
X28940745Y-35278008D01*
X29113999Y-35295072D01*
X29814001Y-35295072D01*
X29987255Y-35278008D01*
X30153851Y-35227472D01*
X30307387Y-35145405D01*
X30441962Y-35034962D01*
X30552405Y-34900387D01*
X30554810Y-34895888D01*
X30586499Y-34934502D01*
X30774552Y-35088833D01*
X30989100Y-35203511D01*
X31221899Y-35274130D01*
X31464000Y-35297975D01*
X31706102Y-35274130D01*
X31938901Y-35203511D01*
X32153449Y-35088833D01*
X32341502Y-34934502D01*
X32495833Y-34746449D01*
X32610511Y-34531900D01*
X32681130Y-34299101D01*
X32699000Y-34117664D01*
X32699000Y-33446335D01*
X32681130Y-33264898D01*
X32610511Y-33032099D01*
X32574245Y-32964249D01*
X36965000Y-32964249D01*
X36965001Y-38155752D01*
X36981424Y-38322499D01*
X37046325Y-38536447D01*
X37151717Y-38733623D01*
X37293552Y-38906449D01*
X37466378Y-39048284D01*
X37663554Y-39153676D01*
X37877502Y-39218577D01*
X38100000Y-39240491D01*
X38322499Y-39218577D01*
X38536447Y-39153676D01*
X38733623Y-39048284D01*
X38735000Y-39047154D01*
X38736378Y-39048284D01*
X38933554Y-39153676D01*
X39147502Y-39218577D01*
X39370000Y-39240491D01*
X39592499Y-39218577D01*
X39806447Y-39153676D01*
X40003623Y-39048284D01*
X40176449Y-38906449D01*
X40318284Y-38733623D01*
X40423676Y-38536447D01*
X40488577Y-38322499D01*
X40505000Y-38155752D01*
X40505000Y-32964248D01*
X40488577Y-32797501D01*
X40423676Y-32583553D01*
X40318284Y-32386377D01*
X40176449Y-32213551D01*
X40003623Y-32071716D01*
X39806446Y-31966324D01*
X39592498Y-31901423D01*
X39370000Y-31879509D01*
X39147501Y-31901423D01*
X38933553Y-31966324D01*
X38736377Y-32071716D01*
X38735000Y-32072846D01*
X38733623Y-32071716D01*
X38536446Y-31966324D01*
X38322498Y-31901423D01*
X38100000Y-31879509D01*
X37877501Y-31901423D01*
X37663553Y-31966324D01*
X37466377Y-32071716D01*
X37293551Y-32213551D01*
X37151716Y-32386377D01*
X37046324Y-32583554D01*
X36981423Y-32797502D01*
X36965000Y-32964249D01*
X32574245Y-32964249D01*
X32495833Y-32817551D01*
X32341502Y-32629498D01*
X32153448Y-32475167D01*
X31938900Y-32360489D01*
X31706101Y-32289870D01*
X31464000Y-32266025D01*
X31221898Y-32289870D01*
X30989099Y-32360489D01*
X30774551Y-32475167D01*
X30586498Y-32629498D01*
X30554809Y-32668111D01*
X30552405Y-32663613D01*
X30441962Y-32529038D01*
X30307387Y-32418595D01*
X30153851Y-32336528D01*
X29987255Y-32285992D01*
X29814001Y-32268928D01*
X29113999Y-32268928D01*
X28940745Y-32285992D01*
X28774149Y-32336528D01*
X28620613Y-32418595D01*
X28486038Y-32529038D01*
X28375595Y-32663613D01*
X28293528Y-32817149D01*
X28242992Y-32983745D01*
X28225928Y-33156999D01*
X23903868Y-33156999D01*
X26263832Y-30797036D01*
X26368102Y-30840226D01*
X26568061Y-30880000D01*
X26771939Y-30880000D01*
X26971898Y-30840226D01*
X27160256Y-30762205D01*
X27329774Y-30648937D01*
X27473937Y-30504774D01*
X27587205Y-30335256D01*
X27665226Y-30146898D01*
X27705000Y-29946939D01*
X27705000Y-29743061D01*
X27665226Y-29543102D01*
X27587205Y-29354744D01*
X27473937Y-29185226D01*
X27329774Y-29041063D01*
X27160256Y-28927795D01*
X26971898Y-28849774D01*
X26771939Y-28810000D01*
X26568061Y-28810000D01*
X26368102Y-28849774D01*
X26179744Y-28927795D01*
X26059195Y-29008343D01*
X26034999Y-29005960D01*
X25993981Y-29010000D01*
X25871311Y-29022082D01*
X25713913Y-29069828D01*
X25568854Y-29147364D01*
X25441709Y-29251709D01*
X25415559Y-29283573D01*
X22514133Y-32185000D01*
X22322615Y-32185000D01*
X22369236Y-32031309D01*
X22396943Y-31750000D01*
X22369236Y-31468691D01*
X22322615Y-31315000D01*
X22818982Y-31315000D01*
X22860000Y-31319040D01*
X22901018Y-31315000D01*
X22901019Y-31315000D01*
X23023689Y-31302918D01*
X23181087Y-31255172D01*
X23326146Y-31177636D01*
X23453291Y-31073291D01*
X23479446Y-31041421D01*
X26263832Y-28257036D01*
X26368102Y-28300226D01*
X26568061Y-28340000D01*
X26771939Y-28340000D01*
X26971898Y-28300226D01*
X27160256Y-28222205D01*
X27329774Y-28108937D01*
X27473937Y-27964774D01*
X27558603Y-27838061D01*
X40875000Y-27838061D01*
X40875000Y-28041939D01*
X40914774Y-28241898D01*
X40992795Y-28430256D01*
X41075001Y-28553286D01*
X41075000Y-37423981D01*
X41070960Y-37465000D01*
X41075000Y-37506018D01*
X41087082Y-37628688D01*
X41134828Y-37786086D01*
X41212364Y-37931145D01*
X41316709Y-38058291D01*
X41348578Y-38084445D01*
X41520908Y-38256775D01*
X41549774Y-38401898D01*
X41627795Y-38590256D01*
X41741063Y-38759774D01*
X41885226Y-38903937D01*
X42054744Y-39017205D01*
X42243102Y-39095226D01*
X42443061Y-39135000D01*
X42646939Y-39135000D01*
X42846898Y-39095226D01*
X43035256Y-39017205D01*
X43204774Y-38903937D01*
X43348937Y-38759774D01*
X43462205Y-38590256D01*
X43540226Y-38401898D01*
X43580000Y-38201939D01*
X43580000Y-37998061D01*
X43540226Y-37798102D01*
X43462205Y-37609744D01*
X43348937Y-37440226D01*
X43204774Y-37296063D01*
X43035256Y-37182795D01*
X42846898Y-37104774D01*
X42745000Y-37084505D01*
X42745000Y-31848072D01*
X44650000Y-31848072D01*
X44774482Y-31835812D01*
X44894180Y-31799502D01*
X45004494Y-31740537D01*
X45101185Y-31661185D01*
X45180537Y-31564494D01*
X45239502Y-31454180D01*
X45275812Y-31334482D01*
X45288072Y-31210000D01*
X48011928Y-31210000D01*
X48024188Y-31334482D01*
X48060498Y-31454180D01*
X48119463Y-31564494D01*
X48198815Y-31661185D01*
X48295506Y-31740537D01*
X48405820Y-31799502D01*
X48525518Y-31835812D01*
X48650000Y-31848072D01*
X49364250Y-31845000D01*
X49523000Y-31686250D01*
X49523000Y-29337000D01*
X49777000Y-29337000D01*
X49777000Y-31686250D01*
X49935750Y-31845000D01*
X50650000Y-31848072D01*
X50774482Y-31835812D01*
X50894180Y-31799502D01*
X51004494Y-31740537D01*
X51101185Y-31661185D01*
X51180537Y-31564494D01*
X51239502Y-31454180D01*
X51275812Y-31334482D01*
X51288072Y-31210000D01*
X51285000Y-29495750D01*
X51126250Y-29337000D01*
X49777000Y-29337000D01*
X49523000Y-29337000D01*
X48173750Y-29337000D01*
X48015000Y-29495750D01*
X48011928Y-31210000D01*
X45288072Y-31210000D01*
X45288072Y-27210000D01*
X48011928Y-27210000D01*
X48015000Y-28924250D01*
X48173750Y-29083000D01*
X49523000Y-29083000D01*
X49523000Y-26733750D01*
X49777000Y-26733750D01*
X49777000Y-29083000D01*
X51126250Y-29083000D01*
X51285000Y-28924250D01*
X51288072Y-27210000D01*
X51275812Y-27085518D01*
X51239502Y-26965820D01*
X51180537Y-26855506D01*
X51101185Y-26758815D01*
X51004494Y-26679463D01*
X50894180Y-26620498D01*
X50774482Y-26584188D01*
X50650000Y-26571928D01*
X49935750Y-26575000D01*
X49777000Y-26733750D01*
X49523000Y-26733750D01*
X49364250Y-26575000D01*
X48650000Y-26571928D01*
X48525518Y-26584188D01*
X48405820Y-26620498D01*
X48295506Y-26679463D01*
X48198815Y-26758815D01*
X48119463Y-26855506D01*
X48060498Y-26965820D01*
X48024188Y-27085518D01*
X48011928Y-27210000D01*
X45288072Y-27210000D01*
X45275812Y-27085518D01*
X45239502Y-26965820D01*
X45180537Y-26855506D01*
X45101185Y-26758815D01*
X45004494Y-26679463D01*
X44894180Y-26620498D01*
X44774482Y-26584188D01*
X44650000Y-26571928D01*
X42650000Y-26571928D01*
X42525518Y-26584188D01*
X42405820Y-26620498D01*
X42295506Y-26679463D01*
X42198815Y-26758815D01*
X42119463Y-26855506D01*
X42085216Y-26919576D01*
X42011939Y-26905000D01*
X41808061Y-26905000D01*
X41608102Y-26944774D01*
X41419744Y-27022795D01*
X41250226Y-27136063D01*
X41106063Y-27280226D01*
X40992795Y-27449744D01*
X40914774Y-27638102D01*
X40875000Y-27838061D01*
X27558603Y-27838061D01*
X27587205Y-27795256D01*
X27665226Y-27606898D01*
X27705000Y-27406939D01*
X27705000Y-27203061D01*
X27665226Y-27003102D01*
X27587205Y-26814744D01*
X27473937Y-26645226D01*
X27329774Y-26501063D01*
X27160256Y-26387795D01*
X26971898Y-26309774D01*
X26771939Y-26270000D01*
X26568061Y-26270000D01*
X26368102Y-26309774D01*
X26179744Y-26387795D01*
X26059195Y-26468343D01*
X26034999Y-26465960D01*
X25993981Y-26470000D01*
X25871311Y-26482082D01*
X25713913Y-26529828D01*
X25568854Y-26607364D01*
X25441709Y-26711709D01*
X25415559Y-26743573D01*
X22514133Y-29645000D01*
X22322615Y-29645000D01*
X22369236Y-29491309D01*
X22396943Y-29210000D01*
X22369236Y-28928691D01*
X22287182Y-28658192D01*
X22153932Y-28408899D01*
X21974608Y-28190392D01*
X21756101Y-28011068D01*
X21623142Y-27940000D01*
X21756101Y-27868932D01*
X21974608Y-27689608D01*
X22153932Y-27471101D01*
X22287182Y-27221808D01*
X22369236Y-26951309D01*
X22396943Y-26670000D01*
X22369236Y-26388691D01*
X22322615Y-26235000D01*
X25358982Y-26235000D01*
X25400000Y-26239040D01*
X25441018Y-26235000D01*
X25441019Y-26235000D01*
X25563689Y-26222918D01*
X25721087Y-26175172D01*
X25866146Y-26097636D01*
X25993291Y-25993291D01*
X26019446Y-25961421D01*
X26570867Y-25410000D01*
X43511928Y-25410000D01*
X43524188Y-25534482D01*
X43560498Y-25654180D01*
X43619463Y-25764494D01*
X43698815Y-25861185D01*
X43795506Y-25940537D01*
X43905820Y-25999502D01*
X44025518Y-26035812D01*
X44150000Y-26048072D01*
X45864250Y-26045000D01*
X46023000Y-25886250D01*
X46023000Y-24537000D01*
X46277000Y-24537000D01*
X46277000Y-25886250D01*
X46435750Y-26045000D01*
X48150000Y-26048072D01*
X48274482Y-26035812D01*
X48394180Y-25999502D01*
X48504494Y-25940537D01*
X48601185Y-25861185D01*
X48680537Y-25764494D01*
X48739502Y-25654180D01*
X48775812Y-25534482D01*
X48788072Y-25410000D01*
X48785000Y-24695750D01*
X48626250Y-24537000D01*
X46277000Y-24537000D01*
X46023000Y-24537000D01*
X43673750Y-24537000D01*
X43515000Y-24695750D01*
X43511928Y-25410000D01*
X26570867Y-25410000D01*
X26826775Y-25154092D01*
X26971898Y-25125226D01*
X27160256Y-25047205D01*
X27329774Y-24933937D01*
X27473937Y-24789774D01*
X27587205Y-24620256D01*
X27665226Y-24431898D01*
X27705000Y-24231939D01*
X27705000Y-24028061D01*
X27665226Y-23828102D01*
X27587205Y-23639744D01*
X27473937Y-23470226D01*
X27413711Y-23410000D01*
X43511928Y-23410000D01*
X43515000Y-24124250D01*
X43673750Y-24283000D01*
X46023000Y-24283000D01*
X46023000Y-22933750D01*
X46277000Y-22933750D01*
X46277000Y-24283000D01*
X48626250Y-24283000D01*
X48785000Y-24124250D01*
X48788072Y-23410000D01*
X48775812Y-23285518D01*
X48739502Y-23165820D01*
X48680537Y-23055506D01*
X48601185Y-22958815D01*
X48504494Y-22879463D01*
X48394180Y-22820498D01*
X48274482Y-22784188D01*
X48150000Y-22771928D01*
X46435750Y-22775000D01*
X46277000Y-22933750D01*
X46023000Y-22933750D01*
X45864250Y-22775000D01*
X44150000Y-22771928D01*
X44025518Y-22784188D01*
X43905820Y-22820498D01*
X43795506Y-22879463D01*
X43698815Y-22958815D01*
X43619463Y-23055506D01*
X43560498Y-23165820D01*
X43524188Y-23285518D01*
X43511928Y-23410000D01*
X27413711Y-23410000D01*
X27329774Y-23326063D01*
X27160256Y-23212795D01*
X26971898Y-23134774D01*
X26771939Y-23095000D01*
X26568061Y-23095000D01*
X26368102Y-23134774D01*
X26179744Y-23212795D01*
X26010226Y-23326063D01*
X25866063Y-23470226D01*
X25752795Y-23639744D01*
X25674774Y-23828102D01*
X25645908Y-23973225D01*
X25054133Y-24565000D01*
X22322615Y-24565000D01*
X22369236Y-24411309D01*
X22396943Y-24130000D01*
X22369236Y-23848691D01*
X22287182Y-23578192D01*
X22153932Y-23328899D01*
X21974608Y-23110392D01*
X21756101Y-22931068D01*
X21623142Y-22860000D01*
X21756101Y-22788932D01*
X21974608Y-22609608D01*
X22153932Y-22391101D01*
X22287182Y-22141808D01*
X22369236Y-21871309D01*
X22396943Y-21590000D01*
X22369236Y-21308691D01*
X22287182Y-21038192D01*
X22153932Y-20788899D01*
X21974608Y-20570392D01*
X21756101Y-20391068D01*
X21623142Y-20320000D01*
X21717499Y-20269565D01*
X30583040Y-20269565D01*
X30650020Y-20509656D01*
X30899048Y-20626756D01*
X31166135Y-20693023D01*
X31441017Y-20705910D01*
X31713133Y-20664922D01*
X31972023Y-20571636D01*
X32087980Y-20509656D01*
X32154960Y-20269565D01*
X49125040Y-20269565D01*
X49192020Y-20509656D01*
X49441048Y-20626756D01*
X49708135Y-20693023D01*
X49983017Y-20705910D01*
X50255133Y-20664922D01*
X50514023Y-20571636D01*
X50629980Y-20509656D01*
X50696960Y-20269565D01*
X49911000Y-19483605D01*
X49125040Y-20269565D01*
X32154960Y-20269565D01*
X31369000Y-19483605D01*
X30583040Y-20269565D01*
X21717499Y-20269565D01*
X21756101Y-20248932D01*
X21974608Y-20069608D01*
X22153932Y-19851101D01*
X22287182Y-19601808D01*
X22355674Y-19376017D01*
X29967090Y-19376017D01*
X30008078Y-19648133D01*
X30101364Y-19907023D01*
X30163344Y-20022980D01*
X30403435Y-20089960D01*
X31189395Y-19304000D01*
X31548605Y-19304000D01*
X32334565Y-20089960D01*
X32574656Y-20022980D01*
X32691756Y-19773952D01*
X32758023Y-19506865D01*
X32764157Y-19376017D01*
X48509090Y-19376017D01*
X48550078Y-19648133D01*
X48643364Y-19907023D01*
X48705344Y-20022980D01*
X48945435Y-20089960D01*
X49731395Y-19304000D01*
X50090605Y-19304000D01*
X50876565Y-20089960D01*
X51116656Y-20022980D01*
X51233756Y-19773952D01*
X51300023Y-19506865D01*
X51312910Y-19231983D01*
X51271922Y-18959867D01*
X51178636Y-18700977D01*
X51116656Y-18585020D01*
X50876565Y-18518040D01*
X50090605Y-19304000D01*
X49731395Y-19304000D01*
X48945435Y-18518040D01*
X48705344Y-18585020D01*
X48588244Y-18834048D01*
X48521977Y-19101135D01*
X48509090Y-19376017D01*
X32764157Y-19376017D01*
X32770910Y-19231983D01*
X32729922Y-18959867D01*
X32636636Y-18700977D01*
X32574656Y-18585020D01*
X32334565Y-18518040D01*
X31548605Y-19304000D01*
X31189395Y-19304000D01*
X30403435Y-18518040D01*
X30163344Y-18585020D01*
X30046244Y-18834048D01*
X29979977Y-19101135D01*
X29967090Y-19376017D01*
X22355674Y-19376017D01*
X22369236Y-19331309D01*
X22396943Y-19050000D01*
X22369236Y-18768691D01*
X22287182Y-18498192D01*
X22153932Y-18248899D01*
X21974608Y-18030392D01*
X21756101Y-17851068D01*
X21618318Y-17777421D01*
X21698113Y-17729565D01*
X30583040Y-17729565D01*
X30650020Y-17969656D01*
X30780644Y-18031079D01*
X30765977Y-18036364D01*
X30650020Y-18098344D01*
X30583040Y-18338435D01*
X31369000Y-19124395D01*
X32154960Y-18338435D01*
X32087980Y-18098344D01*
X31957356Y-18036921D01*
X31972023Y-18031636D01*
X32087980Y-17969656D01*
X32154960Y-17729565D01*
X49125040Y-17729565D01*
X49192020Y-17969656D01*
X49322644Y-18031079D01*
X49307977Y-18036364D01*
X49192020Y-18098344D01*
X49125040Y-18338435D01*
X49911000Y-19124395D01*
X50696960Y-18338435D01*
X50629980Y-18098344D01*
X50499356Y-18036921D01*
X50514023Y-18031636D01*
X50629980Y-17969656D01*
X50696960Y-17729565D01*
X49911000Y-16943605D01*
X49125040Y-17729565D01*
X32154960Y-17729565D01*
X31369000Y-16943605D01*
X30583040Y-17729565D01*
X21698113Y-17729565D01*
X21810131Y-17662385D01*
X22018519Y-17473414D01*
X22186037Y-17247420D01*
X22306246Y-16993087D01*
X22346904Y-16859039D01*
X22334256Y-16836017D01*
X29967090Y-16836017D01*
X30008078Y-17108133D01*
X30101364Y-17367023D01*
X30163344Y-17482980D01*
X30403435Y-17549960D01*
X31189395Y-16764000D01*
X31548605Y-16764000D01*
X32334565Y-17549960D01*
X32574656Y-17482980D01*
X32691756Y-17233952D01*
X32758023Y-16966865D01*
X32764157Y-16836017D01*
X48509090Y-16836017D01*
X48550078Y-17108133D01*
X48643364Y-17367023D01*
X48705344Y-17482980D01*
X48945435Y-17549960D01*
X49731395Y-16764000D01*
X50090605Y-16764000D01*
X50876565Y-17549960D01*
X51116656Y-17482980D01*
X51233756Y-17233952D01*
X51300023Y-16966865D01*
X51312910Y-16691983D01*
X51271922Y-16419867D01*
X51178636Y-16160977D01*
X51116656Y-16045020D01*
X50876565Y-15978040D01*
X50090605Y-16764000D01*
X49731395Y-16764000D01*
X48945435Y-15978040D01*
X48705344Y-16045020D01*
X48588244Y-16294048D01*
X48521977Y-16561135D01*
X48509090Y-16836017D01*
X32764157Y-16836017D01*
X32770910Y-16691983D01*
X32729922Y-16419867D01*
X32636636Y-16160977D01*
X32574656Y-16045020D01*
X32334565Y-15978040D01*
X31548605Y-16764000D01*
X31189395Y-16764000D01*
X30403435Y-15978040D01*
X30163344Y-16045020D01*
X30046244Y-16294048D01*
X29979977Y-16561135D01*
X29967090Y-16836017D01*
X22334256Y-16836017D01*
X22224915Y-16637000D01*
X21082000Y-16637000D01*
X21082000Y-16657000D01*
X20828000Y-16657000D01*
X20828000Y-16637000D01*
X19685085Y-16637000D01*
X19563096Y-16859039D01*
X19603754Y-16993087D01*
X19723963Y-17247420D01*
X19891481Y-17473414D01*
X20099869Y-17662385D01*
X20291682Y-17777421D01*
X20153899Y-17851068D01*
X19935392Y-18030392D01*
X19756068Y-18248899D01*
X19622818Y-18498192D01*
X19540764Y-18768691D01*
X19513057Y-19050000D01*
X19540764Y-19331309D01*
X19622818Y-19601808D01*
X19756068Y-19851101D01*
X19935392Y-20069608D01*
X20153899Y-20248932D01*
X20286858Y-20320000D01*
X20153899Y-20391068D01*
X19935392Y-20570392D01*
X19756068Y-20788899D01*
X19622818Y-21038192D01*
X19540764Y-21308691D01*
X19513057Y-21590000D01*
X19540764Y-21871309D01*
X19622818Y-22141808D01*
X19756068Y-22391101D01*
X19935392Y-22609608D01*
X20153899Y-22788932D01*
X20286858Y-22860000D01*
X20153899Y-22931068D01*
X19935392Y-23110392D01*
X19756068Y-23328899D01*
X19622818Y-23578192D01*
X19540764Y-23848691D01*
X19513057Y-24130000D01*
X19540764Y-24411309D01*
X19587385Y-24565000D01*
X18393285Y-24565000D01*
X18270256Y-24482795D01*
X18081898Y-24404774D01*
X17881939Y-24365000D01*
X17678061Y-24365000D01*
X17478102Y-24404774D01*
X17289744Y-24482795D01*
X17120226Y-24596063D01*
X16976063Y-24740226D01*
X16862795Y-24909744D01*
X16784774Y-25098102D01*
X16745000Y-25298061D01*
X6553717Y-25298061D01*
X6734608Y-25149608D01*
X6913932Y-24931101D01*
X7047182Y-24681808D01*
X7129236Y-24411309D01*
X7156943Y-24130000D01*
X7129236Y-23848691D01*
X7047182Y-23578192D01*
X6913932Y-23328899D01*
X6734608Y-23110392D01*
X6516101Y-22931068D01*
X6378318Y-22857421D01*
X6570131Y-22742385D01*
X6778519Y-22553414D01*
X6946037Y-22327420D01*
X7066246Y-22073087D01*
X7106904Y-21939039D01*
X6984915Y-21717000D01*
X5842000Y-21717000D01*
X5842000Y-21737000D01*
X5588000Y-21737000D01*
X5588000Y-21717000D01*
X4445085Y-21717000D01*
X4323096Y-21939039D01*
X4363754Y-22073087D01*
X4483963Y-22327420D01*
X4651481Y-22553414D01*
X4859869Y-22742385D01*
X5051682Y-22857421D01*
X4913899Y-22931068D01*
X4695392Y-23110392D01*
X4516068Y-23328899D01*
X4382818Y-23578192D01*
X4300764Y-23848691D01*
X4273057Y-24130000D01*
X-3150000Y-24130000D01*
X-3150000Y-16510000D01*
X4273057Y-16510000D01*
X4300764Y-16791309D01*
X4382818Y-17061808D01*
X4516068Y-17311101D01*
X4695392Y-17529608D01*
X4913899Y-17708932D01*
X5046858Y-17780000D01*
X4913899Y-17851068D01*
X4695392Y-18030392D01*
X4516068Y-18248899D01*
X4382818Y-18498192D01*
X4300764Y-18768691D01*
X4273057Y-19050000D01*
X4300764Y-19331309D01*
X4382818Y-19601808D01*
X4516068Y-19851101D01*
X4695392Y-20069608D01*
X4913899Y-20248932D01*
X5051682Y-20322579D01*
X4859869Y-20437615D01*
X4651481Y-20626586D01*
X4483963Y-20852580D01*
X4363754Y-21106913D01*
X4323096Y-21240961D01*
X4445085Y-21463000D01*
X5588000Y-21463000D01*
X5588000Y-21443000D01*
X5842000Y-21443000D01*
X5842000Y-21463000D01*
X6984915Y-21463000D01*
X7106904Y-21240961D01*
X7066246Y-21106913D01*
X6946037Y-20852580D01*
X6778519Y-20626586D01*
X6570131Y-20437615D01*
X6378318Y-20322579D01*
X6516101Y-20248932D01*
X6734608Y-20069608D01*
X6913932Y-19851101D01*
X7047182Y-19601808D01*
X7129236Y-19331309D01*
X7156943Y-19050000D01*
X7129236Y-18768691D01*
X7047182Y-18498192D01*
X6913932Y-18248899D01*
X6734608Y-18030392D01*
X6516101Y-17851068D01*
X6383142Y-17780000D01*
X6516101Y-17708932D01*
X6734608Y-17529608D01*
X6913932Y-17311101D01*
X7047182Y-17061808D01*
X7129236Y-16791309D01*
X7156943Y-16510000D01*
X7129236Y-16228691D01*
X7047182Y-15958192D01*
X6913932Y-15708899D01*
X6734608Y-15490392D01*
X6621518Y-15397581D01*
X6639482Y-15395812D01*
X6759180Y-15359502D01*
X6869494Y-15300537D01*
X6966185Y-15221185D01*
X7045537Y-15124494D01*
X7104502Y-15014180D01*
X7140812Y-14894482D01*
X7153072Y-14770000D01*
X7153072Y-13970000D01*
X19513057Y-13970000D01*
X19540764Y-14251309D01*
X19622818Y-14521808D01*
X19756068Y-14771101D01*
X19935392Y-14989608D01*
X20153899Y-15168932D01*
X20291682Y-15242579D01*
X20099869Y-15357615D01*
X19891481Y-15546586D01*
X19723963Y-15772580D01*
X19603754Y-16026913D01*
X19563096Y-16160961D01*
X19685085Y-16383000D01*
X20828000Y-16383000D01*
X20828000Y-16363000D01*
X21082000Y-16363000D01*
X21082000Y-16383000D01*
X22224915Y-16383000D01*
X22346904Y-16160961D01*
X22306246Y-16026913D01*
X22198258Y-15798435D01*
X30583040Y-15798435D01*
X31369000Y-16584395D01*
X32154960Y-15798435D01*
X49125040Y-15798435D01*
X49911000Y-16584395D01*
X50696960Y-15798435D01*
X50629980Y-15558344D01*
X50380952Y-15441244D01*
X50113865Y-15374977D01*
X49838983Y-15362090D01*
X49566867Y-15403078D01*
X49307977Y-15496364D01*
X49192020Y-15558344D01*
X49125040Y-15798435D01*
X32154960Y-15798435D01*
X32087980Y-15558344D01*
X31838952Y-15441244D01*
X31571865Y-15374977D01*
X31296983Y-15362090D01*
X31024867Y-15403078D01*
X30765977Y-15496364D01*
X30650020Y-15558344D01*
X30583040Y-15798435D01*
X22198258Y-15798435D01*
X22186037Y-15772580D01*
X22018519Y-15546586D01*
X21810131Y-15357615D01*
X21618318Y-15242579D01*
X21756101Y-15168932D01*
X21974608Y-14989608D01*
X22153932Y-14771101D01*
X22287182Y-14521808D01*
X22369236Y-14251309D01*
X22396943Y-13970000D01*
X22369236Y-13688691D01*
X22287182Y-13418192D01*
X22153932Y-13168899D01*
X21974608Y-12950392D01*
X21756101Y-12771068D01*
X21506808Y-12637818D01*
X21236309Y-12555764D01*
X21025492Y-12535000D01*
X20884508Y-12535000D01*
X20673691Y-12555764D01*
X20403192Y-12637818D01*
X20153899Y-12771068D01*
X19935392Y-12950392D01*
X19756068Y-13168899D01*
X19622818Y-13418192D01*
X19540764Y-13688691D01*
X19513057Y-13970000D01*
X7153072Y-13970000D01*
X7153072Y-13170000D01*
X7140812Y-13045518D01*
X7104502Y-12925820D01*
X7045537Y-12815506D01*
X6966185Y-12718815D01*
X6869494Y-12639463D01*
X6759180Y-12580498D01*
X6639482Y-12544188D01*
X6515000Y-12531928D01*
X4915000Y-12531928D01*
X4790518Y-12544188D01*
X4670820Y-12580498D01*
X4560506Y-12639463D01*
X4463815Y-12718815D01*
X4384463Y-12815506D01*
X4325498Y-12925820D01*
X4289188Y-13045518D01*
X4276928Y-13170000D01*
X4276928Y-14770000D01*
X4289188Y-14894482D01*
X4325498Y-15014180D01*
X4384463Y-15124494D01*
X4463815Y-15221185D01*
X4560506Y-15300537D01*
X4670820Y-15359502D01*
X4790518Y-15395812D01*
X4808482Y-15397581D01*
X4695392Y-15490392D01*
X4516068Y-15708899D01*
X4382818Y-15958192D01*
X4300764Y-16228691D01*
X4273057Y-16510000D01*
X-3150000Y-16510000D01*
X-3150000Y-8498408D01*
X29963000Y-8498408D01*
X29963000Y-8773592D01*
X30016686Y-9043490D01*
X30121995Y-9297727D01*
X30274880Y-9526535D01*
X30469465Y-9721120D01*
X30698273Y-9874005D01*
X30952510Y-9979314D01*
X31222408Y-10033000D01*
X31497592Y-10033000D01*
X31767490Y-9979314D01*
X32021727Y-9874005D01*
X32250535Y-9721120D01*
X32445120Y-9526535D01*
X32598005Y-9297727D01*
X32703314Y-9043490D01*
X32757000Y-8773592D01*
X32757000Y-8498408D01*
X48505000Y-8498408D01*
X48505000Y-8773592D01*
X48558686Y-9043490D01*
X48663995Y-9297727D01*
X48816880Y-9526535D01*
X49011465Y-9721120D01*
X49240273Y-9874005D01*
X49494510Y-9979314D01*
X49764408Y-10033000D01*
X50039592Y-10033000D01*
X50309490Y-9979314D01*
X50563727Y-9874005D01*
X50792535Y-9721120D01*
X50987120Y-9526535D01*
X51140005Y-9297727D01*
X51245314Y-9043490D01*
X51299000Y-8773592D01*
X51299000Y-8498408D01*
X51245314Y-8228510D01*
X51140005Y-7974273D01*
X50987120Y-7745465D01*
X50792535Y-7550880D01*
X50563727Y-7397995D01*
X50490985Y-7367864D01*
X50572727Y-7334005D01*
X50801535Y-7181120D01*
X50996120Y-6986535D01*
X51149005Y-6757727D01*
X51254314Y-6503490D01*
X51308000Y-6233592D01*
X51308000Y-5958408D01*
X51254314Y-5688510D01*
X51149005Y-5434273D01*
X50996120Y-5205465D01*
X50801535Y-5010880D01*
X50572727Y-4857995D01*
X50318490Y-4752686D01*
X50048592Y-4699000D01*
X49773408Y-4699000D01*
X49503510Y-4752686D01*
X49249273Y-4857995D01*
X49020465Y-5010880D01*
X48825880Y-5205465D01*
X48672995Y-5434273D01*
X48567686Y-5688510D01*
X48514000Y-5958408D01*
X48514000Y-6233592D01*
X48567686Y-6503490D01*
X48672995Y-6757727D01*
X48825880Y-6986535D01*
X49020465Y-7181120D01*
X49249273Y-7334005D01*
X49322015Y-7364136D01*
X49240273Y-7397995D01*
X49011465Y-7550880D01*
X48816880Y-7745465D01*
X48663995Y-7974273D01*
X48558686Y-8228510D01*
X48505000Y-8498408D01*
X32757000Y-8498408D01*
X32703314Y-8228510D01*
X32598005Y-7974273D01*
X32445120Y-7745465D01*
X32250535Y-7550880D01*
X32021727Y-7397995D01*
X31948985Y-7367864D01*
X32030727Y-7334005D01*
X32259535Y-7181120D01*
X32454120Y-6986535D01*
X32607005Y-6757727D01*
X32712314Y-6503490D01*
X32766000Y-6233592D01*
X32766000Y-5958408D01*
X32712314Y-5688510D01*
X32607005Y-5434273D01*
X32454120Y-5205465D01*
X32259535Y-5010880D01*
X32030727Y-4857995D01*
X31776490Y-4752686D01*
X31506592Y-4699000D01*
X31231408Y-4699000D01*
X30961510Y-4752686D01*
X30707273Y-4857995D01*
X30478465Y-5010880D01*
X30283880Y-5205465D01*
X30130995Y-5434273D01*
X30025686Y-5688510D01*
X29972000Y-5958408D01*
X29972000Y-6233592D01*
X30025686Y-6503490D01*
X30130995Y-6757727D01*
X30283880Y-6986535D01*
X30478465Y-7181120D01*
X30707273Y-7334005D01*
X30780015Y-7364136D01*
X30698273Y-7397995D01*
X30469465Y-7550880D01*
X30274880Y-7745465D01*
X30121995Y-7974273D01*
X30016686Y-8228510D01*
X29963000Y-8498408D01*
X-3150000Y-8498408D01*
X-3150000Y220128D01*
X-2235000Y220128D01*
X-2235000Y-220128D01*
X-2149110Y-651925D01*
X-1980631Y-1058669D01*
X-1736038Y-1424729D01*
X-1424729Y-1736038D01*
X-1058669Y-1980631D01*
X-651925Y-2149110D01*
X-220128Y-2235000D01*
X220128Y-2235000D01*
X651925Y-2149110D01*
X1058669Y-1980631D01*
X1424729Y-1736038D01*
X1736038Y-1424729D01*
X1980631Y-1058669D01*
X2149110Y-651925D01*
X2235000Y-220128D01*
X2235000Y220128D01*
X48565000Y220128D01*
X48565000Y-220128D01*
X48650890Y-651925D01*
X48819369Y-1058669D01*
X49063962Y-1424729D01*
X49375271Y-1736038D01*
X49741331Y-1980631D01*
X50148075Y-2149110D01*
X50579872Y-2235000D01*
X51020128Y-2235000D01*
X51451925Y-2149110D01*
X51858669Y-1980631D01*
X52224729Y-1736038D01*
X52536038Y-1424729D01*
X52780631Y-1058669D01*
X52949110Y-651925D01*
X53035000Y-220128D01*
X53035000Y220128D01*
X52949110Y651925D01*
X52780631Y1058669D01*
X52536038Y1424729D01*
X52224729Y1736038D01*
X51858669Y1980631D01*
X51451925Y2149110D01*
X51020128Y2235000D01*
X50579872Y2235000D01*
X50148075Y2149110D01*
X49741331Y1980631D01*
X49375271Y1736038D01*
X49063962Y1424729D01*
X48819369Y1058669D01*
X48650890Y651925D01*
X48565000Y220128D01*
X2235000Y220128D01*
X2149110Y651925D01*
X1980631Y1058669D01*
X1736038Y1424729D01*
X1424729Y1736038D01*
X1058669Y1980631D01*
X651925Y2149110D01*
X220128Y2235000D01*
X-220128Y2235000D01*
X-651925Y2149110D01*
X-1058669Y1980631D01*
X-1424729Y1736038D01*
X-1736038Y1424729D01*
X-1980631Y1058669D01*
X-2149110Y651925D01*
X-2235000Y220128D01*
X-3150000Y220128D01*
X-3150000Y3150000D01*
X53950000Y3150000D01*
X53950001Y-53950000D01*
X53950001Y-53950000D01*
G37*
X53950001Y-53950000D02*
X-3150000Y-53950000D01*
X-3150000Y-50579872D01*
X-2235000Y-50579872D01*
X-2235000Y-51020128D01*
X-2149110Y-51451925D01*
X-1980631Y-51858669D01*
X-1736038Y-52224729D01*
X-1424729Y-52536038D01*
X-1058669Y-52780631D01*
X-651925Y-52949110D01*
X-220128Y-53035000D01*
X220128Y-53035000D01*
X651925Y-52949110D01*
X1058669Y-52780631D01*
X1424729Y-52536038D01*
X1736038Y-52224729D01*
X1907537Y-51968061D01*
X36430000Y-51968061D01*
X36430000Y-52171939D01*
X36469774Y-52371898D01*
X36547795Y-52560256D01*
X36661063Y-52729774D01*
X36805226Y-52873937D01*
X36974744Y-52987205D01*
X37163102Y-53065226D01*
X37363061Y-53105000D01*
X37566939Y-53105000D01*
X37766898Y-53065226D01*
X37955256Y-52987205D01*
X38078285Y-52905000D01*
X41931715Y-52905000D01*
X42054744Y-52987205D01*
X42243102Y-53065226D01*
X42443061Y-53105000D01*
X42646939Y-53105000D01*
X42846898Y-53065226D01*
X43035256Y-52987205D01*
X43204774Y-52873937D01*
X43348937Y-52729774D01*
X43462205Y-52560256D01*
X43540226Y-52371898D01*
X43580000Y-52171939D01*
X43580000Y-51968061D01*
X43540226Y-51768102D01*
X43462205Y-51579744D01*
X43348937Y-51410226D01*
X43204774Y-51266063D01*
X43035256Y-51152795D01*
X42846898Y-51074774D01*
X42646939Y-51035000D01*
X42443061Y-51035000D01*
X42243102Y-51074774D01*
X42054744Y-51152795D01*
X41931715Y-51235000D01*
X38078285Y-51235000D01*
X37955256Y-51152795D01*
X37766898Y-51074774D01*
X37566939Y-51035000D01*
X37363061Y-51035000D01*
X37163102Y-51074774D01*
X36974744Y-51152795D01*
X36805226Y-51266063D01*
X36661063Y-51410226D01*
X36547795Y-51579744D01*
X36469774Y-51768102D01*
X36430000Y-51968061D01*
X1907537Y-51968061D01*
X1980631Y-51858669D01*
X2149110Y-51451925D01*
X2235000Y-51020128D01*
X2235000Y-50579872D01*
X2149110Y-50148075D01*
X1980631Y-49741331D01*
X1736038Y-49375271D01*
X1424729Y-49063962D01*
X1058669Y-48819369D01*
X651925Y-48650890D01*
X220128Y-48565000D01*
X-220128Y-48565000D01*
X-651925Y-48650890D01*
X-1058669Y-48819369D01*
X-1424729Y-49063962D01*
X-1736038Y-49375271D01*
X-1980631Y-49741331D01*
X-2149110Y-50148075D01*
X-2235000Y-50579872D01*
X-3150000Y-50579872D01*
X-3150000Y-24130000D01*
X4273057Y-24130000D01*
X4300764Y-24411309D01*
X4382818Y-24681808D01*
X4516068Y-24931101D01*
X4695392Y-25149608D01*
X4913899Y-25328932D01*
X5046858Y-25400000D01*
X4913899Y-25471068D01*
X4695392Y-25650392D01*
X4516068Y-25868899D01*
X4382818Y-26118192D01*
X4300764Y-26388691D01*
X4273057Y-26670000D01*
X4300764Y-26951309D01*
X4382818Y-27221808D01*
X4516068Y-27471101D01*
X4695392Y-27689608D01*
X4913899Y-27868932D01*
X5046858Y-27940000D01*
X4913899Y-28011068D01*
X4695392Y-28190392D01*
X4516068Y-28408899D01*
X4382818Y-28658192D01*
X4300764Y-28928691D01*
X4273057Y-29210000D01*
X4300764Y-29491309D01*
X4382818Y-29761808D01*
X4516068Y-30011101D01*
X4695392Y-30229608D01*
X4913899Y-30408932D01*
X5046858Y-30480000D01*
X4913899Y-30551068D01*
X4695392Y-30730392D01*
X4516068Y-30948899D01*
X4382818Y-31198192D01*
X4300764Y-31468691D01*
X4273057Y-31750000D01*
X4300764Y-32031309D01*
X4382818Y-32301808D01*
X4516068Y-32551101D01*
X4695392Y-32769608D01*
X4913899Y-32948932D01*
X5046858Y-33020000D01*
X4913899Y-33091068D01*
X4695392Y-33270392D01*
X4516068Y-33488899D01*
X4382818Y-33738192D01*
X4300764Y-34008691D01*
X4273057Y-34290000D01*
X4300764Y-34571309D01*
X4382818Y-34841808D01*
X4516068Y-35091101D01*
X4695392Y-35309608D01*
X4913899Y-35488932D01*
X5046858Y-35560000D01*
X4913899Y-35631068D01*
X4695392Y-35810392D01*
X4516068Y-36028899D01*
X4382818Y-36278192D01*
X4300764Y-36548691D01*
X4273057Y-36830000D01*
X4300764Y-37111309D01*
X4382818Y-37381808D01*
X4516068Y-37631101D01*
X4695392Y-37849608D01*
X4913899Y-38028932D01*
X5046858Y-38100000D01*
X4913899Y-38171068D01*
X4695392Y-38350392D01*
X4516068Y-38568899D01*
X4382818Y-38818192D01*
X4300764Y-39088691D01*
X4273057Y-39370000D01*
X4300764Y-39651309D01*
X4382818Y-39921808D01*
X4516068Y-40171101D01*
X4695392Y-40389608D01*
X4913899Y-40568932D01*
X5046858Y-40640000D01*
X4913899Y-40711068D01*
X4695392Y-40890392D01*
X4516068Y-41108899D01*
X4382818Y-41358192D01*
X4300764Y-41628691D01*
X4273057Y-41910000D01*
X4300764Y-42191309D01*
X4382818Y-42461808D01*
X4516068Y-42711101D01*
X4695392Y-42929608D01*
X4913899Y-43108932D01*
X5046858Y-43180000D01*
X4913899Y-43251068D01*
X4695392Y-43430392D01*
X4516068Y-43648899D01*
X4382818Y-43898192D01*
X4300764Y-44168691D01*
X4273057Y-44450000D01*
X4300764Y-44731309D01*
X4382818Y-45001808D01*
X4516068Y-45251101D01*
X4695392Y-45469608D01*
X4913899Y-45648932D01*
X5046858Y-45720000D01*
X4913899Y-45791068D01*
X4695392Y-45970392D01*
X4516068Y-46188899D01*
X4382818Y-46438192D01*
X4300764Y-46708691D01*
X4273057Y-46990000D01*
X4300764Y-47271309D01*
X4382818Y-47541808D01*
X4516068Y-47791101D01*
X4695392Y-48009608D01*
X4913899Y-48188932D01*
X5046858Y-48260000D01*
X4913899Y-48331068D01*
X4695392Y-48510392D01*
X4516068Y-48728899D01*
X4382818Y-48978192D01*
X4300764Y-49248691D01*
X4273057Y-49530000D01*
X4300764Y-49811309D01*
X4382818Y-50081808D01*
X4516068Y-50331101D01*
X4695392Y-50549608D01*
X4913899Y-50728932D01*
X5163192Y-50862182D01*
X5433691Y-50944236D01*
X5644508Y-50965000D01*
X5785492Y-50965000D01*
X5996309Y-50944236D01*
X6266808Y-50862182D01*
X6516101Y-50728932D01*
X6734608Y-50549608D01*
X6913932Y-50331101D01*
X7047182Y-50081808D01*
X7129236Y-49811309D01*
X7156943Y-49530000D01*
X7129236Y-49248691D01*
X7047182Y-48978192D01*
X6913932Y-48728899D01*
X6734608Y-48510392D01*
X6516101Y-48331068D01*
X6383142Y-48260000D01*
X6516101Y-48188932D01*
X6734608Y-48009608D01*
X6913932Y-47791101D01*
X7047182Y-47541808D01*
X7129236Y-47271309D01*
X7156943Y-46990000D01*
X7129236Y-46708691D01*
X7047182Y-46438192D01*
X6913932Y-46188899D01*
X6734608Y-45970392D01*
X6516101Y-45791068D01*
X6383142Y-45720000D01*
X6516101Y-45648932D01*
X6734608Y-45469608D01*
X6913932Y-45251101D01*
X7047182Y-45001808D01*
X7129236Y-44731309D01*
X7156943Y-44450000D01*
X7129236Y-44168691D01*
X7047182Y-43898192D01*
X6913932Y-43648899D01*
X6734608Y-43430392D01*
X6516101Y-43251068D01*
X6383142Y-43180000D01*
X6516101Y-43108932D01*
X6734608Y-42929608D01*
X6913932Y-42711101D01*
X7047182Y-42461808D01*
X7129236Y-42191309D01*
X7156943Y-41910000D01*
X7129236Y-41628691D01*
X7047182Y-41358192D01*
X6913932Y-41108899D01*
X6734608Y-40890392D01*
X6516101Y-40711068D01*
X6383142Y-40640000D01*
X6516101Y-40568932D01*
X6734608Y-40389608D01*
X6913932Y-40171101D01*
X7047182Y-39921808D01*
X7129236Y-39651309D01*
X7156943Y-39370000D01*
X7129236Y-39088691D01*
X7047182Y-38818192D01*
X6913932Y-38568899D01*
X6734608Y-38350392D01*
X6516101Y-38171068D01*
X6383142Y-38100000D01*
X6516101Y-38028932D01*
X6734608Y-37849608D01*
X6913932Y-37631101D01*
X7047182Y-37381808D01*
X7129236Y-37111309D01*
X7156943Y-36830000D01*
X7129236Y-36548691D01*
X7047182Y-36278192D01*
X6913932Y-36028899D01*
X6734608Y-35810392D01*
X6516101Y-35631068D01*
X6383142Y-35560000D01*
X6516101Y-35488932D01*
X6734608Y-35309608D01*
X6913932Y-35091101D01*
X7047182Y-34841808D01*
X7129236Y-34571309D01*
X7156943Y-34290000D01*
X7129236Y-34008691D01*
X7047182Y-33738192D01*
X6913932Y-33488899D01*
X6734608Y-33270392D01*
X6516101Y-33091068D01*
X6383142Y-33020000D01*
X6516101Y-32948932D01*
X6734608Y-32769608D01*
X6913932Y-32551101D01*
X7047182Y-32301808D01*
X7129236Y-32031309D01*
X7156943Y-31750000D01*
X7129236Y-31468691D01*
X7047182Y-31198192D01*
X6913932Y-30948899D01*
X6734608Y-30730392D01*
X6516101Y-30551068D01*
X6383142Y-30480000D01*
X6516101Y-30408932D01*
X6734608Y-30229608D01*
X6913932Y-30011101D01*
X7047182Y-29761808D01*
X7129236Y-29491309D01*
X7156943Y-29210000D01*
X7129236Y-28928691D01*
X7047182Y-28658192D01*
X6913932Y-28408899D01*
X6734608Y-28190392D01*
X6516101Y-28011068D01*
X6383142Y-27940000D01*
X6516101Y-27868932D01*
X6734608Y-27689608D01*
X6913932Y-27471101D01*
X7047182Y-27221808D01*
X7129236Y-26951309D01*
X7156943Y-26670000D01*
X7129236Y-26388691D01*
X7047182Y-26118192D01*
X6913932Y-25868899D01*
X6734608Y-25650392D01*
X6516101Y-25471068D01*
X6383142Y-25400000D01*
X6516101Y-25328932D01*
X6553717Y-25298061D01*
X16745000Y-25298061D01*
X16745000Y-25501939D01*
X16784774Y-25701898D01*
X16862795Y-25890256D01*
X16976063Y-26059774D01*
X17120226Y-26203937D01*
X17289744Y-26317205D01*
X17478102Y-26395226D01*
X17678061Y-26435000D01*
X17881939Y-26435000D01*
X18081898Y-26395226D01*
X18270256Y-26317205D01*
X18393285Y-26235000D01*
X19587385Y-26235000D01*
X19540764Y-26388691D01*
X19513057Y-26670000D01*
X19540764Y-26951309D01*
X19622818Y-27221808D01*
X19756068Y-27471101D01*
X19935392Y-27689608D01*
X20153899Y-27868932D01*
X20286858Y-27940000D01*
X20153899Y-28011068D01*
X19935392Y-28190392D01*
X19756068Y-28408899D01*
X19622818Y-28658192D01*
X19540764Y-28928691D01*
X19513057Y-29210000D01*
X19540764Y-29491309D01*
X19587385Y-29645000D01*
X18393285Y-29645000D01*
X18270256Y-29562795D01*
X18081898Y-29484774D01*
X17881939Y-29445000D01*
X17678061Y-29445000D01*
X17478102Y-29484774D01*
X17289744Y-29562795D01*
X17120226Y-29676063D01*
X16976063Y-29820226D01*
X16862795Y-29989744D01*
X16784774Y-30178102D01*
X16745000Y-30378061D01*
X16745000Y-30581939D01*
X16784774Y-30781898D01*
X16862795Y-30970256D01*
X16976063Y-31139774D01*
X17120226Y-31283937D01*
X17289744Y-31397205D01*
X17478102Y-31475226D01*
X17678061Y-31515000D01*
X17881939Y-31515000D01*
X18081898Y-31475226D01*
X18270256Y-31397205D01*
X18393285Y-31315000D01*
X19587385Y-31315000D01*
X19540764Y-31468691D01*
X19513057Y-31750000D01*
X19540764Y-32031309D01*
X19587385Y-32185000D01*
X18393285Y-32185000D01*
X18270256Y-32102795D01*
X18081898Y-32024774D01*
X17881939Y-31985000D01*
X17678061Y-31985000D01*
X17478102Y-32024774D01*
X17289744Y-32102795D01*
X17120226Y-32216063D01*
X16976063Y-32360226D01*
X16862795Y-32529744D01*
X16784774Y-32718102D01*
X16745000Y-32918061D01*
X16745000Y-33121939D01*
X16784774Y-33321898D01*
X16862795Y-33510256D01*
X16976063Y-33679774D01*
X17120226Y-33823937D01*
X17289744Y-33937205D01*
X17478102Y-34015226D01*
X17678061Y-34055000D01*
X17881939Y-34055000D01*
X18081898Y-34015226D01*
X18270256Y-33937205D01*
X18393285Y-33855000D01*
X19587385Y-33855000D01*
X19540764Y-34008691D01*
X19513057Y-34290000D01*
X19540764Y-34571309D01*
X19622818Y-34841808D01*
X19756068Y-35091101D01*
X19935392Y-35309608D01*
X20153899Y-35488932D01*
X20286858Y-35560000D01*
X20153899Y-35631068D01*
X19935392Y-35810392D01*
X19756068Y-36028899D01*
X19622818Y-36278192D01*
X19540764Y-36548691D01*
X19513057Y-36830000D01*
X19540764Y-37111309D01*
X19622818Y-37381808D01*
X19756068Y-37631101D01*
X19935392Y-37849608D01*
X20153899Y-38028932D01*
X20286858Y-38100000D01*
X20153899Y-38171068D01*
X19935392Y-38350392D01*
X19756068Y-38568899D01*
X19622818Y-38818192D01*
X19540764Y-39088691D01*
X19513057Y-39370000D01*
X19540764Y-39651309D01*
X19622818Y-39921808D01*
X19756068Y-40171101D01*
X19935392Y-40389608D01*
X20153899Y-40568932D01*
X20286858Y-40640000D01*
X20153899Y-40711068D01*
X19935392Y-40890392D01*
X19756068Y-41108899D01*
X19622818Y-41358192D01*
X19540764Y-41628691D01*
X19513057Y-41910000D01*
X19540764Y-42191309D01*
X19622818Y-42461808D01*
X19756068Y-42711101D01*
X19935392Y-42929608D01*
X20153899Y-43108932D01*
X20286858Y-43180000D01*
X20153899Y-43251068D01*
X19935392Y-43430392D01*
X19756068Y-43648899D01*
X19622818Y-43898192D01*
X19540764Y-44168691D01*
X19513057Y-44450000D01*
X19540764Y-44731309D01*
X19622818Y-45001808D01*
X19756068Y-45251101D01*
X19935392Y-45469608D01*
X20153899Y-45648932D01*
X20286858Y-45720000D01*
X20153899Y-45791068D01*
X19935392Y-45970392D01*
X19756068Y-46188899D01*
X19622818Y-46438192D01*
X19540764Y-46708691D01*
X19513057Y-46990000D01*
X19540764Y-47271309D01*
X19622818Y-47541808D01*
X19756068Y-47791101D01*
X19935392Y-48009608D01*
X20153899Y-48188932D01*
X20286858Y-48260000D01*
X20153899Y-48331068D01*
X19935392Y-48510392D01*
X19756068Y-48728899D01*
X19622818Y-48978192D01*
X19540764Y-49248691D01*
X19513057Y-49530000D01*
X19540764Y-49811309D01*
X19622818Y-50081808D01*
X19756068Y-50331101D01*
X19935392Y-50549608D01*
X20153899Y-50728932D01*
X20403192Y-50862182D01*
X20673691Y-50944236D01*
X20884508Y-50965000D01*
X21025492Y-50965000D01*
X21236309Y-50944236D01*
X21506808Y-50862182D01*
X21756101Y-50728932D01*
X21937731Y-50579872D01*
X48565000Y-50579872D01*
X48565000Y-51020128D01*
X48650890Y-51451925D01*
X48819369Y-51858669D01*
X49063962Y-52224729D01*
X49375271Y-52536038D01*
X49741331Y-52780631D01*
X50148075Y-52949110D01*
X50579872Y-53035000D01*
X51020128Y-53035000D01*
X51451925Y-52949110D01*
X51858669Y-52780631D01*
X52224729Y-52536038D01*
X52536038Y-52224729D01*
X52780631Y-51858669D01*
X52949110Y-51451925D01*
X53035000Y-51020128D01*
X53035000Y-50579872D01*
X52949110Y-50148075D01*
X52780631Y-49741331D01*
X52536038Y-49375271D01*
X52224729Y-49063962D01*
X51858669Y-48819369D01*
X51451925Y-48650890D01*
X51020128Y-48565000D01*
X50579872Y-48565000D01*
X50148075Y-48650890D01*
X49741331Y-48819369D01*
X49375271Y-49063962D01*
X49063962Y-49375271D01*
X48819369Y-49741331D01*
X48650890Y-50148075D01*
X48565000Y-50579872D01*
X21937731Y-50579872D01*
X21974608Y-50549608D01*
X22153932Y-50331101D01*
X22287182Y-50081808D01*
X22369236Y-49811309D01*
X22396943Y-49530000D01*
X22369236Y-49248691D01*
X22287182Y-48978192D01*
X22242715Y-48895000D01*
X28710025Y-48895000D01*
X28733870Y-49137102D01*
X28804489Y-49369901D01*
X28919167Y-49584449D01*
X29073498Y-49772502D01*
X29261551Y-49926833D01*
X29476099Y-50041511D01*
X29708898Y-50112130D01*
X29890335Y-50130000D01*
X30561665Y-50130000D01*
X30743102Y-50112130D01*
X30975901Y-50041511D01*
X31190449Y-49926833D01*
X31378502Y-49772502D01*
X31532833Y-49584449D01*
X31647511Y-49369901D01*
X31718130Y-49137102D01*
X31741975Y-48895000D01*
X31718130Y-48652898D01*
X31647511Y-48420099D01*
X31532833Y-48205551D01*
X31378502Y-48017498D01*
X31339889Y-47985809D01*
X31344387Y-47983405D01*
X31478962Y-47872962D01*
X31589405Y-47738387D01*
X31671472Y-47584851D01*
X31722008Y-47418255D01*
X31739072Y-47245001D01*
X31739072Y-46544999D01*
X31722008Y-46371745D01*
X31671472Y-46205149D01*
X31589405Y-46051613D01*
X31478962Y-45917038D01*
X31344387Y-45806595D01*
X31190851Y-45724528D01*
X31024255Y-45673992D01*
X30851001Y-45656928D01*
X29600999Y-45656928D01*
X29427745Y-45673992D01*
X29261149Y-45724528D01*
X29107613Y-45806595D01*
X28973038Y-45917038D01*
X28862595Y-46051613D01*
X28780528Y-46205149D01*
X28729992Y-46371745D01*
X28712928Y-46544999D01*
X28712928Y-47245001D01*
X28729992Y-47418255D01*
X28780528Y-47584851D01*
X28862595Y-47738387D01*
X28973038Y-47872962D01*
X29107613Y-47983405D01*
X29112111Y-47985809D01*
X29073498Y-48017498D01*
X28919167Y-48205551D01*
X28804489Y-48420099D01*
X28733870Y-48652898D01*
X28710025Y-48895000D01*
X22242715Y-48895000D01*
X22153932Y-48728899D01*
X21974608Y-48510392D01*
X21756101Y-48331068D01*
X21623142Y-48260000D01*
X21756101Y-48188932D01*
X21974608Y-48009608D01*
X22153932Y-47791101D01*
X22287182Y-47541808D01*
X22369236Y-47271309D01*
X22396943Y-46990000D01*
X22369236Y-46708691D01*
X22287182Y-46438192D01*
X22153932Y-46188899D01*
X21974608Y-45970392D01*
X21756101Y-45791068D01*
X21623142Y-45720000D01*
X21756101Y-45648932D01*
X21974608Y-45469608D01*
X22153932Y-45251101D01*
X22287182Y-45001808D01*
X22369236Y-44731309D01*
X22396943Y-44450000D01*
X22369236Y-44168691D01*
X22287182Y-43898192D01*
X22153932Y-43648899D01*
X21974608Y-43430392D01*
X21756101Y-43251068D01*
X21623142Y-43180000D01*
X21727444Y-43124249D01*
X38235000Y-43124249D01*
X38235001Y-48315752D01*
X38251424Y-48482499D01*
X38316325Y-48696447D01*
X38421717Y-48893623D01*
X38563552Y-49066449D01*
X38736378Y-49208284D01*
X38933554Y-49313676D01*
X39147502Y-49378577D01*
X39370000Y-49400491D01*
X39592499Y-49378577D01*
X39806447Y-49313676D01*
X40003623Y-49208284D01*
X40176449Y-49066449D01*
X40318284Y-48893623D01*
X40423676Y-48696447D01*
X40488577Y-48482499D01*
X40505000Y-48315752D01*
X40505000Y-43124248D01*
X40488577Y-42957501D01*
X40423676Y-42743553D01*
X40318284Y-42546377D01*
X40176449Y-42373551D01*
X40003623Y-42231716D01*
X39806446Y-42126324D01*
X39592498Y-42061423D01*
X39370000Y-42039509D01*
X39147501Y-42061423D01*
X38933553Y-42126324D01*
X38736377Y-42231716D01*
X38563551Y-42373551D01*
X38421716Y-42546377D01*
X38316324Y-42743554D01*
X38251423Y-42957502D01*
X38235000Y-43124249D01*
X21727444Y-43124249D01*
X21756101Y-43108932D01*
X21974608Y-42929608D01*
X22153932Y-42711101D01*
X22287182Y-42461808D01*
X22369236Y-42191309D01*
X22396943Y-41910000D01*
X22369236Y-41628691D01*
X22287182Y-41358192D01*
X22153932Y-41108899D01*
X21974608Y-40890392D01*
X21756101Y-40711068D01*
X21623142Y-40640000D01*
X21756101Y-40568932D01*
X21974608Y-40389608D01*
X22153932Y-40171101D01*
X22287182Y-39921808D01*
X22369236Y-39651309D01*
X22396943Y-39370000D01*
X22369236Y-39088691D01*
X22287182Y-38818192D01*
X22248060Y-38744999D01*
X28225928Y-38744999D01*
X28225928Y-39995001D01*
X28242992Y-40168255D01*
X28293528Y-40334851D01*
X28375595Y-40488387D01*
X28486038Y-40622962D01*
X28620613Y-40733405D01*
X28774149Y-40815472D01*
X28940745Y-40866008D01*
X29113999Y-40883072D01*
X29814001Y-40883072D01*
X29987255Y-40866008D01*
X30153851Y-40815472D01*
X30307387Y-40733405D01*
X30441962Y-40622962D01*
X30552405Y-40488387D01*
X30554810Y-40483888D01*
X30586499Y-40522502D01*
X30774552Y-40676833D01*
X30989100Y-40791511D01*
X31221899Y-40862130D01*
X31464000Y-40885975D01*
X31706102Y-40862130D01*
X31938901Y-40791511D01*
X32153449Y-40676833D01*
X32341502Y-40522502D01*
X32344898Y-40518363D01*
X44200000Y-40518363D01*
X44200000Y-40761637D01*
X44247460Y-41000236D01*
X44340557Y-41224992D01*
X44475713Y-41427267D01*
X44647733Y-41599287D01*
X44850008Y-41734443D01*
X45074764Y-41827540D01*
X45313363Y-41875000D01*
X45556637Y-41875000D01*
X45795236Y-41827540D01*
X46019992Y-41734443D01*
X46222267Y-41599287D01*
X46394287Y-41427267D01*
X46529443Y-41224992D01*
X46622540Y-41000236D01*
X46670000Y-40761637D01*
X46670000Y-40518363D01*
X50200000Y-40518363D01*
X50200000Y-40761637D01*
X50247460Y-41000236D01*
X50340557Y-41224992D01*
X50475713Y-41427267D01*
X50647733Y-41599287D01*
X50850008Y-41734443D01*
X51074764Y-41827540D01*
X51313363Y-41875000D01*
X51556637Y-41875000D01*
X51795236Y-41827540D01*
X52019992Y-41734443D01*
X52222267Y-41599287D01*
X52394287Y-41427267D01*
X52529443Y-41224992D01*
X52622540Y-41000236D01*
X52670000Y-40761637D01*
X52670000Y-40518363D01*
X52622540Y-40279764D01*
X52529443Y-40055008D01*
X52394287Y-39852733D01*
X52222267Y-39680713D01*
X52019992Y-39545557D01*
X51795236Y-39452460D01*
X51556637Y-39405000D01*
X51313363Y-39405000D01*
X51074764Y-39452460D01*
X50850008Y-39545557D01*
X50647733Y-39680713D01*
X50475713Y-39852733D01*
X50340557Y-40055008D01*
X50247460Y-40279764D01*
X50200000Y-40518363D01*
X46670000Y-40518363D01*
X46622540Y-40279764D01*
X46529443Y-40055008D01*
X46394287Y-39852733D01*
X46222267Y-39680713D01*
X46019992Y-39545557D01*
X45795236Y-39452460D01*
X45556637Y-39405000D01*
X45313363Y-39405000D01*
X45074764Y-39452460D01*
X44850008Y-39545557D01*
X44647733Y-39680713D01*
X44475713Y-39852733D01*
X44340557Y-40055008D01*
X44247460Y-40279764D01*
X44200000Y-40518363D01*
X32344898Y-40518363D01*
X32495833Y-40334449D01*
X32610511Y-40119900D01*
X32681130Y-39887101D01*
X32699000Y-39705664D01*
X32699000Y-39034335D01*
X32681130Y-38852898D01*
X32610511Y-38620099D01*
X32495833Y-38405551D01*
X32341502Y-38217498D01*
X32153448Y-38063167D01*
X31938900Y-37948489D01*
X31706101Y-37877870D01*
X31464000Y-37854025D01*
X31221898Y-37877870D01*
X30989099Y-37948489D01*
X30774551Y-38063167D01*
X30586498Y-38217498D01*
X30554809Y-38256111D01*
X30552405Y-38251613D01*
X30441962Y-38117038D01*
X30307387Y-38006595D01*
X30153851Y-37924528D01*
X29987255Y-37873992D01*
X29814001Y-37856928D01*
X29113999Y-37856928D01*
X28940745Y-37873992D01*
X28774149Y-37924528D01*
X28620613Y-38006595D01*
X28486038Y-38117038D01*
X28375595Y-38251613D01*
X28293528Y-38405149D01*
X28242992Y-38571745D01*
X28225928Y-38744999D01*
X22248060Y-38744999D01*
X22153932Y-38568899D01*
X21974608Y-38350392D01*
X21756101Y-38171068D01*
X21623142Y-38100000D01*
X21756101Y-38028932D01*
X21974608Y-37849608D01*
X22153932Y-37631101D01*
X22287182Y-37381808D01*
X22369236Y-37111309D01*
X22396943Y-36830000D01*
X22369236Y-36548691D01*
X22287182Y-36278192D01*
X22153932Y-36028899D01*
X21974608Y-35810392D01*
X21756101Y-35631068D01*
X21623142Y-35560000D01*
X21756101Y-35488932D01*
X21974608Y-35309608D01*
X22153932Y-35091101D01*
X22287182Y-34841808D01*
X22369236Y-34571309D01*
X22396943Y-34290000D01*
X22369236Y-34008691D01*
X22322615Y-33855000D01*
X22818982Y-33855000D01*
X22860000Y-33859040D01*
X22901018Y-33855000D01*
X22901019Y-33855000D01*
X23023689Y-33842918D01*
X23181087Y-33795172D01*
X23326146Y-33717636D01*
X23453291Y-33613291D01*
X23479446Y-33581421D01*
X23903868Y-33156999D01*
X28225928Y-33156999D01*
X28225928Y-34407001D01*
X28242992Y-34580255D01*
X28293528Y-34746851D01*
X28375595Y-34900387D01*
X28486038Y-35034962D01*
X28620613Y-35145405D01*
X28774149Y-35227472D01*
X28940745Y-35278008D01*
X29113999Y-35295072D01*
X29814001Y-35295072D01*
X29987255Y-35278008D01*
X30153851Y-35227472D01*
X30307387Y-35145405D01*
X30441962Y-35034962D01*
X30552405Y-34900387D01*
X30554810Y-34895888D01*
X30586499Y-34934502D01*
X30774552Y-35088833D01*
X30989100Y-35203511D01*
X31221899Y-35274130D01*
X31464000Y-35297975D01*
X31706102Y-35274130D01*
X31938901Y-35203511D01*
X32153449Y-35088833D01*
X32341502Y-34934502D01*
X32495833Y-34746449D01*
X32610511Y-34531900D01*
X32681130Y-34299101D01*
X32699000Y-34117664D01*
X32699000Y-33446335D01*
X32681130Y-33264898D01*
X32610511Y-33032099D01*
X32574245Y-32964249D01*
X36965000Y-32964249D01*
X36965001Y-38155752D01*
X36981424Y-38322499D01*
X37046325Y-38536447D01*
X37151717Y-38733623D01*
X37293552Y-38906449D01*
X37466378Y-39048284D01*
X37663554Y-39153676D01*
X37877502Y-39218577D01*
X38100000Y-39240491D01*
X38322499Y-39218577D01*
X38536447Y-39153676D01*
X38733623Y-39048284D01*
X38735000Y-39047154D01*
X38736378Y-39048284D01*
X38933554Y-39153676D01*
X39147502Y-39218577D01*
X39370000Y-39240491D01*
X39592499Y-39218577D01*
X39806447Y-39153676D01*
X40003623Y-39048284D01*
X40176449Y-38906449D01*
X40318284Y-38733623D01*
X40423676Y-38536447D01*
X40488577Y-38322499D01*
X40505000Y-38155752D01*
X40505000Y-32964248D01*
X40488577Y-32797501D01*
X40423676Y-32583553D01*
X40318284Y-32386377D01*
X40176449Y-32213551D01*
X40003623Y-32071716D01*
X39806446Y-31966324D01*
X39592498Y-31901423D01*
X39370000Y-31879509D01*
X39147501Y-31901423D01*
X38933553Y-31966324D01*
X38736377Y-32071716D01*
X38735000Y-32072846D01*
X38733623Y-32071716D01*
X38536446Y-31966324D01*
X38322498Y-31901423D01*
X38100000Y-31879509D01*
X37877501Y-31901423D01*
X37663553Y-31966324D01*
X37466377Y-32071716D01*
X37293551Y-32213551D01*
X37151716Y-32386377D01*
X37046324Y-32583554D01*
X36981423Y-32797502D01*
X36965000Y-32964249D01*
X32574245Y-32964249D01*
X32495833Y-32817551D01*
X32341502Y-32629498D01*
X32153448Y-32475167D01*
X31938900Y-32360489D01*
X31706101Y-32289870D01*
X31464000Y-32266025D01*
X31221898Y-32289870D01*
X30989099Y-32360489D01*
X30774551Y-32475167D01*
X30586498Y-32629498D01*
X30554809Y-32668111D01*
X30552405Y-32663613D01*
X30441962Y-32529038D01*
X30307387Y-32418595D01*
X30153851Y-32336528D01*
X29987255Y-32285992D01*
X29814001Y-32268928D01*
X29113999Y-32268928D01*
X28940745Y-32285992D01*
X28774149Y-32336528D01*
X28620613Y-32418595D01*
X28486038Y-32529038D01*
X28375595Y-32663613D01*
X28293528Y-32817149D01*
X28242992Y-32983745D01*
X28225928Y-33156999D01*
X23903868Y-33156999D01*
X26263832Y-30797036D01*
X26368102Y-30840226D01*
X26568061Y-30880000D01*
X26771939Y-30880000D01*
X26971898Y-30840226D01*
X27160256Y-30762205D01*
X27329774Y-30648937D01*
X27473937Y-30504774D01*
X27587205Y-30335256D01*
X27665226Y-30146898D01*
X27705000Y-29946939D01*
X27705000Y-29743061D01*
X27665226Y-29543102D01*
X27587205Y-29354744D01*
X27473937Y-29185226D01*
X27329774Y-29041063D01*
X27160256Y-28927795D01*
X26971898Y-28849774D01*
X26771939Y-28810000D01*
X26568061Y-28810000D01*
X26368102Y-28849774D01*
X26179744Y-28927795D01*
X26059195Y-29008343D01*
X26034999Y-29005960D01*
X25993981Y-29010000D01*
X25871311Y-29022082D01*
X25713913Y-29069828D01*
X25568854Y-29147364D01*
X25441709Y-29251709D01*
X25415559Y-29283573D01*
X22514133Y-32185000D01*
X22322615Y-32185000D01*
X22369236Y-32031309D01*
X22396943Y-31750000D01*
X22369236Y-31468691D01*
X22322615Y-31315000D01*
X22818982Y-31315000D01*
X22860000Y-31319040D01*
X22901018Y-31315000D01*
X22901019Y-31315000D01*
X23023689Y-31302918D01*
X23181087Y-31255172D01*
X23326146Y-31177636D01*
X23453291Y-31073291D01*
X23479446Y-31041421D01*
X26263832Y-28257036D01*
X26368102Y-28300226D01*
X26568061Y-28340000D01*
X26771939Y-28340000D01*
X26971898Y-28300226D01*
X27160256Y-28222205D01*
X27329774Y-28108937D01*
X27473937Y-27964774D01*
X27558603Y-27838061D01*
X40875000Y-27838061D01*
X40875000Y-28041939D01*
X40914774Y-28241898D01*
X40992795Y-28430256D01*
X41075001Y-28553286D01*
X41075000Y-37423981D01*
X41070960Y-37465000D01*
X41075000Y-37506018D01*
X41087082Y-37628688D01*
X41134828Y-37786086D01*
X41212364Y-37931145D01*
X41316709Y-38058291D01*
X41348578Y-38084445D01*
X41520908Y-38256775D01*
X41549774Y-38401898D01*
X41627795Y-38590256D01*
X41741063Y-38759774D01*
X41885226Y-38903937D01*
X42054744Y-39017205D01*
X42243102Y-39095226D01*
X42443061Y-39135000D01*
X42646939Y-39135000D01*
X42846898Y-39095226D01*
X43035256Y-39017205D01*
X43204774Y-38903937D01*
X43348937Y-38759774D01*
X43462205Y-38590256D01*
X43540226Y-38401898D01*
X43580000Y-38201939D01*
X43580000Y-37998061D01*
X43540226Y-37798102D01*
X43462205Y-37609744D01*
X43348937Y-37440226D01*
X43204774Y-37296063D01*
X43035256Y-37182795D01*
X42846898Y-37104774D01*
X42745000Y-37084505D01*
X42745000Y-31848072D01*
X44650000Y-31848072D01*
X44774482Y-31835812D01*
X44894180Y-31799502D01*
X45004494Y-31740537D01*
X45101185Y-31661185D01*
X45180537Y-31564494D01*
X45239502Y-31454180D01*
X45275812Y-31334482D01*
X45288072Y-31210000D01*
X48011928Y-31210000D01*
X48024188Y-31334482D01*
X48060498Y-31454180D01*
X48119463Y-31564494D01*
X48198815Y-31661185D01*
X48295506Y-31740537D01*
X48405820Y-31799502D01*
X48525518Y-31835812D01*
X48650000Y-31848072D01*
X49364250Y-31845000D01*
X49523000Y-31686250D01*
X49523000Y-29337000D01*
X49777000Y-29337000D01*
X49777000Y-31686250D01*
X49935750Y-31845000D01*
X50650000Y-31848072D01*
X50774482Y-31835812D01*
X50894180Y-31799502D01*
X51004494Y-31740537D01*
X51101185Y-31661185D01*
X51180537Y-31564494D01*
X51239502Y-31454180D01*
X51275812Y-31334482D01*
X51288072Y-31210000D01*
X51285000Y-29495750D01*
X51126250Y-29337000D01*
X49777000Y-29337000D01*
X49523000Y-29337000D01*
X48173750Y-29337000D01*
X48015000Y-29495750D01*
X48011928Y-31210000D01*
X45288072Y-31210000D01*
X45288072Y-27210000D01*
X48011928Y-27210000D01*
X48015000Y-28924250D01*
X48173750Y-29083000D01*
X49523000Y-29083000D01*
X49523000Y-26733750D01*
X49777000Y-26733750D01*
X49777000Y-29083000D01*
X51126250Y-29083000D01*
X51285000Y-28924250D01*
X51288072Y-27210000D01*
X51275812Y-27085518D01*
X51239502Y-26965820D01*
X51180537Y-26855506D01*
X51101185Y-26758815D01*
X51004494Y-26679463D01*
X50894180Y-26620498D01*
X50774482Y-26584188D01*
X50650000Y-26571928D01*
X49935750Y-26575000D01*
X49777000Y-26733750D01*
X49523000Y-26733750D01*
X49364250Y-26575000D01*
X48650000Y-26571928D01*
X48525518Y-26584188D01*
X48405820Y-26620498D01*
X48295506Y-26679463D01*
X48198815Y-26758815D01*
X48119463Y-26855506D01*
X48060498Y-26965820D01*
X48024188Y-27085518D01*
X48011928Y-27210000D01*
X45288072Y-27210000D01*
X45275812Y-27085518D01*
X45239502Y-26965820D01*
X45180537Y-26855506D01*
X45101185Y-26758815D01*
X45004494Y-26679463D01*
X44894180Y-26620498D01*
X44774482Y-26584188D01*
X44650000Y-26571928D01*
X42650000Y-26571928D01*
X42525518Y-26584188D01*
X42405820Y-26620498D01*
X42295506Y-26679463D01*
X42198815Y-26758815D01*
X42119463Y-26855506D01*
X42085216Y-26919576D01*
X42011939Y-26905000D01*
X41808061Y-26905000D01*
X41608102Y-26944774D01*
X41419744Y-27022795D01*
X41250226Y-27136063D01*
X41106063Y-27280226D01*
X40992795Y-27449744D01*
X40914774Y-27638102D01*
X40875000Y-27838061D01*
X27558603Y-27838061D01*
X27587205Y-27795256D01*
X27665226Y-27606898D01*
X27705000Y-27406939D01*
X27705000Y-27203061D01*
X27665226Y-27003102D01*
X27587205Y-26814744D01*
X27473937Y-26645226D01*
X27329774Y-26501063D01*
X27160256Y-26387795D01*
X26971898Y-26309774D01*
X26771939Y-26270000D01*
X26568061Y-26270000D01*
X26368102Y-26309774D01*
X26179744Y-26387795D01*
X26059195Y-26468343D01*
X26034999Y-26465960D01*
X25993981Y-26470000D01*
X25871311Y-26482082D01*
X25713913Y-26529828D01*
X25568854Y-26607364D01*
X25441709Y-26711709D01*
X25415559Y-26743573D01*
X22514133Y-29645000D01*
X22322615Y-29645000D01*
X22369236Y-29491309D01*
X22396943Y-29210000D01*
X22369236Y-28928691D01*
X22287182Y-28658192D01*
X22153932Y-28408899D01*
X21974608Y-28190392D01*
X21756101Y-28011068D01*
X21623142Y-27940000D01*
X21756101Y-27868932D01*
X21974608Y-27689608D01*
X22153932Y-27471101D01*
X22287182Y-27221808D01*
X22369236Y-26951309D01*
X22396943Y-26670000D01*
X22369236Y-26388691D01*
X22322615Y-26235000D01*
X25358982Y-26235000D01*
X25400000Y-26239040D01*
X25441018Y-26235000D01*
X25441019Y-26235000D01*
X25563689Y-26222918D01*
X25721087Y-26175172D01*
X25866146Y-26097636D01*
X25993291Y-25993291D01*
X26019446Y-25961421D01*
X26570867Y-25410000D01*
X43511928Y-25410000D01*
X43524188Y-25534482D01*
X43560498Y-25654180D01*
X43619463Y-25764494D01*
X43698815Y-25861185D01*
X43795506Y-25940537D01*
X43905820Y-25999502D01*
X44025518Y-26035812D01*
X44150000Y-26048072D01*
X45864250Y-26045000D01*
X46023000Y-25886250D01*
X46023000Y-24537000D01*
X46277000Y-24537000D01*
X46277000Y-25886250D01*
X46435750Y-26045000D01*
X48150000Y-26048072D01*
X48274482Y-26035812D01*
X48394180Y-25999502D01*
X48504494Y-25940537D01*
X48601185Y-25861185D01*
X48680537Y-25764494D01*
X48739502Y-25654180D01*
X48775812Y-25534482D01*
X48788072Y-25410000D01*
X48785000Y-24695750D01*
X48626250Y-24537000D01*
X46277000Y-24537000D01*
X46023000Y-24537000D01*
X43673750Y-24537000D01*
X43515000Y-24695750D01*
X43511928Y-25410000D01*
X26570867Y-25410000D01*
X26826775Y-25154092D01*
X26971898Y-25125226D01*
X27160256Y-25047205D01*
X27329774Y-24933937D01*
X27473937Y-24789774D01*
X27587205Y-24620256D01*
X27665226Y-24431898D01*
X27705000Y-24231939D01*
X27705000Y-24028061D01*
X27665226Y-23828102D01*
X27587205Y-23639744D01*
X27473937Y-23470226D01*
X27413711Y-23410000D01*
X43511928Y-23410000D01*
X43515000Y-24124250D01*
X43673750Y-24283000D01*
X46023000Y-24283000D01*
X46023000Y-22933750D01*
X46277000Y-22933750D01*
X46277000Y-24283000D01*
X48626250Y-24283000D01*
X48785000Y-24124250D01*
X48788072Y-23410000D01*
X48775812Y-23285518D01*
X48739502Y-23165820D01*
X48680537Y-23055506D01*
X48601185Y-22958815D01*
X48504494Y-22879463D01*
X48394180Y-22820498D01*
X48274482Y-22784188D01*
X48150000Y-22771928D01*
X46435750Y-22775000D01*
X46277000Y-22933750D01*
X46023000Y-22933750D01*
X45864250Y-22775000D01*
X44150000Y-22771928D01*
X44025518Y-22784188D01*
X43905820Y-22820498D01*
X43795506Y-22879463D01*
X43698815Y-22958815D01*
X43619463Y-23055506D01*
X43560498Y-23165820D01*
X43524188Y-23285518D01*
X43511928Y-23410000D01*
X27413711Y-23410000D01*
X27329774Y-23326063D01*
X27160256Y-23212795D01*
X26971898Y-23134774D01*
X26771939Y-23095000D01*
X26568061Y-23095000D01*
X26368102Y-23134774D01*
X26179744Y-23212795D01*
X26010226Y-23326063D01*
X25866063Y-23470226D01*
X25752795Y-23639744D01*
X25674774Y-23828102D01*
X25645908Y-23973225D01*
X25054133Y-24565000D01*
X22322615Y-24565000D01*
X22369236Y-24411309D01*
X22396943Y-24130000D01*
X22369236Y-23848691D01*
X22287182Y-23578192D01*
X22153932Y-23328899D01*
X21974608Y-23110392D01*
X21756101Y-22931068D01*
X21623142Y-22860000D01*
X21756101Y-22788932D01*
X21974608Y-22609608D01*
X22153932Y-22391101D01*
X22287182Y-22141808D01*
X22369236Y-21871309D01*
X22396943Y-21590000D01*
X22369236Y-21308691D01*
X22287182Y-21038192D01*
X22153932Y-20788899D01*
X21974608Y-20570392D01*
X21756101Y-20391068D01*
X21623142Y-20320000D01*
X21717499Y-20269565D01*
X30583040Y-20269565D01*
X30650020Y-20509656D01*
X30899048Y-20626756D01*
X31166135Y-20693023D01*
X31441017Y-20705910D01*
X31713133Y-20664922D01*
X31972023Y-20571636D01*
X32087980Y-20509656D01*
X32154960Y-20269565D01*
X49125040Y-20269565D01*
X49192020Y-20509656D01*
X49441048Y-20626756D01*
X49708135Y-20693023D01*
X49983017Y-20705910D01*
X50255133Y-20664922D01*
X50514023Y-20571636D01*
X50629980Y-20509656D01*
X50696960Y-20269565D01*
X49911000Y-19483605D01*
X49125040Y-20269565D01*
X32154960Y-20269565D01*
X31369000Y-19483605D01*
X30583040Y-20269565D01*
X21717499Y-20269565D01*
X21756101Y-20248932D01*
X21974608Y-20069608D01*
X22153932Y-19851101D01*
X22287182Y-19601808D01*
X22355674Y-19376017D01*
X29967090Y-19376017D01*
X30008078Y-19648133D01*
X30101364Y-19907023D01*
X30163344Y-20022980D01*
X30403435Y-20089960D01*
X31189395Y-19304000D01*
X31548605Y-19304000D01*
X32334565Y-20089960D01*
X32574656Y-20022980D01*
X32691756Y-19773952D01*
X32758023Y-19506865D01*
X32764157Y-19376017D01*
X48509090Y-19376017D01*
X48550078Y-19648133D01*
X48643364Y-19907023D01*
X48705344Y-20022980D01*
X48945435Y-20089960D01*
X49731395Y-19304000D01*
X50090605Y-19304000D01*
X50876565Y-20089960D01*
X51116656Y-20022980D01*
X51233756Y-19773952D01*
X51300023Y-19506865D01*
X51312910Y-19231983D01*
X51271922Y-18959867D01*
X51178636Y-18700977D01*
X51116656Y-18585020D01*
X50876565Y-18518040D01*
X50090605Y-19304000D01*
X49731395Y-19304000D01*
X48945435Y-18518040D01*
X48705344Y-18585020D01*
X48588244Y-18834048D01*
X48521977Y-19101135D01*
X48509090Y-19376017D01*
X32764157Y-19376017D01*
X32770910Y-19231983D01*
X32729922Y-18959867D01*
X32636636Y-18700977D01*
X32574656Y-18585020D01*
X32334565Y-18518040D01*
X31548605Y-19304000D01*
X31189395Y-19304000D01*
X30403435Y-18518040D01*
X30163344Y-18585020D01*
X30046244Y-18834048D01*
X29979977Y-19101135D01*
X29967090Y-19376017D01*
X22355674Y-19376017D01*
X22369236Y-19331309D01*
X22396943Y-19050000D01*
X22369236Y-18768691D01*
X22287182Y-18498192D01*
X22153932Y-18248899D01*
X21974608Y-18030392D01*
X21756101Y-17851068D01*
X21618318Y-17777421D01*
X21698113Y-17729565D01*
X30583040Y-17729565D01*
X30650020Y-17969656D01*
X30780644Y-18031079D01*
X30765977Y-18036364D01*
X30650020Y-18098344D01*
X30583040Y-18338435D01*
X31369000Y-19124395D01*
X32154960Y-18338435D01*
X32087980Y-18098344D01*
X31957356Y-18036921D01*
X31972023Y-18031636D01*
X32087980Y-17969656D01*
X32154960Y-17729565D01*
X49125040Y-17729565D01*
X49192020Y-17969656D01*
X49322644Y-18031079D01*
X49307977Y-18036364D01*
X49192020Y-18098344D01*
X49125040Y-18338435D01*
X49911000Y-19124395D01*
X50696960Y-18338435D01*
X50629980Y-18098344D01*
X50499356Y-18036921D01*
X50514023Y-18031636D01*
X50629980Y-17969656D01*
X50696960Y-17729565D01*
X49911000Y-16943605D01*
X49125040Y-17729565D01*
X32154960Y-17729565D01*
X31369000Y-16943605D01*
X30583040Y-17729565D01*
X21698113Y-17729565D01*
X21810131Y-17662385D01*
X22018519Y-17473414D01*
X22186037Y-17247420D01*
X22306246Y-16993087D01*
X22346904Y-16859039D01*
X22334256Y-16836017D01*
X29967090Y-16836017D01*
X30008078Y-17108133D01*
X30101364Y-17367023D01*
X30163344Y-17482980D01*
X30403435Y-17549960D01*
X31189395Y-16764000D01*
X31548605Y-16764000D01*
X32334565Y-17549960D01*
X32574656Y-17482980D01*
X32691756Y-17233952D01*
X32758023Y-16966865D01*
X32764157Y-16836017D01*
X48509090Y-16836017D01*
X48550078Y-17108133D01*
X48643364Y-17367023D01*
X48705344Y-17482980D01*
X48945435Y-17549960D01*
X49731395Y-16764000D01*
X50090605Y-16764000D01*
X50876565Y-17549960D01*
X51116656Y-17482980D01*
X51233756Y-17233952D01*
X51300023Y-16966865D01*
X51312910Y-16691983D01*
X51271922Y-16419867D01*
X51178636Y-16160977D01*
X51116656Y-16045020D01*
X50876565Y-15978040D01*
X50090605Y-16764000D01*
X49731395Y-16764000D01*
X48945435Y-15978040D01*
X48705344Y-16045020D01*
X48588244Y-16294048D01*
X48521977Y-16561135D01*
X48509090Y-16836017D01*
X32764157Y-16836017D01*
X32770910Y-16691983D01*
X32729922Y-16419867D01*
X32636636Y-16160977D01*
X32574656Y-16045020D01*
X32334565Y-15978040D01*
X31548605Y-16764000D01*
X31189395Y-16764000D01*
X30403435Y-15978040D01*
X30163344Y-16045020D01*
X30046244Y-16294048D01*
X29979977Y-16561135D01*
X29967090Y-16836017D01*
X22334256Y-16836017D01*
X22224915Y-16637000D01*
X21082000Y-16637000D01*
X21082000Y-16657000D01*
X20828000Y-16657000D01*
X20828000Y-16637000D01*
X19685085Y-16637000D01*
X19563096Y-16859039D01*
X19603754Y-16993087D01*
X19723963Y-17247420D01*
X19891481Y-17473414D01*
X20099869Y-17662385D01*
X20291682Y-17777421D01*
X20153899Y-17851068D01*
X19935392Y-18030392D01*
X19756068Y-18248899D01*
X19622818Y-18498192D01*
X19540764Y-18768691D01*
X19513057Y-19050000D01*
X19540764Y-19331309D01*
X19622818Y-19601808D01*
X19756068Y-19851101D01*
X19935392Y-20069608D01*
X20153899Y-20248932D01*
X20286858Y-20320000D01*
X20153899Y-20391068D01*
X19935392Y-20570392D01*
X19756068Y-20788899D01*
X19622818Y-21038192D01*
X19540764Y-21308691D01*
X19513057Y-21590000D01*
X19540764Y-21871309D01*
X19622818Y-22141808D01*
X19756068Y-22391101D01*
X19935392Y-22609608D01*
X20153899Y-22788932D01*
X20286858Y-22860000D01*
X20153899Y-22931068D01*
X19935392Y-23110392D01*
X19756068Y-23328899D01*
X19622818Y-23578192D01*
X19540764Y-23848691D01*
X19513057Y-24130000D01*
X19540764Y-24411309D01*
X19587385Y-24565000D01*
X18393285Y-24565000D01*
X18270256Y-24482795D01*
X18081898Y-24404774D01*
X17881939Y-24365000D01*
X17678061Y-24365000D01*
X17478102Y-24404774D01*
X17289744Y-24482795D01*
X17120226Y-24596063D01*
X16976063Y-24740226D01*
X16862795Y-24909744D01*
X16784774Y-25098102D01*
X16745000Y-25298061D01*
X6553717Y-25298061D01*
X6734608Y-25149608D01*
X6913932Y-24931101D01*
X7047182Y-24681808D01*
X7129236Y-24411309D01*
X7156943Y-24130000D01*
X7129236Y-23848691D01*
X7047182Y-23578192D01*
X6913932Y-23328899D01*
X6734608Y-23110392D01*
X6516101Y-22931068D01*
X6378318Y-22857421D01*
X6570131Y-22742385D01*
X6778519Y-22553414D01*
X6946037Y-22327420D01*
X7066246Y-22073087D01*
X7106904Y-21939039D01*
X6984915Y-21717000D01*
X5842000Y-21717000D01*
X5842000Y-21737000D01*
X5588000Y-21737000D01*
X5588000Y-21717000D01*
X4445085Y-21717000D01*
X4323096Y-21939039D01*
X4363754Y-22073087D01*
X4483963Y-22327420D01*
X4651481Y-22553414D01*
X4859869Y-22742385D01*
X5051682Y-22857421D01*
X4913899Y-22931068D01*
X4695392Y-23110392D01*
X4516068Y-23328899D01*
X4382818Y-23578192D01*
X4300764Y-23848691D01*
X4273057Y-24130000D01*
X-3150000Y-24130000D01*
X-3150000Y-16510000D01*
X4273057Y-16510000D01*
X4300764Y-16791309D01*
X4382818Y-17061808D01*
X4516068Y-17311101D01*
X4695392Y-17529608D01*
X4913899Y-17708932D01*
X5046858Y-17780000D01*
X4913899Y-17851068D01*
X4695392Y-18030392D01*
X4516068Y-18248899D01*
X4382818Y-18498192D01*
X4300764Y-18768691D01*
X4273057Y-19050000D01*
X4300764Y-19331309D01*
X4382818Y-19601808D01*
X4516068Y-19851101D01*
X4695392Y-20069608D01*
X4913899Y-20248932D01*
X5051682Y-20322579D01*
X4859869Y-20437615D01*
X4651481Y-20626586D01*
X4483963Y-20852580D01*
X4363754Y-21106913D01*
X4323096Y-21240961D01*
X4445085Y-21463000D01*
X5588000Y-21463000D01*
X5588000Y-21443000D01*
X5842000Y-21443000D01*
X5842000Y-21463000D01*
X6984915Y-21463000D01*
X7106904Y-21240961D01*
X7066246Y-21106913D01*
X6946037Y-20852580D01*
X6778519Y-20626586D01*
X6570131Y-20437615D01*
X6378318Y-20322579D01*
X6516101Y-20248932D01*
X6734608Y-20069608D01*
X6913932Y-19851101D01*
X7047182Y-19601808D01*
X7129236Y-19331309D01*
X7156943Y-19050000D01*
X7129236Y-18768691D01*
X7047182Y-18498192D01*
X6913932Y-18248899D01*
X6734608Y-18030392D01*
X6516101Y-17851068D01*
X6383142Y-17780000D01*
X6516101Y-17708932D01*
X6734608Y-17529608D01*
X6913932Y-17311101D01*
X7047182Y-17061808D01*
X7129236Y-16791309D01*
X7156943Y-16510000D01*
X7129236Y-16228691D01*
X7047182Y-15958192D01*
X6913932Y-15708899D01*
X6734608Y-15490392D01*
X6621518Y-15397581D01*
X6639482Y-15395812D01*
X6759180Y-15359502D01*
X6869494Y-15300537D01*
X6966185Y-15221185D01*
X7045537Y-15124494D01*
X7104502Y-15014180D01*
X7140812Y-14894482D01*
X7153072Y-14770000D01*
X7153072Y-13970000D01*
X19513057Y-13970000D01*
X19540764Y-14251309D01*
X19622818Y-14521808D01*
X19756068Y-14771101D01*
X19935392Y-14989608D01*
X20153899Y-15168932D01*
X20291682Y-15242579D01*
X20099869Y-15357615D01*
X19891481Y-15546586D01*
X19723963Y-15772580D01*
X19603754Y-16026913D01*
X19563096Y-16160961D01*
X19685085Y-16383000D01*
X20828000Y-16383000D01*
X20828000Y-16363000D01*
X21082000Y-16363000D01*
X21082000Y-16383000D01*
X22224915Y-16383000D01*
X22346904Y-16160961D01*
X22306246Y-16026913D01*
X22198258Y-15798435D01*
X30583040Y-15798435D01*
X31369000Y-16584395D01*
X32154960Y-15798435D01*
X49125040Y-15798435D01*
X49911000Y-16584395D01*
X50696960Y-15798435D01*
X50629980Y-15558344D01*
X50380952Y-15441244D01*
X50113865Y-15374977D01*
X49838983Y-15362090D01*
X49566867Y-15403078D01*
X49307977Y-15496364D01*
X49192020Y-15558344D01*
X49125040Y-15798435D01*
X32154960Y-15798435D01*
X32087980Y-15558344D01*
X31838952Y-15441244D01*
X31571865Y-15374977D01*
X31296983Y-15362090D01*
X31024867Y-15403078D01*
X30765977Y-15496364D01*
X30650020Y-15558344D01*
X30583040Y-15798435D01*
X22198258Y-15798435D01*
X22186037Y-15772580D01*
X22018519Y-15546586D01*
X21810131Y-15357615D01*
X21618318Y-15242579D01*
X21756101Y-15168932D01*
X21974608Y-14989608D01*
X22153932Y-14771101D01*
X22287182Y-14521808D01*
X22369236Y-14251309D01*
X22396943Y-13970000D01*
X22369236Y-13688691D01*
X22287182Y-13418192D01*
X22153932Y-13168899D01*
X21974608Y-12950392D01*
X21756101Y-12771068D01*
X21506808Y-12637818D01*
X21236309Y-12555764D01*
X21025492Y-12535000D01*
X20884508Y-12535000D01*
X20673691Y-12555764D01*
X20403192Y-12637818D01*
X20153899Y-12771068D01*
X19935392Y-12950392D01*
X19756068Y-13168899D01*
X19622818Y-13418192D01*
X19540764Y-13688691D01*
X19513057Y-13970000D01*
X7153072Y-13970000D01*
X7153072Y-13170000D01*
X7140812Y-13045518D01*
X7104502Y-12925820D01*
X7045537Y-12815506D01*
X6966185Y-12718815D01*
X6869494Y-12639463D01*
X6759180Y-12580498D01*
X6639482Y-12544188D01*
X6515000Y-12531928D01*
X4915000Y-12531928D01*
X4790518Y-12544188D01*
X4670820Y-12580498D01*
X4560506Y-12639463D01*
X4463815Y-12718815D01*
X4384463Y-12815506D01*
X4325498Y-12925820D01*
X4289188Y-13045518D01*
X4276928Y-13170000D01*
X4276928Y-14770000D01*
X4289188Y-14894482D01*
X4325498Y-15014180D01*
X4384463Y-15124494D01*
X4463815Y-15221185D01*
X4560506Y-15300537D01*
X4670820Y-15359502D01*
X4790518Y-15395812D01*
X4808482Y-15397581D01*
X4695392Y-15490392D01*
X4516068Y-15708899D01*
X4382818Y-15958192D01*
X4300764Y-16228691D01*
X4273057Y-16510000D01*
X-3150000Y-16510000D01*
X-3150000Y-8498408D01*
X29963000Y-8498408D01*
X29963000Y-8773592D01*
X30016686Y-9043490D01*
X30121995Y-9297727D01*
X30274880Y-9526535D01*
X30469465Y-9721120D01*
X30698273Y-9874005D01*
X30952510Y-9979314D01*
X31222408Y-10033000D01*
X31497592Y-10033000D01*
X31767490Y-9979314D01*
X32021727Y-9874005D01*
X32250535Y-9721120D01*
X32445120Y-9526535D01*
X32598005Y-9297727D01*
X32703314Y-9043490D01*
X32757000Y-8773592D01*
X32757000Y-8498408D01*
X48505000Y-8498408D01*
X48505000Y-8773592D01*
X48558686Y-9043490D01*
X48663995Y-9297727D01*
X48816880Y-9526535D01*
X49011465Y-9721120D01*
X49240273Y-9874005D01*
X49494510Y-9979314D01*
X49764408Y-10033000D01*
X50039592Y-10033000D01*
X50309490Y-9979314D01*
X50563727Y-9874005D01*
X50792535Y-9721120D01*
X50987120Y-9526535D01*
X51140005Y-9297727D01*
X51245314Y-9043490D01*
X51299000Y-8773592D01*
X51299000Y-8498408D01*
X51245314Y-8228510D01*
X51140005Y-7974273D01*
X50987120Y-7745465D01*
X50792535Y-7550880D01*
X50563727Y-7397995D01*
X50490985Y-7367864D01*
X50572727Y-7334005D01*
X50801535Y-7181120D01*
X50996120Y-6986535D01*
X51149005Y-6757727D01*
X51254314Y-6503490D01*
X51308000Y-6233592D01*
X51308000Y-5958408D01*
X51254314Y-5688510D01*
X51149005Y-5434273D01*
X50996120Y-5205465D01*
X50801535Y-5010880D01*
X50572727Y-4857995D01*
X50318490Y-4752686D01*
X50048592Y-4699000D01*
X49773408Y-4699000D01*
X49503510Y-4752686D01*
X49249273Y-4857995D01*
X49020465Y-5010880D01*
X48825880Y-5205465D01*
X48672995Y-5434273D01*
X48567686Y-5688510D01*
X48514000Y-5958408D01*
X48514000Y-6233592D01*
X48567686Y-6503490D01*
X48672995Y-6757727D01*
X48825880Y-6986535D01*
X49020465Y-7181120D01*
X49249273Y-7334005D01*
X49322015Y-7364136D01*
X49240273Y-7397995D01*
X49011465Y-7550880D01*
X48816880Y-7745465D01*
X48663995Y-7974273D01*
X48558686Y-8228510D01*
X48505000Y-8498408D01*
X32757000Y-8498408D01*
X32703314Y-8228510D01*
X32598005Y-7974273D01*
X32445120Y-7745465D01*
X32250535Y-7550880D01*
X32021727Y-7397995D01*
X31948985Y-7367864D01*
X32030727Y-7334005D01*
X32259535Y-7181120D01*
X32454120Y-6986535D01*
X32607005Y-6757727D01*
X32712314Y-6503490D01*
X32766000Y-6233592D01*
X32766000Y-5958408D01*
X32712314Y-5688510D01*
X32607005Y-5434273D01*
X32454120Y-5205465D01*
X32259535Y-5010880D01*
X32030727Y-4857995D01*
X31776490Y-4752686D01*
X31506592Y-4699000D01*
X31231408Y-4699000D01*
X30961510Y-4752686D01*
X30707273Y-4857995D01*
X30478465Y-5010880D01*
X30283880Y-5205465D01*
X30130995Y-5434273D01*
X30025686Y-5688510D01*
X29972000Y-5958408D01*
X29972000Y-6233592D01*
X30025686Y-6503490D01*
X30130995Y-6757727D01*
X30283880Y-6986535D01*
X30478465Y-7181120D01*
X30707273Y-7334005D01*
X30780015Y-7364136D01*
X30698273Y-7397995D01*
X30469465Y-7550880D01*
X30274880Y-7745465D01*
X30121995Y-7974273D01*
X30016686Y-8228510D01*
X29963000Y-8498408D01*
X-3150000Y-8498408D01*
X-3150000Y220128D01*
X-2235000Y220128D01*
X-2235000Y-220128D01*
X-2149110Y-651925D01*
X-1980631Y-1058669D01*
X-1736038Y-1424729D01*
X-1424729Y-1736038D01*
X-1058669Y-1980631D01*
X-651925Y-2149110D01*
X-220128Y-2235000D01*
X220128Y-2235000D01*
X651925Y-2149110D01*
X1058669Y-1980631D01*
X1424729Y-1736038D01*
X1736038Y-1424729D01*
X1980631Y-1058669D01*
X2149110Y-651925D01*
X2235000Y-220128D01*
X2235000Y220128D01*
X48565000Y220128D01*
X48565000Y-220128D01*
X48650890Y-651925D01*
X48819369Y-1058669D01*
X49063962Y-1424729D01*
X49375271Y-1736038D01*
X49741331Y-1980631D01*
X50148075Y-2149110D01*
X50579872Y-2235000D01*
X51020128Y-2235000D01*
X51451925Y-2149110D01*
X51858669Y-1980631D01*
X52224729Y-1736038D01*
X52536038Y-1424729D01*
X52780631Y-1058669D01*
X52949110Y-651925D01*
X53035000Y-220128D01*
X53035000Y220128D01*
X52949110Y651925D01*
X52780631Y1058669D01*
X52536038Y1424729D01*
X52224729Y1736038D01*
X51858669Y1980631D01*
X51451925Y2149110D01*
X51020128Y2235000D01*
X50579872Y2235000D01*
X50148075Y2149110D01*
X49741331Y1980631D01*
X49375271Y1736038D01*
X49063962Y1424729D01*
X48819369Y1058669D01*
X48650890Y651925D01*
X48565000Y220128D01*
X2235000Y220128D01*
X2149110Y651925D01*
X1980631Y1058669D01*
X1736038Y1424729D01*
X1424729Y1736038D01*
X1058669Y1980631D01*
X651925Y2149110D01*
X220128Y2235000D01*
X-220128Y2235000D01*
X-651925Y2149110D01*
X-1058669Y1980631D01*
X-1424729Y1736038D01*
X-1736038Y1424729D01*
X-1980631Y1058669D01*
X-2149110Y651925D01*
X-2235000Y220128D01*
X-3150000Y220128D01*
X-3150000Y3150000D01*
X53950000Y3150000D01*
X53950001Y-53950000D01*
M02*
