G04 #@! TF.GenerationSoftware,KiCad,Pcbnew,(5.1.4)-1*
G04 #@! TF.CreationDate,2019-09-15T22:00:30-07:00*
G04 #@! TF.ProjectId,vacuum_pickup_tool,76616375-756d-45f7-9069-636b75705f74,rev?*
G04 #@! TF.SameCoordinates,Original*
G04 #@! TF.FileFunction,Copper,L1,Top*
G04 #@! TF.FilePolarity,Positive*
%FSLAX46Y46*%
G04 Gerber Fmt 4.6, Leading zero omitted, Abs format (unit mm)*
G04 Created by KiCad (PCBNEW (5.1.4)-1) date 2019-09-15 22:00:30*
%MOMM*%
%LPD*%
G04 APERTURE LIST*
%ADD10R,1.800000X2.500000*%
%ADD11C,0.100000*%
%ADD12C,0.875000*%
%ADD13R,2.000000X4.000000*%
%ADD14R,4.000000X2.000000*%
%ADD15R,1.500000X3.500000*%
%ADD16O,1.200000X1.750000*%
%ADD17C,1.200000*%
%ADD18O,1.750000X1.200000*%
%ADD19C,1.524000*%
%ADD20O,1.600000X1.600000*%
%ADD21R,1.600000X1.600000*%
%ADD22C,0.650000*%
%ADD23C,0.800000*%
%ADD24C,1.000000*%
%ADD25C,0.400000*%
%ADD26C,0.254000*%
G04 APERTURE END LIST*
D10*
X35814000Y-40100000D03*
X35814000Y-36100000D03*
D11*
G36*
X12457691Y-4606053D02*
G01*
X12478926Y-4609203D01*
X12499750Y-4614419D01*
X12519962Y-4621651D01*
X12539368Y-4630830D01*
X12557781Y-4641866D01*
X12575024Y-4654654D01*
X12590930Y-4669070D01*
X12605346Y-4684976D01*
X12618134Y-4702219D01*
X12629170Y-4720632D01*
X12638349Y-4740038D01*
X12645581Y-4760250D01*
X12650797Y-4781074D01*
X12653947Y-4802309D01*
X12655000Y-4823750D01*
X12655000Y-5336250D01*
X12653947Y-5357691D01*
X12650797Y-5378926D01*
X12645581Y-5399750D01*
X12638349Y-5419962D01*
X12629170Y-5439368D01*
X12618134Y-5457781D01*
X12605346Y-5475024D01*
X12590930Y-5490930D01*
X12575024Y-5505346D01*
X12557781Y-5518134D01*
X12539368Y-5529170D01*
X12519962Y-5538349D01*
X12499750Y-5545581D01*
X12478926Y-5550797D01*
X12457691Y-5553947D01*
X12436250Y-5555000D01*
X11998750Y-5555000D01*
X11977309Y-5553947D01*
X11956074Y-5550797D01*
X11935250Y-5545581D01*
X11915038Y-5538349D01*
X11895632Y-5529170D01*
X11877219Y-5518134D01*
X11859976Y-5505346D01*
X11844070Y-5490930D01*
X11829654Y-5475024D01*
X11816866Y-5457781D01*
X11805830Y-5439368D01*
X11796651Y-5419962D01*
X11789419Y-5399750D01*
X11784203Y-5378926D01*
X11781053Y-5357691D01*
X11780000Y-5336250D01*
X11780000Y-4823750D01*
X11781053Y-4802309D01*
X11784203Y-4781074D01*
X11789419Y-4760250D01*
X11796651Y-4740038D01*
X11805830Y-4720632D01*
X11816866Y-4702219D01*
X11829654Y-4684976D01*
X11844070Y-4669070D01*
X11859976Y-4654654D01*
X11877219Y-4641866D01*
X11895632Y-4630830D01*
X11915038Y-4621651D01*
X11935250Y-4614419D01*
X11956074Y-4609203D01*
X11977309Y-4606053D01*
X11998750Y-4605000D01*
X12436250Y-4605000D01*
X12457691Y-4606053D01*
X12457691Y-4606053D01*
G37*
D12*
X12217500Y-5080000D03*
D11*
G36*
X10882691Y-4606053D02*
G01*
X10903926Y-4609203D01*
X10924750Y-4614419D01*
X10944962Y-4621651D01*
X10964368Y-4630830D01*
X10982781Y-4641866D01*
X11000024Y-4654654D01*
X11015930Y-4669070D01*
X11030346Y-4684976D01*
X11043134Y-4702219D01*
X11054170Y-4720632D01*
X11063349Y-4740038D01*
X11070581Y-4760250D01*
X11075797Y-4781074D01*
X11078947Y-4802309D01*
X11080000Y-4823750D01*
X11080000Y-5336250D01*
X11078947Y-5357691D01*
X11075797Y-5378926D01*
X11070581Y-5399750D01*
X11063349Y-5419962D01*
X11054170Y-5439368D01*
X11043134Y-5457781D01*
X11030346Y-5475024D01*
X11015930Y-5490930D01*
X11000024Y-5505346D01*
X10982781Y-5518134D01*
X10964368Y-5529170D01*
X10944962Y-5538349D01*
X10924750Y-5545581D01*
X10903926Y-5550797D01*
X10882691Y-5553947D01*
X10861250Y-5555000D01*
X10423750Y-5555000D01*
X10402309Y-5553947D01*
X10381074Y-5550797D01*
X10360250Y-5545581D01*
X10340038Y-5538349D01*
X10320632Y-5529170D01*
X10302219Y-5518134D01*
X10284976Y-5505346D01*
X10269070Y-5490930D01*
X10254654Y-5475024D01*
X10241866Y-5457781D01*
X10230830Y-5439368D01*
X10221651Y-5419962D01*
X10214419Y-5399750D01*
X10209203Y-5378926D01*
X10206053Y-5357691D01*
X10205000Y-5336250D01*
X10205000Y-4823750D01*
X10206053Y-4802309D01*
X10209203Y-4781074D01*
X10214419Y-4760250D01*
X10221651Y-4740038D01*
X10230830Y-4720632D01*
X10241866Y-4702219D01*
X10254654Y-4684976D01*
X10269070Y-4669070D01*
X10284976Y-4654654D01*
X10302219Y-4641866D01*
X10320632Y-4630830D01*
X10340038Y-4621651D01*
X10360250Y-4614419D01*
X10381074Y-4609203D01*
X10402309Y-4606053D01*
X10423750Y-4605000D01*
X10861250Y-4605000D01*
X10882691Y-4606053D01*
X10882691Y-4606053D01*
G37*
D12*
X10642500Y-5080000D03*
D11*
G36*
X12457691Y-2066053D02*
G01*
X12478926Y-2069203D01*
X12499750Y-2074419D01*
X12519962Y-2081651D01*
X12539368Y-2090830D01*
X12557781Y-2101866D01*
X12575024Y-2114654D01*
X12590930Y-2129070D01*
X12605346Y-2144976D01*
X12618134Y-2162219D01*
X12629170Y-2180632D01*
X12638349Y-2200038D01*
X12645581Y-2220250D01*
X12650797Y-2241074D01*
X12653947Y-2262309D01*
X12655000Y-2283750D01*
X12655000Y-2796250D01*
X12653947Y-2817691D01*
X12650797Y-2838926D01*
X12645581Y-2859750D01*
X12638349Y-2879962D01*
X12629170Y-2899368D01*
X12618134Y-2917781D01*
X12605346Y-2935024D01*
X12590930Y-2950930D01*
X12575024Y-2965346D01*
X12557781Y-2978134D01*
X12539368Y-2989170D01*
X12519962Y-2998349D01*
X12499750Y-3005581D01*
X12478926Y-3010797D01*
X12457691Y-3013947D01*
X12436250Y-3015000D01*
X11998750Y-3015000D01*
X11977309Y-3013947D01*
X11956074Y-3010797D01*
X11935250Y-3005581D01*
X11915038Y-2998349D01*
X11895632Y-2989170D01*
X11877219Y-2978134D01*
X11859976Y-2965346D01*
X11844070Y-2950930D01*
X11829654Y-2935024D01*
X11816866Y-2917781D01*
X11805830Y-2899368D01*
X11796651Y-2879962D01*
X11789419Y-2859750D01*
X11784203Y-2838926D01*
X11781053Y-2817691D01*
X11780000Y-2796250D01*
X11780000Y-2283750D01*
X11781053Y-2262309D01*
X11784203Y-2241074D01*
X11789419Y-2220250D01*
X11796651Y-2200038D01*
X11805830Y-2180632D01*
X11816866Y-2162219D01*
X11829654Y-2144976D01*
X11844070Y-2129070D01*
X11859976Y-2114654D01*
X11877219Y-2101866D01*
X11895632Y-2090830D01*
X11915038Y-2081651D01*
X11935250Y-2074419D01*
X11956074Y-2069203D01*
X11977309Y-2066053D01*
X11998750Y-2065000D01*
X12436250Y-2065000D01*
X12457691Y-2066053D01*
X12457691Y-2066053D01*
G37*
D12*
X12217500Y-2540000D03*
D11*
G36*
X10882691Y-2066053D02*
G01*
X10903926Y-2069203D01*
X10924750Y-2074419D01*
X10944962Y-2081651D01*
X10964368Y-2090830D01*
X10982781Y-2101866D01*
X11000024Y-2114654D01*
X11015930Y-2129070D01*
X11030346Y-2144976D01*
X11043134Y-2162219D01*
X11054170Y-2180632D01*
X11063349Y-2200038D01*
X11070581Y-2220250D01*
X11075797Y-2241074D01*
X11078947Y-2262309D01*
X11080000Y-2283750D01*
X11080000Y-2796250D01*
X11078947Y-2817691D01*
X11075797Y-2838926D01*
X11070581Y-2859750D01*
X11063349Y-2879962D01*
X11054170Y-2899368D01*
X11043134Y-2917781D01*
X11030346Y-2935024D01*
X11015930Y-2950930D01*
X11000024Y-2965346D01*
X10982781Y-2978134D01*
X10964368Y-2989170D01*
X10944962Y-2998349D01*
X10924750Y-3005581D01*
X10903926Y-3010797D01*
X10882691Y-3013947D01*
X10861250Y-3015000D01*
X10423750Y-3015000D01*
X10402309Y-3013947D01*
X10381074Y-3010797D01*
X10360250Y-3005581D01*
X10340038Y-2998349D01*
X10320632Y-2989170D01*
X10302219Y-2978134D01*
X10284976Y-2965346D01*
X10269070Y-2950930D01*
X10254654Y-2935024D01*
X10241866Y-2917781D01*
X10230830Y-2899368D01*
X10221651Y-2879962D01*
X10214419Y-2859750D01*
X10209203Y-2838926D01*
X10206053Y-2817691D01*
X10205000Y-2796250D01*
X10205000Y-2283750D01*
X10206053Y-2262309D01*
X10209203Y-2241074D01*
X10214419Y-2220250D01*
X10221651Y-2200038D01*
X10230830Y-2180632D01*
X10241866Y-2162219D01*
X10254654Y-2144976D01*
X10269070Y-2129070D01*
X10284976Y-2114654D01*
X10302219Y-2101866D01*
X10320632Y-2090830D01*
X10340038Y-2081651D01*
X10360250Y-2074419D01*
X10381074Y-2069203D01*
X10402309Y-2066053D01*
X10423750Y-2065000D01*
X10861250Y-2065000D01*
X10882691Y-2066053D01*
X10882691Y-2066053D01*
G37*
D12*
X10642500Y-2540000D03*
D10*
X35814000Y-49720000D03*
X35814000Y-45720000D03*
D13*
X43650000Y-29210000D03*
X49650000Y-29210000D03*
D14*
X46150000Y-24410000D03*
D15*
X51435000Y-36890000D03*
X49435000Y-44390000D03*
X44435000Y-36890000D03*
D16*
X31464000Y-39370000D03*
D11*
G36*
X29838505Y-38496204D02*
G01*
X29862773Y-38499804D01*
X29886572Y-38505765D01*
X29909671Y-38514030D01*
X29931850Y-38524520D01*
X29952893Y-38537132D01*
X29972599Y-38551747D01*
X29990777Y-38568223D01*
X30007253Y-38586401D01*
X30021868Y-38606107D01*
X30034480Y-38627150D01*
X30044970Y-38649329D01*
X30053235Y-38672428D01*
X30059196Y-38696227D01*
X30062796Y-38720495D01*
X30064000Y-38744999D01*
X30064000Y-39995001D01*
X30062796Y-40019505D01*
X30059196Y-40043773D01*
X30053235Y-40067572D01*
X30044970Y-40090671D01*
X30034480Y-40112850D01*
X30021868Y-40133893D01*
X30007253Y-40153599D01*
X29990777Y-40171777D01*
X29972599Y-40188253D01*
X29952893Y-40202868D01*
X29931850Y-40215480D01*
X29909671Y-40225970D01*
X29886572Y-40234235D01*
X29862773Y-40240196D01*
X29838505Y-40243796D01*
X29814001Y-40245000D01*
X29113999Y-40245000D01*
X29089495Y-40243796D01*
X29065227Y-40240196D01*
X29041428Y-40234235D01*
X29018329Y-40225970D01*
X28996150Y-40215480D01*
X28975107Y-40202868D01*
X28955401Y-40188253D01*
X28937223Y-40171777D01*
X28920747Y-40153599D01*
X28906132Y-40133893D01*
X28893520Y-40112850D01*
X28883030Y-40090671D01*
X28874765Y-40067572D01*
X28868804Y-40043773D01*
X28865204Y-40019505D01*
X28864000Y-39995001D01*
X28864000Y-38744999D01*
X28865204Y-38720495D01*
X28868804Y-38696227D01*
X28874765Y-38672428D01*
X28883030Y-38649329D01*
X28893520Y-38627150D01*
X28906132Y-38606107D01*
X28920747Y-38586401D01*
X28937223Y-38568223D01*
X28955401Y-38551747D01*
X28975107Y-38537132D01*
X28996150Y-38524520D01*
X29018329Y-38514030D01*
X29041428Y-38505765D01*
X29065227Y-38499804D01*
X29089495Y-38496204D01*
X29113999Y-38495000D01*
X29814001Y-38495000D01*
X29838505Y-38496204D01*
X29838505Y-38496204D01*
G37*
D17*
X29464000Y-39370000D03*
D18*
X30226000Y-48895000D03*
D11*
G36*
X30875505Y-46296204D02*
G01*
X30899773Y-46299804D01*
X30923572Y-46305765D01*
X30946671Y-46314030D01*
X30968850Y-46324520D01*
X30989893Y-46337132D01*
X31009599Y-46351747D01*
X31027777Y-46368223D01*
X31044253Y-46386401D01*
X31058868Y-46406107D01*
X31071480Y-46427150D01*
X31081970Y-46449329D01*
X31090235Y-46472428D01*
X31096196Y-46496227D01*
X31099796Y-46520495D01*
X31101000Y-46544999D01*
X31101000Y-47245001D01*
X31099796Y-47269505D01*
X31096196Y-47293773D01*
X31090235Y-47317572D01*
X31081970Y-47340671D01*
X31071480Y-47362850D01*
X31058868Y-47383893D01*
X31044253Y-47403599D01*
X31027777Y-47421777D01*
X31009599Y-47438253D01*
X30989893Y-47452868D01*
X30968850Y-47465480D01*
X30946671Y-47475970D01*
X30923572Y-47484235D01*
X30899773Y-47490196D01*
X30875505Y-47493796D01*
X30851001Y-47495000D01*
X29600999Y-47495000D01*
X29576495Y-47493796D01*
X29552227Y-47490196D01*
X29528428Y-47484235D01*
X29505329Y-47475970D01*
X29483150Y-47465480D01*
X29462107Y-47452868D01*
X29442401Y-47438253D01*
X29424223Y-47421777D01*
X29407747Y-47403599D01*
X29393132Y-47383893D01*
X29380520Y-47362850D01*
X29370030Y-47340671D01*
X29361765Y-47317572D01*
X29355804Y-47293773D01*
X29352204Y-47269505D01*
X29351000Y-47245001D01*
X29351000Y-46544999D01*
X29352204Y-46520495D01*
X29355804Y-46496227D01*
X29361765Y-46472428D01*
X29370030Y-46449329D01*
X29380520Y-46427150D01*
X29393132Y-46406107D01*
X29407747Y-46386401D01*
X29424223Y-46368223D01*
X29442401Y-46351747D01*
X29462107Y-46337132D01*
X29483150Y-46324520D01*
X29505329Y-46314030D01*
X29528428Y-46305765D01*
X29552227Y-46299804D01*
X29576495Y-46296204D01*
X29600999Y-46295000D01*
X30851001Y-46295000D01*
X30875505Y-46296204D01*
X30875505Y-46296204D01*
G37*
D17*
X30226000Y-46895000D03*
D11*
G36*
X45325191Y-45246053D02*
G01*
X45346426Y-45249203D01*
X45367250Y-45254419D01*
X45387462Y-45261651D01*
X45406868Y-45270830D01*
X45425281Y-45281866D01*
X45442524Y-45294654D01*
X45458430Y-45309070D01*
X45472846Y-45324976D01*
X45485634Y-45342219D01*
X45496670Y-45360632D01*
X45505849Y-45380038D01*
X45513081Y-45400250D01*
X45518297Y-45421074D01*
X45521447Y-45442309D01*
X45522500Y-45463750D01*
X45522500Y-45976250D01*
X45521447Y-45997691D01*
X45518297Y-46018926D01*
X45513081Y-46039750D01*
X45505849Y-46059962D01*
X45496670Y-46079368D01*
X45485634Y-46097781D01*
X45472846Y-46115024D01*
X45458430Y-46130930D01*
X45442524Y-46145346D01*
X45425281Y-46158134D01*
X45406868Y-46169170D01*
X45387462Y-46178349D01*
X45367250Y-46185581D01*
X45346426Y-46190797D01*
X45325191Y-46193947D01*
X45303750Y-46195000D01*
X44866250Y-46195000D01*
X44844809Y-46193947D01*
X44823574Y-46190797D01*
X44802750Y-46185581D01*
X44782538Y-46178349D01*
X44763132Y-46169170D01*
X44744719Y-46158134D01*
X44727476Y-46145346D01*
X44711570Y-46130930D01*
X44697154Y-46115024D01*
X44684366Y-46097781D01*
X44673330Y-46079368D01*
X44664151Y-46059962D01*
X44656919Y-46039750D01*
X44651703Y-46018926D01*
X44648553Y-45997691D01*
X44647500Y-45976250D01*
X44647500Y-45463750D01*
X44648553Y-45442309D01*
X44651703Y-45421074D01*
X44656919Y-45400250D01*
X44664151Y-45380038D01*
X44673330Y-45360632D01*
X44684366Y-45342219D01*
X44697154Y-45324976D01*
X44711570Y-45309070D01*
X44727476Y-45294654D01*
X44744719Y-45281866D01*
X44763132Y-45270830D01*
X44782538Y-45261651D01*
X44802750Y-45254419D01*
X44823574Y-45249203D01*
X44844809Y-45246053D01*
X44866250Y-45245000D01*
X45303750Y-45245000D01*
X45325191Y-45246053D01*
X45325191Y-45246053D01*
G37*
D12*
X45085000Y-45720000D03*
D11*
G36*
X43750191Y-45246053D02*
G01*
X43771426Y-45249203D01*
X43792250Y-45254419D01*
X43812462Y-45261651D01*
X43831868Y-45270830D01*
X43850281Y-45281866D01*
X43867524Y-45294654D01*
X43883430Y-45309070D01*
X43897846Y-45324976D01*
X43910634Y-45342219D01*
X43921670Y-45360632D01*
X43930849Y-45380038D01*
X43938081Y-45400250D01*
X43943297Y-45421074D01*
X43946447Y-45442309D01*
X43947500Y-45463750D01*
X43947500Y-45976250D01*
X43946447Y-45997691D01*
X43943297Y-46018926D01*
X43938081Y-46039750D01*
X43930849Y-46059962D01*
X43921670Y-46079368D01*
X43910634Y-46097781D01*
X43897846Y-46115024D01*
X43883430Y-46130930D01*
X43867524Y-46145346D01*
X43850281Y-46158134D01*
X43831868Y-46169170D01*
X43812462Y-46178349D01*
X43792250Y-46185581D01*
X43771426Y-46190797D01*
X43750191Y-46193947D01*
X43728750Y-46195000D01*
X43291250Y-46195000D01*
X43269809Y-46193947D01*
X43248574Y-46190797D01*
X43227750Y-46185581D01*
X43207538Y-46178349D01*
X43188132Y-46169170D01*
X43169719Y-46158134D01*
X43152476Y-46145346D01*
X43136570Y-46130930D01*
X43122154Y-46115024D01*
X43109366Y-46097781D01*
X43098330Y-46079368D01*
X43089151Y-46059962D01*
X43081919Y-46039750D01*
X43076703Y-46018926D01*
X43073553Y-45997691D01*
X43072500Y-45976250D01*
X43072500Y-45463750D01*
X43073553Y-45442309D01*
X43076703Y-45421074D01*
X43081919Y-45400250D01*
X43089151Y-45380038D01*
X43098330Y-45360632D01*
X43109366Y-45342219D01*
X43122154Y-45324976D01*
X43136570Y-45309070D01*
X43152476Y-45294654D01*
X43169719Y-45281866D01*
X43188132Y-45270830D01*
X43207538Y-45261651D01*
X43227750Y-45254419D01*
X43248574Y-45249203D01*
X43269809Y-45246053D01*
X43291250Y-45245000D01*
X43728750Y-45245000D01*
X43750191Y-45246053D01*
X43750191Y-45246053D01*
G37*
D12*
X43510000Y-45720000D03*
D11*
G36*
X25995691Y-4606053D02*
G01*
X26016926Y-4609203D01*
X26037750Y-4614419D01*
X26057962Y-4621651D01*
X26077368Y-4630830D01*
X26095781Y-4641866D01*
X26113024Y-4654654D01*
X26128930Y-4669070D01*
X26143346Y-4684976D01*
X26156134Y-4702219D01*
X26167170Y-4720632D01*
X26176349Y-4740038D01*
X26183581Y-4760250D01*
X26188797Y-4781074D01*
X26191947Y-4802309D01*
X26193000Y-4823750D01*
X26193000Y-5336250D01*
X26191947Y-5357691D01*
X26188797Y-5378926D01*
X26183581Y-5399750D01*
X26176349Y-5419962D01*
X26167170Y-5439368D01*
X26156134Y-5457781D01*
X26143346Y-5475024D01*
X26128930Y-5490930D01*
X26113024Y-5505346D01*
X26095781Y-5518134D01*
X26077368Y-5529170D01*
X26057962Y-5538349D01*
X26037750Y-5545581D01*
X26016926Y-5550797D01*
X25995691Y-5553947D01*
X25974250Y-5555000D01*
X25536750Y-5555000D01*
X25515309Y-5553947D01*
X25494074Y-5550797D01*
X25473250Y-5545581D01*
X25453038Y-5538349D01*
X25433632Y-5529170D01*
X25415219Y-5518134D01*
X25397976Y-5505346D01*
X25382070Y-5490930D01*
X25367654Y-5475024D01*
X25354866Y-5457781D01*
X25343830Y-5439368D01*
X25334651Y-5419962D01*
X25327419Y-5399750D01*
X25322203Y-5378926D01*
X25319053Y-5357691D01*
X25318000Y-5336250D01*
X25318000Y-4823750D01*
X25319053Y-4802309D01*
X25322203Y-4781074D01*
X25327419Y-4760250D01*
X25334651Y-4740038D01*
X25343830Y-4720632D01*
X25354866Y-4702219D01*
X25367654Y-4684976D01*
X25382070Y-4669070D01*
X25397976Y-4654654D01*
X25415219Y-4641866D01*
X25433632Y-4630830D01*
X25453038Y-4621651D01*
X25473250Y-4614419D01*
X25494074Y-4609203D01*
X25515309Y-4606053D01*
X25536750Y-4605000D01*
X25974250Y-4605000D01*
X25995691Y-4606053D01*
X25995691Y-4606053D01*
G37*
D12*
X25755500Y-5080000D03*
D11*
G36*
X27570691Y-4606053D02*
G01*
X27591926Y-4609203D01*
X27612750Y-4614419D01*
X27632962Y-4621651D01*
X27652368Y-4630830D01*
X27670781Y-4641866D01*
X27688024Y-4654654D01*
X27703930Y-4669070D01*
X27718346Y-4684976D01*
X27731134Y-4702219D01*
X27742170Y-4720632D01*
X27751349Y-4740038D01*
X27758581Y-4760250D01*
X27763797Y-4781074D01*
X27766947Y-4802309D01*
X27768000Y-4823750D01*
X27768000Y-5336250D01*
X27766947Y-5357691D01*
X27763797Y-5378926D01*
X27758581Y-5399750D01*
X27751349Y-5419962D01*
X27742170Y-5439368D01*
X27731134Y-5457781D01*
X27718346Y-5475024D01*
X27703930Y-5490930D01*
X27688024Y-5505346D01*
X27670781Y-5518134D01*
X27652368Y-5529170D01*
X27632962Y-5538349D01*
X27612750Y-5545581D01*
X27591926Y-5550797D01*
X27570691Y-5553947D01*
X27549250Y-5555000D01*
X27111750Y-5555000D01*
X27090309Y-5553947D01*
X27069074Y-5550797D01*
X27048250Y-5545581D01*
X27028038Y-5538349D01*
X27008632Y-5529170D01*
X26990219Y-5518134D01*
X26972976Y-5505346D01*
X26957070Y-5490930D01*
X26942654Y-5475024D01*
X26929866Y-5457781D01*
X26918830Y-5439368D01*
X26909651Y-5419962D01*
X26902419Y-5399750D01*
X26897203Y-5378926D01*
X26894053Y-5357691D01*
X26893000Y-5336250D01*
X26893000Y-4823750D01*
X26894053Y-4802309D01*
X26897203Y-4781074D01*
X26902419Y-4760250D01*
X26909651Y-4740038D01*
X26918830Y-4720632D01*
X26929866Y-4702219D01*
X26942654Y-4684976D01*
X26957070Y-4669070D01*
X26972976Y-4654654D01*
X26990219Y-4641866D01*
X27008632Y-4630830D01*
X27028038Y-4621651D01*
X27048250Y-4614419D01*
X27069074Y-4609203D01*
X27090309Y-4606053D01*
X27111750Y-4605000D01*
X27549250Y-4605000D01*
X27570691Y-4606053D01*
X27570691Y-4606053D01*
G37*
D12*
X27330500Y-5080000D03*
D11*
G36*
X25970191Y-2066053D02*
G01*
X25991426Y-2069203D01*
X26012250Y-2074419D01*
X26032462Y-2081651D01*
X26051868Y-2090830D01*
X26070281Y-2101866D01*
X26087524Y-2114654D01*
X26103430Y-2129070D01*
X26117846Y-2144976D01*
X26130634Y-2162219D01*
X26141670Y-2180632D01*
X26150849Y-2200038D01*
X26158081Y-2220250D01*
X26163297Y-2241074D01*
X26166447Y-2262309D01*
X26167500Y-2283750D01*
X26167500Y-2796250D01*
X26166447Y-2817691D01*
X26163297Y-2838926D01*
X26158081Y-2859750D01*
X26150849Y-2879962D01*
X26141670Y-2899368D01*
X26130634Y-2917781D01*
X26117846Y-2935024D01*
X26103430Y-2950930D01*
X26087524Y-2965346D01*
X26070281Y-2978134D01*
X26051868Y-2989170D01*
X26032462Y-2998349D01*
X26012250Y-3005581D01*
X25991426Y-3010797D01*
X25970191Y-3013947D01*
X25948750Y-3015000D01*
X25511250Y-3015000D01*
X25489809Y-3013947D01*
X25468574Y-3010797D01*
X25447750Y-3005581D01*
X25427538Y-2998349D01*
X25408132Y-2989170D01*
X25389719Y-2978134D01*
X25372476Y-2965346D01*
X25356570Y-2950930D01*
X25342154Y-2935024D01*
X25329366Y-2917781D01*
X25318330Y-2899368D01*
X25309151Y-2879962D01*
X25301919Y-2859750D01*
X25296703Y-2838926D01*
X25293553Y-2817691D01*
X25292500Y-2796250D01*
X25292500Y-2283750D01*
X25293553Y-2262309D01*
X25296703Y-2241074D01*
X25301919Y-2220250D01*
X25309151Y-2200038D01*
X25318330Y-2180632D01*
X25329366Y-2162219D01*
X25342154Y-2144976D01*
X25356570Y-2129070D01*
X25372476Y-2114654D01*
X25389719Y-2101866D01*
X25408132Y-2090830D01*
X25427538Y-2081651D01*
X25447750Y-2074419D01*
X25468574Y-2069203D01*
X25489809Y-2066053D01*
X25511250Y-2065000D01*
X25948750Y-2065000D01*
X25970191Y-2066053D01*
X25970191Y-2066053D01*
G37*
D12*
X25730000Y-2540000D03*
D11*
G36*
X27545191Y-2066053D02*
G01*
X27566426Y-2069203D01*
X27587250Y-2074419D01*
X27607462Y-2081651D01*
X27626868Y-2090830D01*
X27645281Y-2101866D01*
X27662524Y-2114654D01*
X27678430Y-2129070D01*
X27692846Y-2144976D01*
X27705634Y-2162219D01*
X27716670Y-2180632D01*
X27725849Y-2200038D01*
X27733081Y-2220250D01*
X27738297Y-2241074D01*
X27741447Y-2262309D01*
X27742500Y-2283750D01*
X27742500Y-2796250D01*
X27741447Y-2817691D01*
X27738297Y-2838926D01*
X27733081Y-2859750D01*
X27725849Y-2879962D01*
X27716670Y-2899368D01*
X27705634Y-2917781D01*
X27692846Y-2935024D01*
X27678430Y-2950930D01*
X27662524Y-2965346D01*
X27645281Y-2978134D01*
X27626868Y-2989170D01*
X27607462Y-2998349D01*
X27587250Y-3005581D01*
X27566426Y-3010797D01*
X27545191Y-3013947D01*
X27523750Y-3015000D01*
X27086250Y-3015000D01*
X27064809Y-3013947D01*
X27043574Y-3010797D01*
X27022750Y-3005581D01*
X27002538Y-2998349D01*
X26983132Y-2989170D01*
X26964719Y-2978134D01*
X26947476Y-2965346D01*
X26931570Y-2950930D01*
X26917154Y-2935024D01*
X26904366Y-2917781D01*
X26893330Y-2899368D01*
X26884151Y-2879962D01*
X26876919Y-2859750D01*
X26871703Y-2838926D01*
X26868553Y-2817691D01*
X26867500Y-2796250D01*
X26867500Y-2283750D01*
X26868553Y-2262309D01*
X26871703Y-2241074D01*
X26876919Y-2220250D01*
X26884151Y-2200038D01*
X26893330Y-2180632D01*
X26904366Y-2162219D01*
X26917154Y-2144976D01*
X26931570Y-2129070D01*
X26947476Y-2114654D01*
X26964719Y-2101866D01*
X26983132Y-2090830D01*
X27002538Y-2081651D01*
X27022750Y-2074419D01*
X27043574Y-2069203D01*
X27064809Y-2066053D01*
X27086250Y-2065000D01*
X27523750Y-2065000D01*
X27545191Y-2066053D01*
X27545191Y-2066053D01*
G37*
D12*
X27305000Y-2540000D03*
D19*
X31369000Y-19304000D03*
X31369000Y-16764000D03*
X31369000Y-6096000D03*
X31360000Y-8636000D03*
X49911000Y-6096000D03*
X49902000Y-8636000D03*
X49911000Y-19304000D03*
X49911000Y-16764000D03*
D20*
X20955000Y-49530000D03*
X5715000Y-49530000D03*
X20955000Y-13970000D03*
X5715000Y-46990000D03*
X20955000Y-16510000D03*
X5715000Y-44450000D03*
X20955000Y-19050000D03*
X5715000Y-41910000D03*
X20955000Y-21590000D03*
X5715000Y-39370000D03*
X20955000Y-24130000D03*
X5715000Y-36830000D03*
X20955000Y-26670000D03*
X5715000Y-34290000D03*
X20955000Y-29210000D03*
X5715000Y-31750000D03*
X20955000Y-31750000D03*
X5715000Y-29210000D03*
X20955000Y-34290000D03*
X5715000Y-26670000D03*
X20955000Y-36830000D03*
X5715000Y-24130000D03*
X20955000Y-39370000D03*
X5715000Y-21590000D03*
X20955000Y-41910000D03*
X5715000Y-19050000D03*
X20955000Y-44450000D03*
X5715000Y-16510000D03*
X20955000Y-46990000D03*
D21*
X5715000Y-13970000D03*
D11*
G36*
X45362691Y-48763553D02*
G01*
X45383926Y-48766703D01*
X45404750Y-48771919D01*
X45424962Y-48779151D01*
X45444368Y-48788330D01*
X45462781Y-48799366D01*
X45480024Y-48812154D01*
X45495930Y-48826570D01*
X45510346Y-48842476D01*
X45523134Y-48859719D01*
X45534170Y-48878132D01*
X45543349Y-48897538D01*
X45550581Y-48917750D01*
X45555797Y-48938574D01*
X45558947Y-48959809D01*
X45560000Y-48981250D01*
X45560000Y-49418750D01*
X45558947Y-49440191D01*
X45555797Y-49461426D01*
X45550581Y-49482250D01*
X45543349Y-49502462D01*
X45534170Y-49521868D01*
X45523134Y-49540281D01*
X45510346Y-49557524D01*
X45495930Y-49573430D01*
X45480024Y-49587846D01*
X45462781Y-49600634D01*
X45444368Y-49611670D01*
X45424962Y-49620849D01*
X45404750Y-49628081D01*
X45383926Y-49633297D01*
X45362691Y-49636447D01*
X45341250Y-49637500D01*
X44828750Y-49637500D01*
X44807309Y-49636447D01*
X44786074Y-49633297D01*
X44765250Y-49628081D01*
X44745038Y-49620849D01*
X44725632Y-49611670D01*
X44707219Y-49600634D01*
X44689976Y-49587846D01*
X44674070Y-49573430D01*
X44659654Y-49557524D01*
X44646866Y-49540281D01*
X44635830Y-49521868D01*
X44626651Y-49502462D01*
X44619419Y-49482250D01*
X44614203Y-49461426D01*
X44611053Y-49440191D01*
X44610000Y-49418750D01*
X44610000Y-48981250D01*
X44611053Y-48959809D01*
X44614203Y-48938574D01*
X44619419Y-48917750D01*
X44626651Y-48897538D01*
X44635830Y-48878132D01*
X44646866Y-48859719D01*
X44659654Y-48842476D01*
X44674070Y-48826570D01*
X44689976Y-48812154D01*
X44707219Y-48799366D01*
X44725632Y-48788330D01*
X44745038Y-48779151D01*
X44765250Y-48771919D01*
X44786074Y-48766703D01*
X44807309Y-48763553D01*
X44828750Y-48762500D01*
X45341250Y-48762500D01*
X45362691Y-48763553D01*
X45362691Y-48763553D01*
G37*
D12*
X45085000Y-49200000D03*
D11*
G36*
X45362691Y-47188553D02*
G01*
X45383926Y-47191703D01*
X45404750Y-47196919D01*
X45424962Y-47204151D01*
X45444368Y-47213330D01*
X45462781Y-47224366D01*
X45480024Y-47237154D01*
X45495930Y-47251570D01*
X45510346Y-47267476D01*
X45523134Y-47284719D01*
X45534170Y-47303132D01*
X45543349Y-47322538D01*
X45550581Y-47342750D01*
X45555797Y-47363574D01*
X45558947Y-47384809D01*
X45560000Y-47406250D01*
X45560000Y-47843750D01*
X45558947Y-47865191D01*
X45555797Y-47886426D01*
X45550581Y-47907250D01*
X45543349Y-47927462D01*
X45534170Y-47946868D01*
X45523134Y-47965281D01*
X45510346Y-47982524D01*
X45495930Y-47998430D01*
X45480024Y-48012846D01*
X45462781Y-48025634D01*
X45444368Y-48036670D01*
X45424962Y-48045849D01*
X45404750Y-48053081D01*
X45383926Y-48058297D01*
X45362691Y-48061447D01*
X45341250Y-48062500D01*
X44828750Y-48062500D01*
X44807309Y-48061447D01*
X44786074Y-48058297D01*
X44765250Y-48053081D01*
X44745038Y-48045849D01*
X44725632Y-48036670D01*
X44707219Y-48025634D01*
X44689976Y-48012846D01*
X44674070Y-47998430D01*
X44659654Y-47982524D01*
X44646866Y-47965281D01*
X44635830Y-47946868D01*
X44626651Y-47927462D01*
X44619419Y-47907250D01*
X44614203Y-47886426D01*
X44611053Y-47865191D01*
X44610000Y-47843750D01*
X44610000Y-47406250D01*
X44611053Y-47384809D01*
X44614203Y-47363574D01*
X44619419Y-47342750D01*
X44626651Y-47322538D01*
X44635830Y-47303132D01*
X44646866Y-47284719D01*
X44659654Y-47267476D01*
X44674070Y-47251570D01*
X44689976Y-47237154D01*
X44707219Y-47224366D01*
X44725632Y-47213330D01*
X44745038Y-47204151D01*
X44765250Y-47196919D01*
X44786074Y-47191703D01*
X44807309Y-47188553D01*
X44828750Y-47187500D01*
X45341250Y-47187500D01*
X45362691Y-47188553D01*
X45362691Y-47188553D01*
G37*
D12*
X45085000Y-47625000D03*
D11*
G36*
X36398428Y-25710782D02*
G01*
X36414202Y-25713122D01*
X36429671Y-25716997D01*
X36444686Y-25722370D01*
X36459102Y-25729188D01*
X36472780Y-25737386D01*
X36485589Y-25746886D01*
X36497405Y-25757595D01*
X36508114Y-25769411D01*
X36517614Y-25782220D01*
X36525812Y-25795898D01*
X36532630Y-25810314D01*
X36538003Y-25825329D01*
X36541878Y-25840798D01*
X36544218Y-25856572D01*
X36545000Y-25872500D01*
X36545000Y-26197500D01*
X36544218Y-26213428D01*
X36541878Y-26229202D01*
X36538003Y-26244671D01*
X36532630Y-26259686D01*
X36525812Y-26274102D01*
X36517614Y-26287780D01*
X36508114Y-26300589D01*
X36497405Y-26312405D01*
X36485589Y-26323114D01*
X36472780Y-26332614D01*
X36459102Y-26340812D01*
X36444686Y-26347630D01*
X36429671Y-26353003D01*
X36414202Y-26356878D01*
X36398428Y-26359218D01*
X36382500Y-26360000D01*
X34732500Y-26360000D01*
X34716572Y-26359218D01*
X34700798Y-26356878D01*
X34685329Y-26353003D01*
X34670314Y-26347630D01*
X34655898Y-26340812D01*
X34642220Y-26332614D01*
X34629411Y-26323114D01*
X34617595Y-26312405D01*
X34606886Y-26300589D01*
X34597386Y-26287780D01*
X34589188Y-26274102D01*
X34582370Y-26259686D01*
X34576997Y-26244671D01*
X34573122Y-26229202D01*
X34570782Y-26213428D01*
X34570000Y-26197500D01*
X34570000Y-25872500D01*
X34570782Y-25856572D01*
X34573122Y-25840798D01*
X34576997Y-25825329D01*
X34582370Y-25810314D01*
X34589188Y-25795898D01*
X34597386Y-25782220D01*
X34606886Y-25769411D01*
X34617595Y-25757595D01*
X34629411Y-25746886D01*
X34642220Y-25737386D01*
X34655898Y-25729188D01*
X34670314Y-25722370D01*
X34685329Y-25716997D01*
X34700798Y-25713122D01*
X34716572Y-25710782D01*
X34732500Y-25710000D01*
X36382500Y-25710000D01*
X36398428Y-25710782D01*
X36398428Y-25710782D01*
G37*
D22*
X35557500Y-26035000D03*
D11*
G36*
X36398428Y-26980782D02*
G01*
X36414202Y-26983122D01*
X36429671Y-26986997D01*
X36444686Y-26992370D01*
X36459102Y-26999188D01*
X36472780Y-27007386D01*
X36485589Y-27016886D01*
X36497405Y-27027595D01*
X36508114Y-27039411D01*
X36517614Y-27052220D01*
X36525812Y-27065898D01*
X36532630Y-27080314D01*
X36538003Y-27095329D01*
X36541878Y-27110798D01*
X36544218Y-27126572D01*
X36545000Y-27142500D01*
X36545000Y-27467500D01*
X36544218Y-27483428D01*
X36541878Y-27499202D01*
X36538003Y-27514671D01*
X36532630Y-27529686D01*
X36525812Y-27544102D01*
X36517614Y-27557780D01*
X36508114Y-27570589D01*
X36497405Y-27582405D01*
X36485589Y-27593114D01*
X36472780Y-27602614D01*
X36459102Y-27610812D01*
X36444686Y-27617630D01*
X36429671Y-27623003D01*
X36414202Y-27626878D01*
X36398428Y-27629218D01*
X36382500Y-27630000D01*
X34732500Y-27630000D01*
X34716572Y-27629218D01*
X34700798Y-27626878D01*
X34685329Y-27623003D01*
X34670314Y-27617630D01*
X34655898Y-27610812D01*
X34642220Y-27602614D01*
X34629411Y-27593114D01*
X34617595Y-27582405D01*
X34606886Y-27570589D01*
X34597386Y-27557780D01*
X34589188Y-27544102D01*
X34582370Y-27529686D01*
X34576997Y-27514671D01*
X34573122Y-27499202D01*
X34570782Y-27483428D01*
X34570000Y-27467500D01*
X34570000Y-27142500D01*
X34570782Y-27126572D01*
X34573122Y-27110798D01*
X34576997Y-27095329D01*
X34582370Y-27080314D01*
X34589188Y-27065898D01*
X34597386Y-27052220D01*
X34606886Y-27039411D01*
X34617595Y-27027595D01*
X34629411Y-27016886D01*
X34642220Y-27007386D01*
X34655898Y-26999188D01*
X34670314Y-26992370D01*
X34685329Y-26986997D01*
X34700798Y-26983122D01*
X34716572Y-26980782D01*
X34732500Y-26980000D01*
X36382500Y-26980000D01*
X36398428Y-26980782D01*
X36398428Y-26980782D01*
G37*
D22*
X35557500Y-27305000D03*
D11*
G36*
X36398428Y-28250782D02*
G01*
X36414202Y-28253122D01*
X36429671Y-28256997D01*
X36444686Y-28262370D01*
X36459102Y-28269188D01*
X36472780Y-28277386D01*
X36485589Y-28286886D01*
X36497405Y-28297595D01*
X36508114Y-28309411D01*
X36517614Y-28322220D01*
X36525812Y-28335898D01*
X36532630Y-28350314D01*
X36538003Y-28365329D01*
X36541878Y-28380798D01*
X36544218Y-28396572D01*
X36545000Y-28412500D01*
X36545000Y-28737500D01*
X36544218Y-28753428D01*
X36541878Y-28769202D01*
X36538003Y-28784671D01*
X36532630Y-28799686D01*
X36525812Y-28814102D01*
X36517614Y-28827780D01*
X36508114Y-28840589D01*
X36497405Y-28852405D01*
X36485589Y-28863114D01*
X36472780Y-28872614D01*
X36459102Y-28880812D01*
X36444686Y-28887630D01*
X36429671Y-28893003D01*
X36414202Y-28896878D01*
X36398428Y-28899218D01*
X36382500Y-28900000D01*
X34732500Y-28900000D01*
X34716572Y-28899218D01*
X34700798Y-28896878D01*
X34685329Y-28893003D01*
X34670314Y-28887630D01*
X34655898Y-28880812D01*
X34642220Y-28872614D01*
X34629411Y-28863114D01*
X34617595Y-28852405D01*
X34606886Y-28840589D01*
X34597386Y-28827780D01*
X34589188Y-28814102D01*
X34582370Y-28799686D01*
X34576997Y-28784671D01*
X34573122Y-28769202D01*
X34570782Y-28753428D01*
X34570000Y-28737500D01*
X34570000Y-28412500D01*
X34570782Y-28396572D01*
X34573122Y-28380798D01*
X34576997Y-28365329D01*
X34582370Y-28350314D01*
X34589188Y-28335898D01*
X34597386Y-28322220D01*
X34606886Y-28309411D01*
X34617595Y-28297595D01*
X34629411Y-28286886D01*
X34642220Y-28277386D01*
X34655898Y-28269188D01*
X34670314Y-28262370D01*
X34685329Y-28256997D01*
X34700798Y-28253122D01*
X34716572Y-28250782D01*
X34732500Y-28250000D01*
X36382500Y-28250000D01*
X36398428Y-28250782D01*
X36398428Y-28250782D01*
G37*
D22*
X35557500Y-28575000D03*
D11*
G36*
X36398428Y-29520782D02*
G01*
X36414202Y-29523122D01*
X36429671Y-29526997D01*
X36444686Y-29532370D01*
X36459102Y-29539188D01*
X36472780Y-29547386D01*
X36485589Y-29556886D01*
X36497405Y-29567595D01*
X36508114Y-29579411D01*
X36517614Y-29592220D01*
X36525812Y-29605898D01*
X36532630Y-29620314D01*
X36538003Y-29635329D01*
X36541878Y-29650798D01*
X36544218Y-29666572D01*
X36545000Y-29682500D01*
X36545000Y-30007500D01*
X36544218Y-30023428D01*
X36541878Y-30039202D01*
X36538003Y-30054671D01*
X36532630Y-30069686D01*
X36525812Y-30084102D01*
X36517614Y-30097780D01*
X36508114Y-30110589D01*
X36497405Y-30122405D01*
X36485589Y-30133114D01*
X36472780Y-30142614D01*
X36459102Y-30150812D01*
X36444686Y-30157630D01*
X36429671Y-30163003D01*
X36414202Y-30166878D01*
X36398428Y-30169218D01*
X36382500Y-30170000D01*
X34732500Y-30170000D01*
X34716572Y-30169218D01*
X34700798Y-30166878D01*
X34685329Y-30163003D01*
X34670314Y-30157630D01*
X34655898Y-30150812D01*
X34642220Y-30142614D01*
X34629411Y-30133114D01*
X34617595Y-30122405D01*
X34606886Y-30110589D01*
X34597386Y-30097780D01*
X34589188Y-30084102D01*
X34582370Y-30069686D01*
X34576997Y-30054671D01*
X34573122Y-30039202D01*
X34570782Y-30023428D01*
X34570000Y-30007500D01*
X34570000Y-29682500D01*
X34570782Y-29666572D01*
X34573122Y-29650798D01*
X34576997Y-29635329D01*
X34582370Y-29620314D01*
X34589188Y-29605898D01*
X34597386Y-29592220D01*
X34606886Y-29579411D01*
X34617595Y-29567595D01*
X34629411Y-29556886D01*
X34642220Y-29547386D01*
X34655898Y-29539188D01*
X34670314Y-29532370D01*
X34685329Y-29526997D01*
X34700798Y-29523122D01*
X34716572Y-29520782D01*
X34732500Y-29520000D01*
X36382500Y-29520000D01*
X36398428Y-29520782D01*
X36398428Y-29520782D01*
G37*
D22*
X35557500Y-29845000D03*
D11*
G36*
X31323428Y-29520782D02*
G01*
X31339202Y-29523122D01*
X31354671Y-29526997D01*
X31369686Y-29532370D01*
X31384102Y-29539188D01*
X31397780Y-29547386D01*
X31410589Y-29556886D01*
X31422405Y-29567595D01*
X31433114Y-29579411D01*
X31442614Y-29592220D01*
X31450812Y-29605898D01*
X31457630Y-29620314D01*
X31463003Y-29635329D01*
X31466878Y-29650798D01*
X31469218Y-29666572D01*
X31470000Y-29682500D01*
X31470000Y-30007500D01*
X31469218Y-30023428D01*
X31466878Y-30039202D01*
X31463003Y-30054671D01*
X31457630Y-30069686D01*
X31450812Y-30084102D01*
X31442614Y-30097780D01*
X31433114Y-30110589D01*
X31422405Y-30122405D01*
X31410589Y-30133114D01*
X31397780Y-30142614D01*
X31384102Y-30150812D01*
X31369686Y-30157630D01*
X31354671Y-30163003D01*
X31339202Y-30166878D01*
X31323428Y-30169218D01*
X31307500Y-30170000D01*
X29657500Y-30170000D01*
X29641572Y-30169218D01*
X29625798Y-30166878D01*
X29610329Y-30163003D01*
X29595314Y-30157630D01*
X29580898Y-30150812D01*
X29567220Y-30142614D01*
X29554411Y-30133114D01*
X29542595Y-30122405D01*
X29531886Y-30110589D01*
X29522386Y-30097780D01*
X29514188Y-30084102D01*
X29507370Y-30069686D01*
X29501997Y-30054671D01*
X29498122Y-30039202D01*
X29495782Y-30023428D01*
X29495000Y-30007500D01*
X29495000Y-29682500D01*
X29495782Y-29666572D01*
X29498122Y-29650798D01*
X29501997Y-29635329D01*
X29507370Y-29620314D01*
X29514188Y-29605898D01*
X29522386Y-29592220D01*
X29531886Y-29579411D01*
X29542595Y-29567595D01*
X29554411Y-29556886D01*
X29567220Y-29547386D01*
X29580898Y-29539188D01*
X29595314Y-29532370D01*
X29610329Y-29526997D01*
X29625798Y-29523122D01*
X29641572Y-29520782D01*
X29657500Y-29520000D01*
X31307500Y-29520000D01*
X31323428Y-29520782D01*
X31323428Y-29520782D01*
G37*
D22*
X30482500Y-29845000D03*
D11*
G36*
X31323428Y-28250782D02*
G01*
X31339202Y-28253122D01*
X31354671Y-28256997D01*
X31369686Y-28262370D01*
X31384102Y-28269188D01*
X31397780Y-28277386D01*
X31410589Y-28286886D01*
X31422405Y-28297595D01*
X31433114Y-28309411D01*
X31442614Y-28322220D01*
X31450812Y-28335898D01*
X31457630Y-28350314D01*
X31463003Y-28365329D01*
X31466878Y-28380798D01*
X31469218Y-28396572D01*
X31470000Y-28412500D01*
X31470000Y-28737500D01*
X31469218Y-28753428D01*
X31466878Y-28769202D01*
X31463003Y-28784671D01*
X31457630Y-28799686D01*
X31450812Y-28814102D01*
X31442614Y-28827780D01*
X31433114Y-28840589D01*
X31422405Y-28852405D01*
X31410589Y-28863114D01*
X31397780Y-28872614D01*
X31384102Y-28880812D01*
X31369686Y-28887630D01*
X31354671Y-28893003D01*
X31339202Y-28896878D01*
X31323428Y-28899218D01*
X31307500Y-28900000D01*
X29657500Y-28900000D01*
X29641572Y-28899218D01*
X29625798Y-28896878D01*
X29610329Y-28893003D01*
X29595314Y-28887630D01*
X29580898Y-28880812D01*
X29567220Y-28872614D01*
X29554411Y-28863114D01*
X29542595Y-28852405D01*
X29531886Y-28840589D01*
X29522386Y-28827780D01*
X29514188Y-28814102D01*
X29507370Y-28799686D01*
X29501997Y-28784671D01*
X29498122Y-28769202D01*
X29495782Y-28753428D01*
X29495000Y-28737500D01*
X29495000Y-28412500D01*
X29495782Y-28396572D01*
X29498122Y-28380798D01*
X29501997Y-28365329D01*
X29507370Y-28350314D01*
X29514188Y-28335898D01*
X29522386Y-28322220D01*
X29531886Y-28309411D01*
X29542595Y-28297595D01*
X29554411Y-28286886D01*
X29567220Y-28277386D01*
X29580898Y-28269188D01*
X29595314Y-28262370D01*
X29610329Y-28256997D01*
X29625798Y-28253122D01*
X29641572Y-28250782D01*
X29657500Y-28250000D01*
X31307500Y-28250000D01*
X31323428Y-28250782D01*
X31323428Y-28250782D01*
G37*
D22*
X30482500Y-28575000D03*
D11*
G36*
X31323428Y-26980782D02*
G01*
X31339202Y-26983122D01*
X31354671Y-26986997D01*
X31369686Y-26992370D01*
X31384102Y-26999188D01*
X31397780Y-27007386D01*
X31410589Y-27016886D01*
X31422405Y-27027595D01*
X31433114Y-27039411D01*
X31442614Y-27052220D01*
X31450812Y-27065898D01*
X31457630Y-27080314D01*
X31463003Y-27095329D01*
X31466878Y-27110798D01*
X31469218Y-27126572D01*
X31470000Y-27142500D01*
X31470000Y-27467500D01*
X31469218Y-27483428D01*
X31466878Y-27499202D01*
X31463003Y-27514671D01*
X31457630Y-27529686D01*
X31450812Y-27544102D01*
X31442614Y-27557780D01*
X31433114Y-27570589D01*
X31422405Y-27582405D01*
X31410589Y-27593114D01*
X31397780Y-27602614D01*
X31384102Y-27610812D01*
X31369686Y-27617630D01*
X31354671Y-27623003D01*
X31339202Y-27626878D01*
X31323428Y-27629218D01*
X31307500Y-27630000D01*
X29657500Y-27630000D01*
X29641572Y-27629218D01*
X29625798Y-27626878D01*
X29610329Y-27623003D01*
X29595314Y-27617630D01*
X29580898Y-27610812D01*
X29567220Y-27602614D01*
X29554411Y-27593114D01*
X29542595Y-27582405D01*
X29531886Y-27570589D01*
X29522386Y-27557780D01*
X29514188Y-27544102D01*
X29507370Y-27529686D01*
X29501997Y-27514671D01*
X29498122Y-27499202D01*
X29495782Y-27483428D01*
X29495000Y-27467500D01*
X29495000Y-27142500D01*
X29495782Y-27126572D01*
X29498122Y-27110798D01*
X29501997Y-27095329D01*
X29507370Y-27080314D01*
X29514188Y-27065898D01*
X29522386Y-27052220D01*
X29531886Y-27039411D01*
X29542595Y-27027595D01*
X29554411Y-27016886D01*
X29567220Y-27007386D01*
X29580898Y-26999188D01*
X29595314Y-26992370D01*
X29610329Y-26986997D01*
X29625798Y-26983122D01*
X29641572Y-26980782D01*
X29657500Y-26980000D01*
X31307500Y-26980000D01*
X31323428Y-26980782D01*
X31323428Y-26980782D01*
G37*
D22*
X30482500Y-27305000D03*
D11*
G36*
X31323428Y-25710782D02*
G01*
X31339202Y-25713122D01*
X31354671Y-25716997D01*
X31369686Y-25722370D01*
X31384102Y-25729188D01*
X31397780Y-25737386D01*
X31410589Y-25746886D01*
X31422405Y-25757595D01*
X31433114Y-25769411D01*
X31442614Y-25782220D01*
X31450812Y-25795898D01*
X31457630Y-25810314D01*
X31463003Y-25825329D01*
X31466878Y-25840798D01*
X31469218Y-25856572D01*
X31470000Y-25872500D01*
X31470000Y-26197500D01*
X31469218Y-26213428D01*
X31466878Y-26229202D01*
X31463003Y-26244671D01*
X31457630Y-26259686D01*
X31450812Y-26274102D01*
X31442614Y-26287780D01*
X31433114Y-26300589D01*
X31422405Y-26312405D01*
X31410589Y-26323114D01*
X31397780Y-26332614D01*
X31384102Y-26340812D01*
X31369686Y-26347630D01*
X31354671Y-26353003D01*
X31339202Y-26356878D01*
X31323428Y-26359218D01*
X31307500Y-26360000D01*
X29657500Y-26360000D01*
X29641572Y-26359218D01*
X29625798Y-26356878D01*
X29610329Y-26353003D01*
X29595314Y-26347630D01*
X29580898Y-26340812D01*
X29567220Y-26332614D01*
X29554411Y-26323114D01*
X29542595Y-26312405D01*
X29531886Y-26300589D01*
X29522386Y-26287780D01*
X29514188Y-26274102D01*
X29507370Y-26259686D01*
X29501997Y-26244671D01*
X29498122Y-26229202D01*
X29495782Y-26213428D01*
X29495000Y-26197500D01*
X29495000Y-25872500D01*
X29495782Y-25856572D01*
X29498122Y-25840798D01*
X29501997Y-25825329D01*
X29507370Y-25810314D01*
X29514188Y-25795898D01*
X29522386Y-25782220D01*
X29531886Y-25769411D01*
X29542595Y-25757595D01*
X29554411Y-25746886D01*
X29567220Y-25737386D01*
X29580898Y-25729188D01*
X29595314Y-25722370D01*
X29610329Y-25716997D01*
X29625798Y-25713122D01*
X29641572Y-25710782D01*
X29657500Y-25710000D01*
X31307500Y-25710000D01*
X31323428Y-25710782D01*
X31323428Y-25710782D01*
G37*
D22*
X30482500Y-26035000D03*
D11*
G36*
X29838505Y-32908204D02*
G01*
X29862773Y-32911804D01*
X29886572Y-32917765D01*
X29909671Y-32926030D01*
X29931850Y-32936520D01*
X29952893Y-32949132D01*
X29972599Y-32963747D01*
X29990777Y-32980223D01*
X30007253Y-32998401D01*
X30021868Y-33018107D01*
X30034480Y-33039150D01*
X30044970Y-33061329D01*
X30053235Y-33084428D01*
X30059196Y-33108227D01*
X30062796Y-33132495D01*
X30064000Y-33156999D01*
X30064000Y-34407001D01*
X30062796Y-34431505D01*
X30059196Y-34455773D01*
X30053235Y-34479572D01*
X30044970Y-34502671D01*
X30034480Y-34524850D01*
X30021868Y-34545893D01*
X30007253Y-34565599D01*
X29990777Y-34583777D01*
X29972599Y-34600253D01*
X29952893Y-34614868D01*
X29931850Y-34627480D01*
X29909671Y-34637970D01*
X29886572Y-34646235D01*
X29862773Y-34652196D01*
X29838505Y-34655796D01*
X29814001Y-34657000D01*
X29113999Y-34657000D01*
X29089495Y-34655796D01*
X29065227Y-34652196D01*
X29041428Y-34646235D01*
X29018329Y-34637970D01*
X28996150Y-34627480D01*
X28975107Y-34614868D01*
X28955401Y-34600253D01*
X28937223Y-34583777D01*
X28920747Y-34565599D01*
X28906132Y-34545893D01*
X28893520Y-34524850D01*
X28883030Y-34502671D01*
X28874765Y-34479572D01*
X28868804Y-34455773D01*
X28865204Y-34431505D01*
X28864000Y-34407001D01*
X28864000Y-33156999D01*
X28865204Y-33132495D01*
X28868804Y-33108227D01*
X28874765Y-33084428D01*
X28883030Y-33061329D01*
X28893520Y-33039150D01*
X28906132Y-33018107D01*
X28920747Y-32998401D01*
X28937223Y-32980223D01*
X28955401Y-32963747D01*
X28975107Y-32949132D01*
X28996150Y-32936520D01*
X29018329Y-32926030D01*
X29041428Y-32917765D01*
X29065227Y-32911804D01*
X29089495Y-32908204D01*
X29113999Y-32907000D01*
X29814001Y-32907000D01*
X29838505Y-32908204D01*
X29838505Y-32908204D01*
G37*
D17*
X29464000Y-33782000D03*
D16*
X31464000Y-33782000D03*
D23*
X27305000Y-26035000D03*
X27305000Y-28575000D03*
X28575000Y-26035000D03*
X28575000Y-28575000D03*
X52705000Y-29210000D03*
X51435000Y-29210000D03*
X44450000Y-33020000D03*
X44435000Y-34305000D03*
X45085000Y-50800000D03*
X17780000Y-25400000D03*
X26670000Y-24130000D03*
X41910000Y-27940000D03*
X42545000Y-38100000D03*
X26670000Y-27305000D03*
X17780000Y-30480000D03*
X17780000Y-33020000D03*
X26670000Y-29845000D03*
X38100000Y-38100000D03*
X38100000Y-33020000D03*
X39370000Y-33020000D03*
X39370000Y-38100000D03*
X39370000Y-43180000D03*
X39370000Y-48260000D03*
X42545000Y-52070000D03*
X37465000Y-52070000D03*
D24*
X30482500Y-26035000D02*
X28575000Y-26035000D01*
X30482500Y-28575000D02*
X28575000Y-28575000D01*
X28575000Y-26035000D02*
X27305000Y-26035000D01*
X28575000Y-28575000D02*
X27305000Y-28575000D01*
X49650000Y-29210000D02*
X51435000Y-29210000D01*
X51435000Y-29210000D02*
X52705000Y-29210000D01*
X44435000Y-35140000D02*
X44435000Y-34305000D01*
X44435000Y-33035000D02*
X44450000Y-33020000D01*
X44435000Y-34305000D02*
X44435000Y-33035000D01*
D25*
X13970000Y-16510000D02*
X20955000Y-16510000D01*
X10642500Y-13182500D02*
X13970000Y-16510000D01*
X10642500Y-5080000D02*
X10642500Y-13182500D01*
D24*
X45085000Y-49200000D02*
X45085000Y-50800000D01*
D25*
X6985000Y-25400000D02*
X5715000Y-24130000D01*
X17780000Y-25400000D02*
X6985000Y-25400000D01*
X39245510Y-27940000D02*
X35435510Y-24130000D01*
X41910000Y-27940000D02*
X39245510Y-27940000D01*
X35435510Y-24130000D02*
X26670000Y-24130000D01*
X42545000Y-42545000D02*
X42545000Y-38100000D01*
X45085000Y-45720000D02*
X45085000Y-47087500D01*
X42545000Y-42545000D02*
X42545000Y-43180000D01*
X42545000Y-43180000D02*
X45085000Y-45720000D01*
X45085000Y-47087500D02*
X45085000Y-47625000D01*
X45085000Y-45720000D02*
X49530000Y-45720000D01*
X4514999Y-30549999D02*
X4514999Y-8820001D01*
X5715000Y-31750000D02*
X4514999Y-30549999D01*
X4514999Y-8820001D02*
X10795000Y-2540000D01*
X30482500Y-27305000D02*
X27176002Y-27305000D01*
X27176002Y-27305000D02*
X26670000Y-27305000D01*
X6514999Y-38570001D02*
X5715000Y-39370000D01*
X17780000Y-30480000D02*
X14605000Y-30480000D01*
X14605000Y-30480000D02*
X6514999Y-38570001D01*
X5715000Y-41910000D02*
X11995001Y-35629999D01*
X27305000Y-29845000D02*
X30480000Y-29845000D01*
X11995001Y-35629999D02*
X13335000Y-34290000D01*
X13335000Y-34290000D02*
X14605000Y-33020000D01*
X14605000Y-33020000D02*
X17780000Y-33020000D01*
X26670000Y-29845000D02*
X27305000Y-29845000D01*
D24*
X35557500Y-29842500D02*
X38100000Y-32385000D01*
X38100000Y-32385000D02*
X38100000Y-33020000D01*
X35557500Y-28575000D02*
X35557500Y-29842500D01*
X31464000Y-33782000D02*
X31464000Y-39370000D01*
X32194000Y-40100000D02*
X31464000Y-39370000D01*
X35814000Y-40100000D02*
X32194000Y-40100000D01*
X37714000Y-40100000D02*
X35814000Y-40100000D01*
X38100000Y-39714000D02*
X37714000Y-40100000D01*
X38100000Y-38100000D02*
X38100000Y-39714000D01*
D25*
X25755500Y-5080000D02*
X12065000Y-5080000D01*
X12065000Y-2540000D02*
X25400000Y-2540000D01*
D24*
X36645000Y-27305000D02*
X39370000Y-30030000D01*
X35557500Y-27305000D02*
X36645000Y-27305000D01*
X39370000Y-48260000D02*
X38100000Y-49530000D01*
X38100000Y-49530000D02*
X31115000Y-49530000D01*
X31115000Y-49530000D02*
X30480000Y-48895000D01*
X39370000Y-30030000D02*
X39370000Y-33020000D01*
X39370000Y-38100000D02*
X39370000Y-43180000D01*
X35557500Y-26035000D02*
X35557500Y-27302500D01*
D25*
X43510000Y-45720000D02*
X43510000Y-51105000D01*
X43510000Y-51105000D02*
X42545000Y-52070000D01*
X37465000Y-52070000D02*
X24130000Y-52070000D01*
D26*
G36*
X53950001Y-53950000D02*
G01*
X26797000Y-53950000D01*
X26797000Y-52905000D01*
X36851715Y-52905000D01*
X36974744Y-52987205D01*
X37163102Y-53065226D01*
X37363061Y-53105000D01*
X37566939Y-53105000D01*
X37766898Y-53065226D01*
X37955256Y-52987205D01*
X38124774Y-52873937D01*
X38268937Y-52729774D01*
X38382205Y-52560256D01*
X38460226Y-52371898D01*
X38500000Y-52171939D01*
X38500000Y-51968061D01*
X38460226Y-51768102D01*
X38382205Y-51579744D01*
X38268937Y-51410226D01*
X38124774Y-51266063D01*
X37955256Y-51152795D01*
X37766898Y-51074774D01*
X37566939Y-51035000D01*
X37363061Y-51035000D01*
X37345323Y-51038528D01*
X37352072Y-50970000D01*
X37352072Y-50665000D01*
X38044249Y-50665000D01*
X38100000Y-50670491D01*
X38155751Y-50665000D01*
X38155752Y-50665000D01*
X38322499Y-50648577D01*
X38536447Y-50583676D01*
X38733623Y-50478284D01*
X38906449Y-50336449D01*
X38941996Y-50293135D01*
X40211988Y-49023144D01*
X40318283Y-48893623D01*
X40423675Y-48696447D01*
X40488577Y-48482500D01*
X40510490Y-48260001D01*
X40488577Y-48037502D01*
X40423675Y-47823554D01*
X40318283Y-47626378D01*
X40176448Y-47453552D01*
X40003622Y-47311717D01*
X39806446Y-47206325D01*
X39592498Y-47141423D01*
X39369999Y-47119510D01*
X39147500Y-47141423D01*
X38933553Y-47206325D01*
X38736377Y-47311717D01*
X38606856Y-47418012D01*
X37629869Y-48395000D01*
X37344685Y-48395000D01*
X37339812Y-48345518D01*
X37303502Y-48225820D01*
X37244537Y-48115506D01*
X37165185Y-48018815D01*
X37068494Y-47939463D01*
X36958180Y-47880498D01*
X36838482Y-47844188D01*
X36714000Y-47831928D01*
X34914000Y-47831928D01*
X34789518Y-47844188D01*
X34669820Y-47880498D01*
X34559506Y-47939463D01*
X34462815Y-48018815D01*
X34383463Y-48115506D01*
X34324498Y-48225820D01*
X34288188Y-48345518D01*
X34283315Y-48395000D01*
X31634095Y-48395000D01*
X31532833Y-48205551D01*
X31406564Y-48051691D01*
X31455494Y-48025537D01*
X31552185Y-47946185D01*
X31631537Y-47849494D01*
X31690502Y-47739180D01*
X31726812Y-47619482D01*
X31739072Y-47495000D01*
X31736000Y-47180750D01*
X31577250Y-47022000D01*
X30353000Y-47022000D01*
X30353000Y-47042000D01*
X30099000Y-47042000D01*
X30099000Y-47022000D01*
X28874750Y-47022000D01*
X28716000Y-47180750D01*
X28712928Y-47495000D01*
X28725188Y-47619482D01*
X28761498Y-47739180D01*
X28820463Y-47849494D01*
X28899815Y-47946185D01*
X28996506Y-48025537D01*
X29045436Y-48051691D01*
X28919167Y-48205551D01*
X28804489Y-48420099D01*
X28733870Y-48652898D01*
X28710025Y-48895000D01*
X28733870Y-49137102D01*
X28804489Y-49369901D01*
X28919167Y-49584449D01*
X29073498Y-49772502D01*
X29261551Y-49926833D01*
X29476099Y-50041511D01*
X29708898Y-50112130D01*
X29890335Y-50130000D01*
X30109868Y-50130000D01*
X30273008Y-50293140D01*
X30308551Y-50336449D01*
X30351857Y-50371989D01*
X30481377Y-50478284D01*
X30678553Y-50583676D01*
X30892501Y-50648577D01*
X31115000Y-50670491D01*
X31170752Y-50665000D01*
X34275928Y-50665000D01*
X34275928Y-50970000D01*
X34288188Y-51094482D01*
X34324498Y-51214180D01*
X34335627Y-51235000D01*
X26797000Y-51235000D01*
X26797000Y-46970000D01*
X34275928Y-46970000D01*
X34288188Y-47094482D01*
X34324498Y-47214180D01*
X34383463Y-47324494D01*
X34462815Y-47421185D01*
X34559506Y-47500537D01*
X34669820Y-47559502D01*
X34789518Y-47595812D01*
X34914000Y-47608072D01*
X35528250Y-47605000D01*
X35687000Y-47446250D01*
X35687000Y-45847000D01*
X35941000Y-45847000D01*
X35941000Y-47446250D01*
X36099750Y-47605000D01*
X36714000Y-47608072D01*
X36838482Y-47595812D01*
X36958180Y-47559502D01*
X37068494Y-47500537D01*
X37165185Y-47421185D01*
X37244537Y-47324494D01*
X37303502Y-47214180D01*
X37339812Y-47094482D01*
X37352072Y-46970000D01*
X37349000Y-46005750D01*
X37190250Y-45847000D01*
X35941000Y-45847000D01*
X35687000Y-45847000D01*
X34437750Y-45847000D01*
X34279000Y-46005750D01*
X34275928Y-46970000D01*
X26797000Y-46970000D01*
X26797000Y-46295000D01*
X28712928Y-46295000D01*
X28716000Y-46609250D01*
X28874750Y-46768000D01*
X30099000Y-46768000D01*
X30099000Y-45818750D01*
X30353000Y-45818750D01*
X30353000Y-46768000D01*
X31577250Y-46768000D01*
X31736000Y-46609250D01*
X31739072Y-46295000D01*
X31726812Y-46170518D01*
X31690502Y-46050820D01*
X31631537Y-45940506D01*
X31552185Y-45843815D01*
X31455494Y-45764463D01*
X31345180Y-45705498D01*
X31225482Y-45669188D01*
X31101000Y-45656928D01*
X30511750Y-45660000D01*
X30353000Y-45818750D01*
X30099000Y-45818750D01*
X29940250Y-45660000D01*
X29351000Y-45656928D01*
X29226518Y-45669188D01*
X29106820Y-45705498D01*
X28996506Y-45764463D01*
X28899815Y-45843815D01*
X28820463Y-45940506D01*
X28761498Y-46050820D01*
X28725188Y-46170518D01*
X28712928Y-46295000D01*
X26797000Y-46295000D01*
X26797000Y-44470000D01*
X34275928Y-44470000D01*
X34279000Y-45434250D01*
X34437750Y-45593000D01*
X35687000Y-45593000D01*
X35687000Y-43993750D01*
X35941000Y-43993750D01*
X35941000Y-45593000D01*
X37190250Y-45593000D01*
X37349000Y-45434250D01*
X37352072Y-44470000D01*
X37339812Y-44345518D01*
X37303502Y-44225820D01*
X37244537Y-44115506D01*
X37165185Y-44018815D01*
X37068494Y-43939463D01*
X36958180Y-43880498D01*
X36838482Y-43844188D01*
X36714000Y-43831928D01*
X36099750Y-43835000D01*
X35941000Y-43993750D01*
X35687000Y-43993750D01*
X35528250Y-43835000D01*
X34914000Y-43831928D01*
X34789518Y-43844188D01*
X34669820Y-43880498D01*
X34559506Y-43939463D01*
X34462815Y-44018815D01*
X34383463Y-44115506D01*
X34324498Y-44225820D01*
X34288188Y-44345518D01*
X34275928Y-44470000D01*
X26797000Y-44470000D01*
X26797000Y-40245000D01*
X28225928Y-40245000D01*
X28238188Y-40369482D01*
X28274498Y-40489180D01*
X28333463Y-40599494D01*
X28412815Y-40696185D01*
X28509506Y-40775537D01*
X28619820Y-40834502D01*
X28739518Y-40870812D01*
X28864000Y-40883072D01*
X29178250Y-40880000D01*
X29337000Y-40721250D01*
X29337000Y-39497000D01*
X28387750Y-39497000D01*
X28229000Y-39655750D01*
X28225928Y-40245000D01*
X26797000Y-40245000D01*
X26797000Y-38495000D01*
X28225928Y-38495000D01*
X28229000Y-39084250D01*
X28387750Y-39243000D01*
X29337000Y-39243000D01*
X29337000Y-38018750D01*
X29178250Y-37860000D01*
X28864000Y-37856928D01*
X28739518Y-37869188D01*
X28619820Y-37905498D01*
X28509506Y-37964463D01*
X28412815Y-38043815D01*
X28333463Y-38140506D01*
X28274498Y-38250820D01*
X28238188Y-38370518D01*
X28225928Y-38495000D01*
X26797000Y-38495000D01*
X26797000Y-34657000D01*
X28225928Y-34657000D01*
X28238188Y-34781482D01*
X28274498Y-34901180D01*
X28333463Y-35011494D01*
X28412815Y-35108185D01*
X28509506Y-35187537D01*
X28619820Y-35246502D01*
X28739518Y-35282812D01*
X28864000Y-35295072D01*
X29178250Y-35292000D01*
X29337000Y-35133250D01*
X29337000Y-33909000D01*
X28387750Y-33909000D01*
X28229000Y-34067750D01*
X28225928Y-34657000D01*
X26797000Y-34657000D01*
X26797000Y-32907000D01*
X28225928Y-32907000D01*
X28229000Y-33496250D01*
X28387750Y-33655000D01*
X29337000Y-33655000D01*
X29337000Y-32430750D01*
X29591000Y-32430750D01*
X29591000Y-33655000D01*
X29611000Y-33655000D01*
X29611000Y-33909000D01*
X29591000Y-33909000D01*
X29591000Y-35133250D01*
X29749750Y-35292000D01*
X30064000Y-35295072D01*
X30188482Y-35282812D01*
X30308180Y-35246502D01*
X30329000Y-35235373D01*
X30329001Y-37916627D01*
X30308180Y-37905498D01*
X30188482Y-37869188D01*
X30064000Y-37856928D01*
X29749750Y-37860000D01*
X29591000Y-38018750D01*
X29591000Y-39243000D01*
X29611000Y-39243000D01*
X29611000Y-39497000D01*
X29591000Y-39497000D01*
X29591000Y-40721250D01*
X29749750Y-40880000D01*
X30064000Y-40883072D01*
X30188482Y-40870812D01*
X30308180Y-40834502D01*
X30418494Y-40775537D01*
X30515185Y-40696185D01*
X30594537Y-40599494D01*
X30620692Y-40550563D01*
X30774552Y-40676833D01*
X30989100Y-40791511D01*
X31221899Y-40862130D01*
X31362548Y-40875983D01*
X31387551Y-40906449D01*
X31560376Y-41048283D01*
X31560377Y-41048284D01*
X31757553Y-41153676D01*
X31971501Y-41218577D01*
X32194000Y-41240491D01*
X32249751Y-41235000D01*
X34275928Y-41235000D01*
X34275928Y-41350000D01*
X34288188Y-41474482D01*
X34324498Y-41594180D01*
X34383463Y-41704494D01*
X34462815Y-41801185D01*
X34559506Y-41880537D01*
X34669820Y-41939502D01*
X34789518Y-41975812D01*
X34914000Y-41988072D01*
X36714000Y-41988072D01*
X36838482Y-41975812D01*
X36958180Y-41939502D01*
X37068494Y-41880537D01*
X37165185Y-41801185D01*
X37244537Y-41704494D01*
X37303502Y-41594180D01*
X37339812Y-41474482D01*
X37352072Y-41350000D01*
X37352072Y-41235000D01*
X37658249Y-41235000D01*
X37714000Y-41240491D01*
X37769751Y-41235000D01*
X37769752Y-41235000D01*
X37936499Y-41218577D01*
X38150447Y-41153676D01*
X38235001Y-41108481D01*
X38235001Y-43235752D01*
X38251424Y-43402499D01*
X38316325Y-43616447D01*
X38421717Y-43813623D01*
X38563552Y-43986449D01*
X38736378Y-44128284D01*
X38933554Y-44233676D01*
X39147502Y-44298577D01*
X39370000Y-44320491D01*
X39592499Y-44298577D01*
X39806447Y-44233676D01*
X40003623Y-44128284D01*
X40176449Y-43986449D01*
X40318284Y-43813623D01*
X40423676Y-43616447D01*
X40488577Y-43402499D01*
X40505000Y-43235752D01*
X40505000Y-38044248D01*
X40500452Y-37998061D01*
X41510000Y-37998061D01*
X41510000Y-38201939D01*
X41549774Y-38401898D01*
X41627795Y-38590256D01*
X41710001Y-38713286D01*
X41710000Y-42503981D01*
X41710000Y-43138982D01*
X41705960Y-43180000D01*
X41722082Y-43343688D01*
X41769828Y-43501086D01*
X41847364Y-43646145D01*
X41870907Y-43674832D01*
X41951710Y-43773291D01*
X41983574Y-43799441D01*
X42893580Y-44709447D01*
X42815225Y-44751329D01*
X42685385Y-44857885D01*
X42578829Y-44987725D01*
X42499650Y-45135858D01*
X42450892Y-45296592D01*
X42434428Y-45463750D01*
X42434428Y-45976250D01*
X42450892Y-46143408D01*
X42499650Y-46304142D01*
X42578829Y-46452275D01*
X42675000Y-46569461D01*
X42675001Y-50759131D01*
X42388225Y-51045907D01*
X42243102Y-51074774D01*
X42054744Y-51152795D01*
X41885226Y-51266063D01*
X41741063Y-51410226D01*
X41627795Y-51579744D01*
X41549774Y-51768102D01*
X41510000Y-51968061D01*
X41510000Y-52171939D01*
X41549774Y-52371898D01*
X41627795Y-52560256D01*
X41741063Y-52729774D01*
X41885226Y-52873937D01*
X42054744Y-52987205D01*
X42243102Y-53065226D01*
X42443061Y-53105000D01*
X42646939Y-53105000D01*
X42846898Y-53065226D01*
X43035256Y-52987205D01*
X43204774Y-52873937D01*
X43348937Y-52729774D01*
X43462205Y-52560256D01*
X43540226Y-52371898D01*
X43569093Y-52226775D01*
X44071426Y-51724442D01*
X44103291Y-51698291D01*
X44207636Y-51571146D01*
X44224179Y-51540196D01*
X44278552Y-51606449D01*
X44451378Y-51748284D01*
X44648554Y-51853676D01*
X44862502Y-51918577D01*
X45085000Y-51940491D01*
X45307499Y-51918577D01*
X45521447Y-51853676D01*
X45718623Y-51748284D01*
X45891449Y-51606449D01*
X46033284Y-51433623D01*
X46138676Y-51236447D01*
X46203577Y-51022499D01*
X46220000Y-50855752D01*
X46220000Y-50579872D01*
X48565000Y-50579872D01*
X48565000Y-51020128D01*
X48650890Y-51451925D01*
X48819369Y-51858669D01*
X49063962Y-52224729D01*
X49375271Y-52536038D01*
X49741331Y-52780631D01*
X50148075Y-52949110D01*
X50579872Y-53035000D01*
X51020128Y-53035000D01*
X51451925Y-52949110D01*
X51858669Y-52780631D01*
X52224729Y-52536038D01*
X52536038Y-52224729D01*
X52780631Y-51858669D01*
X52949110Y-51451925D01*
X53035000Y-51020128D01*
X53035000Y-50579872D01*
X52949110Y-50148075D01*
X52780631Y-49741331D01*
X52536038Y-49375271D01*
X52224729Y-49063962D01*
X51858669Y-48819369D01*
X51451925Y-48650890D01*
X51020128Y-48565000D01*
X50579872Y-48565000D01*
X50148075Y-48650890D01*
X49741331Y-48819369D01*
X49375271Y-49063962D01*
X49063962Y-49375271D01*
X48819369Y-49741331D01*
X48650890Y-50148075D01*
X48565000Y-50579872D01*
X46220000Y-50579872D01*
X46220000Y-49144248D01*
X46203577Y-48977501D01*
X46194878Y-48948826D01*
X46181608Y-48814092D01*
X46132850Y-48653358D01*
X46053671Y-48505225D01*
X45977574Y-48412500D01*
X46053671Y-48319775D01*
X46132850Y-48171642D01*
X46181608Y-48010908D01*
X46198072Y-47843750D01*
X46198072Y-47406250D01*
X46181608Y-47239092D01*
X46132850Y-47078358D01*
X46053671Y-46930225D01*
X45947115Y-46800385D01*
X45920000Y-46778132D01*
X45920000Y-46569461D01*
X45931868Y-46555000D01*
X48204119Y-46555000D01*
X48233815Y-46591185D01*
X48330506Y-46670537D01*
X48440820Y-46729502D01*
X48560518Y-46765812D01*
X48685000Y-46778072D01*
X50185000Y-46778072D01*
X50309482Y-46765812D01*
X50429180Y-46729502D01*
X50539494Y-46670537D01*
X50636185Y-46591185D01*
X50715537Y-46494494D01*
X50774502Y-46384180D01*
X50810812Y-46264482D01*
X50823072Y-46140000D01*
X50823072Y-42640000D01*
X50810812Y-42515518D01*
X50774502Y-42395820D01*
X50715537Y-42285506D01*
X50636185Y-42188815D01*
X50539494Y-42109463D01*
X50429180Y-42050498D01*
X50309482Y-42014188D01*
X50185000Y-42001928D01*
X48685000Y-42001928D01*
X48560518Y-42014188D01*
X48440820Y-42050498D01*
X48330506Y-42109463D01*
X48233815Y-42188815D01*
X48154463Y-42285506D01*
X48095498Y-42395820D01*
X48059188Y-42515518D01*
X48046928Y-42640000D01*
X48046928Y-44885000D01*
X45931868Y-44885000D01*
X45909615Y-44857885D01*
X45779775Y-44751329D01*
X45631642Y-44672150D01*
X45470908Y-44623392D01*
X45303750Y-44606928D01*
X45152796Y-44606928D01*
X43380000Y-42834133D01*
X43380000Y-40518363D01*
X44200000Y-40518363D01*
X44200000Y-40761637D01*
X44247460Y-41000236D01*
X44340557Y-41224992D01*
X44475713Y-41427267D01*
X44647733Y-41599287D01*
X44850008Y-41734443D01*
X45074764Y-41827540D01*
X45313363Y-41875000D01*
X45556637Y-41875000D01*
X45795236Y-41827540D01*
X46019992Y-41734443D01*
X46222267Y-41599287D01*
X46394287Y-41427267D01*
X46529443Y-41224992D01*
X46622540Y-41000236D01*
X46670000Y-40761637D01*
X46670000Y-40518363D01*
X50200000Y-40518363D01*
X50200000Y-40761637D01*
X50247460Y-41000236D01*
X50340557Y-41224992D01*
X50475713Y-41427267D01*
X50647733Y-41599287D01*
X50850008Y-41734443D01*
X51074764Y-41827540D01*
X51313363Y-41875000D01*
X51556637Y-41875000D01*
X51795236Y-41827540D01*
X52019992Y-41734443D01*
X52222267Y-41599287D01*
X52394287Y-41427267D01*
X52529443Y-41224992D01*
X52622540Y-41000236D01*
X52670000Y-40761637D01*
X52670000Y-40518363D01*
X52622540Y-40279764D01*
X52529443Y-40055008D01*
X52394287Y-39852733D01*
X52222267Y-39680713D01*
X52019992Y-39545557D01*
X51795236Y-39452460D01*
X51556637Y-39405000D01*
X51313363Y-39405000D01*
X51074764Y-39452460D01*
X50850008Y-39545557D01*
X50647733Y-39680713D01*
X50475713Y-39852733D01*
X50340557Y-40055008D01*
X50247460Y-40279764D01*
X50200000Y-40518363D01*
X46670000Y-40518363D01*
X46622540Y-40279764D01*
X46529443Y-40055008D01*
X46394287Y-39852733D01*
X46222267Y-39680713D01*
X46019992Y-39545557D01*
X45795236Y-39452460D01*
X45556637Y-39405000D01*
X45313363Y-39405000D01*
X45074764Y-39452460D01*
X44850008Y-39545557D01*
X44647733Y-39680713D01*
X44475713Y-39852733D01*
X44340557Y-40055008D01*
X44247460Y-40279764D01*
X44200000Y-40518363D01*
X43380000Y-40518363D01*
X43380000Y-39196993D01*
X43440820Y-39229502D01*
X43560518Y-39265812D01*
X43685000Y-39278072D01*
X45185000Y-39278072D01*
X45309482Y-39265812D01*
X45429180Y-39229502D01*
X45539494Y-39170537D01*
X45636185Y-39091185D01*
X45715537Y-38994494D01*
X45774502Y-38884180D01*
X45810812Y-38764482D01*
X45823072Y-38640000D01*
X45823072Y-35140000D01*
X50046928Y-35140000D01*
X50046928Y-38640000D01*
X50059188Y-38764482D01*
X50095498Y-38884180D01*
X50154463Y-38994494D01*
X50233815Y-39091185D01*
X50330506Y-39170537D01*
X50440820Y-39229502D01*
X50560518Y-39265812D01*
X50685000Y-39278072D01*
X52185000Y-39278072D01*
X52309482Y-39265812D01*
X52429180Y-39229502D01*
X52539494Y-39170537D01*
X52636185Y-39091185D01*
X52715537Y-38994494D01*
X52774502Y-38884180D01*
X52810812Y-38764482D01*
X52823072Y-38640000D01*
X52823072Y-35140000D01*
X52810812Y-35015518D01*
X52774502Y-34895820D01*
X52715537Y-34785506D01*
X52636185Y-34688815D01*
X52539494Y-34609463D01*
X52429180Y-34550498D01*
X52309482Y-34514188D01*
X52185000Y-34501928D01*
X50685000Y-34501928D01*
X50560518Y-34514188D01*
X50440820Y-34550498D01*
X50330506Y-34609463D01*
X50233815Y-34688815D01*
X50154463Y-34785506D01*
X50095498Y-34895820D01*
X50059188Y-35015518D01*
X50046928Y-35140000D01*
X45823072Y-35140000D01*
X45810812Y-35015518D01*
X45774502Y-34895820D01*
X45715537Y-34785506D01*
X45636185Y-34688815D01*
X45570000Y-34634499D01*
X45570000Y-33228050D01*
X45590490Y-33020001D01*
X45568577Y-32797502D01*
X45503675Y-32583554D01*
X45398283Y-32386378D01*
X45256448Y-32213552D01*
X45083622Y-32071717D01*
X44886446Y-31966325D01*
X44672498Y-31901423D01*
X44449999Y-31879510D01*
X44227501Y-31901423D01*
X44013554Y-31966325D01*
X43816378Y-32071717D01*
X43686857Y-32178012D01*
X43671860Y-32193009D01*
X43628552Y-32228551D01*
X43486717Y-32401377D01*
X43381324Y-32598553D01*
X43320973Y-32797502D01*
X43316423Y-32812502D01*
X43294509Y-33035000D01*
X43300000Y-33090751D01*
X43300000Y-34634499D01*
X43233815Y-34688815D01*
X43154463Y-34785506D01*
X43095498Y-34895820D01*
X43059188Y-35015518D01*
X43046928Y-35140000D01*
X43046928Y-37190594D01*
X43035256Y-37182795D01*
X42846898Y-37104774D01*
X42646939Y-37065000D01*
X42443061Y-37065000D01*
X42243102Y-37104774D01*
X42054744Y-37182795D01*
X41885226Y-37296063D01*
X41741063Y-37440226D01*
X41627795Y-37609744D01*
X41549774Y-37798102D01*
X41510000Y-37998061D01*
X40500452Y-37998061D01*
X40488577Y-37877501D01*
X40423676Y-37663553D01*
X40318284Y-37466377D01*
X40176449Y-37293551D01*
X40003623Y-37151716D01*
X39806446Y-37046324D01*
X39592498Y-36981423D01*
X39370000Y-36959509D01*
X39147501Y-36981423D01*
X38933553Y-37046324D01*
X38736377Y-37151716D01*
X38735000Y-37152846D01*
X38733623Y-37151716D01*
X38536446Y-37046324D01*
X38322498Y-36981423D01*
X38100000Y-36959509D01*
X37877501Y-36981423D01*
X37663553Y-37046324D01*
X37466377Y-37151716D01*
X37351740Y-37245796D01*
X37349000Y-36385750D01*
X37190250Y-36227000D01*
X35941000Y-36227000D01*
X35941000Y-37826250D01*
X36099750Y-37985000D01*
X36714000Y-37988072D01*
X36838482Y-37975812D01*
X36958180Y-37939502D01*
X36976269Y-37929833D01*
X36965000Y-38044249D01*
X36965000Y-38264143D01*
X36958180Y-38260498D01*
X36838482Y-38224188D01*
X36714000Y-38211928D01*
X34914000Y-38211928D01*
X34789518Y-38224188D01*
X34669820Y-38260498D01*
X34559506Y-38319463D01*
X34462815Y-38398815D01*
X34383463Y-38495506D01*
X34324498Y-38605820D01*
X34288188Y-38725518D01*
X34275928Y-38850000D01*
X34275928Y-38965000D01*
X32692171Y-38965000D01*
X32681130Y-38852898D01*
X32610511Y-38620099D01*
X32599000Y-38598563D01*
X32599000Y-37350000D01*
X34275928Y-37350000D01*
X34288188Y-37474482D01*
X34324498Y-37594180D01*
X34383463Y-37704494D01*
X34462815Y-37801185D01*
X34559506Y-37880537D01*
X34669820Y-37939502D01*
X34789518Y-37975812D01*
X34914000Y-37988072D01*
X35528250Y-37985000D01*
X35687000Y-37826250D01*
X35687000Y-36227000D01*
X34437750Y-36227000D01*
X34279000Y-36385750D01*
X34275928Y-37350000D01*
X32599000Y-37350000D01*
X32599000Y-34850000D01*
X34275928Y-34850000D01*
X34279000Y-35814250D01*
X34437750Y-35973000D01*
X35687000Y-35973000D01*
X35687000Y-34373750D01*
X35941000Y-34373750D01*
X35941000Y-35973000D01*
X37190250Y-35973000D01*
X37349000Y-35814250D01*
X37352072Y-34850000D01*
X37339812Y-34725518D01*
X37303502Y-34605820D01*
X37244537Y-34495506D01*
X37165185Y-34398815D01*
X37068494Y-34319463D01*
X36958180Y-34260498D01*
X36838482Y-34224188D01*
X36714000Y-34211928D01*
X36099750Y-34215000D01*
X35941000Y-34373750D01*
X35687000Y-34373750D01*
X35528250Y-34215000D01*
X34914000Y-34211928D01*
X34789518Y-34224188D01*
X34669820Y-34260498D01*
X34559506Y-34319463D01*
X34462815Y-34398815D01*
X34383463Y-34495506D01*
X34324498Y-34605820D01*
X34288188Y-34725518D01*
X34275928Y-34850000D01*
X32599000Y-34850000D01*
X32599000Y-34553436D01*
X32610511Y-34531900D01*
X32681130Y-34299101D01*
X32699000Y-34117664D01*
X32699000Y-33446335D01*
X32681130Y-33264898D01*
X32610511Y-33032099D01*
X32495833Y-32817551D01*
X32341502Y-32629498D01*
X32153448Y-32475167D01*
X31938900Y-32360489D01*
X31706101Y-32289870D01*
X31464000Y-32266025D01*
X31221898Y-32289870D01*
X30989099Y-32360489D01*
X30774551Y-32475167D01*
X30620691Y-32601436D01*
X30594537Y-32552506D01*
X30515185Y-32455815D01*
X30418494Y-32376463D01*
X30308180Y-32317498D01*
X30188482Y-32281188D01*
X30064000Y-32268928D01*
X29749750Y-32272000D01*
X29591000Y-32430750D01*
X29337000Y-32430750D01*
X29178250Y-32272000D01*
X28864000Y-32268928D01*
X28739518Y-32281188D01*
X28619820Y-32317498D01*
X28509506Y-32376463D01*
X28412815Y-32455815D01*
X28333463Y-32552506D01*
X28274498Y-32662820D01*
X28238188Y-32782518D01*
X28225928Y-32907000D01*
X26797000Y-32907000D01*
X26797000Y-30875015D01*
X26971898Y-30840226D01*
X27160256Y-30762205D01*
X27283285Y-30680000D01*
X29225540Y-30680000D01*
X29351134Y-30747132D01*
X29501316Y-30792689D01*
X29657500Y-30808072D01*
X31307500Y-30808072D01*
X31463684Y-30792689D01*
X31613866Y-30747132D01*
X31752274Y-30673151D01*
X31873590Y-30573590D01*
X31973151Y-30452274D01*
X32047132Y-30313866D01*
X32092689Y-30163684D01*
X32108072Y-30007500D01*
X32108072Y-29682500D01*
X32092689Y-29526316D01*
X32047132Y-29376134D01*
X31973151Y-29237726D01*
X31950397Y-29210000D01*
X31973151Y-29182274D01*
X32047132Y-29043866D01*
X32092689Y-28893684D01*
X32108072Y-28737500D01*
X32108072Y-28412500D01*
X32092689Y-28256316D01*
X32047132Y-28106134D01*
X31973151Y-27967726D01*
X31950397Y-27940000D01*
X31973151Y-27912274D01*
X32047132Y-27773866D01*
X32092689Y-27623684D01*
X32108072Y-27467500D01*
X32108072Y-27142500D01*
X32092689Y-26986316D01*
X32047132Y-26836134D01*
X31973151Y-26697726D01*
X31950397Y-26670000D01*
X31973151Y-26642274D01*
X32047132Y-26503866D01*
X32092689Y-26353684D01*
X32108072Y-26197500D01*
X32108072Y-25872500D01*
X32092689Y-25716316D01*
X32047132Y-25566134D01*
X31973151Y-25427726D01*
X31873590Y-25306410D01*
X31752274Y-25206849D01*
X31613866Y-25132868D01*
X31463684Y-25087311D01*
X31307500Y-25071928D01*
X31088456Y-25071928D01*
X30918947Y-24981324D01*
X30865134Y-24965000D01*
X35089643Y-24965000D01*
X35111222Y-24986579D01*
X34951544Y-25071928D01*
X34732500Y-25071928D01*
X34576316Y-25087311D01*
X34426134Y-25132868D01*
X34287726Y-25206849D01*
X34166410Y-25306410D01*
X34066849Y-25427726D01*
X33992868Y-25566134D01*
X33947311Y-25716316D01*
X33931928Y-25872500D01*
X33931928Y-26197500D01*
X33947311Y-26353684D01*
X33992868Y-26503866D01*
X34066849Y-26642274D01*
X34089603Y-26670000D01*
X34066849Y-26697726D01*
X33992868Y-26836134D01*
X33947311Y-26986316D01*
X33931928Y-27142500D01*
X33931928Y-27467500D01*
X33947311Y-27623684D01*
X33992868Y-27773866D01*
X34066849Y-27912274D01*
X34089603Y-27940000D01*
X34066849Y-27967726D01*
X33992868Y-28106134D01*
X33947311Y-28256316D01*
X33931928Y-28412500D01*
X33931928Y-28737500D01*
X33947311Y-28893684D01*
X33992868Y-29043866D01*
X34066849Y-29182274D01*
X34089603Y-29210000D01*
X34066849Y-29237726D01*
X33992868Y-29376134D01*
X33947311Y-29526316D01*
X33931928Y-29682500D01*
X33931928Y-30007500D01*
X33947311Y-30163684D01*
X33992868Y-30313866D01*
X34066849Y-30452274D01*
X34166410Y-30573590D01*
X34287726Y-30673151D01*
X34426134Y-30747132D01*
X34576316Y-30792689D01*
X34732500Y-30808072D01*
X34917941Y-30808072D01*
X36965000Y-32855132D01*
X36965000Y-33075752D01*
X36981423Y-33242499D01*
X37046324Y-33456447D01*
X37151717Y-33653623D01*
X37293552Y-33826449D01*
X37466378Y-33968284D01*
X37663554Y-34073676D01*
X37877502Y-34138577D01*
X38100000Y-34160491D01*
X38322499Y-34138577D01*
X38536447Y-34073676D01*
X38733623Y-33968284D01*
X38735001Y-33967154D01*
X38736378Y-33968284D01*
X38933554Y-34073676D01*
X39147502Y-34138577D01*
X39370000Y-34160491D01*
X39592499Y-34138577D01*
X39806447Y-34073676D01*
X40003623Y-33968284D01*
X40176449Y-33826449D01*
X40318284Y-33653623D01*
X40423676Y-33456447D01*
X40488577Y-33242499D01*
X40505000Y-33075752D01*
X40505000Y-31210000D01*
X42011928Y-31210000D01*
X42024188Y-31334482D01*
X42060498Y-31454180D01*
X42119463Y-31564494D01*
X42198815Y-31661185D01*
X42295506Y-31740537D01*
X42405820Y-31799502D01*
X42525518Y-31835812D01*
X42650000Y-31848072D01*
X43364250Y-31845000D01*
X43523000Y-31686250D01*
X43523000Y-29337000D01*
X43777000Y-29337000D01*
X43777000Y-31686250D01*
X43935750Y-31845000D01*
X44650000Y-31848072D01*
X44774482Y-31835812D01*
X44894180Y-31799502D01*
X45004494Y-31740537D01*
X45101185Y-31661185D01*
X45180537Y-31564494D01*
X45239502Y-31454180D01*
X45275812Y-31334482D01*
X45288072Y-31210000D01*
X45285000Y-29495750D01*
X45126250Y-29337000D01*
X43777000Y-29337000D01*
X43523000Y-29337000D01*
X42173750Y-29337000D01*
X42015000Y-29495750D01*
X42011928Y-31210000D01*
X40505000Y-31210000D01*
X40505000Y-30085751D01*
X40510491Y-30030000D01*
X40488577Y-29807501D01*
X40423676Y-29593553D01*
X40318284Y-29396377D01*
X40176449Y-29223551D01*
X40133141Y-29188009D01*
X39720132Y-28775000D01*
X41296715Y-28775000D01*
X41419744Y-28857205D01*
X41608102Y-28935226D01*
X41808061Y-28975000D01*
X42011939Y-28975000D01*
X42056822Y-28966072D01*
X42173750Y-29083000D01*
X43523000Y-29083000D01*
X43523000Y-26733750D01*
X43777000Y-26733750D01*
X43777000Y-29083000D01*
X45126250Y-29083000D01*
X45285000Y-28924250D01*
X45288072Y-27210000D01*
X48011928Y-27210000D01*
X48011928Y-31210000D01*
X48024188Y-31334482D01*
X48060498Y-31454180D01*
X48119463Y-31564494D01*
X48198815Y-31661185D01*
X48295506Y-31740537D01*
X48405820Y-31799502D01*
X48525518Y-31835812D01*
X48650000Y-31848072D01*
X50650000Y-31848072D01*
X50774482Y-31835812D01*
X50894180Y-31799502D01*
X51004494Y-31740537D01*
X51101185Y-31661185D01*
X51180537Y-31564494D01*
X51239502Y-31454180D01*
X51275812Y-31334482D01*
X51288072Y-31210000D01*
X51288072Y-30345000D01*
X52760752Y-30345000D01*
X52927499Y-30328577D01*
X53141447Y-30263676D01*
X53338623Y-30158284D01*
X53511449Y-30016449D01*
X53653284Y-29843623D01*
X53758676Y-29646447D01*
X53823577Y-29432499D01*
X53845491Y-29210000D01*
X53823577Y-28987501D01*
X53758676Y-28773553D01*
X53653284Y-28576377D01*
X53511449Y-28403551D01*
X53338623Y-28261716D01*
X53141447Y-28156324D01*
X52927499Y-28091423D01*
X52760752Y-28075000D01*
X51288072Y-28075000D01*
X51288072Y-27210000D01*
X51275812Y-27085518D01*
X51239502Y-26965820D01*
X51180537Y-26855506D01*
X51101185Y-26758815D01*
X51004494Y-26679463D01*
X50894180Y-26620498D01*
X50774482Y-26584188D01*
X50650000Y-26571928D01*
X48650000Y-26571928D01*
X48525518Y-26584188D01*
X48405820Y-26620498D01*
X48295506Y-26679463D01*
X48198815Y-26758815D01*
X48119463Y-26855506D01*
X48060498Y-26965820D01*
X48024188Y-27085518D01*
X48011928Y-27210000D01*
X45288072Y-27210000D01*
X45275812Y-27085518D01*
X45239502Y-26965820D01*
X45180537Y-26855506D01*
X45101185Y-26758815D01*
X45004494Y-26679463D01*
X44894180Y-26620498D01*
X44774482Y-26584188D01*
X44650000Y-26571928D01*
X43935750Y-26575000D01*
X43777000Y-26733750D01*
X43523000Y-26733750D01*
X43364250Y-26575000D01*
X42650000Y-26571928D01*
X42525518Y-26584188D01*
X42405820Y-26620498D01*
X42295506Y-26679463D01*
X42198815Y-26758815D01*
X42119463Y-26855506D01*
X42085216Y-26919576D01*
X42011939Y-26905000D01*
X41808061Y-26905000D01*
X41608102Y-26944774D01*
X41419744Y-27022795D01*
X41296715Y-27105000D01*
X39591379Y-27105000D01*
X36054956Y-23568579D01*
X36028801Y-23536709D01*
X35901656Y-23432364D01*
X35859817Y-23410000D01*
X43511928Y-23410000D01*
X43511928Y-25410000D01*
X43524188Y-25534482D01*
X43560498Y-25654180D01*
X43619463Y-25764494D01*
X43698815Y-25861185D01*
X43795506Y-25940537D01*
X43905820Y-25999502D01*
X44025518Y-26035812D01*
X44150000Y-26048072D01*
X48150000Y-26048072D01*
X48274482Y-26035812D01*
X48394180Y-25999502D01*
X48504494Y-25940537D01*
X48601185Y-25861185D01*
X48680537Y-25764494D01*
X48739502Y-25654180D01*
X48775812Y-25534482D01*
X48788072Y-25410000D01*
X48788072Y-23410000D01*
X48775812Y-23285518D01*
X48739502Y-23165820D01*
X48680537Y-23055506D01*
X48601185Y-22958815D01*
X48504494Y-22879463D01*
X48394180Y-22820498D01*
X48274482Y-22784188D01*
X48150000Y-22771928D01*
X44150000Y-22771928D01*
X44025518Y-22784188D01*
X43905820Y-22820498D01*
X43795506Y-22879463D01*
X43698815Y-22958815D01*
X43619463Y-23055506D01*
X43560498Y-23165820D01*
X43524188Y-23285518D01*
X43511928Y-23410000D01*
X35859817Y-23410000D01*
X35756597Y-23354828D01*
X35599199Y-23307082D01*
X35476529Y-23295000D01*
X35476528Y-23295000D01*
X35435510Y-23290960D01*
X35394492Y-23295000D01*
X27283285Y-23295000D01*
X27160256Y-23212795D01*
X26971898Y-23134774D01*
X26797000Y-23099985D01*
X26797000Y-16626408D01*
X29972000Y-16626408D01*
X29972000Y-16901592D01*
X30025686Y-17171490D01*
X30130995Y-17425727D01*
X30283880Y-17654535D01*
X30478465Y-17849120D01*
X30707273Y-18002005D01*
X30784515Y-18034000D01*
X30707273Y-18065995D01*
X30478465Y-18218880D01*
X30283880Y-18413465D01*
X30130995Y-18642273D01*
X30025686Y-18896510D01*
X29972000Y-19166408D01*
X29972000Y-19441592D01*
X30025686Y-19711490D01*
X30130995Y-19965727D01*
X30283880Y-20194535D01*
X30478465Y-20389120D01*
X30707273Y-20542005D01*
X30961510Y-20647314D01*
X31231408Y-20701000D01*
X31506592Y-20701000D01*
X31776490Y-20647314D01*
X32030727Y-20542005D01*
X32259535Y-20389120D01*
X32454120Y-20194535D01*
X32607005Y-19965727D01*
X32712314Y-19711490D01*
X32766000Y-19441592D01*
X32766000Y-19166408D01*
X32712314Y-18896510D01*
X32607005Y-18642273D01*
X32454120Y-18413465D01*
X32259535Y-18218880D01*
X32030727Y-18065995D01*
X31953485Y-18034000D01*
X32030727Y-18002005D01*
X32259535Y-17849120D01*
X32454120Y-17654535D01*
X32607005Y-17425727D01*
X32712314Y-17171490D01*
X32766000Y-16901592D01*
X32766000Y-16626408D01*
X48514000Y-16626408D01*
X48514000Y-16901592D01*
X48567686Y-17171490D01*
X48672995Y-17425727D01*
X48825880Y-17654535D01*
X49020465Y-17849120D01*
X49249273Y-18002005D01*
X49326515Y-18034000D01*
X49249273Y-18065995D01*
X49020465Y-18218880D01*
X48825880Y-18413465D01*
X48672995Y-18642273D01*
X48567686Y-18896510D01*
X48514000Y-19166408D01*
X48514000Y-19441592D01*
X48567686Y-19711490D01*
X48672995Y-19965727D01*
X48825880Y-20194535D01*
X49020465Y-20389120D01*
X49249273Y-20542005D01*
X49503510Y-20647314D01*
X49773408Y-20701000D01*
X50048592Y-20701000D01*
X50318490Y-20647314D01*
X50572727Y-20542005D01*
X50801535Y-20389120D01*
X50996120Y-20194535D01*
X51149005Y-19965727D01*
X51254314Y-19711490D01*
X51308000Y-19441592D01*
X51308000Y-19166408D01*
X51254314Y-18896510D01*
X51149005Y-18642273D01*
X50996120Y-18413465D01*
X50801535Y-18218880D01*
X50572727Y-18065995D01*
X50495485Y-18034000D01*
X50572727Y-18002005D01*
X50801535Y-17849120D01*
X50996120Y-17654535D01*
X51149005Y-17425727D01*
X51254314Y-17171490D01*
X51308000Y-16901592D01*
X51308000Y-16626408D01*
X51254314Y-16356510D01*
X51149005Y-16102273D01*
X50996120Y-15873465D01*
X50801535Y-15678880D01*
X50572727Y-15525995D01*
X50318490Y-15420686D01*
X50048592Y-15367000D01*
X49773408Y-15367000D01*
X49503510Y-15420686D01*
X49249273Y-15525995D01*
X49020465Y-15678880D01*
X48825880Y-15873465D01*
X48672995Y-16102273D01*
X48567686Y-16356510D01*
X48514000Y-16626408D01*
X32766000Y-16626408D01*
X32712314Y-16356510D01*
X32607005Y-16102273D01*
X32454120Y-15873465D01*
X32259535Y-15678880D01*
X32030727Y-15525995D01*
X31776490Y-15420686D01*
X31506592Y-15367000D01*
X31231408Y-15367000D01*
X30961510Y-15420686D01*
X30707273Y-15525995D01*
X30478465Y-15678880D01*
X30283880Y-15873465D01*
X30130995Y-16102273D01*
X30025686Y-16356510D01*
X29972000Y-16626408D01*
X26797000Y-16626408D01*
X26797000Y-12827000D01*
X41275000Y-12827000D01*
X41299776Y-12824560D01*
X41323601Y-12817333D01*
X41345557Y-12805597D01*
X41364803Y-12789803D01*
X41380597Y-12770557D01*
X41392333Y-12748601D01*
X41399560Y-12724776D01*
X41402000Y-12700000D01*
X41402000Y-9601565D01*
X49116040Y-9601565D01*
X49183020Y-9841656D01*
X49432048Y-9958756D01*
X49699135Y-10025023D01*
X49974017Y-10037910D01*
X50246133Y-9996922D01*
X50505023Y-9903636D01*
X50620980Y-9841656D01*
X50687960Y-9601565D01*
X49902000Y-8815605D01*
X49116040Y-9601565D01*
X41402000Y-9601565D01*
X41402000Y-8708017D01*
X48500090Y-8708017D01*
X48541078Y-8980133D01*
X48634364Y-9239023D01*
X48696344Y-9354980D01*
X48936435Y-9421960D01*
X49722395Y-8636000D01*
X50081605Y-8636000D01*
X50867565Y-9421960D01*
X51107656Y-9354980D01*
X51224756Y-9105952D01*
X51291023Y-8838865D01*
X51303910Y-8563983D01*
X51262922Y-8291867D01*
X51169636Y-8032977D01*
X51107656Y-7917020D01*
X50867565Y-7850040D01*
X50081605Y-8636000D01*
X49722395Y-8636000D01*
X48936435Y-7850040D01*
X48696344Y-7917020D01*
X48579244Y-8166048D01*
X48512977Y-8433135D01*
X48500090Y-8708017D01*
X41402000Y-8708017D01*
X41402000Y-7670435D01*
X49116040Y-7670435D01*
X49902000Y-8456395D01*
X50687960Y-7670435D01*
X50620980Y-7430344D01*
X50494261Y-7370757D01*
X50514023Y-7363636D01*
X50629980Y-7301656D01*
X50696960Y-7061565D01*
X49911000Y-6275605D01*
X49125040Y-7061565D01*
X49192020Y-7301656D01*
X49318739Y-7361243D01*
X49298977Y-7368364D01*
X49183020Y-7430344D01*
X49116040Y-7670435D01*
X41402000Y-7670435D01*
X41402000Y-6168017D01*
X48509090Y-6168017D01*
X48550078Y-6440133D01*
X48643364Y-6699023D01*
X48705344Y-6814980D01*
X48945435Y-6881960D01*
X49731395Y-6096000D01*
X50090605Y-6096000D01*
X50876565Y-6881960D01*
X51116656Y-6814980D01*
X51233756Y-6565952D01*
X51300023Y-6298865D01*
X51312910Y-6023983D01*
X51271922Y-5751867D01*
X51178636Y-5492977D01*
X51116656Y-5377020D01*
X50876565Y-5310040D01*
X50090605Y-6096000D01*
X49731395Y-6096000D01*
X48945435Y-5310040D01*
X48705344Y-5377020D01*
X48588244Y-5626048D01*
X48521977Y-5893135D01*
X48509090Y-6168017D01*
X41402000Y-6168017D01*
X41402000Y-5130435D01*
X49125040Y-5130435D01*
X49911000Y-5916395D01*
X50696960Y-5130435D01*
X50629980Y-4890344D01*
X50380952Y-4773244D01*
X50113865Y-4706977D01*
X49838983Y-4694090D01*
X49566867Y-4735078D01*
X49307977Y-4828364D01*
X49192020Y-4890344D01*
X49125040Y-5130435D01*
X41402000Y-5130435D01*
X41402000Y220128D01*
X48565000Y220128D01*
X48565000Y-220128D01*
X48650890Y-651925D01*
X48819369Y-1058669D01*
X49063962Y-1424729D01*
X49375271Y-1736038D01*
X49741331Y-1980631D01*
X50148075Y-2149110D01*
X50579872Y-2235000D01*
X51020128Y-2235000D01*
X51451925Y-2149110D01*
X51858669Y-1980631D01*
X52224729Y-1736038D01*
X52536038Y-1424729D01*
X52780631Y-1058669D01*
X52949110Y-651925D01*
X53035000Y-220128D01*
X53035000Y220128D01*
X52949110Y651925D01*
X52780631Y1058669D01*
X52536038Y1424729D01*
X52224729Y1736038D01*
X51858669Y1980631D01*
X51451925Y2149110D01*
X51020128Y2235000D01*
X50579872Y2235000D01*
X50148075Y2149110D01*
X49741331Y1980631D01*
X49375271Y1736038D01*
X49063962Y1424729D01*
X48819369Y1058669D01*
X48650890Y651925D01*
X48565000Y220128D01*
X41402000Y220128D01*
X41402000Y3150000D01*
X53950000Y3150000D01*
X53950001Y-53950000D01*
X53950001Y-53950000D01*
G37*
X53950001Y-53950000D02*
X26797000Y-53950000D01*
X26797000Y-52905000D01*
X36851715Y-52905000D01*
X36974744Y-52987205D01*
X37163102Y-53065226D01*
X37363061Y-53105000D01*
X37566939Y-53105000D01*
X37766898Y-53065226D01*
X37955256Y-52987205D01*
X38124774Y-52873937D01*
X38268937Y-52729774D01*
X38382205Y-52560256D01*
X38460226Y-52371898D01*
X38500000Y-52171939D01*
X38500000Y-51968061D01*
X38460226Y-51768102D01*
X38382205Y-51579744D01*
X38268937Y-51410226D01*
X38124774Y-51266063D01*
X37955256Y-51152795D01*
X37766898Y-51074774D01*
X37566939Y-51035000D01*
X37363061Y-51035000D01*
X37345323Y-51038528D01*
X37352072Y-50970000D01*
X37352072Y-50665000D01*
X38044249Y-50665000D01*
X38100000Y-50670491D01*
X38155751Y-50665000D01*
X38155752Y-50665000D01*
X38322499Y-50648577D01*
X38536447Y-50583676D01*
X38733623Y-50478284D01*
X38906449Y-50336449D01*
X38941996Y-50293135D01*
X40211988Y-49023144D01*
X40318283Y-48893623D01*
X40423675Y-48696447D01*
X40488577Y-48482500D01*
X40510490Y-48260001D01*
X40488577Y-48037502D01*
X40423675Y-47823554D01*
X40318283Y-47626378D01*
X40176448Y-47453552D01*
X40003622Y-47311717D01*
X39806446Y-47206325D01*
X39592498Y-47141423D01*
X39369999Y-47119510D01*
X39147500Y-47141423D01*
X38933553Y-47206325D01*
X38736377Y-47311717D01*
X38606856Y-47418012D01*
X37629869Y-48395000D01*
X37344685Y-48395000D01*
X37339812Y-48345518D01*
X37303502Y-48225820D01*
X37244537Y-48115506D01*
X37165185Y-48018815D01*
X37068494Y-47939463D01*
X36958180Y-47880498D01*
X36838482Y-47844188D01*
X36714000Y-47831928D01*
X34914000Y-47831928D01*
X34789518Y-47844188D01*
X34669820Y-47880498D01*
X34559506Y-47939463D01*
X34462815Y-48018815D01*
X34383463Y-48115506D01*
X34324498Y-48225820D01*
X34288188Y-48345518D01*
X34283315Y-48395000D01*
X31634095Y-48395000D01*
X31532833Y-48205551D01*
X31406564Y-48051691D01*
X31455494Y-48025537D01*
X31552185Y-47946185D01*
X31631537Y-47849494D01*
X31690502Y-47739180D01*
X31726812Y-47619482D01*
X31739072Y-47495000D01*
X31736000Y-47180750D01*
X31577250Y-47022000D01*
X30353000Y-47022000D01*
X30353000Y-47042000D01*
X30099000Y-47042000D01*
X30099000Y-47022000D01*
X28874750Y-47022000D01*
X28716000Y-47180750D01*
X28712928Y-47495000D01*
X28725188Y-47619482D01*
X28761498Y-47739180D01*
X28820463Y-47849494D01*
X28899815Y-47946185D01*
X28996506Y-48025537D01*
X29045436Y-48051691D01*
X28919167Y-48205551D01*
X28804489Y-48420099D01*
X28733870Y-48652898D01*
X28710025Y-48895000D01*
X28733870Y-49137102D01*
X28804489Y-49369901D01*
X28919167Y-49584449D01*
X29073498Y-49772502D01*
X29261551Y-49926833D01*
X29476099Y-50041511D01*
X29708898Y-50112130D01*
X29890335Y-50130000D01*
X30109868Y-50130000D01*
X30273008Y-50293140D01*
X30308551Y-50336449D01*
X30351857Y-50371989D01*
X30481377Y-50478284D01*
X30678553Y-50583676D01*
X30892501Y-50648577D01*
X31115000Y-50670491D01*
X31170752Y-50665000D01*
X34275928Y-50665000D01*
X34275928Y-50970000D01*
X34288188Y-51094482D01*
X34324498Y-51214180D01*
X34335627Y-51235000D01*
X26797000Y-51235000D01*
X26797000Y-46970000D01*
X34275928Y-46970000D01*
X34288188Y-47094482D01*
X34324498Y-47214180D01*
X34383463Y-47324494D01*
X34462815Y-47421185D01*
X34559506Y-47500537D01*
X34669820Y-47559502D01*
X34789518Y-47595812D01*
X34914000Y-47608072D01*
X35528250Y-47605000D01*
X35687000Y-47446250D01*
X35687000Y-45847000D01*
X35941000Y-45847000D01*
X35941000Y-47446250D01*
X36099750Y-47605000D01*
X36714000Y-47608072D01*
X36838482Y-47595812D01*
X36958180Y-47559502D01*
X37068494Y-47500537D01*
X37165185Y-47421185D01*
X37244537Y-47324494D01*
X37303502Y-47214180D01*
X37339812Y-47094482D01*
X37352072Y-46970000D01*
X37349000Y-46005750D01*
X37190250Y-45847000D01*
X35941000Y-45847000D01*
X35687000Y-45847000D01*
X34437750Y-45847000D01*
X34279000Y-46005750D01*
X34275928Y-46970000D01*
X26797000Y-46970000D01*
X26797000Y-46295000D01*
X28712928Y-46295000D01*
X28716000Y-46609250D01*
X28874750Y-46768000D01*
X30099000Y-46768000D01*
X30099000Y-45818750D01*
X30353000Y-45818750D01*
X30353000Y-46768000D01*
X31577250Y-46768000D01*
X31736000Y-46609250D01*
X31739072Y-46295000D01*
X31726812Y-46170518D01*
X31690502Y-46050820D01*
X31631537Y-45940506D01*
X31552185Y-45843815D01*
X31455494Y-45764463D01*
X31345180Y-45705498D01*
X31225482Y-45669188D01*
X31101000Y-45656928D01*
X30511750Y-45660000D01*
X30353000Y-45818750D01*
X30099000Y-45818750D01*
X29940250Y-45660000D01*
X29351000Y-45656928D01*
X29226518Y-45669188D01*
X29106820Y-45705498D01*
X28996506Y-45764463D01*
X28899815Y-45843815D01*
X28820463Y-45940506D01*
X28761498Y-46050820D01*
X28725188Y-46170518D01*
X28712928Y-46295000D01*
X26797000Y-46295000D01*
X26797000Y-44470000D01*
X34275928Y-44470000D01*
X34279000Y-45434250D01*
X34437750Y-45593000D01*
X35687000Y-45593000D01*
X35687000Y-43993750D01*
X35941000Y-43993750D01*
X35941000Y-45593000D01*
X37190250Y-45593000D01*
X37349000Y-45434250D01*
X37352072Y-44470000D01*
X37339812Y-44345518D01*
X37303502Y-44225820D01*
X37244537Y-44115506D01*
X37165185Y-44018815D01*
X37068494Y-43939463D01*
X36958180Y-43880498D01*
X36838482Y-43844188D01*
X36714000Y-43831928D01*
X36099750Y-43835000D01*
X35941000Y-43993750D01*
X35687000Y-43993750D01*
X35528250Y-43835000D01*
X34914000Y-43831928D01*
X34789518Y-43844188D01*
X34669820Y-43880498D01*
X34559506Y-43939463D01*
X34462815Y-44018815D01*
X34383463Y-44115506D01*
X34324498Y-44225820D01*
X34288188Y-44345518D01*
X34275928Y-44470000D01*
X26797000Y-44470000D01*
X26797000Y-40245000D01*
X28225928Y-40245000D01*
X28238188Y-40369482D01*
X28274498Y-40489180D01*
X28333463Y-40599494D01*
X28412815Y-40696185D01*
X28509506Y-40775537D01*
X28619820Y-40834502D01*
X28739518Y-40870812D01*
X28864000Y-40883072D01*
X29178250Y-40880000D01*
X29337000Y-40721250D01*
X29337000Y-39497000D01*
X28387750Y-39497000D01*
X28229000Y-39655750D01*
X28225928Y-40245000D01*
X26797000Y-40245000D01*
X26797000Y-38495000D01*
X28225928Y-38495000D01*
X28229000Y-39084250D01*
X28387750Y-39243000D01*
X29337000Y-39243000D01*
X29337000Y-38018750D01*
X29178250Y-37860000D01*
X28864000Y-37856928D01*
X28739518Y-37869188D01*
X28619820Y-37905498D01*
X28509506Y-37964463D01*
X28412815Y-38043815D01*
X28333463Y-38140506D01*
X28274498Y-38250820D01*
X28238188Y-38370518D01*
X28225928Y-38495000D01*
X26797000Y-38495000D01*
X26797000Y-34657000D01*
X28225928Y-34657000D01*
X28238188Y-34781482D01*
X28274498Y-34901180D01*
X28333463Y-35011494D01*
X28412815Y-35108185D01*
X28509506Y-35187537D01*
X28619820Y-35246502D01*
X28739518Y-35282812D01*
X28864000Y-35295072D01*
X29178250Y-35292000D01*
X29337000Y-35133250D01*
X29337000Y-33909000D01*
X28387750Y-33909000D01*
X28229000Y-34067750D01*
X28225928Y-34657000D01*
X26797000Y-34657000D01*
X26797000Y-32907000D01*
X28225928Y-32907000D01*
X28229000Y-33496250D01*
X28387750Y-33655000D01*
X29337000Y-33655000D01*
X29337000Y-32430750D01*
X29591000Y-32430750D01*
X29591000Y-33655000D01*
X29611000Y-33655000D01*
X29611000Y-33909000D01*
X29591000Y-33909000D01*
X29591000Y-35133250D01*
X29749750Y-35292000D01*
X30064000Y-35295072D01*
X30188482Y-35282812D01*
X30308180Y-35246502D01*
X30329000Y-35235373D01*
X30329001Y-37916627D01*
X30308180Y-37905498D01*
X30188482Y-37869188D01*
X30064000Y-37856928D01*
X29749750Y-37860000D01*
X29591000Y-38018750D01*
X29591000Y-39243000D01*
X29611000Y-39243000D01*
X29611000Y-39497000D01*
X29591000Y-39497000D01*
X29591000Y-40721250D01*
X29749750Y-40880000D01*
X30064000Y-40883072D01*
X30188482Y-40870812D01*
X30308180Y-40834502D01*
X30418494Y-40775537D01*
X30515185Y-40696185D01*
X30594537Y-40599494D01*
X30620692Y-40550563D01*
X30774552Y-40676833D01*
X30989100Y-40791511D01*
X31221899Y-40862130D01*
X31362548Y-40875983D01*
X31387551Y-40906449D01*
X31560376Y-41048283D01*
X31560377Y-41048284D01*
X31757553Y-41153676D01*
X31971501Y-41218577D01*
X32194000Y-41240491D01*
X32249751Y-41235000D01*
X34275928Y-41235000D01*
X34275928Y-41350000D01*
X34288188Y-41474482D01*
X34324498Y-41594180D01*
X34383463Y-41704494D01*
X34462815Y-41801185D01*
X34559506Y-41880537D01*
X34669820Y-41939502D01*
X34789518Y-41975812D01*
X34914000Y-41988072D01*
X36714000Y-41988072D01*
X36838482Y-41975812D01*
X36958180Y-41939502D01*
X37068494Y-41880537D01*
X37165185Y-41801185D01*
X37244537Y-41704494D01*
X37303502Y-41594180D01*
X37339812Y-41474482D01*
X37352072Y-41350000D01*
X37352072Y-41235000D01*
X37658249Y-41235000D01*
X37714000Y-41240491D01*
X37769751Y-41235000D01*
X37769752Y-41235000D01*
X37936499Y-41218577D01*
X38150447Y-41153676D01*
X38235001Y-41108481D01*
X38235001Y-43235752D01*
X38251424Y-43402499D01*
X38316325Y-43616447D01*
X38421717Y-43813623D01*
X38563552Y-43986449D01*
X38736378Y-44128284D01*
X38933554Y-44233676D01*
X39147502Y-44298577D01*
X39370000Y-44320491D01*
X39592499Y-44298577D01*
X39806447Y-44233676D01*
X40003623Y-44128284D01*
X40176449Y-43986449D01*
X40318284Y-43813623D01*
X40423676Y-43616447D01*
X40488577Y-43402499D01*
X40505000Y-43235752D01*
X40505000Y-38044248D01*
X40500452Y-37998061D01*
X41510000Y-37998061D01*
X41510000Y-38201939D01*
X41549774Y-38401898D01*
X41627795Y-38590256D01*
X41710001Y-38713286D01*
X41710000Y-42503981D01*
X41710000Y-43138982D01*
X41705960Y-43180000D01*
X41722082Y-43343688D01*
X41769828Y-43501086D01*
X41847364Y-43646145D01*
X41870907Y-43674832D01*
X41951710Y-43773291D01*
X41983574Y-43799441D01*
X42893580Y-44709447D01*
X42815225Y-44751329D01*
X42685385Y-44857885D01*
X42578829Y-44987725D01*
X42499650Y-45135858D01*
X42450892Y-45296592D01*
X42434428Y-45463750D01*
X42434428Y-45976250D01*
X42450892Y-46143408D01*
X42499650Y-46304142D01*
X42578829Y-46452275D01*
X42675000Y-46569461D01*
X42675001Y-50759131D01*
X42388225Y-51045907D01*
X42243102Y-51074774D01*
X42054744Y-51152795D01*
X41885226Y-51266063D01*
X41741063Y-51410226D01*
X41627795Y-51579744D01*
X41549774Y-51768102D01*
X41510000Y-51968061D01*
X41510000Y-52171939D01*
X41549774Y-52371898D01*
X41627795Y-52560256D01*
X41741063Y-52729774D01*
X41885226Y-52873937D01*
X42054744Y-52987205D01*
X42243102Y-53065226D01*
X42443061Y-53105000D01*
X42646939Y-53105000D01*
X42846898Y-53065226D01*
X43035256Y-52987205D01*
X43204774Y-52873937D01*
X43348937Y-52729774D01*
X43462205Y-52560256D01*
X43540226Y-52371898D01*
X43569093Y-52226775D01*
X44071426Y-51724442D01*
X44103291Y-51698291D01*
X44207636Y-51571146D01*
X44224179Y-51540196D01*
X44278552Y-51606449D01*
X44451378Y-51748284D01*
X44648554Y-51853676D01*
X44862502Y-51918577D01*
X45085000Y-51940491D01*
X45307499Y-51918577D01*
X45521447Y-51853676D01*
X45718623Y-51748284D01*
X45891449Y-51606449D01*
X46033284Y-51433623D01*
X46138676Y-51236447D01*
X46203577Y-51022499D01*
X46220000Y-50855752D01*
X46220000Y-50579872D01*
X48565000Y-50579872D01*
X48565000Y-51020128D01*
X48650890Y-51451925D01*
X48819369Y-51858669D01*
X49063962Y-52224729D01*
X49375271Y-52536038D01*
X49741331Y-52780631D01*
X50148075Y-52949110D01*
X50579872Y-53035000D01*
X51020128Y-53035000D01*
X51451925Y-52949110D01*
X51858669Y-52780631D01*
X52224729Y-52536038D01*
X52536038Y-52224729D01*
X52780631Y-51858669D01*
X52949110Y-51451925D01*
X53035000Y-51020128D01*
X53035000Y-50579872D01*
X52949110Y-50148075D01*
X52780631Y-49741331D01*
X52536038Y-49375271D01*
X52224729Y-49063962D01*
X51858669Y-48819369D01*
X51451925Y-48650890D01*
X51020128Y-48565000D01*
X50579872Y-48565000D01*
X50148075Y-48650890D01*
X49741331Y-48819369D01*
X49375271Y-49063962D01*
X49063962Y-49375271D01*
X48819369Y-49741331D01*
X48650890Y-50148075D01*
X48565000Y-50579872D01*
X46220000Y-50579872D01*
X46220000Y-49144248D01*
X46203577Y-48977501D01*
X46194878Y-48948826D01*
X46181608Y-48814092D01*
X46132850Y-48653358D01*
X46053671Y-48505225D01*
X45977574Y-48412500D01*
X46053671Y-48319775D01*
X46132850Y-48171642D01*
X46181608Y-48010908D01*
X46198072Y-47843750D01*
X46198072Y-47406250D01*
X46181608Y-47239092D01*
X46132850Y-47078358D01*
X46053671Y-46930225D01*
X45947115Y-46800385D01*
X45920000Y-46778132D01*
X45920000Y-46569461D01*
X45931868Y-46555000D01*
X48204119Y-46555000D01*
X48233815Y-46591185D01*
X48330506Y-46670537D01*
X48440820Y-46729502D01*
X48560518Y-46765812D01*
X48685000Y-46778072D01*
X50185000Y-46778072D01*
X50309482Y-46765812D01*
X50429180Y-46729502D01*
X50539494Y-46670537D01*
X50636185Y-46591185D01*
X50715537Y-46494494D01*
X50774502Y-46384180D01*
X50810812Y-46264482D01*
X50823072Y-46140000D01*
X50823072Y-42640000D01*
X50810812Y-42515518D01*
X50774502Y-42395820D01*
X50715537Y-42285506D01*
X50636185Y-42188815D01*
X50539494Y-42109463D01*
X50429180Y-42050498D01*
X50309482Y-42014188D01*
X50185000Y-42001928D01*
X48685000Y-42001928D01*
X48560518Y-42014188D01*
X48440820Y-42050498D01*
X48330506Y-42109463D01*
X48233815Y-42188815D01*
X48154463Y-42285506D01*
X48095498Y-42395820D01*
X48059188Y-42515518D01*
X48046928Y-42640000D01*
X48046928Y-44885000D01*
X45931868Y-44885000D01*
X45909615Y-44857885D01*
X45779775Y-44751329D01*
X45631642Y-44672150D01*
X45470908Y-44623392D01*
X45303750Y-44606928D01*
X45152796Y-44606928D01*
X43380000Y-42834133D01*
X43380000Y-40518363D01*
X44200000Y-40518363D01*
X44200000Y-40761637D01*
X44247460Y-41000236D01*
X44340557Y-41224992D01*
X44475713Y-41427267D01*
X44647733Y-41599287D01*
X44850008Y-41734443D01*
X45074764Y-41827540D01*
X45313363Y-41875000D01*
X45556637Y-41875000D01*
X45795236Y-41827540D01*
X46019992Y-41734443D01*
X46222267Y-41599287D01*
X46394287Y-41427267D01*
X46529443Y-41224992D01*
X46622540Y-41000236D01*
X46670000Y-40761637D01*
X46670000Y-40518363D01*
X50200000Y-40518363D01*
X50200000Y-40761637D01*
X50247460Y-41000236D01*
X50340557Y-41224992D01*
X50475713Y-41427267D01*
X50647733Y-41599287D01*
X50850008Y-41734443D01*
X51074764Y-41827540D01*
X51313363Y-41875000D01*
X51556637Y-41875000D01*
X51795236Y-41827540D01*
X52019992Y-41734443D01*
X52222267Y-41599287D01*
X52394287Y-41427267D01*
X52529443Y-41224992D01*
X52622540Y-41000236D01*
X52670000Y-40761637D01*
X52670000Y-40518363D01*
X52622540Y-40279764D01*
X52529443Y-40055008D01*
X52394287Y-39852733D01*
X52222267Y-39680713D01*
X52019992Y-39545557D01*
X51795236Y-39452460D01*
X51556637Y-39405000D01*
X51313363Y-39405000D01*
X51074764Y-39452460D01*
X50850008Y-39545557D01*
X50647733Y-39680713D01*
X50475713Y-39852733D01*
X50340557Y-40055008D01*
X50247460Y-40279764D01*
X50200000Y-40518363D01*
X46670000Y-40518363D01*
X46622540Y-40279764D01*
X46529443Y-40055008D01*
X46394287Y-39852733D01*
X46222267Y-39680713D01*
X46019992Y-39545557D01*
X45795236Y-39452460D01*
X45556637Y-39405000D01*
X45313363Y-39405000D01*
X45074764Y-39452460D01*
X44850008Y-39545557D01*
X44647733Y-39680713D01*
X44475713Y-39852733D01*
X44340557Y-40055008D01*
X44247460Y-40279764D01*
X44200000Y-40518363D01*
X43380000Y-40518363D01*
X43380000Y-39196993D01*
X43440820Y-39229502D01*
X43560518Y-39265812D01*
X43685000Y-39278072D01*
X45185000Y-39278072D01*
X45309482Y-39265812D01*
X45429180Y-39229502D01*
X45539494Y-39170537D01*
X45636185Y-39091185D01*
X45715537Y-38994494D01*
X45774502Y-38884180D01*
X45810812Y-38764482D01*
X45823072Y-38640000D01*
X45823072Y-35140000D01*
X50046928Y-35140000D01*
X50046928Y-38640000D01*
X50059188Y-38764482D01*
X50095498Y-38884180D01*
X50154463Y-38994494D01*
X50233815Y-39091185D01*
X50330506Y-39170537D01*
X50440820Y-39229502D01*
X50560518Y-39265812D01*
X50685000Y-39278072D01*
X52185000Y-39278072D01*
X52309482Y-39265812D01*
X52429180Y-39229502D01*
X52539494Y-39170537D01*
X52636185Y-39091185D01*
X52715537Y-38994494D01*
X52774502Y-38884180D01*
X52810812Y-38764482D01*
X52823072Y-38640000D01*
X52823072Y-35140000D01*
X52810812Y-35015518D01*
X52774502Y-34895820D01*
X52715537Y-34785506D01*
X52636185Y-34688815D01*
X52539494Y-34609463D01*
X52429180Y-34550498D01*
X52309482Y-34514188D01*
X52185000Y-34501928D01*
X50685000Y-34501928D01*
X50560518Y-34514188D01*
X50440820Y-34550498D01*
X50330506Y-34609463D01*
X50233815Y-34688815D01*
X50154463Y-34785506D01*
X50095498Y-34895820D01*
X50059188Y-35015518D01*
X50046928Y-35140000D01*
X45823072Y-35140000D01*
X45810812Y-35015518D01*
X45774502Y-34895820D01*
X45715537Y-34785506D01*
X45636185Y-34688815D01*
X45570000Y-34634499D01*
X45570000Y-33228050D01*
X45590490Y-33020001D01*
X45568577Y-32797502D01*
X45503675Y-32583554D01*
X45398283Y-32386378D01*
X45256448Y-32213552D01*
X45083622Y-32071717D01*
X44886446Y-31966325D01*
X44672498Y-31901423D01*
X44449999Y-31879510D01*
X44227501Y-31901423D01*
X44013554Y-31966325D01*
X43816378Y-32071717D01*
X43686857Y-32178012D01*
X43671860Y-32193009D01*
X43628552Y-32228551D01*
X43486717Y-32401377D01*
X43381324Y-32598553D01*
X43320973Y-32797502D01*
X43316423Y-32812502D01*
X43294509Y-33035000D01*
X43300000Y-33090751D01*
X43300000Y-34634499D01*
X43233815Y-34688815D01*
X43154463Y-34785506D01*
X43095498Y-34895820D01*
X43059188Y-35015518D01*
X43046928Y-35140000D01*
X43046928Y-37190594D01*
X43035256Y-37182795D01*
X42846898Y-37104774D01*
X42646939Y-37065000D01*
X42443061Y-37065000D01*
X42243102Y-37104774D01*
X42054744Y-37182795D01*
X41885226Y-37296063D01*
X41741063Y-37440226D01*
X41627795Y-37609744D01*
X41549774Y-37798102D01*
X41510000Y-37998061D01*
X40500452Y-37998061D01*
X40488577Y-37877501D01*
X40423676Y-37663553D01*
X40318284Y-37466377D01*
X40176449Y-37293551D01*
X40003623Y-37151716D01*
X39806446Y-37046324D01*
X39592498Y-36981423D01*
X39370000Y-36959509D01*
X39147501Y-36981423D01*
X38933553Y-37046324D01*
X38736377Y-37151716D01*
X38735000Y-37152846D01*
X38733623Y-37151716D01*
X38536446Y-37046324D01*
X38322498Y-36981423D01*
X38100000Y-36959509D01*
X37877501Y-36981423D01*
X37663553Y-37046324D01*
X37466377Y-37151716D01*
X37351740Y-37245796D01*
X37349000Y-36385750D01*
X37190250Y-36227000D01*
X35941000Y-36227000D01*
X35941000Y-37826250D01*
X36099750Y-37985000D01*
X36714000Y-37988072D01*
X36838482Y-37975812D01*
X36958180Y-37939502D01*
X36976269Y-37929833D01*
X36965000Y-38044249D01*
X36965000Y-38264143D01*
X36958180Y-38260498D01*
X36838482Y-38224188D01*
X36714000Y-38211928D01*
X34914000Y-38211928D01*
X34789518Y-38224188D01*
X34669820Y-38260498D01*
X34559506Y-38319463D01*
X34462815Y-38398815D01*
X34383463Y-38495506D01*
X34324498Y-38605820D01*
X34288188Y-38725518D01*
X34275928Y-38850000D01*
X34275928Y-38965000D01*
X32692171Y-38965000D01*
X32681130Y-38852898D01*
X32610511Y-38620099D01*
X32599000Y-38598563D01*
X32599000Y-37350000D01*
X34275928Y-37350000D01*
X34288188Y-37474482D01*
X34324498Y-37594180D01*
X34383463Y-37704494D01*
X34462815Y-37801185D01*
X34559506Y-37880537D01*
X34669820Y-37939502D01*
X34789518Y-37975812D01*
X34914000Y-37988072D01*
X35528250Y-37985000D01*
X35687000Y-37826250D01*
X35687000Y-36227000D01*
X34437750Y-36227000D01*
X34279000Y-36385750D01*
X34275928Y-37350000D01*
X32599000Y-37350000D01*
X32599000Y-34850000D01*
X34275928Y-34850000D01*
X34279000Y-35814250D01*
X34437750Y-35973000D01*
X35687000Y-35973000D01*
X35687000Y-34373750D01*
X35941000Y-34373750D01*
X35941000Y-35973000D01*
X37190250Y-35973000D01*
X37349000Y-35814250D01*
X37352072Y-34850000D01*
X37339812Y-34725518D01*
X37303502Y-34605820D01*
X37244537Y-34495506D01*
X37165185Y-34398815D01*
X37068494Y-34319463D01*
X36958180Y-34260498D01*
X36838482Y-34224188D01*
X36714000Y-34211928D01*
X36099750Y-34215000D01*
X35941000Y-34373750D01*
X35687000Y-34373750D01*
X35528250Y-34215000D01*
X34914000Y-34211928D01*
X34789518Y-34224188D01*
X34669820Y-34260498D01*
X34559506Y-34319463D01*
X34462815Y-34398815D01*
X34383463Y-34495506D01*
X34324498Y-34605820D01*
X34288188Y-34725518D01*
X34275928Y-34850000D01*
X32599000Y-34850000D01*
X32599000Y-34553436D01*
X32610511Y-34531900D01*
X32681130Y-34299101D01*
X32699000Y-34117664D01*
X32699000Y-33446335D01*
X32681130Y-33264898D01*
X32610511Y-33032099D01*
X32495833Y-32817551D01*
X32341502Y-32629498D01*
X32153448Y-32475167D01*
X31938900Y-32360489D01*
X31706101Y-32289870D01*
X31464000Y-32266025D01*
X31221898Y-32289870D01*
X30989099Y-32360489D01*
X30774551Y-32475167D01*
X30620691Y-32601436D01*
X30594537Y-32552506D01*
X30515185Y-32455815D01*
X30418494Y-32376463D01*
X30308180Y-32317498D01*
X30188482Y-32281188D01*
X30064000Y-32268928D01*
X29749750Y-32272000D01*
X29591000Y-32430750D01*
X29337000Y-32430750D01*
X29178250Y-32272000D01*
X28864000Y-32268928D01*
X28739518Y-32281188D01*
X28619820Y-32317498D01*
X28509506Y-32376463D01*
X28412815Y-32455815D01*
X28333463Y-32552506D01*
X28274498Y-32662820D01*
X28238188Y-32782518D01*
X28225928Y-32907000D01*
X26797000Y-32907000D01*
X26797000Y-30875015D01*
X26971898Y-30840226D01*
X27160256Y-30762205D01*
X27283285Y-30680000D01*
X29225540Y-30680000D01*
X29351134Y-30747132D01*
X29501316Y-30792689D01*
X29657500Y-30808072D01*
X31307500Y-30808072D01*
X31463684Y-30792689D01*
X31613866Y-30747132D01*
X31752274Y-30673151D01*
X31873590Y-30573590D01*
X31973151Y-30452274D01*
X32047132Y-30313866D01*
X32092689Y-30163684D01*
X32108072Y-30007500D01*
X32108072Y-29682500D01*
X32092689Y-29526316D01*
X32047132Y-29376134D01*
X31973151Y-29237726D01*
X31950397Y-29210000D01*
X31973151Y-29182274D01*
X32047132Y-29043866D01*
X32092689Y-28893684D01*
X32108072Y-28737500D01*
X32108072Y-28412500D01*
X32092689Y-28256316D01*
X32047132Y-28106134D01*
X31973151Y-27967726D01*
X31950397Y-27940000D01*
X31973151Y-27912274D01*
X32047132Y-27773866D01*
X32092689Y-27623684D01*
X32108072Y-27467500D01*
X32108072Y-27142500D01*
X32092689Y-26986316D01*
X32047132Y-26836134D01*
X31973151Y-26697726D01*
X31950397Y-26670000D01*
X31973151Y-26642274D01*
X32047132Y-26503866D01*
X32092689Y-26353684D01*
X32108072Y-26197500D01*
X32108072Y-25872500D01*
X32092689Y-25716316D01*
X32047132Y-25566134D01*
X31973151Y-25427726D01*
X31873590Y-25306410D01*
X31752274Y-25206849D01*
X31613866Y-25132868D01*
X31463684Y-25087311D01*
X31307500Y-25071928D01*
X31088456Y-25071928D01*
X30918947Y-24981324D01*
X30865134Y-24965000D01*
X35089643Y-24965000D01*
X35111222Y-24986579D01*
X34951544Y-25071928D01*
X34732500Y-25071928D01*
X34576316Y-25087311D01*
X34426134Y-25132868D01*
X34287726Y-25206849D01*
X34166410Y-25306410D01*
X34066849Y-25427726D01*
X33992868Y-25566134D01*
X33947311Y-25716316D01*
X33931928Y-25872500D01*
X33931928Y-26197500D01*
X33947311Y-26353684D01*
X33992868Y-26503866D01*
X34066849Y-26642274D01*
X34089603Y-26670000D01*
X34066849Y-26697726D01*
X33992868Y-26836134D01*
X33947311Y-26986316D01*
X33931928Y-27142500D01*
X33931928Y-27467500D01*
X33947311Y-27623684D01*
X33992868Y-27773866D01*
X34066849Y-27912274D01*
X34089603Y-27940000D01*
X34066849Y-27967726D01*
X33992868Y-28106134D01*
X33947311Y-28256316D01*
X33931928Y-28412500D01*
X33931928Y-28737500D01*
X33947311Y-28893684D01*
X33992868Y-29043866D01*
X34066849Y-29182274D01*
X34089603Y-29210000D01*
X34066849Y-29237726D01*
X33992868Y-29376134D01*
X33947311Y-29526316D01*
X33931928Y-29682500D01*
X33931928Y-30007500D01*
X33947311Y-30163684D01*
X33992868Y-30313866D01*
X34066849Y-30452274D01*
X34166410Y-30573590D01*
X34287726Y-30673151D01*
X34426134Y-30747132D01*
X34576316Y-30792689D01*
X34732500Y-30808072D01*
X34917941Y-30808072D01*
X36965000Y-32855132D01*
X36965000Y-33075752D01*
X36981423Y-33242499D01*
X37046324Y-33456447D01*
X37151717Y-33653623D01*
X37293552Y-33826449D01*
X37466378Y-33968284D01*
X37663554Y-34073676D01*
X37877502Y-34138577D01*
X38100000Y-34160491D01*
X38322499Y-34138577D01*
X38536447Y-34073676D01*
X38733623Y-33968284D01*
X38735001Y-33967154D01*
X38736378Y-33968284D01*
X38933554Y-34073676D01*
X39147502Y-34138577D01*
X39370000Y-34160491D01*
X39592499Y-34138577D01*
X39806447Y-34073676D01*
X40003623Y-33968284D01*
X40176449Y-33826449D01*
X40318284Y-33653623D01*
X40423676Y-33456447D01*
X40488577Y-33242499D01*
X40505000Y-33075752D01*
X40505000Y-31210000D01*
X42011928Y-31210000D01*
X42024188Y-31334482D01*
X42060498Y-31454180D01*
X42119463Y-31564494D01*
X42198815Y-31661185D01*
X42295506Y-31740537D01*
X42405820Y-31799502D01*
X42525518Y-31835812D01*
X42650000Y-31848072D01*
X43364250Y-31845000D01*
X43523000Y-31686250D01*
X43523000Y-29337000D01*
X43777000Y-29337000D01*
X43777000Y-31686250D01*
X43935750Y-31845000D01*
X44650000Y-31848072D01*
X44774482Y-31835812D01*
X44894180Y-31799502D01*
X45004494Y-31740537D01*
X45101185Y-31661185D01*
X45180537Y-31564494D01*
X45239502Y-31454180D01*
X45275812Y-31334482D01*
X45288072Y-31210000D01*
X45285000Y-29495750D01*
X45126250Y-29337000D01*
X43777000Y-29337000D01*
X43523000Y-29337000D01*
X42173750Y-29337000D01*
X42015000Y-29495750D01*
X42011928Y-31210000D01*
X40505000Y-31210000D01*
X40505000Y-30085751D01*
X40510491Y-30030000D01*
X40488577Y-29807501D01*
X40423676Y-29593553D01*
X40318284Y-29396377D01*
X40176449Y-29223551D01*
X40133141Y-29188009D01*
X39720132Y-28775000D01*
X41296715Y-28775000D01*
X41419744Y-28857205D01*
X41608102Y-28935226D01*
X41808061Y-28975000D01*
X42011939Y-28975000D01*
X42056822Y-28966072D01*
X42173750Y-29083000D01*
X43523000Y-29083000D01*
X43523000Y-26733750D01*
X43777000Y-26733750D01*
X43777000Y-29083000D01*
X45126250Y-29083000D01*
X45285000Y-28924250D01*
X45288072Y-27210000D01*
X48011928Y-27210000D01*
X48011928Y-31210000D01*
X48024188Y-31334482D01*
X48060498Y-31454180D01*
X48119463Y-31564494D01*
X48198815Y-31661185D01*
X48295506Y-31740537D01*
X48405820Y-31799502D01*
X48525518Y-31835812D01*
X48650000Y-31848072D01*
X50650000Y-31848072D01*
X50774482Y-31835812D01*
X50894180Y-31799502D01*
X51004494Y-31740537D01*
X51101185Y-31661185D01*
X51180537Y-31564494D01*
X51239502Y-31454180D01*
X51275812Y-31334482D01*
X51288072Y-31210000D01*
X51288072Y-30345000D01*
X52760752Y-30345000D01*
X52927499Y-30328577D01*
X53141447Y-30263676D01*
X53338623Y-30158284D01*
X53511449Y-30016449D01*
X53653284Y-29843623D01*
X53758676Y-29646447D01*
X53823577Y-29432499D01*
X53845491Y-29210000D01*
X53823577Y-28987501D01*
X53758676Y-28773553D01*
X53653284Y-28576377D01*
X53511449Y-28403551D01*
X53338623Y-28261716D01*
X53141447Y-28156324D01*
X52927499Y-28091423D01*
X52760752Y-28075000D01*
X51288072Y-28075000D01*
X51288072Y-27210000D01*
X51275812Y-27085518D01*
X51239502Y-26965820D01*
X51180537Y-26855506D01*
X51101185Y-26758815D01*
X51004494Y-26679463D01*
X50894180Y-26620498D01*
X50774482Y-26584188D01*
X50650000Y-26571928D01*
X48650000Y-26571928D01*
X48525518Y-26584188D01*
X48405820Y-26620498D01*
X48295506Y-26679463D01*
X48198815Y-26758815D01*
X48119463Y-26855506D01*
X48060498Y-26965820D01*
X48024188Y-27085518D01*
X48011928Y-27210000D01*
X45288072Y-27210000D01*
X45275812Y-27085518D01*
X45239502Y-26965820D01*
X45180537Y-26855506D01*
X45101185Y-26758815D01*
X45004494Y-26679463D01*
X44894180Y-26620498D01*
X44774482Y-26584188D01*
X44650000Y-26571928D01*
X43935750Y-26575000D01*
X43777000Y-26733750D01*
X43523000Y-26733750D01*
X43364250Y-26575000D01*
X42650000Y-26571928D01*
X42525518Y-26584188D01*
X42405820Y-26620498D01*
X42295506Y-26679463D01*
X42198815Y-26758815D01*
X42119463Y-26855506D01*
X42085216Y-26919576D01*
X42011939Y-26905000D01*
X41808061Y-26905000D01*
X41608102Y-26944774D01*
X41419744Y-27022795D01*
X41296715Y-27105000D01*
X39591379Y-27105000D01*
X36054956Y-23568579D01*
X36028801Y-23536709D01*
X35901656Y-23432364D01*
X35859817Y-23410000D01*
X43511928Y-23410000D01*
X43511928Y-25410000D01*
X43524188Y-25534482D01*
X43560498Y-25654180D01*
X43619463Y-25764494D01*
X43698815Y-25861185D01*
X43795506Y-25940537D01*
X43905820Y-25999502D01*
X44025518Y-26035812D01*
X44150000Y-26048072D01*
X48150000Y-26048072D01*
X48274482Y-26035812D01*
X48394180Y-25999502D01*
X48504494Y-25940537D01*
X48601185Y-25861185D01*
X48680537Y-25764494D01*
X48739502Y-25654180D01*
X48775812Y-25534482D01*
X48788072Y-25410000D01*
X48788072Y-23410000D01*
X48775812Y-23285518D01*
X48739502Y-23165820D01*
X48680537Y-23055506D01*
X48601185Y-22958815D01*
X48504494Y-22879463D01*
X48394180Y-22820498D01*
X48274482Y-22784188D01*
X48150000Y-22771928D01*
X44150000Y-22771928D01*
X44025518Y-22784188D01*
X43905820Y-22820498D01*
X43795506Y-22879463D01*
X43698815Y-22958815D01*
X43619463Y-23055506D01*
X43560498Y-23165820D01*
X43524188Y-23285518D01*
X43511928Y-23410000D01*
X35859817Y-23410000D01*
X35756597Y-23354828D01*
X35599199Y-23307082D01*
X35476529Y-23295000D01*
X35476528Y-23295000D01*
X35435510Y-23290960D01*
X35394492Y-23295000D01*
X27283285Y-23295000D01*
X27160256Y-23212795D01*
X26971898Y-23134774D01*
X26797000Y-23099985D01*
X26797000Y-16626408D01*
X29972000Y-16626408D01*
X29972000Y-16901592D01*
X30025686Y-17171490D01*
X30130995Y-17425727D01*
X30283880Y-17654535D01*
X30478465Y-17849120D01*
X30707273Y-18002005D01*
X30784515Y-18034000D01*
X30707273Y-18065995D01*
X30478465Y-18218880D01*
X30283880Y-18413465D01*
X30130995Y-18642273D01*
X30025686Y-18896510D01*
X29972000Y-19166408D01*
X29972000Y-19441592D01*
X30025686Y-19711490D01*
X30130995Y-19965727D01*
X30283880Y-20194535D01*
X30478465Y-20389120D01*
X30707273Y-20542005D01*
X30961510Y-20647314D01*
X31231408Y-20701000D01*
X31506592Y-20701000D01*
X31776490Y-20647314D01*
X32030727Y-20542005D01*
X32259535Y-20389120D01*
X32454120Y-20194535D01*
X32607005Y-19965727D01*
X32712314Y-19711490D01*
X32766000Y-19441592D01*
X32766000Y-19166408D01*
X32712314Y-18896510D01*
X32607005Y-18642273D01*
X32454120Y-18413465D01*
X32259535Y-18218880D01*
X32030727Y-18065995D01*
X31953485Y-18034000D01*
X32030727Y-18002005D01*
X32259535Y-17849120D01*
X32454120Y-17654535D01*
X32607005Y-17425727D01*
X32712314Y-17171490D01*
X32766000Y-16901592D01*
X32766000Y-16626408D01*
X48514000Y-16626408D01*
X48514000Y-16901592D01*
X48567686Y-17171490D01*
X48672995Y-17425727D01*
X48825880Y-17654535D01*
X49020465Y-17849120D01*
X49249273Y-18002005D01*
X49326515Y-18034000D01*
X49249273Y-18065995D01*
X49020465Y-18218880D01*
X48825880Y-18413465D01*
X48672995Y-18642273D01*
X48567686Y-18896510D01*
X48514000Y-19166408D01*
X48514000Y-19441592D01*
X48567686Y-19711490D01*
X48672995Y-19965727D01*
X48825880Y-20194535D01*
X49020465Y-20389120D01*
X49249273Y-20542005D01*
X49503510Y-20647314D01*
X49773408Y-20701000D01*
X50048592Y-20701000D01*
X50318490Y-20647314D01*
X50572727Y-20542005D01*
X50801535Y-20389120D01*
X50996120Y-20194535D01*
X51149005Y-19965727D01*
X51254314Y-19711490D01*
X51308000Y-19441592D01*
X51308000Y-19166408D01*
X51254314Y-18896510D01*
X51149005Y-18642273D01*
X50996120Y-18413465D01*
X50801535Y-18218880D01*
X50572727Y-18065995D01*
X50495485Y-18034000D01*
X50572727Y-18002005D01*
X50801535Y-17849120D01*
X50996120Y-17654535D01*
X51149005Y-17425727D01*
X51254314Y-17171490D01*
X51308000Y-16901592D01*
X51308000Y-16626408D01*
X51254314Y-16356510D01*
X51149005Y-16102273D01*
X50996120Y-15873465D01*
X50801535Y-15678880D01*
X50572727Y-15525995D01*
X50318490Y-15420686D01*
X50048592Y-15367000D01*
X49773408Y-15367000D01*
X49503510Y-15420686D01*
X49249273Y-15525995D01*
X49020465Y-15678880D01*
X48825880Y-15873465D01*
X48672995Y-16102273D01*
X48567686Y-16356510D01*
X48514000Y-16626408D01*
X32766000Y-16626408D01*
X32712314Y-16356510D01*
X32607005Y-16102273D01*
X32454120Y-15873465D01*
X32259535Y-15678880D01*
X32030727Y-15525995D01*
X31776490Y-15420686D01*
X31506592Y-15367000D01*
X31231408Y-15367000D01*
X30961510Y-15420686D01*
X30707273Y-15525995D01*
X30478465Y-15678880D01*
X30283880Y-15873465D01*
X30130995Y-16102273D01*
X30025686Y-16356510D01*
X29972000Y-16626408D01*
X26797000Y-16626408D01*
X26797000Y-12827000D01*
X41275000Y-12827000D01*
X41299776Y-12824560D01*
X41323601Y-12817333D01*
X41345557Y-12805597D01*
X41364803Y-12789803D01*
X41380597Y-12770557D01*
X41392333Y-12748601D01*
X41399560Y-12724776D01*
X41402000Y-12700000D01*
X41402000Y-9601565D01*
X49116040Y-9601565D01*
X49183020Y-9841656D01*
X49432048Y-9958756D01*
X49699135Y-10025023D01*
X49974017Y-10037910D01*
X50246133Y-9996922D01*
X50505023Y-9903636D01*
X50620980Y-9841656D01*
X50687960Y-9601565D01*
X49902000Y-8815605D01*
X49116040Y-9601565D01*
X41402000Y-9601565D01*
X41402000Y-8708017D01*
X48500090Y-8708017D01*
X48541078Y-8980133D01*
X48634364Y-9239023D01*
X48696344Y-9354980D01*
X48936435Y-9421960D01*
X49722395Y-8636000D01*
X50081605Y-8636000D01*
X50867565Y-9421960D01*
X51107656Y-9354980D01*
X51224756Y-9105952D01*
X51291023Y-8838865D01*
X51303910Y-8563983D01*
X51262922Y-8291867D01*
X51169636Y-8032977D01*
X51107656Y-7917020D01*
X50867565Y-7850040D01*
X50081605Y-8636000D01*
X49722395Y-8636000D01*
X48936435Y-7850040D01*
X48696344Y-7917020D01*
X48579244Y-8166048D01*
X48512977Y-8433135D01*
X48500090Y-8708017D01*
X41402000Y-8708017D01*
X41402000Y-7670435D01*
X49116040Y-7670435D01*
X49902000Y-8456395D01*
X50687960Y-7670435D01*
X50620980Y-7430344D01*
X50494261Y-7370757D01*
X50514023Y-7363636D01*
X50629980Y-7301656D01*
X50696960Y-7061565D01*
X49911000Y-6275605D01*
X49125040Y-7061565D01*
X49192020Y-7301656D01*
X49318739Y-7361243D01*
X49298977Y-7368364D01*
X49183020Y-7430344D01*
X49116040Y-7670435D01*
X41402000Y-7670435D01*
X41402000Y-6168017D01*
X48509090Y-6168017D01*
X48550078Y-6440133D01*
X48643364Y-6699023D01*
X48705344Y-6814980D01*
X48945435Y-6881960D01*
X49731395Y-6096000D01*
X50090605Y-6096000D01*
X50876565Y-6881960D01*
X51116656Y-6814980D01*
X51233756Y-6565952D01*
X51300023Y-6298865D01*
X51312910Y-6023983D01*
X51271922Y-5751867D01*
X51178636Y-5492977D01*
X51116656Y-5377020D01*
X50876565Y-5310040D01*
X50090605Y-6096000D01*
X49731395Y-6096000D01*
X48945435Y-5310040D01*
X48705344Y-5377020D01*
X48588244Y-5626048D01*
X48521977Y-5893135D01*
X48509090Y-6168017D01*
X41402000Y-6168017D01*
X41402000Y-5130435D01*
X49125040Y-5130435D01*
X49911000Y-5916395D01*
X50696960Y-5130435D01*
X50629980Y-4890344D01*
X50380952Y-4773244D01*
X50113865Y-4706977D01*
X49838983Y-4694090D01*
X49566867Y-4735078D01*
X49307977Y-4828364D01*
X49192020Y-4890344D01*
X49125040Y-5130435D01*
X41402000Y-5130435D01*
X41402000Y220128D01*
X48565000Y220128D01*
X48565000Y-220128D01*
X48650890Y-651925D01*
X48819369Y-1058669D01*
X49063962Y-1424729D01*
X49375271Y-1736038D01*
X49741331Y-1980631D01*
X50148075Y-2149110D01*
X50579872Y-2235000D01*
X51020128Y-2235000D01*
X51451925Y-2149110D01*
X51858669Y-1980631D01*
X52224729Y-1736038D01*
X52536038Y-1424729D01*
X52780631Y-1058669D01*
X52949110Y-651925D01*
X53035000Y-220128D01*
X53035000Y220128D01*
X52949110Y651925D01*
X52780631Y1058669D01*
X52536038Y1424729D01*
X52224729Y1736038D01*
X51858669Y1980631D01*
X51451925Y2149110D01*
X51020128Y2235000D01*
X50579872Y2235000D01*
X50148075Y2149110D01*
X49741331Y1980631D01*
X49375271Y1736038D01*
X49063962Y1424729D01*
X48819369Y1058669D01*
X48650890Y651925D01*
X48565000Y220128D01*
X41402000Y220128D01*
X41402000Y3150000D01*
X53950000Y3150000D01*
X53950001Y-53950000D01*
G36*
X40513000Y-11938000D02*
G01*
X26035000Y-11938000D01*
X26010224Y-11940440D01*
X25986399Y-11947667D01*
X25964443Y-11959403D01*
X25945197Y-11975197D01*
X25929403Y-11994443D01*
X25917667Y-12016399D01*
X25910440Y-12040224D01*
X25908000Y-12065000D01*
X25908000Y-23428289D01*
X25866063Y-23470226D01*
X25752795Y-23639744D01*
X25674774Y-23828102D01*
X25635000Y-24028061D01*
X25635000Y-24231939D01*
X25674774Y-24431898D01*
X25752795Y-24620256D01*
X25866063Y-24789774D01*
X25908000Y-24831711D01*
X25908000Y-26603289D01*
X25866063Y-26645226D01*
X25752795Y-26814744D01*
X25674774Y-27003102D01*
X25635000Y-27203061D01*
X25635000Y-27406939D01*
X25674774Y-27606898D01*
X25752795Y-27795256D01*
X25866063Y-27964774D01*
X25908000Y-28006711D01*
X25908000Y-29143289D01*
X25866063Y-29185226D01*
X25752795Y-29354744D01*
X25674774Y-29543102D01*
X25635000Y-29743061D01*
X25635000Y-29946939D01*
X25674774Y-30146898D01*
X25752795Y-30335256D01*
X25866063Y-30504774D01*
X25908000Y-30546711D01*
X25908000Y-53950000D01*
X-3150000Y-53950000D01*
X-3150000Y-50579872D01*
X-2235000Y-50579872D01*
X-2235000Y-51020128D01*
X-2149110Y-51451925D01*
X-1980631Y-51858669D01*
X-1736038Y-52224729D01*
X-1424729Y-52536038D01*
X-1058669Y-52780631D01*
X-651925Y-52949110D01*
X-220128Y-53035000D01*
X220128Y-53035000D01*
X651925Y-52949110D01*
X1058669Y-52780631D01*
X1424729Y-52536038D01*
X1736038Y-52224729D01*
X1980631Y-51858669D01*
X2149110Y-51451925D01*
X2235000Y-51020128D01*
X2235000Y-50579872D01*
X2149110Y-50148075D01*
X1980631Y-49741331D01*
X1736038Y-49375271D01*
X1424729Y-49063962D01*
X1058669Y-48819369D01*
X651925Y-48650890D01*
X220128Y-48565000D01*
X-220128Y-48565000D01*
X-651925Y-48650890D01*
X-1058669Y-48819369D01*
X-1424729Y-49063962D01*
X-1736038Y-49375271D01*
X-1980631Y-49741331D01*
X-2149110Y-50148075D01*
X-2235000Y-50579872D01*
X-3150000Y-50579872D01*
X-3150000Y-8820001D01*
X3675959Y-8820001D01*
X3680000Y-8861030D01*
X3679999Y-30508981D01*
X3675959Y-30549999D01*
X3683271Y-30624236D01*
X3692081Y-30713687D01*
X3739827Y-30871085D01*
X3817363Y-31016144D01*
X3921708Y-31143290D01*
X3953577Y-31169444D01*
X4296466Y-31512333D01*
X4273057Y-31750000D01*
X4300764Y-32031309D01*
X4382818Y-32301808D01*
X4516068Y-32551101D01*
X4695392Y-32769608D01*
X4913899Y-32948932D01*
X5046858Y-33020000D01*
X4913899Y-33091068D01*
X4695392Y-33270392D01*
X4516068Y-33488899D01*
X4382818Y-33738192D01*
X4300764Y-34008691D01*
X4273057Y-34290000D01*
X4300764Y-34571309D01*
X4382818Y-34841808D01*
X4516068Y-35091101D01*
X4695392Y-35309608D01*
X4913899Y-35488932D01*
X5046858Y-35560000D01*
X4913899Y-35631068D01*
X4695392Y-35810392D01*
X4516068Y-36028899D01*
X4382818Y-36278192D01*
X4300764Y-36548691D01*
X4273057Y-36830000D01*
X4300764Y-37111309D01*
X4382818Y-37381808D01*
X4516068Y-37631101D01*
X4695392Y-37849608D01*
X4913899Y-38028932D01*
X5046858Y-38100000D01*
X4913899Y-38171068D01*
X4695392Y-38350392D01*
X4516068Y-38568899D01*
X4382818Y-38818192D01*
X4300764Y-39088691D01*
X4273057Y-39370000D01*
X4300764Y-39651309D01*
X4382818Y-39921808D01*
X4516068Y-40171101D01*
X4695392Y-40389608D01*
X4913899Y-40568932D01*
X5046858Y-40640000D01*
X4913899Y-40711068D01*
X4695392Y-40890392D01*
X4516068Y-41108899D01*
X4382818Y-41358192D01*
X4300764Y-41628691D01*
X4273057Y-41910000D01*
X4300764Y-42191309D01*
X4382818Y-42461808D01*
X4516068Y-42711101D01*
X4695392Y-42929608D01*
X4913899Y-43108932D01*
X5046858Y-43180000D01*
X4913899Y-43251068D01*
X4695392Y-43430392D01*
X4516068Y-43648899D01*
X4382818Y-43898192D01*
X4300764Y-44168691D01*
X4273057Y-44450000D01*
X4300764Y-44731309D01*
X4382818Y-45001808D01*
X4516068Y-45251101D01*
X4695392Y-45469608D01*
X4913899Y-45648932D01*
X5046858Y-45720000D01*
X4913899Y-45791068D01*
X4695392Y-45970392D01*
X4516068Y-46188899D01*
X4382818Y-46438192D01*
X4300764Y-46708691D01*
X4273057Y-46990000D01*
X4300764Y-47271309D01*
X4382818Y-47541808D01*
X4516068Y-47791101D01*
X4695392Y-48009608D01*
X4913899Y-48188932D01*
X5046858Y-48260000D01*
X4913899Y-48331068D01*
X4695392Y-48510392D01*
X4516068Y-48728899D01*
X4382818Y-48978192D01*
X4300764Y-49248691D01*
X4273057Y-49530000D01*
X4300764Y-49811309D01*
X4382818Y-50081808D01*
X4516068Y-50331101D01*
X4695392Y-50549608D01*
X4913899Y-50728932D01*
X5163192Y-50862182D01*
X5433691Y-50944236D01*
X5644508Y-50965000D01*
X5785492Y-50965000D01*
X5996309Y-50944236D01*
X6266808Y-50862182D01*
X6516101Y-50728932D01*
X6734608Y-50549608D01*
X6913932Y-50331101D01*
X7047182Y-50081808D01*
X7129236Y-49811309D01*
X7156943Y-49530000D01*
X7129236Y-49248691D01*
X7047182Y-48978192D01*
X6913932Y-48728899D01*
X6734608Y-48510392D01*
X6516101Y-48331068D01*
X6383142Y-48260000D01*
X6516101Y-48188932D01*
X6734608Y-48009608D01*
X6913932Y-47791101D01*
X7047182Y-47541808D01*
X7129236Y-47271309D01*
X7156943Y-46990000D01*
X7129236Y-46708691D01*
X7047182Y-46438192D01*
X6913932Y-46188899D01*
X6734608Y-45970392D01*
X6516101Y-45791068D01*
X6383142Y-45720000D01*
X6516101Y-45648932D01*
X6734608Y-45469608D01*
X6913932Y-45251101D01*
X7047182Y-45001808D01*
X7129236Y-44731309D01*
X7156943Y-44450000D01*
X7129236Y-44168691D01*
X7047182Y-43898192D01*
X6913932Y-43648899D01*
X6734608Y-43430392D01*
X6516101Y-43251068D01*
X6383142Y-43180000D01*
X6516101Y-43108932D01*
X6734608Y-42929608D01*
X6913932Y-42711101D01*
X7047182Y-42461808D01*
X7129236Y-42191309D01*
X7156943Y-41910000D01*
X7133534Y-41672333D01*
X12614440Y-36191429D01*
X12614449Y-36191418D01*
X13954439Y-34851430D01*
X13954448Y-34851419D01*
X14950868Y-33855000D01*
X17166715Y-33855000D01*
X17289744Y-33937205D01*
X17478102Y-34015226D01*
X17678061Y-34055000D01*
X17881939Y-34055000D01*
X18081898Y-34015226D01*
X18270256Y-33937205D01*
X18439774Y-33823937D01*
X18583937Y-33679774D01*
X18697205Y-33510256D01*
X18775226Y-33321898D01*
X18815000Y-33121939D01*
X18815000Y-32918061D01*
X18775226Y-32718102D01*
X18697205Y-32529744D01*
X18583937Y-32360226D01*
X18439774Y-32216063D01*
X18270256Y-32102795D01*
X18081898Y-32024774D01*
X17881939Y-31985000D01*
X17678061Y-31985000D01*
X17478102Y-32024774D01*
X17289744Y-32102795D01*
X17166715Y-32185000D01*
X14646015Y-32185000D01*
X14604999Y-32180960D01*
X14563983Y-32185000D01*
X14563981Y-32185000D01*
X14441311Y-32197082D01*
X14283913Y-32244828D01*
X14138854Y-32322364D01*
X14011709Y-32426709D01*
X13985558Y-32458574D01*
X12773581Y-33670552D01*
X12773570Y-33670561D01*
X11433582Y-35010551D01*
X11433571Y-35010560D01*
X7149518Y-39294614D01*
X7133534Y-39132334D01*
X7134437Y-39131431D01*
X7134442Y-39131425D01*
X14950868Y-31315000D01*
X17166715Y-31315000D01*
X17289744Y-31397205D01*
X17478102Y-31475226D01*
X17678061Y-31515000D01*
X17881939Y-31515000D01*
X18081898Y-31475226D01*
X18270256Y-31397205D01*
X18439774Y-31283937D01*
X18583937Y-31139774D01*
X18697205Y-30970256D01*
X18775226Y-30781898D01*
X18815000Y-30581939D01*
X18815000Y-30378061D01*
X18775226Y-30178102D01*
X18697205Y-29989744D01*
X18583937Y-29820226D01*
X18439774Y-29676063D01*
X18270256Y-29562795D01*
X18081898Y-29484774D01*
X17881939Y-29445000D01*
X17678061Y-29445000D01*
X17478102Y-29484774D01*
X17289744Y-29562795D01*
X17166715Y-29645000D01*
X14646018Y-29645000D01*
X14604999Y-29640960D01*
X14563981Y-29645000D01*
X14441311Y-29657082D01*
X14283913Y-29704828D01*
X14138854Y-29782364D01*
X14011709Y-29886709D01*
X13985559Y-29918573D01*
X7149518Y-36754615D01*
X7129236Y-36548691D01*
X7047182Y-36278192D01*
X6913932Y-36028899D01*
X6734608Y-35810392D01*
X6516101Y-35631068D01*
X6383142Y-35560000D01*
X6516101Y-35488932D01*
X6734608Y-35309608D01*
X6913932Y-35091101D01*
X7047182Y-34841808D01*
X7129236Y-34571309D01*
X7156943Y-34290000D01*
X7129236Y-34008691D01*
X7047182Y-33738192D01*
X6913932Y-33488899D01*
X6734608Y-33270392D01*
X6516101Y-33091068D01*
X6383142Y-33020000D01*
X6516101Y-32948932D01*
X6734608Y-32769608D01*
X6913932Y-32551101D01*
X7047182Y-32301808D01*
X7129236Y-32031309D01*
X7156943Y-31750000D01*
X7129236Y-31468691D01*
X7047182Y-31198192D01*
X6913932Y-30948899D01*
X6734608Y-30730392D01*
X6516101Y-30551068D01*
X6383142Y-30480000D01*
X6516101Y-30408932D01*
X6734608Y-30229608D01*
X6913932Y-30011101D01*
X7047182Y-29761808D01*
X7129236Y-29491309D01*
X7156943Y-29210000D01*
X7129236Y-28928691D01*
X7047182Y-28658192D01*
X6913932Y-28408899D01*
X6734608Y-28190392D01*
X6516101Y-28011068D01*
X6383142Y-27940000D01*
X6516101Y-27868932D01*
X6734608Y-27689608D01*
X6913932Y-27471101D01*
X7047182Y-27221808D01*
X7129236Y-26951309D01*
X7156943Y-26670000D01*
X7129236Y-26388691D01*
X7082615Y-26235000D01*
X17166715Y-26235000D01*
X17289744Y-26317205D01*
X17478102Y-26395226D01*
X17678061Y-26435000D01*
X17881939Y-26435000D01*
X18081898Y-26395226D01*
X18270256Y-26317205D01*
X18439774Y-26203937D01*
X18583937Y-26059774D01*
X18697205Y-25890256D01*
X18775226Y-25701898D01*
X18815000Y-25501939D01*
X18815000Y-25298061D01*
X18775226Y-25098102D01*
X18697205Y-24909744D01*
X18583937Y-24740226D01*
X18439774Y-24596063D01*
X18270256Y-24482795D01*
X18081898Y-24404774D01*
X17881939Y-24365000D01*
X17678061Y-24365000D01*
X17478102Y-24404774D01*
X17289744Y-24482795D01*
X17166715Y-24565000D01*
X7330868Y-24565000D01*
X7133534Y-24367667D01*
X7156943Y-24130000D01*
X19513057Y-24130000D01*
X19540764Y-24411309D01*
X19622818Y-24681808D01*
X19756068Y-24931101D01*
X19935392Y-25149608D01*
X20153899Y-25328932D01*
X20286858Y-25400000D01*
X20153899Y-25471068D01*
X19935392Y-25650392D01*
X19756068Y-25868899D01*
X19622818Y-26118192D01*
X19540764Y-26388691D01*
X19513057Y-26670000D01*
X19540764Y-26951309D01*
X19622818Y-27221808D01*
X19756068Y-27471101D01*
X19935392Y-27689608D01*
X20153899Y-27868932D01*
X20286858Y-27940000D01*
X20153899Y-28011068D01*
X19935392Y-28190392D01*
X19756068Y-28408899D01*
X19622818Y-28658192D01*
X19540764Y-28928691D01*
X19513057Y-29210000D01*
X19540764Y-29491309D01*
X19622818Y-29761808D01*
X19756068Y-30011101D01*
X19935392Y-30229608D01*
X20153899Y-30408932D01*
X20286858Y-30480000D01*
X20153899Y-30551068D01*
X19935392Y-30730392D01*
X19756068Y-30948899D01*
X19622818Y-31198192D01*
X19540764Y-31468691D01*
X19513057Y-31750000D01*
X19540764Y-32031309D01*
X19622818Y-32301808D01*
X19756068Y-32551101D01*
X19935392Y-32769608D01*
X20153899Y-32948932D01*
X20286858Y-33020000D01*
X20153899Y-33091068D01*
X19935392Y-33270392D01*
X19756068Y-33488899D01*
X19622818Y-33738192D01*
X19540764Y-34008691D01*
X19513057Y-34290000D01*
X19540764Y-34571309D01*
X19622818Y-34841808D01*
X19756068Y-35091101D01*
X19935392Y-35309608D01*
X20153899Y-35488932D01*
X20286858Y-35560000D01*
X20153899Y-35631068D01*
X19935392Y-35810392D01*
X19756068Y-36028899D01*
X19622818Y-36278192D01*
X19540764Y-36548691D01*
X19513057Y-36830000D01*
X19540764Y-37111309D01*
X19622818Y-37381808D01*
X19756068Y-37631101D01*
X19935392Y-37849608D01*
X20153899Y-38028932D01*
X20286858Y-38100000D01*
X20153899Y-38171068D01*
X19935392Y-38350392D01*
X19756068Y-38568899D01*
X19622818Y-38818192D01*
X19540764Y-39088691D01*
X19513057Y-39370000D01*
X19540764Y-39651309D01*
X19622818Y-39921808D01*
X19756068Y-40171101D01*
X19935392Y-40389608D01*
X20153899Y-40568932D01*
X20286858Y-40640000D01*
X20153899Y-40711068D01*
X19935392Y-40890392D01*
X19756068Y-41108899D01*
X19622818Y-41358192D01*
X19540764Y-41628691D01*
X19513057Y-41910000D01*
X19540764Y-42191309D01*
X19622818Y-42461808D01*
X19756068Y-42711101D01*
X19935392Y-42929608D01*
X20153899Y-43108932D01*
X20286858Y-43180000D01*
X20153899Y-43251068D01*
X19935392Y-43430392D01*
X19756068Y-43648899D01*
X19622818Y-43898192D01*
X19540764Y-44168691D01*
X19513057Y-44450000D01*
X19540764Y-44731309D01*
X19622818Y-45001808D01*
X19756068Y-45251101D01*
X19935392Y-45469608D01*
X20153899Y-45648932D01*
X20286858Y-45720000D01*
X20153899Y-45791068D01*
X19935392Y-45970392D01*
X19756068Y-46188899D01*
X19622818Y-46438192D01*
X19540764Y-46708691D01*
X19513057Y-46990000D01*
X19540764Y-47271309D01*
X19622818Y-47541808D01*
X19756068Y-47791101D01*
X19935392Y-48009608D01*
X20153899Y-48188932D01*
X20286858Y-48260000D01*
X20153899Y-48331068D01*
X19935392Y-48510392D01*
X19756068Y-48728899D01*
X19622818Y-48978192D01*
X19540764Y-49248691D01*
X19513057Y-49530000D01*
X19540764Y-49811309D01*
X19622818Y-50081808D01*
X19756068Y-50331101D01*
X19935392Y-50549608D01*
X20153899Y-50728932D01*
X20403192Y-50862182D01*
X20673691Y-50944236D01*
X20884508Y-50965000D01*
X21025492Y-50965000D01*
X21236309Y-50944236D01*
X21506808Y-50862182D01*
X21756101Y-50728932D01*
X21974608Y-50549608D01*
X22153932Y-50331101D01*
X22287182Y-50081808D01*
X22369236Y-49811309D01*
X22396943Y-49530000D01*
X22369236Y-49248691D01*
X22287182Y-48978192D01*
X22153932Y-48728899D01*
X21974608Y-48510392D01*
X21756101Y-48331068D01*
X21623142Y-48260000D01*
X21756101Y-48188932D01*
X21974608Y-48009608D01*
X22153932Y-47791101D01*
X22287182Y-47541808D01*
X22369236Y-47271309D01*
X22396943Y-46990000D01*
X22369236Y-46708691D01*
X22287182Y-46438192D01*
X22153932Y-46188899D01*
X21974608Y-45970392D01*
X21756101Y-45791068D01*
X21623142Y-45720000D01*
X21756101Y-45648932D01*
X21974608Y-45469608D01*
X22153932Y-45251101D01*
X22287182Y-45001808D01*
X22369236Y-44731309D01*
X22396943Y-44450000D01*
X22369236Y-44168691D01*
X22287182Y-43898192D01*
X22153932Y-43648899D01*
X21974608Y-43430392D01*
X21756101Y-43251068D01*
X21623142Y-43180000D01*
X21756101Y-43108932D01*
X21974608Y-42929608D01*
X22153932Y-42711101D01*
X22287182Y-42461808D01*
X22369236Y-42191309D01*
X22396943Y-41910000D01*
X22369236Y-41628691D01*
X22287182Y-41358192D01*
X22153932Y-41108899D01*
X21974608Y-40890392D01*
X21756101Y-40711068D01*
X21623142Y-40640000D01*
X21756101Y-40568932D01*
X21974608Y-40389608D01*
X22153932Y-40171101D01*
X22287182Y-39921808D01*
X22369236Y-39651309D01*
X22396943Y-39370000D01*
X22369236Y-39088691D01*
X22287182Y-38818192D01*
X22153932Y-38568899D01*
X21974608Y-38350392D01*
X21756101Y-38171068D01*
X21623142Y-38100000D01*
X21756101Y-38028932D01*
X21974608Y-37849608D01*
X22153932Y-37631101D01*
X22287182Y-37381808D01*
X22369236Y-37111309D01*
X22396943Y-36830000D01*
X22369236Y-36548691D01*
X22287182Y-36278192D01*
X22153932Y-36028899D01*
X21974608Y-35810392D01*
X21756101Y-35631068D01*
X21623142Y-35560000D01*
X21756101Y-35488932D01*
X21974608Y-35309608D01*
X22153932Y-35091101D01*
X22287182Y-34841808D01*
X22369236Y-34571309D01*
X22396943Y-34290000D01*
X22369236Y-34008691D01*
X22287182Y-33738192D01*
X22153932Y-33488899D01*
X21974608Y-33270392D01*
X21756101Y-33091068D01*
X21623142Y-33020000D01*
X21756101Y-32948932D01*
X21974608Y-32769608D01*
X22153932Y-32551101D01*
X22287182Y-32301808D01*
X22369236Y-32031309D01*
X22396943Y-31750000D01*
X22369236Y-31468691D01*
X22287182Y-31198192D01*
X22153932Y-30948899D01*
X21974608Y-30730392D01*
X21756101Y-30551068D01*
X21623142Y-30480000D01*
X21756101Y-30408932D01*
X21974608Y-30229608D01*
X22153932Y-30011101D01*
X22287182Y-29761808D01*
X22369236Y-29491309D01*
X22396943Y-29210000D01*
X22369236Y-28928691D01*
X22287182Y-28658192D01*
X22153932Y-28408899D01*
X21974608Y-28190392D01*
X21756101Y-28011068D01*
X21623142Y-27940000D01*
X21756101Y-27868932D01*
X21974608Y-27689608D01*
X22153932Y-27471101D01*
X22287182Y-27221808D01*
X22369236Y-26951309D01*
X22396943Y-26670000D01*
X22369236Y-26388691D01*
X22287182Y-26118192D01*
X22153932Y-25868899D01*
X21974608Y-25650392D01*
X21756101Y-25471068D01*
X21623142Y-25400000D01*
X21756101Y-25328932D01*
X21974608Y-25149608D01*
X22153932Y-24931101D01*
X22287182Y-24681808D01*
X22369236Y-24411309D01*
X22396943Y-24130000D01*
X22369236Y-23848691D01*
X22287182Y-23578192D01*
X22153932Y-23328899D01*
X21974608Y-23110392D01*
X21756101Y-22931068D01*
X21618318Y-22857421D01*
X21810131Y-22742385D01*
X22018519Y-22553414D01*
X22186037Y-22327420D01*
X22306246Y-22073087D01*
X22346904Y-21939039D01*
X22224915Y-21717000D01*
X21082000Y-21717000D01*
X21082000Y-21737000D01*
X20828000Y-21737000D01*
X20828000Y-21717000D01*
X19685085Y-21717000D01*
X19563096Y-21939039D01*
X19603754Y-22073087D01*
X19723963Y-22327420D01*
X19891481Y-22553414D01*
X20099869Y-22742385D01*
X20291682Y-22857421D01*
X20153899Y-22931068D01*
X19935392Y-23110392D01*
X19756068Y-23328899D01*
X19622818Y-23578192D01*
X19540764Y-23848691D01*
X19513057Y-24130000D01*
X7156943Y-24130000D01*
X7129236Y-23848691D01*
X7047182Y-23578192D01*
X6913932Y-23328899D01*
X6734608Y-23110392D01*
X6516101Y-22931068D01*
X6383142Y-22860000D01*
X6516101Y-22788932D01*
X6734608Y-22609608D01*
X6913932Y-22391101D01*
X7047182Y-22141808D01*
X7129236Y-21871309D01*
X7156943Y-21590000D01*
X7129236Y-21308691D01*
X7047182Y-21038192D01*
X6913932Y-20788899D01*
X6734608Y-20570392D01*
X6516101Y-20391068D01*
X6383142Y-20320000D01*
X6516101Y-20248932D01*
X6734608Y-20069608D01*
X6913932Y-19851101D01*
X7047182Y-19601808D01*
X7129236Y-19331309D01*
X7156943Y-19050000D01*
X7129236Y-18768691D01*
X7047182Y-18498192D01*
X6913932Y-18248899D01*
X6734608Y-18030392D01*
X6516101Y-17851068D01*
X6383142Y-17780000D01*
X6516101Y-17708932D01*
X6734608Y-17529608D01*
X6913932Y-17311101D01*
X7047182Y-17061808D01*
X7129236Y-16791309D01*
X7156943Y-16510000D01*
X7129236Y-16228691D01*
X7047182Y-15958192D01*
X6913932Y-15708899D01*
X6734608Y-15490392D01*
X6621518Y-15397581D01*
X6639482Y-15395812D01*
X6759180Y-15359502D01*
X6869494Y-15300537D01*
X6966185Y-15221185D01*
X7045537Y-15124494D01*
X7104502Y-15014180D01*
X7140812Y-14894482D01*
X7153072Y-14770000D01*
X7153072Y-13170000D01*
X7140812Y-13045518D01*
X7104502Y-12925820D01*
X7045537Y-12815506D01*
X6966185Y-12718815D01*
X6869494Y-12639463D01*
X6759180Y-12580498D01*
X6639482Y-12544188D01*
X6515000Y-12531928D01*
X5349999Y-12531928D01*
X5349999Y-9165868D01*
X9566928Y-4948940D01*
X9566928Y-5336250D01*
X9583392Y-5503408D01*
X9632150Y-5664142D01*
X9711329Y-5812275D01*
X9807500Y-5929461D01*
X9807501Y-13141471D01*
X9803460Y-13182500D01*
X9819582Y-13346188D01*
X9867328Y-13503586D01*
X9867329Y-13503587D01*
X9944865Y-13648646D01*
X10049210Y-13775791D01*
X10081074Y-13801941D01*
X13350563Y-17071432D01*
X13376709Y-17103291D01*
X13503854Y-17207636D01*
X13648913Y-17285172D01*
X13806311Y-17332918D01*
X13928981Y-17345000D01*
X13928982Y-17345000D01*
X13970000Y-17349040D01*
X14011018Y-17345000D01*
X19783888Y-17345000D01*
X19935392Y-17529608D01*
X20153899Y-17708932D01*
X20286858Y-17780000D01*
X20153899Y-17851068D01*
X19935392Y-18030392D01*
X19756068Y-18248899D01*
X19622818Y-18498192D01*
X19540764Y-18768691D01*
X19513057Y-19050000D01*
X19540764Y-19331309D01*
X19622818Y-19601808D01*
X19756068Y-19851101D01*
X19935392Y-20069608D01*
X20153899Y-20248932D01*
X20291682Y-20322579D01*
X20099869Y-20437615D01*
X19891481Y-20626586D01*
X19723963Y-20852580D01*
X19603754Y-21106913D01*
X19563096Y-21240961D01*
X19685085Y-21463000D01*
X20828000Y-21463000D01*
X20828000Y-21443000D01*
X21082000Y-21443000D01*
X21082000Y-21463000D01*
X22224915Y-21463000D01*
X22346904Y-21240961D01*
X22306246Y-21106913D01*
X22186037Y-20852580D01*
X22018519Y-20626586D01*
X21810131Y-20437615D01*
X21618318Y-20322579D01*
X21756101Y-20248932D01*
X21974608Y-20069608D01*
X22153932Y-19851101D01*
X22287182Y-19601808D01*
X22369236Y-19331309D01*
X22396943Y-19050000D01*
X22369236Y-18768691D01*
X22287182Y-18498192D01*
X22153932Y-18248899D01*
X21974608Y-18030392D01*
X21756101Y-17851068D01*
X21623142Y-17780000D01*
X21756101Y-17708932D01*
X21974608Y-17529608D01*
X22153932Y-17311101D01*
X22287182Y-17061808D01*
X22369236Y-16791309D01*
X22396943Y-16510000D01*
X22369236Y-16228691D01*
X22287182Y-15958192D01*
X22153932Y-15708899D01*
X21974608Y-15490392D01*
X21756101Y-15311068D01*
X21623142Y-15240000D01*
X21756101Y-15168932D01*
X21974608Y-14989608D01*
X22153932Y-14771101D01*
X22287182Y-14521808D01*
X22369236Y-14251309D01*
X22396943Y-13970000D01*
X22369236Y-13688691D01*
X22287182Y-13418192D01*
X22153932Y-13168899D01*
X21974608Y-12950392D01*
X21756101Y-12771068D01*
X21506808Y-12637818D01*
X21236309Y-12555764D01*
X21025492Y-12535000D01*
X20884508Y-12535000D01*
X20673691Y-12555764D01*
X20403192Y-12637818D01*
X20153899Y-12771068D01*
X19935392Y-12950392D01*
X19756068Y-13168899D01*
X19622818Y-13418192D01*
X19540764Y-13688691D01*
X19513057Y-13970000D01*
X19540764Y-14251309D01*
X19622818Y-14521808D01*
X19756068Y-14771101D01*
X19935392Y-14989608D01*
X20153899Y-15168932D01*
X20286858Y-15240000D01*
X20153899Y-15311068D01*
X19935392Y-15490392D01*
X19783888Y-15675000D01*
X14315869Y-15675000D01*
X11477500Y-12836633D01*
X11477500Y-9601565D01*
X30574040Y-9601565D01*
X30641020Y-9841656D01*
X30890048Y-9958756D01*
X31157135Y-10025023D01*
X31432017Y-10037910D01*
X31704133Y-9996922D01*
X31963023Y-9903636D01*
X32078980Y-9841656D01*
X32145960Y-9601565D01*
X31360000Y-8815605D01*
X30574040Y-9601565D01*
X11477500Y-9601565D01*
X11477500Y-8708017D01*
X29958090Y-8708017D01*
X29999078Y-8980133D01*
X30092364Y-9239023D01*
X30154344Y-9354980D01*
X30394435Y-9421960D01*
X31180395Y-8636000D01*
X31539605Y-8636000D01*
X32325565Y-9421960D01*
X32565656Y-9354980D01*
X32682756Y-9105952D01*
X32749023Y-8838865D01*
X32761910Y-8563983D01*
X32720922Y-8291867D01*
X32627636Y-8032977D01*
X32565656Y-7917020D01*
X32325565Y-7850040D01*
X31539605Y-8636000D01*
X31180395Y-8636000D01*
X30394435Y-7850040D01*
X30154344Y-7917020D01*
X30037244Y-8166048D01*
X29970977Y-8433135D01*
X29958090Y-8708017D01*
X11477500Y-8708017D01*
X11477500Y-7670435D01*
X30574040Y-7670435D01*
X31360000Y-8456395D01*
X32145960Y-7670435D01*
X32078980Y-7430344D01*
X31952261Y-7370757D01*
X31972023Y-7363636D01*
X32087980Y-7301656D01*
X32154960Y-7061565D01*
X31369000Y-6275605D01*
X30583040Y-7061565D01*
X30650020Y-7301656D01*
X30776739Y-7361243D01*
X30756977Y-7368364D01*
X30641020Y-7430344D01*
X30574040Y-7670435D01*
X11477500Y-7670435D01*
X11477500Y-6011556D01*
X11522725Y-6048671D01*
X11670858Y-6127850D01*
X11831592Y-6176608D01*
X11998750Y-6193072D01*
X12436250Y-6193072D01*
X12603408Y-6176608D01*
X12764142Y-6127850D01*
X12912275Y-6048671D01*
X13042115Y-5942115D01*
X13064368Y-5915000D01*
X24908632Y-5915000D01*
X24930885Y-5942115D01*
X25060725Y-6048671D01*
X25208858Y-6127850D01*
X25369592Y-6176608D01*
X25536750Y-6193072D01*
X25974250Y-6193072D01*
X26141408Y-6176608D01*
X26302142Y-6127850D01*
X26450275Y-6048671D01*
X26471930Y-6030900D01*
X26538506Y-6085537D01*
X26648820Y-6144502D01*
X26768518Y-6180812D01*
X26893000Y-6193072D01*
X27044750Y-6190000D01*
X27203500Y-6031250D01*
X27203500Y-5207000D01*
X27457500Y-5207000D01*
X27457500Y-6031250D01*
X27616250Y-6190000D01*
X27768000Y-6193072D01*
X27892482Y-6180812D01*
X27934661Y-6168017D01*
X29967090Y-6168017D01*
X30008078Y-6440133D01*
X30101364Y-6699023D01*
X30163344Y-6814980D01*
X30403435Y-6881960D01*
X31189395Y-6096000D01*
X31548605Y-6096000D01*
X32334565Y-6881960D01*
X32574656Y-6814980D01*
X32691756Y-6565952D01*
X32758023Y-6298865D01*
X32770910Y-6023983D01*
X32729922Y-5751867D01*
X32636636Y-5492977D01*
X32574656Y-5377020D01*
X32334565Y-5310040D01*
X31548605Y-6096000D01*
X31189395Y-6096000D01*
X30403435Y-5310040D01*
X30163344Y-5377020D01*
X30046244Y-5626048D01*
X29979977Y-5893135D01*
X29967090Y-6168017D01*
X27934661Y-6168017D01*
X28012180Y-6144502D01*
X28122494Y-6085537D01*
X28219185Y-6006185D01*
X28298537Y-5909494D01*
X28357502Y-5799180D01*
X28393812Y-5679482D01*
X28406072Y-5555000D01*
X28403000Y-5365750D01*
X28244250Y-5207000D01*
X27457500Y-5207000D01*
X27203500Y-5207000D01*
X27183500Y-5207000D01*
X27183500Y-5130435D01*
X30583040Y-5130435D01*
X31369000Y-5916395D01*
X32154960Y-5130435D01*
X32087980Y-4890344D01*
X31838952Y-4773244D01*
X31571865Y-4706977D01*
X31296983Y-4694090D01*
X31024867Y-4735078D01*
X30765977Y-4828364D01*
X30650020Y-4890344D01*
X30583040Y-5130435D01*
X27183500Y-5130435D01*
X27183500Y-4953000D01*
X27203500Y-4953000D01*
X27203500Y-4128750D01*
X27457500Y-4128750D01*
X27457500Y-4953000D01*
X28244250Y-4953000D01*
X28403000Y-4794250D01*
X28406072Y-4605000D01*
X28393812Y-4480518D01*
X28357502Y-4360820D01*
X28298537Y-4250506D01*
X28219185Y-4153815D01*
X28122494Y-4074463D01*
X28012180Y-4015498D01*
X27892482Y-3979188D01*
X27768000Y-3966928D01*
X27616250Y-3970000D01*
X27457500Y-4128750D01*
X27203500Y-4128750D01*
X27044750Y-3970000D01*
X26893000Y-3966928D01*
X26768518Y-3979188D01*
X26648820Y-4015498D01*
X26538506Y-4074463D01*
X26471930Y-4129100D01*
X26450275Y-4111329D01*
X26302142Y-4032150D01*
X26141408Y-3983392D01*
X25974250Y-3966928D01*
X25536750Y-3966928D01*
X25369592Y-3983392D01*
X25208858Y-4032150D01*
X25060725Y-4111329D01*
X24930885Y-4217885D01*
X24908632Y-4245000D01*
X13064368Y-4245000D01*
X13042115Y-4217885D01*
X12912275Y-4111329D01*
X12764142Y-4032150D01*
X12603408Y-3983392D01*
X12436250Y-3966928D01*
X11998750Y-3966928D01*
X11831592Y-3983392D01*
X11670858Y-4032150D01*
X11522725Y-4111329D01*
X11430000Y-4187426D01*
X11337275Y-4111329D01*
X11189142Y-4032150D01*
X11028408Y-3983392D01*
X10861250Y-3966928D01*
X10548941Y-3966928D01*
X10862966Y-3652903D01*
X11028408Y-3636608D01*
X11189142Y-3587850D01*
X11337275Y-3508671D01*
X11430000Y-3432574D01*
X11522725Y-3508671D01*
X11670858Y-3587850D01*
X11831592Y-3636608D01*
X11998750Y-3653072D01*
X12436250Y-3653072D01*
X12603408Y-3636608D01*
X12764142Y-3587850D01*
X12912275Y-3508671D01*
X13042115Y-3402115D01*
X13064368Y-3375000D01*
X24883132Y-3375000D01*
X24905385Y-3402115D01*
X25035225Y-3508671D01*
X25183358Y-3587850D01*
X25344092Y-3636608D01*
X25511250Y-3653072D01*
X25948750Y-3653072D01*
X26115908Y-3636608D01*
X26276642Y-3587850D01*
X26424775Y-3508671D01*
X26446430Y-3490900D01*
X26513006Y-3545537D01*
X26623320Y-3604502D01*
X26743018Y-3640812D01*
X26867500Y-3653072D01*
X27019250Y-3650000D01*
X27178000Y-3491250D01*
X27178000Y-2667000D01*
X27432000Y-2667000D01*
X27432000Y-3491250D01*
X27590750Y-3650000D01*
X27742500Y-3653072D01*
X27866982Y-3640812D01*
X27986680Y-3604502D01*
X28096994Y-3545537D01*
X28193685Y-3466185D01*
X28273037Y-3369494D01*
X28332002Y-3259180D01*
X28368312Y-3139482D01*
X28380572Y-3015000D01*
X28377500Y-2825750D01*
X28218750Y-2667000D01*
X27432000Y-2667000D01*
X27178000Y-2667000D01*
X27158000Y-2667000D01*
X27158000Y-2413000D01*
X27178000Y-2413000D01*
X27178000Y-1588750D01*
X27432000Y-1588750D01*
X27432000Y-2413000D01*
X28218750Y-2413000D01*
X28377500Y-2254250D01*
X28380572Y-2065000D01*
X28368312Y-1940518D01*
X28332002Y-1820820D01*
X28273037Y-1710506D01*
X28193685Y-1613815D01*
X28096994Y-1534463D01*
X27986680Y-1475498D01*
X27866982Y-1439188D01*
X27742500Y-1426928D01*
X27590750Y-1430000D01*
X27432000Y-1588750D01*
X27178000Y-1588750D01*
X27019250Y-1430000D01*
X26867500Y-1426928D01*
X26743018Y-1439188D01*
X26623320Y-1475498D01*
X26513006Y-1534463D01*
X26446430Y-1589100D01*
X26424775Y-1571329D01*
X26276642Y-1492150D01*
X26115908Y-1443392D01*
X25948750Y-1426928D01*
X25511250Y-1426928D01*
X25344092Y-1443392D01*
X25183358Y-1492150D01*
X25035225Y-1571329D01*
X24905385Y-1677885D01*
X24883132Y-1705000D01*
X13064368Y-1705000D01*
X13042115Y-1677885D01*
X12912275Y-1571329D01*
X12764142Y-1492150D01*
X12603408Y-1443392D01*
X12436250Y-1426928D01*
X11998750Y-1426928D01*
X11831592Y-1443392D01*
X11670858Y-1492150D01*
X11522725Y-1571329D01*
X11430000Y-1647426D01*
X11337275Y-1571329D01*
X11189142Y-1492150D01*
X11028408Y-1443392D01*
X10861250Y-1426928D01*
X10423750Y-1426928D01*
X10256592Y-1443392D01*
X10095858Y-1492150D01*
X9947725Y-1571329D01*
X9817885Y-1677885D01*
X9711329Y-1807725D01*
X9632150Y-1955858D01*
X9583392Y-2116592D01*
X9566928Y-2283750D01*
X9566928Y-2587203D01*
X3953573Y-8200560D01*
X3921709Y-8226710D01*
X3895561Y-8258572D01*
X3817363Y-8353856D01*
X3739827Y-8498915D01*
X3692081Y-8656313D01*
X3675959Y-8820001D01*
X-3150000Y-8820001D01*
X-3150000Y220128D01*
X-2235000Y220128D01*
X-2235000Y-220128D01*
X-2149110Y-651925D01*
X-1980631Y-1058669D01*
X-1736038Y-1424729D01*
X-1424729Y-1736038D01*
X-1058669Y-1980631D01*
X-651925Y-2149110D01*
X-220128Y-2235000D01*
X220128Y-2235000D01*
X651925Y-2149110D01*
X1058669Y-1980631D01*
X1424729Y-1736038D01*
X1736038Y-1424729D01*
X1980631Y-1058669D01*
X2149110Y-651925D01*
X2235000Y-220128D01*
X2235000Y220128D01*
X2149110Y651925D01*
X1980631Y1058669D01*
X1736038Y1424729D01*
X1424729Y1736038D01*
X1058669Y1980631D01*
X651925Y2149110D01*
X220128Y2235000D01*
X-220128Y2235000D01*
X-651925Y2149110D01*
X-1058669Y1980631D01*
X-1424729Y1736038D01*
X-1736038Y1424729D01*
X-1980631Y1058669D01*
X-2149110Y651925D01*
X-2235000Y220128D01*
X-3150000Y220128D01*
X-3150000Y3150000D01*
X40513000Y3150000D01*
X40513000Y-11938000D01*
X40513000Y-11938000D01*
G37*
X40513000Y-11938000D02*
X26035000Y-11938000D01*
X26010224Y-11940440D01*
X25986399Y-11947667D01*
X25964443Y-11959403D01*
X25945197Y-11975197D01*
X25929403Y-11994443D01*
X25917667Y-12016399D01*
X25910440Y-12040224D01*
X25908000Y-12065000D01*
X25908000Y-23428289D01*
X25866063Y-23470226D01*
X25752795Y-23639744D01*
X25674774Y-23828102D01*
X25635000Y-24028061D01*
X25635000Y-24231939D01*
X25674774Y-24431898D01*
X25752795Y-24620256D01*
X25866063Y-24789774D01*
X25908000Y-24831711D01*
X25908000Y-26603289D01*
X25866063Y-26645226D01*
X25752795Y-26814744D01*
X25674774Y-27003102D01*
X25635000Y-27203061D01*
X25635000Y-27406939D01*
X25674774Y-27606898D01*
X25752795Y-27795256D01*
X25866063Y-27964774D01*
X25908000Y-28006711D01*
X25908000Y-29143289D01*
X25866063Y-29185226D01*
X25752795Y-29354744D01*
X25674774Y-29543102D01*
X25635000Y-29743061D01*
X25635000Y-29946939D01*
X25674774Y-30146898D01*
X25752795Y-30335256D01*
X25866063Y-30504774D01*
X25908000Y-30546711D01*
X25908000Y-53950000D01*
X-3150000Y-53950000D01*
X-3150000Y-50579872D01*
X-2235000Y-50579872D01*
X-2235000Y-51020128D01*
X-2149110Y-51451925D01*
X-1980631Y-51858669D01*
X-1736038Y-52224729D01*
X-1424729Y-52536038D01*
X-1058669Y-52780631D01*
X-651925Y-52949110D01*
X-220128Y-53035000D01*
X220128Y-53035000D01*
X651925Y-52949110D01*
X1058669Y-52780631D01*
X1424729Y-52536038D01*
X1736038Y-52224729D01*
X1980631Y-51858669D01*
X2149110Y-51451925D01*
X2235000Y-51020128D01*
X2235000Y-50579872D01*
X2149110Y-50148075D01*
X1980631Y-49741331D01*
X1736038Y-49375271D01*
X1424729Y-49063962D01*
X1058669Y-48819369D01*
X651925Y-48650890D01*
X220128Y-48565000D01*
X-220128Y-48565000D01*
X-651925Y-48650890D01*
X-1058669Y-48819369D01*
X-1424729Y-49063962D01*
X-1736038Y-49375271D01*
X-1980631Y-49741331D01*
X-2149110Y-50148075D01*
X-2235000Y-50579872D01*
X-3150000Y-50579872D01*
X-3150000Y-8820001D01*
X3675959Y-8820001D01*
X3680000Y-8861030D01*
X3679999Y-30508981D01*
X3675959Y-30549999D01*
X3683271Y-30624236D01*
X3692081Y-30713687D01*
X3739827Y-30871085D01*
X3817363Y-31016144D01*
X3921708Y-31143290D01*
X3953577Y-31169444D01*
X4296466Y-31512333D01*
X4273057Y-31750000D01*
X4300764Y-32031309D01*
X4382818Y-32301808D01*
X4516068Y-32551101D01*
X4695392Y-32769608D01*
X4913899Y-32948932D01*
X5046858Y-33020000D01*
X4913899Y-33091068D01*
X4695392Y-33270392D01*
X4516068Y-33488899D01*
X4382818Y-33738192D01*
X4300764Y-34008691D01*
X4273057Y-34290000D01*
X4300764Y-34571309D01*
X4382818Y-34841808D01*
X4516068Y-35091101D01*
X4695392Y-35309608D01*
X4913899Y-35488932D01*
X5046858Y-35560000D01*
X4913899Y-35631068D01*
X4695392Y-35810392D01*
X4516068Y-36028899D01*
X4382818Y-36278192D01*
X4300764Y-36548691D01*
X4273057Y-36830000D01*
X4300764Y-37111309D01*
X4382818Y-37381808D01*
X4516068Y-37631101D01*
X4695392Y-37849608D01*
X4913899Y-38028932D01*
X5046858Y-38100000D01*
X4913899Y-38171068D01*
X4695392Y-38350392D01*
X4516068Y-38568899D01*
X4382818Y-38818192D01*
X4300764Y-39088691D01*
X4273057Y-39370000D01*
X4300764Y-39651309D01*
X4382818Y-39921808D01*
X4516068Y-40171101D01*
X4695392Y-40389608D01*
X4913899Y-40568932D01*
X5046858Y-40640000D01*
X4913899Y-40711068D01*
X4695392Y-40890392D01*
X4516068Y-41108899D01*
X4382818Y-41358192D01*
X4300764Y-41628691D01*
X4273057Y-41910000D01*
X4300764Y-42191309D01*
X4382818Y-42461808D01*
X4516068Y-42711101D01*
X4695392Y-42929608D01*
X4913899Y-43108932D01*
X5046858Y-43180000D01*
X4913899Y-43251068D01*
X4695392Y-43430392D01*
X4516068Y-43648899D01*
X4382818Y-43898192D01*
X4300764Y-44168691D01*
X4273057Y-44450000D01*
X4300764Y-44731309D01*
X4382818Y-45001808D01*
X4516068Y-45251101D01*
X4695392Y-45469608D01*
X4913899Y-45648932D01*
X5046858Y-45720000D01*
X4913899Y-45791068D01*
X4695392Y-45970392D01*
X4516068Y-46188899D01*
X4382818Y-46438192D01*
X4300764Y-46708691D01*
X4273057Y-46990000D01*
X4300764Y-47271309D01*
X4382818Y-47541808D01*
X4516068Y-47791101D01*
X4695392Y-48009608D01*
X4913899Y-48188932D01*
X5046858Y-48260000D01*
X4913899Y-48331068D01*
X4695392Y-48510392D01*
X4516068Y-48728899D01*
X4382818Y-48978192D01*
X4300764Y-49248691D01*
X4273057Y-49530000D01*
X4300764Y-49811309D01*
X4382818Y-50081808D01*
X4516068Y-50331101D01*
X4695392Y-50549608D01*
X4913899Y-50728932D01*
X5163192Y-50862182D01*
X5433691Y-50944236D01*
X5644508Y-50965000D01*
X5785492Y-50965000D01*
X5996309Y-50944236D01*
X6266808Y-50862182D01*
X6516101Y-50728932D01*
X6734608Y-50549608D01*
X6913932Y-50331101D01*
X7047182Y-50081808D01*
X7129236Y-49811309D01*
X7156943Y-49530000D01*
X7129236Y-49248691D01*
X7047182Y-48978192D01*
X6913932Y-48728899D01*
X6734608Y-48510392D01*
X6516101Y-48331068D01*
X6383142Y-48260000D01*
X6516101Y-48188932D01*
X6734608Y-48009608D01*
X6913932Y-47791101D01*
X7047182Y-47541808D01*
X7129236Y-47271309D01*
X7156943Y-46990000D01*
X7129236Y-46708691D01*
X7047182Y-46438192D01*
X6913932Y-46188899D01*
X6734608Y-45970392D01*
X6516101Y-45791068D01*
X6383142Y-45720000D01*
X6516101Y-45648932D01*
X6734608Y-45469608D01*
X6913932Y-45251101D01*
X7047182Y-45001808D01*
X7129236Y-44731309D01*
X7156943Y-44450000D01*
X7129236Y-44168691D01*
X7047182Y-43898192D01*
X6913932Y-43648899D01*
X6734608Y-43430392D01*
X6516101Y-43251068D01*
X6383142Y-43180000D01*
X6516101Y-43108932D01*
X6734608Y-42929608D01*
X6913932Y-42711101D01*
X7047182Y-42461808D01*
X7129236Y-42191309D01*
X7156943Y-41910000D01*
X7133534Y-41672333D01*
X12614440Y-36191429D01*
X12614449Y-36191418D01*
X13954439Y-34851430D01*
X13954448Y-34851419D01*
X14950868Y-33855000D01*
X17166715Y-33855000D01*
X17289744Y-33937205D01*
X17478102Y-34015226D01*
X17678061Y-34055000D01*
X17881939Y-34055000D01*
X18081898Y-34015226D01*
X18270256Y-33937205D01*
X18439774Y-33823937D01*
X18583937Y-33679774D01*
X18697205Y-33510256D01*
X18775226Y-33321898D01*
X18815000Y-33121939D01*
X18815000Y-32918061D01*
X18775226Y-32718102D01*
X18697205Y-32529744D01*
X18583937Y-32360226D01*
X18439774Y-32216063D01*
X18270256Y-32102795D01*
X18081898Y-32024774D01*
X17881939Y-31985000D01*
X17678061Y-31985000D01*
X17478102Y-32024774D01*
X17289744Y-32102795D01*
X17166715Y-32185000D01*
X14646015Y-32185000D01*
X14604999Y-32180960D01*
X14563983Y-32185000D01*
X14563981Y-32185000D01*
X14441311Y-32197082D01*
X14283913Y-32244828D01*
X14138854Y-32322364D01*
X14011709Y-32426709D01*
X13985558Y-32458574D01*
X12773581Y-33670552D01*
X12773570Y-33670561D01*
X11433582Y-35010551D01*
X11433571Y-35010560D01*
X7149518Y-39294614D01*
X7133534Y-39132334D01*
X7134437Y-39131431D01*
X7134442Y-39131425D01*
X14950868Y-31315000D01*
X17166715Y-31315000D01*
X17289744Y-31397205D01*
X17478102Y-31475226D01*
X17678061Y-31515000D01*
X17881939Y-31515000D01*
X18081898Y-31475226D01*
X18270256Y-31397205D01*
X18439774Y-31283937D01*
X18583937Y-31139774D01*
X18697205Y-30970256D01*
X18775226Y-30781898D01*
X18815000Y-30581939D01*
X18815000Y-30378061D01*
X18775226Y-30178102D01*
X18697205Y-29989744D01*
X18583937Y-29820226D01*
X18439774Y-29676063D01*
X18270256Y-29562795D01*
X18081898Y-29484774D01*
X17881939Y-29445000D01*
X17678061Y-29445000D01*
X17478102Y-29484774D01*
X17289744Y-29562795D01*
X17166715Y-29645000D01*
X14646018Y-29645000D01*
X14604999Y-29640960D01*
X14563981Y-29645000D01*
X14441311Y-29657082D01*
X14283913Y-29704828D01*
X14138854Y-29782364D01*
X14011709Y-29886709D01*
X13985559Y-29918573D01*
X7149518Y-36754615D01*
X7129236Y-36548691D01*
X7047182Y-36278192D01*
X6913932Y-36028899D01*
X6734608Y-35810392D01*
X6516101Y-35631068D01*
X6383142Y-35560000D01*
X6516101Y-35488932D01*
X6734608Y-35309608D01*
X6913932Y-35091101D01*
X7047182Y-34841808D01*
X7129236Y-34571309D01*
X7156943Y-34290000D01*
X7129236Y-34008691D01*
X7047182Y-33738192D01*
X6913932Y-33488899D01*
X6734608Y-33270392D01*
X6516101Y-33091068D01*
X6383142Y-33020000D01*
X6516101Y-32948932D01*
X6734608Y-32769608D01*
X6913932Y-32551101D01*
X7047182Y-32301808D01*
X7129236Y-32031309D01*
X7156943Y-31750000D01*
X7129236Y-31468691D01*
X7047182Y-31198192D01*
X6913932Y-30948899D01*
X6734608Y-30730392D01*
X6516101Y-30551068D01*
X6383142Y-30480000D01*
X6516101Y-30408932D01*
X6734608Y-30229608D01*
X6913932Y-30011101D01*
X7047182Y-29761808D01*
X7129236Y-29491309D01*
X7156943Y-29210000D01*
X7129236Y-28928691D01*
X7047182Y-28658192D01*
X6913932Y-28408899D01*
X6734608Y-28190392D01*
X6516101Y-28011068D01*
X6383142Y-27940000D01*
X6516101Y-27868932D01*
X6734608Y-27689608D01*
X6913932Y-27471101D01*
X7047182Y-27221808D01*
X7129236Y-26951309D01*
X7156943Y-26670000D01*
X7129236Y-26388691D01*
X7082615Y-26235000D01*
X17166715Y-26235000D01*
X17289744Y-26317205D01*
X17478102Y-26395226D01*
X17678061Y-26435000D01*
X17881939Y-26435000D01*
X18081898Y-26395226D01*
X18270256Y-26317205D01*
X18439774Y-26203937D01*
X18583937Y-26059774D01*
X18697205Y-25890256D01*
X18775226Y-25701898D01*
X18815000Y-25501939D01*
X18815000Y-25298061D01*
X18775226Y-25098102D01*
X18697205Y-24909744D01*
X18583937Y-24740226D01*
X18439774Y-24596063D01*
X18270256Y-24482795D01*
X18081898Y-24404774D01*
X17881939Y-24365000D01*
X17678061Y-24365000D01*
X17478102Y-24404774D01*
X17289744Y-24482795D01*
X17166715Y-24565000D01*
X7330868Y-24565000D01*
X7133534Y-24367667D01*
X7156943Y-24130000D01*
X19513057Y-24130000D01*
X19540764Y-24411309D01*
X19622818Y-24681808D01*
X19756068Y-24931101D01*
X19935392Y-25149608D01*
X20153899Y-25328932D01*
X20286858Y-25400000D01*
X20153899Y-25471068D01*
X19935392Y-25650392D01*
X19756068Y-25868899D01*
X19622818Y-26118192D01*
X19540764Y-26388691D01*
X19513057Y-26670000D01*
X19540764Y-26951309D01*
X19622818Y-27221808D01*
X19756068Y-27471101D01*
X19935392Y-27689608D01*
X20153899Y-27868932D01*
X20286858Y-27940000D01*
X20153899Y-28011068D01*
X19935392Y-28190392D01*
X19756068Y-28408899D01*
X19622818Y-28658192D01*
X19540764Y-28928691D01*
X19513057Y-29210000D01*
X19540764Y-29491309D01*
X19622818Y-29761808D01*
X19756068Y-30011101D01*
X19935392Y-30229608D01*
X20153899Y-30408932D01*
X20286858Y-30480000D01*
X20153899Y-30551068D01*
X19935392Y-30730392D01*
X19756068Y-30948899D01*
X19622818Y-31198192D01*
X19540764Y-31468691D01*
X19513057Y-31750000D01*
X19540764Y-32031309D01*
X19622818Y-32301808D01*
X19756068Y-32551101D01*
X19935392Y-32769608D01*
X20153899Y-32948932D01*
X20286858Y-33020000D01*
X20153899Y-33091068D01*
X19935392Y-33270392D01*
X19756068Y-33488899D01*
X19622818Y-33738192D01*
X19540764Y-34008691D01*
X19513057Y-34290000D01*
X19540764Y-34571309D01*
X19622818Y-34841808D01*
X19756068Y-35091101D01*
X19935392Y-35309608D01*
X20153899Y-35488932D01*
X20286858Y-35560000D01*
X20153899Y-35631068D01*
X19935392Y-35810392D01*
X19756068Y-36028899D01*
X19622818Y-36278192D01*
X19540764Y-36548691D01*
X19513057Y-36830000D01*
X19540764Y-37111309D01*
X19622818Y-37381808D01*
X19756068Y-37631101D01*
X19935392Y-37849608D01*
X20153899Y-38028932D01*
X20286858Y-38100000D01*
X20153899Y-38171068D01*
X19935392Y-38350392D01*
X19756068Y-38568899D01*
X19622818Y-38818192D01*
X19540764Y-39088691D01*
X19513057Y-39370000D01*
X19540764Y-39651309D01*
X19622818Y-39921808D01*
X19756068Y-40171101D01*
X19935392Y-40389608D01*
X20153899Y-40568932D01*
X20286858Y-40640000D01*
X20153899Y-40711068D01*
X19935392Y-40890392D01*
X19756068Y-41108899D01*
X19622818Y-41358192D01*
X19540764Y-41628691D01*
X19513057Y-41910000D01*
X19540764Y-42191309D01*
X19622818Y-42461808D01*
X19756068Y-42711101D01*
X19935392Y-42929608D01*
X20153899Y-43108932D01*
X20286858Y-43180000D01*
X20153899Y-43251068D01*
X19935392Y-43430392D01*
X19756068Y-43648899D01*
X19622818Y-43898192D01*
X19540764Y-44168691D01*
X19513057Y-44450000D01*
X19540764Y-44731309D01*
X19622818Y-45001808D01*
X19756068Y-45251101D01*
X19935392Y-45469608D01*
X20153899Y-45648932D01*
X20286858Y-45720000D01*
X20153899Y-45791068D01*
X19935392Y-45970392D01*
X19756068Y-46188899D01*
X19622818Y-46438192D01*
X19540764Y-46708691D01*
X19513057Y-46990000D01*
X19540764Y-47271309D01*
X19622818Y-47541808D01*
X19756068Y-47791101D01*
X19935392Y-48009608D01*
X20153899Y-48188932D01*
X20286858Y-48260000D01*
X20153899Y-48331068D01*
X19935392Y-48510392D01*
X19756068Y-48728899D01*
X19622818Y-48978192D01*
X19540764Y-49248691D01*
X19513057Y-49530000D01*
X19540764Y-49811309D01*
X19622818Y-50081808D01*
X19756068Y-50331101D01*
X19935392Y-50549608D01*
X20153899Y-50728932D01*
X20403192Y-50862182D01*
X20673691Y-50944236D01*
X20884508Y-50965000D01*
X21025492Y-50965000D01*
X21236309Y-50944236D01*
X21506808Y-50862182D01*
X21756101Y-50728932D01*
X21974608Y-50549608D01*
X22153932Y-50331101D01*
X22287182Y-50081808D01*
X22369236Y-49811309D01*
X22396943Y-49530000D01*
X22369236Y-49248691D01*
X22287182Y-48978192D01*
X22153932Y-48728899D01*
X21974608Y-48510392D01*
X21756101Y-48331068D01*
X21623142Y-48260000D01*
X21756101Y-48188932D01*
X21974608Y-48009608D01*
X22153932Y-47791101D01*
X22287182Y-47541808D01*
X22369236Y-47271309D01*
X22396943Y-46990000D01*
X22369236Y-46708691D01*
X22287182Y-46438192D01*
X22153932Y-46188899D01*
X21974608Y-45970392D01*
X21756101Y-45791068D01*
X21623142Y-45720000D01*
X21756101Y-45648932D01*
X21974608Y-45469608D01*
X22153932Y-45251101D01*
X22287182Y-45001808D01*
X22369236Y-44731309D01*
X22396943Y-44450000D01*
X22369236Y-44168691D01*
X22287182Y-43898192D01*
X22153932Y-43648899D01*
X21974608Y-43430392D01*
X21756101Y-43251068D01*
X21623142Y-43180000D01*
X21756101Y-43108932D01*
X21974608Y-42929608D01*
X22153932Y-42711101D01*
X22287182Y-42461808D01*
X22369236Y-42191309D01*
X22396943Y-41910000D01*
X22369236Y-41628691D01*
X22287182Y-41358192D01*
X22153932Y-41108899D01*
X21974608Y-40890392D01*
X21756101Y-40711068D01*
X21623142Y-40640000D01*
X21756101Y-40568932D01*
X21974608Y-40389608D01*
X22153932Y-40171101D01*
X22287182Y-39921808D01*
X22369236Y-39651309D01*
X22396943Y-39370000D01*
X22369236Y-39088691D01*
X22287182Y-38818192D01*
X22153932Y-38568899D01*
X21974608Y-38350392D01*
X21756101Y-38171068D01*
X21623142Y-38100000D01*
X21756101Y-38028932D01*
X21974608Y-37849608D01*
X22153932Y-37631101D01*
X22287182Y-37381808D01*
X22369236Y-37111309D01*
X22396943Y-36830000D01*
X22369236Y-36548691D01*
X22287182Y-36278192D01*
X22153932Y-36028899D01*
X21974608Y-35810392D01*
X21756101Y-35631068D01*
X21623142Y-35560000D01*
X21756101Y-35488932D01*
X21974608Y-35309608D01*
X22153932Y-35091101D01*
X22287182Y-34841808D01*
X22369236Y-34571309D01*
X22396943Y-34290000D01*
X22369236Y-34008691D01*
X22287182Y-33738192D01*
X22153932Y-33488899D01*
X21974608Y-33270392D01*
X21756101Y-33091068D01*
X21623142Y-33020000D01*
X21756101Y-32948932D01*
X21974608Y-32769608D01*
X22153932Y-32551101D01*
X22287182Y-32301808D01*
X22369236Y-32031309D01*
X22396943Y-31750000D01*
X22369236Y-31468691D01*
X22287182Y-31198192D01*
X22153932Y-30948899D01*
X21974608Y-30730392D01*
X21756101Y-30551068D01*
X21623142Y-30480000D01*
X21756101Y-30408932D01*
X21974608Y-30229608D01*
X22153932Y-30011101D01*
X22287182Y-29761808D01*
X22369236Y-29491309D01*
X22396943Y-29210000D01*
X22369236Y-28928691D01*
X22287182Y-28658192D01*
X22153932Y-28408899D01*
X21974608Y-28190392D01*
X21756101Y-28011068D01*
X21623142Y-27940000D01*
X21756101Y-27868932D01*
X21974608Y-27689608D01*
X22153932Y-27471101D01*
X22287182Y-27221808D01*
X22369236Y-26951309D01*
X22396943Y-26670000D01*
X22369236Y-26388691D01*
X22287182Y-26118192D01*
X22153932Y-25868899D01*
X21974608Y-25650392D01*
X21756101Y-25471068D01*
X21623142Y-25400000D01*
X21756101Y-25328932D01*
X21974608Y-25149608D01*
X22153932Y-24931101D01*
X22287182Y-24681808D01*
X22369236Y-24411309D01*
X22396943Y-24130000D01*
X22369236Y-23848691D01*
X22287182Y-23578192D01*
X22153932Y-23328899D01*
X21974608Y-23110392D01*
X21756101Y-22931068D01*
X21618318Y-22857421D01*
X21810131Y-22742385D01*
X22018519Y-22553414D01*
X22186037Y-22327420D01*
X22306246Y-22073087D01*
X22346904Y-21939039D01*
X22224915Y-21717000D01*
X21082000Y-21717000D01*
X21082000Y-21737000D01*
X20828000Y-21737000D01*
X20828000Y-21717000D01*
X19685085Y-21717000D01*
X19563096Y-21939039D01*
X19603754Y-22073087D01*
X19723963Y-22327420D01*
X19891481Y-22553414D01*
X20099869Y-22742385D01*
X20291682Y-22857421D01*
X20153899Y-22931068D01*
X19935392Y-23110392D01*
X19756068Y-23328899D01*
X19622818Y-23578192D01*
X19540764Y-23848691D01*
X19513057Y-24130000D01*
X7156943Y-24130000D01*
X7129236Y-23848691D01*
X7047182Y-23578192D01*
X6913932Y-23328899D01*
X6734608Y-23110392D01*
X6516101Y-22931068D01*
X6383142Y-22860000D01*
X6516101Y-22788932D01*
X6734608Y-22609608D01*
X6913932Y-22391101D01*
X7047182Y-22141808D01*
X7129236Y-21871309D01*
X7156943Y-21590000D01*
X7129236Y-21308691D01*
X7047182Y-21038192D01*
X6913932Y-20788899D01*
X6734608Y-20570392D01*
X6516101Y-20391068D01*
X6383142Y-20320000D01*
X6516101Y-20248932D01*
X6734608Y-20069608D01*
X6913932Y-19851101D01*
X7047182Y-19601808D01*
X7129236Y-19331309D01*
X7156943Y-19050000D01*
X7129236Y-18768691D01*
X7047182Y-18498192D01*
X6913932Y-18248899D01*
X6734608Y-18030392D01*
X6516101Y-17851068D01*
X6383142Y-17780000D01*
X6516101Y-17708932D01*
X6734608Y-17529608D01*
X6913932Y-17311101D01*
X7047182Y-17061808D01*
X7129236Y-16791309D01*
X7156943Y-16510000D01*
X7129236Y-16228691D01*
X7047182Y-15958192D01*
X6913932Y-15708899D01*
X6734608Y-15490392D01*
X6621518Y-15397581D01*
X6639482Y-15395812D01*
X6759180Y-15359502D01*
X6869494Y-15300537D01*
X6966185Y-15221185D01*
X7045537Y-15124494D01*
X7104502Y-15014180D01*
X7140812Y-14894482D01*
X7153072Y-14770000D01*
X7153072Y-13170000D01*
X7140812Y-13045518D01*
X7104502Y-12925820D01*
X7045537Y-12815506D01*
X6966185Y-12718815D01*
X6869494Y-12639463D01*
X6759180Y-12580498D01*
X6639482Y-12544188D01*
X6515000Y-12531928D01*
X5349999Y-12531928D01*
X5349999Y-9165868D01*
X9566928Y-4948940D01*
X9566928Y-5336250D01*
X9583392Y-5503408D01*
X9632150Y-5664142D01*
X9711329Y-5812275D01*
X9807500Y-5929461D01*
X9807501Y-13141471D01*
X9803460Y-13182500D01*
X9819582Y-13346188D01*
X9867328Y-13503586D01*
X9867329Y-13503587D01*
X9944865Y-13648646D01*
X10049210Y-13775791D01*
X10081074Y-13801941D01*
X13350563Y-17071432D01*
X13376709Y-17103291D01*
X13503854Y-17207636D01*
X13648913Y-17285172D01*
X13806311Y-17332918D01*
X13928981Y-17345000D01*
X13928982Y-17345000D01*
X13970000Y-17349040D01*
X14011018Y-17345000D01*
X19783888Y-17345000D01*
X19935392Y-17529608D01*
X20153899Y-17708932D01*
X20286858Y-17780000D01*
X20153899Y-17851068D01*
X19935392Y-18030392D01*
X19756068Y-18248899D01*
X19622818Y-18498192D01*
X19540764Y-18768691D01*
X19513057Y-19050000D01*
X19540764Y-19331309D01*
X19622818Y-19601808D01*
X19756068Y-19851101D01*
X19935392Y-20069608D01*
X20153899Y-20248932D01*
X20291682Y-20322579D01*
X20099869Y-20437615D01*
X19891481Y-20626586D01*
X19723963Y-20852580D01*
X19603754Y-21106913D01*
X19563096Y-21240961D01*
X19685085Y-21463000D01*
X20828000Y-21463000D01*
X20828000Y-21443000D01*
X21082000Y-21443000D01*
X21082000Y-21463000D01*
X22224915Y-21463000D01*
X22346904Y-21240961D01*
X22306246Y-21106913D01*
X22186037Y-20852580D01*
X22018519Y-20626586D01*
X21810131Y-20437615D01*
X21618318Y-20322579D01*
X21756101Y-20248932D01*
X21974608Y-20069608D01*
X22153932Y-19851101D01*
X22287182Y-19601808D01*
X22369236Y-19331309D01*
X22396943Y-19050000D01*
X22369236Y-18768691D01*
X22287182Y-18498192D01*
X22153932Y-18248899D01*
X21974608Y-18030392D01*
X21756101Y-17851068D01*
X21623142Y-17780000D01*
X21756101Y-17708932D01*
X21974608Y-17529608D01*
X22153932Y-17311101D01*
X22287182Y-17061808D01*
X22369236Y-16791309D01*
X22396943Y-16510000D01*
X22369236Y-16228691D01*
X22287182Y-15958192D01*
X22153932Y-15708899D01*
X21974608Y-15490392D01*
X21756101Y-15311068D01*
X21623142Y-15240000D01*
X21756101Y-15168932D01*
X21974608Y-14989608D01*
X22153932Y-14771101D01*
X22287182Y-14521808D01*
X22369236Y-14251309D01*
X22396943Y-13970000D01*
X22369236Y-13688691D01*
X22287182Y-13418192D01*
X22153932Y-13168899D01*
X21974608Y-12950392D01*
X21756101Y-12771068D01*
X21506808Y-12637818D01*
X21236309Y-12555764D01*
X21025492Y-12535000D01*
X20884508Y-12535000D01*
X20673691Y-12555764D01*
X20403192Y-12637818D01*
X20153899Y-12771068D01*
X19935392Y-12950392D01*
X19756068Y-13168899D01*
X19622818Y-13418192D01*
X19540764Y-13688691D01*
X19513057Y-13970000D01*
X19540764Y-14251309D01*
X19622818Y-14521808D01*
X19756068Y-14771101D01*
X19935392Y-14989608D01*
X20153899Y-15168932D01*
X20286858Y-15240000D01*
X20153899Y-15311068D01*
X19935392Y-15490392D01*
X19783888Y-15675000D01*
X14315869Y-15675000D01*
X11477500Y-12836633D01*
X11477500Y-9601565D01*
X30574040Y-9601565D01*
X30641020Y-9841656D01*
X30890048Y-9958756D01*
X31157135Y-10025023D01*
X31432017Y-10037910D01*
X31704133Y-9996922D01*
X31963023Y-9903636D01*
X32078980Y-9841656D01*
X32145960Y-9601565D01*
X31360000Y-8815605D01*
X30574040Y-9601565D01*
X11477500Y-9601565D01*
X11477500Y-8708017D01*
X29958090Y-8708017D01*
X29999078Y-8980133D01*
X30092364Y-9239023D01*
X30154344Y-9354980D01*
X30394435Y-9421960D01*
X31180395Y-8636000D01*
X31539605Y-8636000D01*
X32325565Y-9421960D01*
X32565656Y-9354980D01*
X32682756Y-9105952D01*
X32749023Y-8838865D01*
X32761910Y-8563983D01*
X32720922Y-8291867D01*
X32627636Y-8032977D01*
X32565656Y-7917020D01*
X32325565Y-7850040D01*
X31539605Y-8636000D01*
X31180395Y-8636000D01*
X30394435Y-7850040D01*
X30154344Y-7917020D01*
X30037244Y-8166048D01*
X29970977Y-8433135D01*
X29958090Y-8708017D01*
X11477500Y-8708017D01*
X11477500Y-7670435D01*
X30574040Y-7670435D01*
X31360000Y-8456395D01*
X32145960Y-7670435D01*
X32078980Y-7430344D01*
X31952261Y-7370757D01*
X31972023Y-7363636D01*
X32087980Y-7301656D01*
X32154960Y-7061565D01*
X31369000Y-6275605D01*
X30583040Y-7061565D01*
X30650020Y-7301656D01*
X30776739Y-7361243D01*
X30756977Y-7368364D01*
X30641020Y-7430344D01*
X30574040Y-7670435D01*
X11477500Y-7670435D01*
X11477500Y-6011556D01*
X11522725Y-6048671D01*
X11670858Y-6127850D01*
X11831592Y-6176608D01*
X11998750Y-6193072D01*
X12436250Y-6193072D01*
X12603408Y-6176608D01*
X12764142Y-6127850D01*
X12912275Y-6048671D01*
X13042115Y-5942115D01*
X13064368Y-5915000D01*
X24908632Y-5915000D01*
X24930885Y-5942115D01*
X25060725Y-6048671D01*
X25208858Y-6127850D01*
X25369592Y-6176608D01*
X25536750Y-6193072D01*
X25974250Y-6193072D01*
X26141408Y-6176608D01*
X26302142Y-6127850D01*
X26450275Y-6048671D01*
X26471930Y-6030900D01*
X26538506Y-6085537D01*
X26648820Y-6144502D01*
X26768518Y-6180812D01*
X26893000Y-6193072D01*
X27044750Y-6190000D01*
X27203500Y-6031250D01*
X27203500Y-5207000D01*
X27457500Y-5207000D01*
X27457500Y-6031250D01*
X27616250Y-6190000D01*
X27768000Y-6193072D01*
X27892482Y-6180812D01*
X27934661Y-6168017D01*
X29967090Y-6168017D01*
X30008078Y-6440133D01*
X30101364Y-6699023D01*
X30163344Y-6814980D01*
X30403435Y-6881960D01*
X31189395Y-6096000D01*
X31548605Y-6096000D01*
X32334565Y-6881960D01*
X32574656Y-6814980D01*
X32691756Y-6565952D01*
X32758023Y-6298865D01*
X32770910Y-6023983D01*
X32729922Y-5751867D01*
X32636636Y-5492977D01*
X32574656Y-5377020D01*
X32334565Y-5310040D01*
X31548605Y-6096000D01*
X31189395Y-6096000D01*
X30403435Y-5310040D01*
X30163344Y-5377020D01*
X30046244Y-5626048D01*
X29979977Y-5893135D01*
X29967090Y-6168017D01*
X27934661Y-6168017D01*
X28012180Y-6144502D01*
X28122494Y-6085537D01*
X28219185Y-6006185D01*
X28298537Y-5909494D01*
X28357502Y-5799180D01*
X28393812Y-5679482D01*
X28406072Y-5555000D01*
X28403000Y-5365750D01*
X28244250Y-5207000D01*
X27457500Y-5207000D01*
X27203500Y-5207000D01*
X27183500Y-5207000D01*
X27183500Y-5130435D01*
X30583040Y-5130435D01*
X31369000Y-5916395D01*
X32154960Y-5130435D01*
X32087980Y-4890344D01*
X31838952Y-4773244D01*
X31571865Y-4706977D01*
X31296983Y-4694090D01*
X31024867Y-4735078D01*
X30765977Y-4828364D01*
X30650020Y-4890344D01*
X30583040Y-5130435D01*
X27183500Y-5130435D01*
X27183500Y-4953000D01*
X27203500Y-4953000D01*
X27203500Y-4128750D01*
X27457500Y-4128750D01*
X27457500Y-4953000D01*
X28244250Y-4953000D01*
X28403000Y-4794250D01*
X28406072Y-4605000D01*
X28393812Y-4480518D01*
X28357502Y-4360820D01*
X28298537Y-4250506D01*
X28219185Y-4153815D01*
X28122494Y-4074463D01*
X28012180Y-4015498D01*
X27892482Y-3979188D01*
X27768000Y-3966928D01*
X27616250Y-3970000D01*
X27457500Y-4128750D01*
X27203500Y-4128750D01*
X27044750Y-3970000D01*
X26893000Y-3966928D01*
X26768518Y-3979188D01*
X26648820Y-4015498D01*
X26538506Y-4074463D01*
X26471930Y-4129100D01*
X26450275Y-4111329D01*
X26302142Y-4032150D01*
X26141408Y-3983392D01*
X25974250Y-3966928D01*
X25536750Y-3966928D01*
X25369592Y-3983392D01*
X25208858Y-4032150D01*
X25060725Y-4111329D01*
X24930885Y-4217885D01*
X24908632Y-4245000D01*
X13064368Y-4245000D01*
X13042115Y-4217885D01*
X12912275Y-4111329D01*
X12764142Y-4032150D01*
X12603408Y-3983392D01*
X12436250Y-3966928D01*
X11998750Y-3966928D01*
X11831592Y-3983392D01*
X11670858Y-4032150D01*
X11522725Y-4111329D01*
X11430000Y-4187426D01*
X11337275Y-4111329D01*
X11189142Y-4032150D01*
X11028408Y-3983392D01*
X10861250Y-3966928D01*
X10548941Y-3966928D01*
X10862966Y-3652903D01*
X11028408Y-3636608D01*
X11189142Y-3587850D01*
X11337275Y-3508671D01*
X11430000Y-3432574D01*
X11522725Y-3508671D01*
X11670858Y-3587850D01*
X11831592Y-3636608D01*
X11998750Y-3653072D01*
X12436250Y-3653072D01*
X12603408Y-3636608D01*
X12764142Y-3587850D01*
X12912275Y-3508671D01*
X13042115Y-3402115D01*
X13064368Y-3375000D01*
X24883132Y-3375000D01*
X24905385Y-3402115D01*
X25035225Y-3508671D01*
X25183358Y-3587850D01*
X25344092Y-3636608D01*
X25511250Y-3653072D01*
X25948750Y-3653072D01*
X26115908Y-3636608D01*
X26276642Y-3587850D01*
X26424775Y-3508671D01*
X26446430Y-3490900D01*
X26513006Y-3545537D01*
X26623320Y-3604502D01*
X26743018Y-3640812D01*
X26867500Y-3653072D01*
X27019250Y-3650000D01*
X27178000Y-3491250D01*
X27178000Y-2667000D01*
X27432000Y-2667000D01*
X27432000Y-3491250D01*
X27590750Y-3650000D01*
X27742500Y-3653072D01*
X27866982Y-3640812D01*
X27986680Y-3604502D01*
X28096994Y-3545537D01*
X28193685Y-3466185D01*
X28273037Y-3369494D01*
X28332002Y-3259180D01*
X28368312Y-3139482D01*
X28380572Y-3015000D01*
X28377500Y-2825750D01*
X28218750Y-2667000D01*
X27432000Y-2667000D01*
X27178000Y-2667000D01*
X27158000Y-2667000D01*
X27158000Y-2413000D01*
X27178000Y-2413000D01*
X27178000Y-1588750D01*
X27432000Y-1588750D01*
X27432000Y-2413000D01*
X28218750Y-2413000D01*
X28377500Y-2254250D01*
X28380572Y-2065000D01*
X28368312Y-1940518D01*
X28332002Y-1820820D01*
X28273037Y-1710506D01*
X28193685Y-1613815D01*
X28096994Y-1534463D01*
X27986680Y-1475498D01*
X27866982Y-1439188D01*
X27742500Y-1426928D01*
X27590750Y-1430000D01*
X27432000Y-1588750D01*
X27178000Y-1588750D01*
X27019250Y-1430000D01*
X26867500Y-1426928D01*
X26743018Y-1439188D01*
X26623320Y-1475498D01*
X26513006Y-1534463D01*
X26446430Y-1589100D01*
X26424775Y-1571329D01*
X26276642Y-1492150D01*
X26115908Y-1443392D01*
X25948750Y-1426928D01*
X25511250Y-1426928D01*
X25344092Y-1443392D01*
X25183358Y-1492150D01*
X25035225Y-1571329D01*
X24905385Y-1677885D01*
X24883132Y-1705000D01*
X13064368Y-1705000D01*
X13042115Y-1677885D01*
X12912275Y-1571329D01*
X12764142Y-1492150D01*
X12603408Y-1443392D01*
X12436250Y-1426928D01*
X11998750Y-1426928D01*
X11831592Y-1443392D01*
X11670858Y-1492150D01*
X11522725Y-1571329D01*
X11430000Y-1647426D01*
X11337275Y-1571329D01*
X11189142Y-1492150D01*
X11028408Y-1443392D01*
X10861250Y-1426928D01*
X10423750Y-1426928D01*
X10256592Y-1443392D01*
X10095858Y-1492150D01*
X9947725Y-1571329D01*
X9817885Y-1677885D01*
X9711329Y-1807725D01*
X9632150Y-1955858D01*
X9583392Y-2116592D01*
X9566928Y-2283750D01*
X9566928Y-2587203D01*
X3953573Y-8200560D01*
X3921709Y-8226710D01*
X3895561Y-8258572D01*
X3817363Y-8353856D01*
X3739827Y-8498915D01*
X3692081Y-8656313D01*
X3675959Y-8820001D01*
X-3150000Y-8820001D01*
X-3150000Y220128D01*
X-2235000Y220128D01*
X-2235000Y-220128D01*
X-2149110Y-651925D01*
X-1980631Y-1058669D01*
X-1736038Y-1424729D01*
X-1424729Y-1736038D01*
X-1058669Y-1980631D01*
X-651925Y-2149110D01*
X-220128Y-2235000D01*
X220128Y-2235000D01*
X651925Y-2149110D01*
X1058669Y-1980631D01*
X1424729Y-1736038D01*
X1736038Y-1424729D01*
X1980631Y-1058669D01*
X2149110Y-651925D01*
X2235000Y-220128D01*
X2235000Y220128D01*
X2149110Y651925D01*
X1980631Y1058669D01*
X1736038Y1424729D01*
X1424729Y1736038D01*
X1058669Y1980631D01*
X651925Y2149110D01*
X220128Y2235000D01*
X-220128Y2235000D01*
X-651925Y2149110D01*
X-1058669Y1980631D01*
X-1424729Y1736038D01*
X-1736038Y1424729D01*
X-1980631Y1058669D01*
X-2149110Y651925D01*
X-2235000Y220128D01*
X-3150000Y220128D01*
X-3150000Y3150000D01*
X40513000Y3150000D01*
X40513000Y-11938000D01*
M02*
