M48
; DRILL file {KiCad (5.1.4-0)} date Tuesday, September 03, 2019 at 05:01:49 PM
; FORMAT={-:-/ absolute / inch / decimal}
; #@! TF.CreationDate,2019-09-03T17:01:49-05:00
; #@! TF.GenerationSoftware,Kicad,Pcbnew,(5.1.4-0)
; #@! TF.FileFunction,Plated,1,2,PTH
FMAT,2
INCH
T1C0.0157
T2C0.0295
T3C0.0300
T4C0.0315
%
G90
G05
T1
X0.7Y-1.0
X0.7Y-1.2
X0.7Y-1.3
X1.05Y-0.95
X1.05Y-1.075
X1.05Y-1.175
X1.075Y-1.025
X1.075Y-1.125
X1.125Y-1.025
X1.125Y-1.125
X1.475Y-2.05
X1.5Y-1.3
X1.5Y-1.5
X1.55Y-1.3
X1.55Y-1.5
X1.55Y-1.7
X1.55Y-1.9
X1.65Y-1.1
X1.675Y-1.5
X1.675Y-2.05
X1.7494Y-1.3506
X1.75Y-1.3
X1.775Y-2.0
X2.025Y-1.15
X2.025Y-1.3
X2.025Y-1.35
X2.075Y-1.15
T2
X1.2Y-1.45
X1.2Y-1.5287
X1.19Y-1.8463
X1.19Y-1.925
T3
X1.2346Y-0.34
X1.235Y-0.24
X1.235Y-0.66
X1.235Y-0.76
X1.9646Y-0.34
X1.965Y-0.24
X1.965Y-0.66
X1.965Y-0.76
T4
X0.225Y-0.55
X0.225Y-0.65
X0.225Y-0.75
X0.225Y-0.85
X0.225Y-0.95
X0.225Y-1.05
X0.225Y-1.15
X0.225Y-1.25
X0.225Y-1.35
X0.225Y-1.45
X0.225Y-1.55
X0.225Y-1.65
X0.225Y-1.75
X0.225Y-1.85
X0.225Y-1.95
X0.825Y-0.55
X0.825Y-0.65
X0.825Y-0.75
X0.825Y-0.85
X0.825Y-0.95
X0.825Y-1.05
X0.825Y-1.15
X0.825Y-1.25
X0.825Y-1.35
X0.825Y-1.45
X0.825Y-1.55
X0.825Y-1.65
X0.825Y-1.75
X0.825Y-1.85
X0.825Y-1.95
T4
G00X1.7185Y-1.2031
M15
G01X1.7185Y-1.0969
M16
G05
G00X1.8602Y-0.961
M15
G01X1.7736Y-0.961
M16
G05
G00X1.9547Y-1.1933
M15
G01X1.9547Y-1.1067
M16
G05
T0
M30
